%TF.GenerationSoftware,KiCad,Pcbnew,7.0.7*%
%TF.CreationDate,2023-09-12T14:39:03-06:00*%
%TF.ProjectId,DJBB Drumpad V2 Pico,444a4242-2044-4727-956d-706164205632,V01*%
%TF.SameCoordinates,Original*%
%TF.FileFunction,Legend,Top*%
%TF.FilePolarity,Positive*%
%FSLAX46Y46*%
G04 Gerber Fmt 4.6, Leading zero omitted, Abs format (unit mm)*
G04 Created by KiCad (PCBNEW 7.0.7) date 2023-09-12 14:39:03*
%MOMM*%
%LPD*%
G01*
G04 APERTURE LIST*
%ADD10C,0.150000*%
%ADD11C,0.120000*%
%ADD12O,1.800000X1.800000*%
%ADD13O,1.500000X1.500000*%
%ADD14O,1.700000X1.700000*%
%ADD15R,1.700000X1.700000*%
%ADD16C,1.900000*%
%ADD17C,4.000000*%
%ADD18O,2.000000X2.500000*%
%ADD19O,2.500000X2.000000*%
%ADD20C,1.600000*%
%ADD21O,1.600000X1.600000*%
%ADD22C,1.524000*%
%ADD23O,2.900000X3.000000*%
%ADD24O,1.600000X2.000000*%
%ADD25C,1.700000*%
G04 APERTURE END LIST*
D10*
X166301009Y-110250286D02*
X166301009Y-110583619D01*
X166824819Y-110583619D02*
X165824819Y-110583619D01*
X165824819Y-110583619D02*
X165824819Y-110107429D01*
X166824819Y-109583619D02*
X166777200Y-109678857D01*
X166777200Y-109678857D02*
X166729580Y-109726476D01*
X166729580Y-109726476D02*
X166634342Y-109774095D01*
X166634342Y-109774095D02*
X166348628Y-109774095D01*
X166348628Y-109774095D02*
X166253390Y-109726476D01*
X166253390Y-109726476D02*
X166205771Y-109678857D01*
X166205771Y-109678857D02*
X166158152Y-109583619D01*
X166158152Y-109583619D02*
X166158152Y-109440762D01*
X166158152Y-109440762D02*
X166205771Y-109345524D01*
X166205771Y-109345524D02*
X166253390Y-109297905D01*
X166253390Y-109297905D02*
X166348628Y-109250286D01*
X166348628Y-109250286D02*
X166634342Y-109250286D01*
X166634342Y-109250286D02*
X166729580Y-109297905D01*
X166729580Y-109297905D02*
X166777200Y-109345524D01*
X166777200Y-109345524D02*
X166824819Y-109440762D01*
X166824819Y-109440762D02*
X166824819Y-109583619D01*
X166824819Y-108821714D02*
X166158152Y-108821714D01*
X166348628Y-108821714D02*
X166253390Y-108774095D01*
X166253390Y-108774095D02*
X166205771Y-108726476D01*
X166205771Y-108726476D02*
X166158152Y-108631238D01*
X166158152Y-108631238D02*
X166158152Y-108536000D01*
X166824819Y-107440761D02*
X165824819Y-107440761D01*
X166158152Y-106964571D02*
X166824819Y-106964571D01*
X166253390Y-106964571D02*
X166205771Y-106916952D01*
X166205771Y-106916952D02*
X166158152Y-106821714D01*
X166158152Y-106821714D02*
X166158152Y-106678857D01*
X166158152Y-106678857D02*
X166205771Y-106583619D01*
X166205771Y-106583619D02*
X166301009Y-106536000D01*
X166301009Y-106536000D02*
X166824819Y-106536000D01*
X166777200Y-106107428D02*
X166824819Y-106012190D01*
X166824819Y-106012190D02*
X166824819Y-105821714D01*
X166824819Y-105821714D02*
X166777200Y-105726476D01*
X166777200Y-105726476D02*
X166681961Y-105678857D01*
X166681961Y-105678857D02*
X166634342Y-105678857D01*
X166634342Y-105678857D02*
X166539104Y-105726476D01*
X166539104Y-105726476D02*
X166491485Y-105821714D01*
X166491485Y-105821714D02*
X166491485Y-105964571D01*
X166491485Y-105964571D02*
X166443866Y-106059809D01*
X166443866Y-106059809D02*
X166348628Y-106107428D01*
X166348628Y-106107428D02*
X166301009Y-106107428D01*
X166301009Y-106107428D02*
X166205771Y-106059809D01*
X166205771Y-106059809D02*
X166158152Y-105964571D01*
X166158152Y-105964571D02*
X166158152Y-105821714D01*
X166158152Y-105821714D02*
X166205771Y-105726476D01*
X166158152Y-105393142D02*
X166158152Y-105012190D01*
X165824819Y-105250285D02*
X166681961Y-105250285D01*
X166681961Y-105250285D02*
X166777200Y-105202666D01*
X166777200Y-105202666D02*
X166824819Y-105107428D01*
X166824819Y-105107428D02*
X166824819Y-105012190D01*
X166824819Y-104678856D02*
X166158152Y-104678856D01*
X166348628Y-104678856D02*
X166253390Y-104631237D01*
X166253390Y-104631237D02*
X166205771Y-104583618D01*
X166205771Y-104583618D02*
X166158152Y-104488380D01*
X166158152Y-104488380D02*
X166158152Y-104393142D01*
X166158152Y-103631237D02*
X166824819Y-103631237D01*
X166158152Y-104059808D02*
X166681961Y-104059808D01*
X166681961Y-104059808D02*
X166777200Y-104012189D01*
X166777200Y-104012189D02*
X166824819Y-103916951D01*
X166824819Y-103916951D02*
X166824819Y-103774094D01*
X166824819Y-103774094D02*
X166777200Y-103678856D01*
X166777200Y-103678856D02*
X166729580Y-103631237D01*
X166777200Y-102726475D02*
X166824819Y-102821713D01*
X166824819Y-102821713D02*
X166824819Y-103012189D01*
X166824819Y-103012189D02*
X166777200Y-103107427D01*
X166777200Y-103107427D02*
X166729580Y-103155046D01*
X166729580Y-103155046D02*
X166634342Y-103202665D01*
X166634342Y-103202665D02*
X166348628Y-103202665D01*
X166348628Y-103202665D02*
X166253390Y-103155046D01*
X166253390Y-103155046D02*
X166205771Y-103107427D01*
X166205771Y-103107427D02*
X166158152Y-103012189D01*
X166158152Y-103012189D02*
X166158152Y-102821713D01*
X166158152Y-102821713D02*
X166205771Y-102726475D01*
X166158152Y-102440760D02*
X166158152Y-102059808D01*
X165824819Y-102297903D02*
X166681961Y-102297903D01*
X166681961Y-102297903D02*
X166777200Y-102250284D01*
X166777200Y-102250284D02*
X166824819Y-102155046D01*
X166824819Y-102155046D02*
X166824819Y-102059808D01*
X166824819Y-101726474D02*
X166158152Y-101726474D01*
X165824819Y-101726474D02*
X165872438Y-101774093D01*
X165872438Y-101774093D02*
X165920057Y-101726474D01*
X165920057Y-101726474D02*
X165872438Y-101678855D01*
X165872438Y-101678855D02*
X165824819Y-101726474D01*
X165824819Y-101726474D02*
X165920057Y-101726474D01*
X166824819Y-101107427D02*
X166777200Y-101202665D01*
X166777200Y-101202665D02*
X166729580Y-101250284D01*
X166729580Y-101250284D02*
X166634342Y-101297903D01*
X166634342Y-101297903D02*
X166348628Y-101297903D01*
X166348628Y-101297903D02*
X166253390Y-101250284D01*
X166253390Y-101250284D02*
X166205771Y-101202665D01*
X166205771Y-101202665D02*
X166158152Y-101107427D01*
X166158152Y-101107427D02*
X166158152Y-100964570D01*
X166158152Y-100964570D02*
X166205771Y-100869332D01*
X166205771Y-100869332D02*
X166253390Y-100821713D01*
X166253390Y-100821713D02*
X166348628Y-100774094D01*
X166348628Y-100774094D02*
X166634342Y-100774094D01*
X166634342Y-100774094D02*
X166729580Y-100821713D01*
X166729580Y-100821713D02*
X166777200Y-100869332D01*
X166777200Y-100869332D02*
X166824819Y-100964570D01*
X166824819Y-100964570D02*
X166824819Y-101107427D01*
X166158152Y-100345522D02*
X166824819Y-100345522D01*
X166253390Y-100345522D02*
X166205771Y-100297903D01*
X166205771Y-100297903D02*
X166158152Y-100202665D01*
X166158152Y-100202665D02*
X166158152Y-100059808D01*
X166158152Y-100059808D02*
X166205771Y-99964570D01*
X166205771Y-99964570D02*
X166301009Y-99916951D01*
X166301009Y-99916951D02*
X166824819Y-99916951D01*
X166777200Y-99488379D02*
X166824819Y-99393141D01*
X166824819Y-99393141D02*
X166824819Y-99202665D01*
X166824819Y-99202665D02*
X166777200Y-99107427D01*
X166777200Y-99107427D02*
X166681961Y-99059808D01*
X166681961Y-99059808D02*
X166634342Y-99059808D01*
X166634342Y-99059808D02*
X166539104Y-99107427D01*
X166539104Y-99107427D02*
X166491485Y-99202665D01*
X166491485Y-99202665D02*
X166491485Y-99345522D01*
X166491485Y-99345522D02*
X166443866Y-99440760D01*
X166443866Y-99440760D02*
X166348628Y-99488379D01*
X166348628Y-99488379D02*
X166301009Y-99488379D01*
X166301009Y-99488379D02*
X166205771Y-99440760D01*
X166205771Y-99440760D02*
X166158152Y-99345522D01*
X166158152Y-99345522D02*
X166158152Y-99202665D01*
X166158152Y-99202665D02*
X166205771Y-99107427D01*
X166443866Y-97869331D02*
X166443866Y-97107427D01*
X166824819Y-95440760D02*
X165824819Y-95440760D01*
X166777200Y-95440760D02*
X166824819Y-95535998D01*
X166824819Y-95535998D02*
X166824819Y-95726474D01*
X166824819Y-95726474D02*
X166777200Y-95821712D01*
X166777200Y-95821712D02*
X166729580Y-95869331D01*
X166729580Y-95869331D02*
X166634342Y-95916950D01*
X166634342Y-95916950D02*
X166348628Y-95916950D01*
X166348628Y-95916950D02*
X166253390Y-95869331D01*
X166253390Y-95869331D02*
X166205771Y-95821712D01*
X166205771Y-95821712D02*
X166158152Y-95726474D01*
X166158152Y-95726474D02*
X166158152Y-95535998D01*
X166158152Y-95535998D02*
X166205771Y-95440760D01*
X166158152Y-94964569D02*
X167015295Y-94964569D01*
X167015295Y-94964569D02*
X167110533Y-95012188D01*
X167110533Y-95012188D02*
X167158152Y-95107426D01*
X167158152Y-95107426D02*
X167158152Y-95155045D01*
X165824819Y-94964569D02*
X165872438Y-95012188D01*
X165872438Y-95012188D02*
X165920057Y-94964569D01*
X165920057Y-94964569D02*
X165872438Y-94916950D01*
X165872438Y-94916950D02*
X165824819Y-94964569D01*
X165824819Y-94964569D02*
X165920057Y-94964569D01*
X166824819Y-94488379D02*
X165824819Y-94488379D01*
X166205771Y-94488379D02*
X166158152Y-94393141D01*
X166158152Y-94393141D02*
X166158152Y-94202665D01*
X166158152Y-94202665D02*
X166205771Y-94107427D01*
X166205771Y-94107427D02*
X166253390Y-94059808D01*
X166253390Y-94059808D02*
X166348628Y-94012189D01*
X166348628Y-94012189D02*
X166634342Y-94012189D01*
X166634342Y-94012189D02*
X166729580Y-94059808D01*
X166729580Y-94059808D02*
X166777200Y-94107427D01*
X166777200Y-94107427D02*
X166824819Y-94202665D01*
X166824819Y-94202665D02*
X166824819Y-94393141D01*
X166824819Y-94393141D02*
X166777200Y-94488379D01*
X166824819Y-93155046D02*
X166301009Y-93155046D01*
X166301009Y-93155046D02*
X166205771Y-93202665D01*
X166205771Y-93202665D02*
X166158152Y-93297903D01*
X166158152Y-93297903D02*
X166158152Y-93488379D01*
X166158152Y-93488379D02*
X166205771Y-93583617D01*
X166777200Y-93155046D02*
X166824819Y-93250284D01*
X166824819Y-93250284D02*
X166824819Y-93488379D01*
X166824819Y-93488379D02*
X166777200Y-93583617D01*
X166777200Y-93583617D02*
X166681961Y-93631236D01*
X166681961Y-93631236D02*
X166586723Y-93631236D01*
X166586723Y-93631236D02*
X166491485Y-93583617D01*
X166491485Y-93583617D02*
X166443866Y-93488379D01*
X166443866Y-93488379D02*
X166443866Y-93250284D01*
X166443866Y-93250284D02*
X166396247Y-93155046D01*
X166158152Y-92678855D02*
X167015295Y-92678855D01*
X167015295Y-92678855D02*
X167110533Y-92726474D01*
X167110533Y-92726474D02*
X167158152Y-92821712D01*
X167158152Y-92821712D02*
X167158152Y-92869331D01*
X165824819Y-92678855D02*
X165872438Y-92726474D01*
X165872438Y-92726474D02*
X165920057Y-92678855D01*
X165920057Y-92678855D02*
X165872438Y-92631236D01*
X165872438Y-92631236D02*
X165824819Y-92678855D01*
X165824819Y-92678855D02*
X165920057Y-92678855D01*
X166824819Y-91774094D02*
X166301009Y-91774094D01*
X166301009Y-91774094D02*
X166205771Y-91821713D01*
X166205771Y-91821713D02*
X166158152Y-91916951D01*
X166158152Y-91916951D02*
X166158152Y-92107427D01*
X166158152Y-92107427D02*
X166205771Y-92202665D01*
X166777200Y-91774094D02*
X166824819Y-91869332D01*
X166824819Y-91869332D02*
X166824819Y-92107427D01*
X166824819Y-92107427D02*
X166777200Y-92202665D01*
X166777200Y-92202665D02*
X166681961Y-92250284D01*
X166681961Y-92250284D02*
X166586723Y-92250284D01*
X166586723Y-92250284D02*
X166491485Y-92202665D01*
X166491485Y-92202665D02*
X166443866Y-92107427D01*
X166443866Y-92107427D02*
X166443866Y-91869332D01*
X166443866Y-91869332D02*
X166396247Y-91774094D01*
X166824819Y-91297903D02*
X165824819Y-91297903D01*
X166205771Y-91297903D02*
X166158152Y-91202665D01*
X166158152Y-91202665D02*
X166158152Y-91012189D01*
X166158152Y-91012189D02*
X166205771Y-90916951D01*
X166205771Y-90916951D02*
X166253390Y-90869332D01*
X166253390Y-90869332D02*
X166348628Y-90821713D01*
X166348628Y-90821713D02*
X166634342Y-90821713D01*
X166634342Y-90821713D02*
X166729580Y-90869332D01*
X166729580Y-90869332D02*
X166777200Y-90916951D01*
X166777200Y-90916951D02*
X166824819Y-91012189D01*
X166824819Y-91012189D02*
X166824819Y-91202665D01*
X166824819Y-91202665D02*
X166777200Y-91297903D01*
X166824819Y-90250284D02*
X166777200Y-90345522D01*
X166777200Y-90345522D02*
X166681961Y-90393141D01*
X166681961Y-90393141D02*
X165824819Y-90393141D01*
X166824819Y-89440760D02*
X166301009Y-89440760D01*
X166301009Y-89440760D02*
X166205771Y-89488379D01*
X166205771Y-89488379D02*
X166158152Y-89583617D01*
X166158152Y-89583617D02*
X166158152Y-89774093D01*
X166158152Y-89774093D02*
X166205771Y-89869331D01*
X166777200Y-89440760D02*
X166824819Y-89535998D01*
X166824819Y-89535998D02*
X166824819Y-89774093D01*
X166824819Y-89774093D02*
X166777200Y-89869331D01*
X166777200Y-89869331D02*
X166681961Y-89916950D01*
X166681961Y-89916950D02*
X166586723Y-89916950D01*
X166586723Y-89916950D02*
X166491485Y-89869331D01*
X166491485Y-89869331D02*
X166443866Y-89774093D01*
X166443866Y-89774093D02*
X166443866Y-89535998D01*
X166443866Y-89535998D02*
X166396247Y-89440760D01*
X166777200Y-89012188D02*
X166824819Y-88916950D01*
X166824819Y-88916950D02*
X166824819Y-88726474D01*
X166824819Y-88726474D02*
X166777200Y-88631236D01*
X166777200Y-88631236D02*
X166681961Y-88583617D01*
X166681961Y-88583617D02*
X166634342Y-88583617D01*
X166634342Y-88583617D02*
X166539104Y-88631236D01*
X166539104Y-88631236D02*
X166491485Y-88726474D01*
X166491485Y-88726474D02*
X166491485Y-88869331D01*
X166491485Y-88869331D02*
X166443866Y-88964569D01*
X166443866Y-88964569D02*
X166348628Y-89012188D01*
X166348628Y-89012188D02*
X166301009Y-89012188D01*
X166301009Y-89012188D02*
X166205771Y-88964569D01*
X166205771Y-88964569D02*
X166158152Y-88869331D01*
X166158152Y-88869331D02*
X166158152Y-88726474D01*
X166158152Y-88726474D02*
X166205771Y-88631236D01*
X166158152Y-88297902D02*
X166158152Y-87916950D01*
X165824819Y-88155045D02*
X166681961Y-88155045D01*
X166681961Y-88155045D02*
X166777200Y-88107426D01*
X166777200Y-88107426D02*
X166824819Y-88012188D01*
X166824819Y-88012188D02*
X166824819Y-87916950D01*
X166729580Y-87583616D02*
X166777200Y-87535997D01*
X166777200Y-87535997D02*
X166824819Y-87583616D01*
X166824819Y-87583616D02*
X166777200Y-87631235D01*
X166777200Y-87631235D02*
X166729580Y-87583616D01*
X166729580Y-87583616D02*
X166824819Y-87583616D01*
X166777200Y-86678855D02*
X166824819Y-86774093D01*
X166824819Y-86774093D02*
X166824819Y-86964569D01*
X166824819Y-86964569D02*
X166777200Y-87059807D01*
X166777200Y-87059807D02*
X166729580Y-87107426D01*
X166729580Y-87107426D02*
X166634342Y-87155045D01*
X166634342Y-87155045D02*
X166348628Y-87155045D01*
X166348628Y-87155045D02*
X166253390Y-87107426D01*
X166253390Y-87107426D02*
X166205771Y-87059807D01*
X166205771Y-87059807D02*
X166158152Y-86964569D01*
X166158152Y-86964569D02*
X166158152Y-86774093D01*
X166158152Y-86774093D02*
X166205771Y-86678855D01*
X166824819Y-86107426D02*
X166777200Y-86202664D01*
X166777200Y-86202664D02*
X166729580Y-86250283D01*
X166729580Y-86250283D02*
X166634342Y-86297902D01*
X166634342Y-86297902D02*
X166348628Y-86297902D01*
X166348628Y-86297902D02*
X166253390Y-86250283D01*
X166253390Y-86250283D02*
X166205771Y-86202664D01*
X166205771Y-86202664D02*
X166158152Y-86107426D01*
X166158152Y-86107426D02*
X166158152Y-85964569D01*
X166158152Y-85964569D02*
X166205771Y-85869331D01*
X166205771Y-85869331D02*
X166253390Y-85821712D01*
X166253390Y-85821712D02*
X166348628Y-85774093D01*
X166348628Y-85774093D02*
X166634342Y-85774093D01*
X166634342Y-85774093D02*
X166729580Y-85821712D01*
X166729580Y-85821712D02*
X166777200Y-85869331D01*
X166777200Y-85869331D02*
X166824819Y-85964569D01*
X166824819Y-85964569D02*
X166824819Y-86107426D01*
X166824819Y-85345521D02*
X166158152Y-85345521D01*
X166253390Y-85345521D02*
X166205771Y-85297902D01*
X166205771Y-85297902D02*
X166158152Y-85202664D01*
X166158152Y-85202664D02*
X166158152Y-85059807D01*
X166158152Y-85059807D02*
X166205771Y-84964569D01*
X166205771Y-84964569D02*
X166301009Y-84916950D01*
X166301009Y-84916950D02*
X166824819Y-84916950D01*
X166301009Y-84916950D02*
X166205771Y-84869331D01*
X166205771Y-84869331D02*
X166158152Y-84774093D01*
X166158152Y-84774093D02*
X166158152Y-84631236D01*
X166158152Y-84631236D02*
X166205771Y-84535997D01*
X166205771Y-84535997D02*
X166301009Y-84488378D01*
X166301009Y-84488378D02*
X166824819Y-84488378D01*
X111919809Y-162252819D02*
X111919809Y-161252819D01*
X111919809Y-162205200D02*
X111824571Y-162252819D01*
X111824571Y-162252819D02*
X111634095Y-162252819D01*
X111634095Y-162252819D02*
X111538857Y-162205200D01*
X111538857Y-162205200D02*
X111491238Y-162157580D01*
X111491238Y-162157580D02*
X111443619Y-162062342D01*
X111443619Y-162062342D02*
X111443619Y-161776628D01*
X111443619Y-161776628D02*
X111491238Y-161681390D01*
X111491238Y-161681390D02*
X111538857Y-161633771D01*
X111538857Y-161633771D02*
X111634095Y-161586152D01*
X111634095Y-161586152D02*
X111824571Y-161586152D01*
X111824571Y-161586152D02*
X111919809Y-161633771D01*
X112396000Y-161586152D02*
X112396000Y-162443295D01*
X112396000Y-162443295D02*
X112348381Y-162538533D01*
X112348381Y-162538533D02*
X112253143Y-162586152D01*
X112253143Y-162586152D02*
X112205524Y-162586152D01*
X112396000Y-161252819D02*
X112348381Y-161300438D01*
X112348381Y-161300438D02*
X112396000Y-161348057D01*
X112396000Y-161348057D02*
X112443619Y-161300438D01*
X112443619Y-161300438D02*
X112396000Y-161252819D01*
X112396000Y-161252819D02*
X112396000Y-161348057D01*
X112872190Y-162252819D02*
X112872190Y-161252819D01*
X112872190Y-161633771D02*
X112967428Y-161586152D01*
X112967428Y-161586152D02*
X113157904Y-161586152D01*
X113157904Y-161586152D02*
X113253142Y-161633771D01*
X113253142Y-161633771D02*
X113300761Y-161681390D01*
X113300761Y-161681390D02*
X113348380Y-161776628D01*
X113348380Y-161776628D02*
X113348380Y-162062342D01*
X113348380Y-162062342D02*
X113300761Y-162157580D01*
X113300761Y-162157580D02*
X113253142Y-162205200D01*
X113253142Y-162205200D02*
X113157904Y-162252819D01*
X113157904Y-162252819D02*
X112967428Y-162252819D01*
X112967428Y-162252819D02*
X112872190Y-162205200D01*
X113776952Y-162252819D02*
X113776952Y-161252819D01*
X113776952Y-161633771D02*
X113872190Y-161586152D01*
X113872190Y-161586152D02*
X114062666Y-161586152D01*
X114062666Y-161586152D02*
X114157904Y-161633771D01*
X114157904Y-161633771D02*
X114205523Y-161681390D01*
X114205523Y-161681390D02*
X114253142Y-161776628D01*
X114253142Y-161776628D02*
X114253142Y-162062342D01*
X114253142Y-162062342D02*
X114205523Y-162157580D01*
X114205523Y-162157580D02*
X114157904Y-162205200D01*
X114157904Y-162205200D02*
X114062666Y-162252819D01*
X114062666Y-162252819D02*
X113872190Y-162252819D01*
X113872190Y-162252819D02*
X113776952Y-162205200D01*
X115443619Y-162252819D02*
X115443619Y-161586152D01*
X115443619Y-161681390D02*
X115491238Y-161633771D01*
X115491238Y-161633771D02*
X115586476Y-161586152D01*
X115586476Y-161586152D02*
X115729333Y-161586152D01*
X115729333Y-161586152D02*
X115824571Y-161633771D01*
X115824571Y-161633771D02*
X115872190Y-161729009D01*
X115872190Y-161729009D02*
X115872190Y-162252819D01*
X115872190Y-161729009D02*
X115919809Y-161633771D01*
X115919809Y-161633771D02*
X116015047Y-161586152D01*
X116015047Y-161586152D02*
X116157904Y-161586152D01*
X116157904Y-161586152D02*
X116253143Y-161633771D01*
X116253143Y-161633771D02*
X116300762Y-161729009D01*
X116300762Y-161729009D02*
X116300762Y-162252819D01*
X116776952Y-162252819D02*
X116776952Y-161586152D01*
X116776952Y-161252819D02*
X116729333Y-161300438D01*
X116729333Y-161300438D02*
X116776952Y-161348057D01*
X116776952Y-161348057D02*
X116824571Y-161300438D01*
X116824571Y-161300438D02*
X116776952Y-161252819D01*
X116776952Y-161252819D02*
X116776952Y-161348057D01*
X117681713Y-162252819D02*
X117681713Y-161252819D01*
X117681713Y-162205200D02*
X117586475Y-162252819D01*
X117586475Y-162252819D02*
X117395999Y-162252819D01*
X117395999Y-162252819D02*
X117300761Y-162205200D01*
X117300761Y-162205200D02*
X117253142Y-162157580D01*
X117253142Y-162157580D02*
X117205523Y-162062342D01*
X117205523Y-162062342D02*
X117205523Y-161776628D01*
X117205523Y-161776628D02*
X117253142Y-161681390D01*
X117253142Y-161681390D02*
X117300761Y-161633771D01*
X117300761Y-161633771D02*
X117395999Y-161586152D01*
X117395999Y-161586152D02*
X117586475Y-161586152D01*
X117586475Y-161586152D02*
X117681713Y-161633771D01*
X118157904Y-162252819D02*
X118157904Y-161586152D01*
X118157904Y-161252819D02*
X118110285Y-161300438D01*
X118110285Y-161300438D02*
X118157904Y-161348057D01*
X118157904Y-161348057D02*
X118205523Y-161300438D01*
X118205523Y-161300438D02*
X118157904Y-161252819D01*
X118157904Y-161252819D02*
X118157904Y-161348057D01*
X119824570Y-162252819D02*
X119824570Y-161252819D01*
X119824570Y-162205200D02*
X119729332Y-162252819D01*
X119729332Y-162252819D02*
X119538856Y-162252819D01*
X119538856Y-162252819D02*
X119443618Y-162205200D01*
X119443618Y-162205200D02*
X119395999Y-162157580D01*
X119395999Y-162157580D02*
X119348380Y-162062342D01*
X119348380Y-162062342D02*
X119348380Y-161776628D01*
X119348380Y-161776628D02*
X119395999Y-161681390D01*
X119395999Y-161681390D02*
X119443618Y-161633771D01*
X119443618Y-161633771D02*
X119538856Y-161586152D01*
X119538856Y-161586152D02*
X119729332Y-161586152D01*
X119729332Y-161586152D02*
X119824570Y-161633771D01*
X120300761Y-162252819D02*
X120300761Y-161586152D01*
X120300761Y-161776628D02*
X120348380Y-161681390D01*
X120348380Y-161681390D02*
X120395999Y-161633771D01*
X120395999Y-161633771D02*
X120491237Y-161586152D01*
X120491237Y-161586152D02*
X120586475Y-161586152D01*
X121348380Y-161586152D02*
X121348380Y-162252819D01*
X120919809Y-161586152D02*
X120919809Y-162109961D01*
X120919809Y-162109961D02*
X120967428Y-162205200D01*
X120967428Y-162205200D02*
X121062666Y-162252819D01*
X121062666Y-162252819D02*
X121205523Y-162252819D01*
X121205523Y-162252819D02*
X121300761Y-162205200D01*
X121300761Y-162205200D02*
X121348380Y-162157580D01*
X121824571Y-162252819D02*
X121824571Y-161586152D01*
X121824571Y-161681390D02*
X121872190Y-161633771D01*
X121872190Y-161633771D02*
X121967428Y-161586152D01*
X121967428Y-161586152D02*
X122110285Y-161586152D01*
X122110285Y-161586152D02*
X122205523Y-161633771D01*
X122205523Y-161633771D02*
X122253142Y-161729009D01*
X122253142Y-161729009D02*
X122253142Y-162252819D01*
X122253142Y-161729009D02*
X122300761Y-161633771D01*
X122300761Y-161633771D02*
X122395999Y-161586152D01*
X122395999Y-161586152D02*
X122538856Y-161586152D01*
X122538856Y-161586152D02*
X122634095Y-161633771D01*
X122634095Y-161633771D02*
X122681714Y-161729009D01*
X122681714Y-161729009D02*
X122681714Y-162252819D01*
X123157904Y-161586152D02*
X123157904Y-162586152D01*
X123157904Y-161633771D02*
X123253142Y-161586152D01*
X123253142Y-161586152D02*
X123443618Y-161586152D01*
X123443618Y-161586152D02*
X123538856Y-161633771D01*
X123538856Y-161633771D02*
X123586475Y-161681390D01*
X123586475Y-161681390D02*
X123634094Y-161776628D01*
X123634094Y-161776628D02*
X123634094Y-162062342D01*
X123634094Y-162062342D02*
X123586475Y-162157580D01*
X123586475Y-162157580D02*
X123538856Y-162205200D01*
X123538856Y-162205200D02*
X123443618Y-162252819D01*
X123443618Y-162252819D02*
X123253142Y-162252819D01*
X123253142Y-162252819D02*
X123157904Y-162205200D01*
X124491237Y-162252819D02*
X124491237Y-161729009D01*
X124491237Y-161729009D02*
X124443618Y-161633771D01*
X124443618Y-161633771D02*
X124348380Y-161586152D01*
X124348380Y-161586152D02*
X124157904Y-161586152D01*
X124157904Y-161586152D02*
X124062666Y-161633771D01*
X124491237Y-162205200D02*
X124395999Y-162252819D01*
X124395999Y-162252819D02*
X124157904Y-162252819D01*
X124157904Y-162252819D02*
X124062666Y-162205200D01*
X124062666Y-162205200D02*
X124015047Y-162109961D01*
X124015047Y-162109961D02*
X124015047Y-162014723D01*
X124015047Y-162014723D02*
X124062666Y-161919485D01*
X124062666Y-161919485D02*
X124157904Y-161871866D01*
X124157904Y-161871866D02*
X124395999Y-161871866D01*
X124395999Y-161871866D02*
X124491237Y-161824247D01*
X125395999Y-162252819D02*
X125395999Y-161252819D01*
X125395999Y-162205200D02*
X125300761Y-162252819D01*
X125300761Y-162252819D02*
X125110285Y-162252819D01*
X125110285Y-162252819D02*
X125015047Y-162205200D01*
X125015047Y-162205200D02*
X124967428Y-162157580D01*
X124967428Y-162157580D02*
X124919809Y-162062342D01*
X124919809Y-162062342D02*
X124919809Y-161776628D01*
X124919809Y-161776628D02*
X124967428Y-161681390D01*
X124967428Y-161681390D02*
X125015047Y-161633771D01*
X125015047Y-161633771D02*
X125110285Y-161586152D01*
X125110285Y-161586152D02*
X125300761Y-161586152D01*
X125300761Y-161586152D02*
X125395999Y-161633771D01*
X126538857Y-161586152D02*
X126776952Y-162252819D01*
X126776952Y-162252819D02*
X127015047Y-161586152D01*
X127348381Y-161348057D02*
X127396000Y-161300438D01*
X127396000Y-161300438D02*
X127491238Y-161252819D01*
X127491238Y-161252819D02*
X127729333Y-161252819D01*
X127729333Y-161252819D02*
X127824571Y-161300438D01*
X127824571Y-161300438D02*
X127872190Y-161348057D01*
X127872190Y-161348057D02*
X127919809Y-161443295D01*
X127919809Y-161443295D02*
X127919809Y-161538533D01*
X127919809Y-161538533D02*
X127872190Y-161681390D01*
X127872190Y-161681390D02*
X127300762Y-162252819D01*
X127300762Y-162252819D02*
X127919809Y-162252819D01*
X128348381Y-162157580D02*
X128396000Y-162205200D01*
X128396000Y-162205200D02*
X128348381Y-162252819D01*
X128348381Y-162252819D02*
X128300762Y-162205200D01*
X128300762Y-162205200D02*
X128348381Y-162157580D01*
X128348381Y-162157580D02*
X128348381Y-162252819D01*
X128776952Y-161348057D02*
X128824571Y-161300438D01*
X128824571Y-161300438D02*
X128919809Y-161252819D01*
X128919809Y-161252819D02*
X129157904Y-161252819D01*
X129157904Y-161252819D02*
X129253142Y-161300438D01*
X129253142Y-161300438D02*
X129300761Y-161348057D01*
X129300761Y-161348057D02*
X129348380Y-161443295D01*
X129348380Y-161443295D02*
X129348380Y-161538533D01*
X129348380Y-161538533D02*
X129300761Y-161681390D01*
X129300761Y-161681390D02*
X128729333Y-162252819D01*
X128729333Y-162252819D02*
X129348380Y-162252819D01*
X160361333Y-75384819D02*
X160028000Y-74908628D01*
X159789905Y-75384819D02*
X159789905Y-74384819D01*
X159789905Y-74384819D02*
X160170857Y-74384819D01*
X160170857Y-74384819D02*
X160266095Y-74432438D01*
X160266095Y-74432438D02*
X160313714Y-74480057D01*
X160313714Y-74480057D02*
X160361333Y-74575295D01*
X160361333Y-74575295D02*
X160361333Y-74718152D01*
X160361333Y-74718152D02*
X160313714Y-74813390D01*
X160313714Y-74813390D02*
X160266095Y-74861009D01*
X160266095Y-74861009D02*
X160170857Y-74908628D01*
X160170857Y-74908628D02*
X159789905Y-74908628D01*
X160742286Y-74480057D02*
X160789905Y-74432438D01*
X160789905Y-74432438D02*
X160885143Y-74384819D01*
X160885143Y-74384819D02*
X161123238Y-74384819D01*
X161123238Y-74384819D02*
X161218476Y-74432438D01*
X161218476Y-74432438D02*
X161266095Y-74480057D01*
X161266095Y-74480057D02*
X161313714Y-74575295D01*
X161313714Y-74575295D02*
X161313714Y-74670533D01*
X161313714Y-74670533D02*
X161266095Y-74813390D01*
X161266095Y-74813390D02*
X160694667Y-75384819D01*
X160694667Y-75384819D02*
X161313714Y-75384819D01*
X153638476Y-50693200D02*
X153781333Y-50740819D01*
X153781333Y-50740819D02*
X154019428Y-50740819D01*
X154019428Y-50740819D02*
X154114666Y-50693200D01*
X154114666Y-50693200D02*
X154162285Y-50645580D01*
X154162285Y-50645580D02*
X154209904Y-50550342D01*
X154209904Y-50550342D02*
X154209904Y-50455104D01*
X154209904Y-50455104D02*
X154162285Y-50359866D01*
X154162285Y-50359866D02*
X154114666Y-50312247D01*
X154114666Y-50312247D02*
X154019428Y-50264628D01*
X154019428Y-50264628D02*
X153828952Y-50217009D01*
X153828952Y-50217009D02*
X153733714Y-50169390D01*
X153733714Y-50169390D02*
X153686095Y-50121771D01*
X153686095Y-50121771D02*
X153638476Y-50026533D01*
X153638476Y-50026533D02*
X153638476Y-49931295D01*
X153638476Y-49931295D02*
X153686095Y-49836057D01*
X153686095Y-49836057D02*
X153733714Y-49788438D01*
X153733714Y-49788438D02*
X153828952Y-49740819D01*
X153828952Y-49740819D02*
X154067047Y-49740819D01*
X154067047Y-49740819D02*
X154209904Y-49788438D01*
X154543238Y-49740819D02*
X154781333Y-50740819D01*
X154781333Y-50740819D02*
X154971809Y-50026533D01*
X154971809Y-50026533D02*
X155162285Y-50740819D01*
X155162285Y-50740819D02*
X155400381Y-49740819D01*
X156305142Y-50740819D02*
X155733714Y-50740819D01*
X156019428Y-50740819D02*
X156019428Y-49740819D01*
X156019428Y-49740819D02*
X155924190Y-49883676D01*
X155924190Y-49883676D02*
X155828952Y-49978914D01*
X155828952Y-49978914D02*
X155733714Y-50026533D01*
X156876571Y-50169390D02*
X156781333Y-50121771D01*
X156781333Y-50121771D02*
X156733714Y-50074152D01*
X156733714Y-50074152D02*
X156686095Y-49978914D01*
X156686095Y-49978914D02*
X156686095Y-49931295D01*
X156686095Y-49931295D02*
X156733714Y-49836057D01*
X156733714Y-49836057D02*
X156781333Y-49788438D01*
X156781333Y-49788438D02*
X156876571Y-49740819D01*
X156876571Y-49740819D02*
X157067047Y-49740819D01*
X157067047Y-49740819D02*
X157162285Y-49788438D01*
X157162285Y-49788438D02*
X157209904Y-49836057D01*
X157209904Y-49836057D02*
X157257523Y-49931295D01*
X157257523Y-49931295D02*
X157257523Y-49978914D01*
X157257523Y-49978914D02*
X157209904Y-50074152D01*
X157209904Y-50074152D02*
X157162285Y-50121771D01*
X157162285Y-50121771D02*
X157067047Y-50169390D01*
X157067047Y-50169390D02*
X156876571Y-50169390D01*
X156876571Y-50169390D02*
X156781333Y-50217009D01*
X156781333Y-50217009D02*
X156733714Y-50264628D01*
X156733714Y-50264628D02*
X156686095Y-50359866D01*
X156686095Y-50359866D02*
X156686095Y-50550342D01*
X156686095Y-50550342D02*
X156733714Y-50645580D01*
X156733714Y-50645580D02*
X156781333Y-50693200D01*
X156781333Y-50693200D02*
X156876571Y-50740819D01*
X156876571Y-50740819D02*
X157067047Y-50740819D01*
X157067047Y-50740819D02*
X157162285Y-50693200D01*
X157162285Y-50693200D02*
X157209904Y-50645580D01*
X157209904Y-50645580D02*
X157257523Y-50550342D01*
X157257523Y-50550342D02*
X157257523Y-50359866D01*
X157257523Y-50359866D02*
X157209904Y-50264628D01*
X157209904Y-50264628D02*
X157162285Y-50217009D01*
X157162285Y-50217009D02*
X157067047Y-50169390D01*
X139297580Y-64682666D02*
X139345200Y-64730285D01*
X139345200Y-64730285D02*
X139392819Y-64873142D01*
X139392819Y-64873142D02*
X139392819Y-64968380D01*
X139392819Y-64968380D02*
X139345200Y-65111237D01*
X139345200Y-65111237D02*
X139249961Y-65206475D01*
X139249961Y-65206475D02*
X139154723Y-65254094D01*
X139154723Y-65254094D02*
X138964247Y-65301713D01*
X138964247Y-65301713D02*
X138821390Y-65301713D01*
X138821390Y-65301713D02*
X138630914Y-65254094D01*
X138630914Y-65254094D02*
X138535676Y-65206475D01*
X138535676Y-65206475D02*
X138440438Y-65111237D01*
X138440438Y-65111237D02*
X138392819Y-64968380D01*
X138392819Y-64968380D02*
X138392819Y-64873142D01*
X138392819Y-64873142D02*
X138440438Y-64730285D01*
X138440438Y-64730285D02*
X138488057Y-64682666D01*
X139392819Y-63730285D02*
X139392819Y-64301713D01*
X139392819Y-64015999D02*
X138392819Y-64015999D01*
X138392819Y-64015999D02*
X138535676Y-64111237D01*
X138535676Y-64111237D02*
X138630914Y-64206475D01*
X138630914Y-64206475D02*
X138678533Y-64301713D01*
X139551580Y-56554666D02*
X139599200Y-56602285D01*
X139599200Y-56602285D02*
X139646819Y-56745142D01*
X139646819Y-56745142D02*
X139646819Y-56840380D01*
X139646819Y-56840380D02*
X139599200Y-56983237D01*
X139599200Y-56983237D02*
X139503961Y-57078475D01*
X139503961Y-57078475D02*
X139408723Y-57126094D01*
X139408723Y-57126094D02*
X139218247Y-57173713D01*
X139218247Y-57173713D02*
X139075390Y-57173713D01*
X139075390Y-57173713D02*
X138884914Y-57126094D01*
X138884914Y-57126094D02*
X138789676Y-57078475D01*
X138789676Y-57078475D02*
X138694438Y-56983237D01*
X138694438Y-56983237D02*
X138646819Y-56840380D01*
X138646819Y-56840380D02*
X138646819Y-56745142D01*
X138646819Y-56745142D02*
X138694438Y-56602285D01*
X138694438Y-56602285D02*
X138742057Y-56554666D01*
X138646819Y-56221332D02*
X138646819Y-55602285D01*
X138646819Y-55602285D02*
X139027771Y-55935618D01*
X139027771Y-55935618D02*
X139027771Y-55792761D01*
X139027771Y-55792761D02*
X139075390Y-55697523D01*
X139075390Y-55697523D02*
X139123009Y-55649904D01*
X139123009Y-55649904D02*
X139218247Y-55602285D01*
X139218247Y-55602285D02*
X139456342Y-55602285D01*
X139456342Y-55602285D02*
X139551580Y-55649904D01*
X139551580Y-55649904D02*
X139599200Y-55697523D01*
X139599200Y-55697523D02*
X139646819Y-55792761D01*
X139646819Y-55792761D02*
X139646819Y-56078475D01*
X139646819Y-56078475D02*
X139599200Y-56173713D01*
X139599200Y-56173713D02*
X139551580Y-56221332D01*
X144359333Y-70812819D02*
X144026000Y-70336628D01*
X143787905Y-70812819D02*
X143787905Y-69812819D01*
X143787905Y-69812819D02*
X144168857Y-69812819D01*
X144168857Y-69812819D02*
X144264095Y-69860438D01*
X144264095Y-69860438D02*
X144311714Y-69908057D01*
X144311714Y-69908057D02*
X144359333Y-70003295D01*
X144359333Y-70003295D02*
X144359333Y-70146152D01*
X144359333Y-70146152D02*
X144311714Y-70241390D01*
X144311714Y-70241390D02*
X144264095Y-70289009D01*
X144264095Y-70289009D02*
X144168857Y-70336628D01*
X144168857Y-70336628D02*
X143787905Y-70336628D01*
X145311714Y-70812819D02*
X144740286Y-70812819D01*
X145026000Y-70812819D02*
X145026000Y-69812819D01*
X145026000Y-69812819D02*
X144930762Y-69955676D01*
X144930762Y-69955676D02*
X144835524Y-70050914D01*
X144835524Y-70050914D02*
X144740286Y-70098533D01*
X160361333Y-72082819D02*
X160028000Y-71606628D01*
X159789905Y-72082819D02*
X159789905Y-71082819D01*
X159789905Y-71082819D02*
X160170857Y-71082819D01*
X160170857Y-71082819D02*
X160266095Y-71130438D01*
X160266095Y-71130438D02*
X160313714Y-71178057D01*
X160313714Y-71178057D02*
X160361333Y-71273295D01*
X160361333Y-71273295D02*
X160361333Y-71416152D01*
X160361333Y-71416152D02*
X160313714Y-71511390D01*
X160313714Y-71511390D02*
X160266095Y-71559009D01*
X160266095Y-71559009D02*
X160170857Y-71606628D01*
X160170857Y-71606628D02*
X159789905Y-71606628D01*
X160694667Y-71082819D02*
X161313714Y-71082819D01*
X161313714Y-71082819D02*
X160980381Y-71463771D01*
X160980381Y-71463771D02*
X161123238Y-71463771D01*
X161123238Y-71463771D02*
X161218476Y-71511390D01*
X161218476Y-71511390D02*
X161266095Y-71559009D01*
X161266095Y-71559009D02*
X161313714Y-71654247D01*
X161313714Y-71654247D02*
X161313714Y-71892342D01*
X161313714Y-71892342D02*
X161266095Y-71987580D01*
X161266095Y-71987580D02*
X161218476Y-72035200D01*
X161218476Y-72035200D02*
X161123238Y-72082819D01*
X161123238Y-72082819D02*
X160837524Y-72082819D01*
X160837524Y-72082819D02*
X160742286Y-72035200D01*
X160742286Y-72035200D02*
X160694667Y-71987580D01*
X160361333Y-79194819D02*
X160028000Y-78718628D01*
X159789905Y-79194819D02*
X159789905Y-78194819D01*
X159789905Y-78194819D02*
X160170857Y-78194819D01*
X160170857Y-78194819D02*
X160266095Y-78242438D01*
X160266095Y-78242438D02*
X160313714Y-78290057D01*
X160313714Y-78290057D02*
X160361333Y-78385295D01*
X160361333Y-78385295D02*
X160361333Y-78528152D01*
X160361333Y-78528152D02*
X160313714Y-78623390D01*
X160313714Y-78623390D02*
X160266095Y-78671009D01*
X160266095Y-78671009D02*
X160170857Y-78718628D01*
X160170857Y-78718628D02*
X159789905Y-78718628D01*
X161218476Y-78528152D02*
X161218476Y-79194819D01*
X160980381Y-78147200D02*
X160742286Y-78861485D01*
X160742286Y-78861485D02*
X161361333Y-78861485D01*
X121364666Y-57811200D02*
X121507523Y-57858819D01*
X121507523Y-57858819D02*
X121745618Y-57858819D01*
X121745618Y-57858819D02*
X121840856Y-57811200D01*
X121840856Y-57811200D02*
X121888475Y-57763580D01*
X121888475Y-57763580D02*
X121936094Y-57668342D01*
X121936094Y-57668342D02*
X121936094Y-57573104D01*
X121936094Y-57573104D02*
X121888475Y-57477866D01*
X121888475Y-57477866D02*
X121840856Y-57430247D01*
X121840856Y-57430247D02*
X121745618Y-57382628D01*
X121745618Y-57382628D02*
X121555142Y-57335009D01*
X121555142Y-57335009D02*
X121459904Y-57287390D01*
X121459904Y-57287390D02*
X121412285Y-57239771D01*
X121412285Y-57239771D02*
X121364666Y-57144533D01*
X121364666Y-57144533D02*
X121364666Y-57049295D01*
X121364666Y-57049295D02*
X121412285Y-56954057D01*
X121412285Y-56954057D02*
X121459904Y-56906438D01*
X121459904Y-56906438D02*
X121555142Y-56858819D01*
X121555142Y-56858819D02*
X121793237Y-56858819D01*
X121793237Y-56858819D02*
X121936094Y-56906438D01*
X122793237Y-57811200D02*
X122697999Y-57858819D01*
X122697999Y-57858819D02*
X122507523Y-57858819D01*
X122507523Y-57858819D02*
X122412285Y-57811200D01*
X122412285Y-57811200D02*
X122364666Y-57763580D01*
X122364666Y-57763580D02*
X122317047Y-57668342D01*
X122317047Y-57668342D02*
X122317047Y-57382628D01*
X122317047Y-57382628D02*
X122364666Y-57287390D01*
X122364666Y-57287390D02*
X122412285Y-57239771D01*
X122412285Y-57239771D02*
X122507523Y-57192152D01*
X122507523Y-57192152D02*
X122697999Y-57192152D01*
X122697999Y-57192152D02*
X122793237Y-57239771D01*
X123221809Y-57858819D02*
X123221809Y-57192152D01*
X123221809Y-57382628D02*
X123269428Y-57287390D01*
X123269428Y-57287390D02*
X123317047Y-57239771D01*
X123317047Y-57239771D02*
X123412285Y-57192152D01*
X123412285Y-57192152D02*
X123507523Y-57192152D01*
X124221809Y-57811200D02*
X124126571Y-57858819D01*
X124126571Y-57858819D02*
X123936095Y-57858819D01*
X123936095Y-57858819D02*
X123840857Y-57811200D01*
X123840857Y-57811200D02*
X123793238Y-57715961D01*
X123793238Y-57715961D02*
X123793238Y-57335009D01*
X123793238Y-57335009D02*
X123840857Y-57239771D01*
X123840857Y-57239771D02*
X123936095Y-57192152D01*
X123936095Y-57192152D02*
X124126571Y-57192152D01*
X124126571Y-57192152D02*
X124221809Y-57239771D01*
X124221809Y-57239771D02*
X124269428Y-57335009D01*
X124269428Y-57335009D02*
X124269428Y-57430247D01*
X124269428Y-57430247D02*
X123793238Y-57525485D01*
X125078952Y-57811200D02*
X124983714Y-57858819D01*
X124983714Y-57858819D02*
X124793238Y-57858819D01*
X124793238Y-57858819D02*
X124698000Y-57811200D01*
X124698000Y-57811200D02*
X124650381Y-57715961D01*
X124650381Y-57715961D02*
X124650381Y-57335009D01*
X124650381Y-57335009D02*
X124698000Y-57239771D01*
X124698000Y-57239771D02*
X124793238Y-57192152D01*
X124793238Y-57192152D02*
X124983714Y-57192152D01*
X124983714Y-57192152D02*
X125078952Y-57239771D01*
X125078952Y-57239771D02*
X125126571Y-57335009D01*
X125126571Y-57335009D02*
X125126571Y-57430247D01*
X125126571Y-57430247D02*
X124650381Y-57525485D01*
X125555143Y-57192152D02*
X125555143Y-57858819D01*
X125555143Y-57287390D02*
X125602762Y-57239771D01*
X125602762Y-57239771D02*
X125698000Y-57192152D01*
X125698000Y-57192152D02*
X125840857Y-57192152D01*
X125840857Y-57192152D02*
X125936095Y-57239771D01*
X125936095Y-57239771D02*
X125983714Y-57335009D01*
X125983714Y-57335009D02*
X125983714Y-57858819D01*
X144613333Y-45920819D02*
X144280000Y-45444628D01*
X144041905Y-45920819D02*
X144041905Y-44920819D01*
X144041905Y-44920819D02*
X144422857Y-44920819D01*
X144422857Y-44920819D02*
X144518095Y-44968438D01*
X144518095Y-44968438D02*
X144565714Y-45016057D01*
X144565714Y-45016057D02*
X144613333Y-45111295D01*
X144613333Y-45111295D02*
X144613333Y-45254152D01*
X144613333Y-45254152D02*
X144565714Y-45349390D01*
X144565714Y-45349390D02*
X144518095Y-45397009D01*
X144518095Y-45397009D02*
X144422857Y-45444628D01*
X144422857Y-45444628D02*
X144041905Y-45444628D01*
X145518095Y-44920819D02*
X145041905Y-44920819D01*
X145041905Y-44920819D02*
X144994286Y-45397009D01*
X144994286Y-45397009D02*
X145041905Y-45349390D01*
X145041905Y-45349390D02*
X145137143Y-45301771D01*
X145137143Y-45301771D02*
X145375238Y-45301771D01*
X145375238Y-45301771D02*
X145470476Y-45349390D01*
X145470476Y-45349390D02*
X145518095Y-45397009D01*
X145518095Y-45397009D02*
X145565714Y-45492247D01*
X145565714Y-45492247D02*
X145565714Y-45730342D01*
X145565714Y-45730342D02*
X145518095Y-45825580D01*
X145518095Y-45825580D02*
X145470476Y-45873200D01*
X145470476Y-45873200D02*
X145375238Y-45920819D01*
X145375238Y-45920819D02*
X145137143Y-45920819D01*
X145137143Y-45920819D02*
X145041905Y-45873200D01*
X145041905Y-45873200D02*
X144994286Y-45825580D01*
X143851333Y-72749580D02*
X143803714Y-72797200D01*
X143803714Y-72797200D02*
X143660857Y-72844819D01*
X143660857Y-72844819D02*
X143565619Y-72844819D01*
X143565619Y-72844819D02*
X143422762Y-72797200D01*
X143422762Y-72797200D02*
X143327524Y-72701961D01*
X143327524Y-72701961D02*
X143279905Y-72606723D01*
X143279905Y-72606723D02*
X143232286Y-72416247D01*
X143232286Y-72416247D02*
X143232286Y-72273390D01*
X143232286Y-72273390D02*
X143279905Y-72082914D01*
X143279905Y-72082914D02*
X143327524Y-71987676D01*
X143327524Y-71987676D02*
X143422762Y-71892438D01*
X143422762Y-71892438D02*
X143565619Y-71844819D01*
X143565619Y-71844819D02*
X143660857Y-71844819D01*
X143660857Y-71844819D02*
X143803714Y-71892438D01*
X143803714Y-71892438D02*
X143851333Y-71940057D01*
X144232286Y-71940057D02*
X144279905Y-71892438D01*
X144279905Y-71892438D02*
X144375143Y-71844819D01*
X144375143Y-71844819D02*
X144613238Y-71844819D01*
X144613238Y-71844819D02*
X144708476Y-71892438D01*
X144708476Y-71892438D02*
X144756095Y-71940057D01*
X144756095Y-71940057D02*
X144803714Y-72035295D01*
X144803714Y-72035295D02*
X144803714Y-72130533D01*
X144803714Y-72130533D02*
X144756095Y-72273390D01*
X144756095Y-72273390D02*
X144184667Y-72844819D01*
X144184667Y-72844819D02*
X144803714Y-72844819D01*
D11*
%TO.C,R2*%
X156432000Y-76300000D02*
X149892000Y-76300000D01*
X156432000Y-75970000D02*
X156432000Y-76300000D01*
X156432000Y-73890000D02*
X156432000Y-73560000D01*
X156432000Y-73560000D02*
X149892000Y-73560000D01*
X149892000Y-76300000D02*
X149892000Y-75970000D01*
X149892000Y-73560000D02*
X149892000Y-73890000D01*
%TO.C,SW18*%
X149148000Y-65986000D02*
X149148000Y-60936000D01*
X152148000Y-65986000D02*
X149148000Y-65986000D01*
X153698000Y-65986000D02*
X154698000Y-65986000D01*
X156198000Y-65986000D02*
X157198000Y-65986000D01*
X158748000Y-65986000D02*
X161748000Y-65986000D01*
X161748000Y-60936000D02*
X161748000Y-65986000D01*
X149148000Y-57436000D02*
X149148000Y-52386000D01*
X149148000Y-52386000D02*
X151948000Y-52386000D01*
X153948000Y-52386000D02*
X156948000Y-52386000D01*
X159048000Y-52386000D02*
X161748000Y-52386000D01*
X161748000Y-52386000D02*
X161748000Y-57436000D01*
%TO.C,C1*%
X140140000Y-65846000D02*
X146880000Y-65846000D01*
X140140000Y-65846000D02*
X140140000Y-58106000D01*
X146880000Y-65846000D02*
X146880000Y-58106000D01*
X140140000Y-58106000D02*
X146880000Y-58106000D01*
%TO.C,C3*%
X146880000Y-49938000D02*
X140140000Y-49938000D01*
X146880000Y-49938000D02*
X146880000Y-57678000D01*
X140140000Y-49938000D02*
X140140000Y-57678000D01*
X146880000Y-57678000D02*
X140140000Y-57678000D01*
%TO.C,R1*%
X141510000Y-66702000D02*
X148050000Y-66702000D01*
X141510000Y-67032000D02*
X141510000Y-66702000D01*
X141510000Y-69112000D02*
X141510000Y-69442000D01*
X141510000Y-69442000D02*
X148050000Y-69442000D01*
X148050000Y-66702000D02*
X148050000Y-67032000D01*
X148050000Y-69442000D02*
X148050000Y-69112000D01*
%TO.C,R3*%
X149892000Y-70258000D02*
X156432000Y-70258000D01*
X149892000Y-70588000D02*
X149892000Y-70258000D01*
X149892000Y-72668000D02*
X149892000Y-72998000D01*
X149892000Y-72998000D02*
X156432000Y-72998000D01*
X156432000Y-70258000D02*
X156432000Y-70588000D01*
X156432000Y-72998000D02*
X156432000Y-72668000D01*
%TO.C,R4*%
X156432000Y-80110000D02*
X149892000Y-80110000D01*
X156432000Y-79780000D02*
X156432000Y-80110000D01*
X156432000Y-77700000D02*
X156432000Y-77370000D01*
X156432000Y-77370000D02*
X149892000Y-77370000D01*
X149892000Y-80110000D02*
X149892000Y-79780000D01*
X149892000Y-77370000D02*
X149892000Y-77700000D01*
%TO.C,Screen*%
X110298000Y-44850000D02*
X137698000Y-44850000D01*
X110298000Y-72150000D02*
X110298000Y-44850000D01*
X110720000Y-48145000D02*
X133820000Y-48145000D01*
X110720000Y-64745000D02*
X110720000Y-48145000D01*
X118999000Y-45339000D02*
X118999000Y-47752000D01*
X118999000Y-45339000D02*
X128778000Y-45339000D01*
X128778000Y-45339000D02*
X128778000Y-47752000D01*
X128778000Y-47752000D02*
X118999000Y-47752000D01*
X133820000Y-48145000D02*
X136906000Y-48145000D01*
X133820000Y-64745000D02*
X110720000Y-64745000D01*
X133820000Y-64745000D02*
X137160000Y-64770000D01*
X137160000Y-48133000D02*
X136906000Y-48145000D01*
X137160000Y-64770000D02*
X137160000Y-48133000D01*
X137698000Y-44850000D02*
X137698000Y-72150000D01*
X137698000Y-72150000D02*
X110298000Y-72150000D01*
%TO.C,R5*%
X141510000Y-46636000D02*
X148050000Y-46636000D01*
X141510000Y-46966000D02*
X141510000Y-46636000D01*
X141510000Y-49046000D02*
X141510000Y-49376000D01*
X141510000Y-49376000D02*
X148050000Y-49376000D01*
X148050000Y-46636000D02*
X148050000Y-46966000D01*
X148050000Y-49376000D02*
X148050000Y-49046000D01*
%TO.C,C2*%
X147928000Y-80078000D02*
X147928000Y-73338000D01*
X147928000Y-80078000D02*
X140188000Y-80078000D01*
X147928000Y-73338000D02*
X140188000Y-73338000D01*
X140188000Y-80078000D02*
X140188000Y-73338000D01*
%TD*%
%LPC*%
D12*
%TO.C,U1*%
X94419000Y-43056000D03*
D13*
X94119000Y-46086000D03*
X89269000Y-46086000D03*
D12*
X88969000Y-43056000D03*
D14*
X100584000Y-42926000D03*
X100584000Y-45466000D03*
D15*
X100584000Y-48006000D03*
D14*
X100584000Y-50546000D03*
X100584000Y-53086000D03*
X100584000Y-55626000D03*
X100584000Y-58166000D03*
D15*
X100584000Y-60706000D03*
D14*
X100584000Y-63246000D03*
X100584000Y-65786000D03*
X100584000Y-68326000D03*
X100584000Y-70866000D03*
D15*
X100584000Y-73406000D03*
D14*
X100584000Y-75946000D03*
X100584000Y-78486000D03*
X100584000Y-81026000D03*
X100584000Y-83566000D03*
D15*
X100584000Y-86106000D03*
D14*
X100584000Y-88646000D03*
X100584000Y-91186000D03*
X82804000Y-91186000D03*
X82804000Y-88646000D03*
D15*
X82804000Y-86106000D03*
D14*
X82804000Y-83566000D03*
X82804000Y-81026000D03*
X82804000Y-78486000D03*
X82804000Y-75946000D03*
D15*
X82804000Y-73406000D03*
D14*
X82804000Y-70866000D03*
X82804000Y-68326000D03*
X82804000Y-65786000D03*
X82804000Y-63246000D03*
D15*
X82804000Y-60706000D03*
D14*
X82804000Y-58166000D03*
X82804000Y-55626000D03*
X82804000Y-53086000D03*
X82804000Y-50546000D03*
D15*
X82804000Y-48006000D03*
D14*
X82804000Y-45466000D03*
X82804000Y-42926000D03*
%TD*%
D16*
%TO.C,SW1*%
X91440000Y-63870000D03*
D17*
X91440000Y-58790000D03*
D16*
X91440000Y-53710000D03*
D18*
X88900000Y-62600000D03*
X86360000Y-56250000D03*
%TD*%
D16*
%TO.C,SW17*%
X147320000Y-151130000D03*
D17*
X152400000Y-151130000D03*
D16*
X157480000Y-151130000D03*
D19*
X148590000Y-148590000D03*
X154940000Y-146050000D03*
%TD*%
D16*
%TO.C,SW3*%
X86360000Y-110490000D03*
D17*
X91440000Y-110490000D03*
D16*
X96520000Y-110490000D03*
D19*
X87630000Y-107950000D03*
X93980000Y-105410000D03*
%TD*%
D20*
%TO.C,R2*%
X156972000Y-74930000D03*
D21*
X149352000Y-74930000D03*
%TD*%
D16*
%TO.C,SW13*%
X127000000Y-151130000D03*
D17*
X132080000Y-151130000D03*
D16*
X137160000Y-151130000D03*
D19*
X128270000Y-148590000D03*
X134620000Y-146050000D03*
%TD*%
D22*
%TO.C,SW18*%
X152948000Y-66686000D03*
X157948000Y-66686000D03*
X155448000Y-66686000D03*
X152948000Y-52186000D03*
X157948000Y-52186000D03*
D23*
X148848000Y-59186000D03*
X162048000Y-59186000D03*
%TD*%
D20*
%TO.C,C1*%
X143510000Y-64476000D03*
X143510000Y-59476000D03*
%TD*%
%TO.C,C3*%
X143510000Y-51308000D03*
X143510000Y-56308000D03*
%TD*%
D16*
%TO.C,SW10*%
X127000000Y-90170000D03*
D17*
X132080000Y-90170000D03*
D16*
X137160000Y-90170000D03*
D19*
X128270000Y-87630000D03*
X134620000Y-85090000D03*
%TD*%
D20*
%TO.C,R1*%
X140970000Y-68072000D03*
D21*
X148590000Y-68072000D03*
%TD*%
D16*
%TO.C,SW2*%
X86360000Y-90170000D03*
D17*
X91440000Y-90170000D03*
D16*
X96520000Y-90170000D03*
D19*
X87630000Y-87630000D03*
X93980000Y-85090000D03*
%TD*%
D20*
%TO.C,R3*%
X149352000Y-71628000D03*
D21*
X156972000Y-71628000D03*
%TD*%
D20*
%TO.C,R4*%
X156972000Y-78740000D03*
D21*
X149352000Y-78740000D03*
%TD*%
D16*
%TO.C,SW11*%
X127000000Y-110490000D03*
D17*
X132080000Y-110490000D03*
D16*
X137160000Y-110490000D03*
D19*
X128270000Y-107950000D03*
X134620000Y-105410000D03*
%TD*%
D16*
%TO.C,SW7*%
X106680000Y-110490000D03*
D17*
X111760000Y-110490000D03*
D16*
X116840000Y-110490000D03*
D19*
X107950000Y-107950000D03*
X114300000Y-105410000D03*
%TD*%
D24*
%TO.C,Screen*%
X120078000Y-46550000D03*
X122618000Y-46550000D03*
X125158000Y-46550000D03*
X127698000Y-46550000D03*
%TD*%
D16*
%TO.C,SW5*%
X86360000Y-151130000D03*
D17*
X91440000Y-151130000D03*
D16*
X96520000Y-151130000D03*
D19*
X87630000Y-148590000D03*
X93980000Y-146050000D03*
%TD*%
D16*
%TO.C,SW9*%
X106680000Y-151130000D03*
D17*
X111760000Y-151130000D03*
D16*
X116840000Y-151130000D03*
D19*
X107950000Y-148590000D03*
X114300000Y-146050000D03*
%TD*%
D16*
%TO.C,SW12*%
X127000000Y-130810000D03*
D17*
X132080000Y-130810000D03*
D16*
X137160000Y-130810000D03*
D19*
X128270000Y-128270000D03*
X134620000Y-125730000D03*
%TD*%
D20*
%TO.C,R5*%
X140970000Y-48006000D03*
D21*
X148590000Y-48006000D03*
%TD*%
D16*
%TO.C,SW15*%
X147320000Y-110490000D03*
D17*
X152400000Y-110490000D03*
D16*
X157480000Y-110490000D03*
D19*
X148590000Y-107950000D03*
X154940000Y-105410000D03*
%TD*%
D16*
%TO.C,SW8*%
X106680000Y-130810000D03*
D17*
X111760000Y-130810000D03*
D16*
X116840000Y-130810000D03*
D19*
X107950000Y-128270000D03*
X114300000Y-125730000D03*
%TD*%
D16*
%TO.C,SW4*%
X86360000Y-130810000D03*
D17*
X91440000Y-130810000D03*
D16*
X96520000Y-130810000D03*
D19*
X87630000Y-128270000D03*
X93980000Y-125730000D03*
%TD*%
D16*
%TO.C,SW6*%
X106680000Y-90170000D03*
D17*
X111760000Y-90170000D03*
D16*
X116840000Y-90170000D03*
D19*
X107950000Y-87630000D03*
X114300000Y-85090000D03*
%TD*%
D16*
%TO.C,SW14*%
X147320000Y-90170000D03*
D17*
X152400000Y-90170000D03*
D16*
X157480000Y-90170000D03*
D19*
X148590000Y-87630000D03*
X154940000Y-85090000D03*
%TD*%
D20*
%TO.C,C2*%
X146558000Y-76708000D03*
X141558000Y-76708000D03*
%TD*%
D16*
%TO.C,SW16*%
X147320000Y-130810000D03*
D17*
X152400000Y-130810000D03*
D16*
X157480000Y-130810000D03*
D19*
X148590000Y-128270000D03*
X154940000Y-125730000D03*
%TD*%
D25*
%TO.C,J1*%
X133858000Y-43327500D03*
X133858000Y-50327500D03*
%TD*%
D20*
%TO.C,R6*%
X126746000Y-43180000D03*
D21*
X119126000Y-43180000D03*
%TD*%
D20*
%TO.C,R7*%
X136906000Y-59436000D03*
D21*
X129286000Y-59436000D03*
%TD*%
%LPD*%
M02*
