  0
SECTION
  2
HEADER
  9
$ANGBASE
  50
0.0
  9
$ANGDIR
  70
1
  9
$MEASUREMENT
  70
1
  0
ENDSEC
  0
SECTION
  2
TABLES
  0
TABLE
  2
LTYPE
  70
4
  0
LTYPE
  5
40F
  2
CONTINUOUS
  70
0
  3
Solid line
  72
65
  73
0
  40
0.0
  0
LTYPE
  5
410
  2
DASHDOT
 70
0
  3
Dash Dot ____ _ ____ _
 72
65
 73
4
 40
2.0
 49
1.25
 49
-0.25
 49
0.25
 49
-0.25
  0
LTYPE
  5
411
  2
DASHED
 70
0
  3
Dashed __ __ __ __ __
 72
65
 73
2
 40
0.75
 49
0.5
 49
-0.25
  0
LTYPE
  5
43B
  2
DOTTED
 70
0
  3
Dotted .  .  .  .
 72
65
 73
2
 40
0.2
 49
0.0
 49
-0.2
  0
ENDTAB
  0
TABLE
  2
STYLE
  70
4
  0
STYLE
  2
KICAD
  70
0
  40
0
  41
1
  42
1
  50
0
  71
0
  3
isocp.shx
  0
STYLE
  2
KICADB
  70
0
  40
0
  41
1
  42
1
  50
0
  71
0
  3
isocp.shx
  0
STYLE
  2
KICADI
  70
0
  40
0
  41
1
  42
1
  50
15
  71
0
  3
isocp.shx
  0
STYLE
  2
KICADBI
  70
0
  40
0
  41
1
  42
1
  50
15
  71
0
  3
isocp.shx
  0
ENDTAB
  0
TABLE
  2
LAYER
  70
1
  0
LAYER
  2
BLACK
  70
0
  62
7
  6
CONTINUOUS
  0
ENDTAB
  0
ENDSEC
  0
SECTION
  2
ENTITIES
0
CIRCLE
8
BLACK
10
167.64
20
-161.798
40
1.55
0
LINE
8
BLACK
6
CONTINUOUS
10
74.676
20
-38.608
11
169.418
21
-38.608
0
LINE
8
BLACK
6
CONTINUOUS
10
169.418
20
-38.608
11
169.418
21
-163.576
0
LINE
8
BLACK
6
CONTINUOUS
10
169.418
20
-163.576
11
74.676
21
-163.576
0
LINE
8
BLACK
6
CONTINUOUS
10
74.676
20
-163.576
11
74.676
21
-38.608
0
CIRCLE
8
BLACK
10
76.454
20
-40.386
40
1.55
0
CIRCLE
8
BLACK
10
167.64
20
-40.386
40
1.55
0
CIRCLE
8
BLACK
10
76.454
20
-161.798
40
1.55
0
LINE
8
BLACK
6
CONTINUOUS
10
88.519
20
-45.336
11
90.019
21
-46.836
0
LINE
8
BLACK
6
CONTINUOUS
10
90.019
20
-45.336
11
88.519
21
-46.836
0
LINE
8
BLACK
6
CONTINUOUS
10
93.369
20
-45.336
11
94.869
21
-46.836
0
LINE
8
BLACK
6
CONTINUOUS
10
94.869
20
-45.336
11
93.369
21
-46.836
0
CIRCLE
8
BLACK
10
133.858
20
-43.3275
40
0.85
0
CIRCLE
8
BLACK
10
133.858
20
-50.3275
40
0.85
0
LINE
8
BLACK
6
CONTINUOUS
10
88.969
20
-42.156
11
88.969
21
-43.956
0
LINE
8
BLACK
6
CONTINUOUS
10
88.069
20
-43.056
11
89.869
21
-43.056
0
LINE
8
BLACK
6
CONTINUOUS
10
94.419
20
-42.156
11
94.419
21
-43.956
0
LINE
8
BLACK
6
CONTINUOUS
10
93.519
20
-43.056
11
95.319
21
-43.056
0
LINE
8
BLACK
6
CONTINUOUS
10
87.0318
20
-90.8418
11
87.0318
21
-89.4982
0
LINE
8
BLACK
6
CONTINUOUS
10
87.0318
20
-89.4982
11
85.6882
21
-89.4982
0
LINE
8
BLACK
6
CONTINUOUS
10
85.6882
20
-89.4982
11
85.6882
21
-90.8418
0
LINE
8
BLACK
6
CONTINUOUS
10
85.6882
20
-90.8418
11
87.0318
21
-90.8418
0
LINE
8
BLACK
6
CONTINUOUS
10
87.0318
20
-111.162
11
87.0318
21
-109.818
0
LINE
8
BLACK
6
CONTINUOUS
10
87.0318
20
-109.818
11
85.6882
21
-109.818
0
LINE
8
BLACK
6
CONTINUOUS
10
85.6882
20
-109.818
11
85.6882
21
-111.162
0
LINE
8
BLACK
6
CONTINUOUS
10
85.6882
20
-111.162
11
87.0318
21
-111.162
0
LINE
8
BLACK
6
CONTINUOUS
10
87.0318
20
-131.482
11
87.0318
21
-130.138
0
LINE
8
BLACK
6
CONTINUOUS
10
87.0318
20
-130.138
11
85.6882
21
-130.138
0
LINE
8
BLACK
6
CONTINUOUS
10
85.6882
20
-130.138
11
85.6882
21
-131.482
0
LINE
8
BLACK
6
CONTINUOUS
10
85.6882
20
-131.482
11
87.0318
21
-131.482
0
LINE
8
BLACK
6
CONTINUOUS
10
87.0318
20
-151.802
11
87.0318
21
-150.458
0
LINE
8
BLACK
6
CONTINUOUS
10
87.0318
20
-150.458
11
85.6882
21
-150.458
0
LINE
8
BLACK
6
CONTINUOUS
10
85.6882
20
-150.458
11
85.6882
21
-151.802
0
LINE
8
BLACK
6
CONTINUOUS
10
85.6882
20
-151.802
11
87.0318
21
-151.802
0
LINE
8
BLACK
6
CONTINUOUS
10
92.1118
20
-54.3818
11
92.1118
21
-53.0382
0
LINE
8
BLACK
6
CONTINUOUS
10
92.1118
20
-53.0382
11
90.7682
21
-53.0382
0
LINE
8
BLACK
6
CONTINUOUS
10
90.7682
20
-53.0382
11
90.7682
21
-54.3818
0
LINE
8
BLACK
6
CONTINUOUS
10
90.7682
20
-54.3818
11
92.1118
21
-54.3818
0
LINE
8
BLACK
6
CONTINUOUS
10
92.1118
20
-64.5418
11
92.1118
21
-63.1982
0
LINE
8
BLACK
6
CONTINUOUS
10
92.1118
20
-63.1982
11
90.7682
21
-63.1982
0
LINE
8
BLACK
6
CONTINUOUS
10
90.7682
20
-63.1982
11
90.7682
21
-64.5418
0
LINE
8
BLACK
6
CONTINUOUS
10
90.7682
20
-64.5418
11
92.1118
21
-64.5418
0
LINE
8
BLACK
6
CONTINUOUS
10
97.1918
20
-90.8418
11
97.1918
21
-89.4982
0
LINE
8
BLACK
6
CONTINUOUS
10
97.1918
20
-89.4982
11
95.8482
21
-89.4982
0
LINE
8
BLACK
6
CONTINUOUS
10
95.8482
20
-89.4982
11
95.8482
21
-90.8418
0
LINE
8
BLACK
6
CONTINUOUS
10
95.8482
20
-90.8418
11
97.1918
21
-90.8418
0
LINE
8
BLACK
6
CONTINUOUS
10
97.1918
20
-111.162
11
97.1918
21
-109.818
0
LINE
8
BLACK
6
CONTINUOUS
10
97.1918
20
-109.818
11
95.8482
21
-109.818
0
LINE
8
BLACK
6
CONTINUOUS
10
95.8482
20
-109.818
11
95.8482
21
-111.162
0
LINE
8
BLACK
6
CONTINUOUS
10
95.8482
20
-111.162
11
97.1918
21
-111.162
0
LINE
8
BLACK
6
CONTINUOUS
10
97.1918
20
-131.482
11
97.1918
21
-130.138
0
LINE
8
BLACK
6
CONTINUOUS
10
97.1918
20
-130.138
11
95.8482
21
-130.138
0
LINE
8
BLACK
6
CONTINUOUS
10
95.8482
20
-130.138
11
95.8482
21
-131.482
0
LINE
8
BLACK
6
CONTINUOUS
10
95.8482
20
-131.482
11
97.1918
21
-131.482
0
LINE
8
BLACK
6
CONTINUOUS
10
97.1918
20
-151.802
11
97.1918
21
-150.458
0
LINE
8
BLACK
6
CONTINUOUS
10
97.1918
20
-150.458
11
95.8482
21
-150.458
0
LINE
8
BLACK
6
CONTINUOUS
10
95.8482
20
-150.458
11
95.8482
21
-151.802
0
LINE
8
BLACK
6
CONTINUOUS
10
95.8482
20
-151.802
11
97.1918
21
-151.802
0
LINE
8
BLACK
6
CONTINUOUS
10
107.352
20
-90.8418
11
107.352
21
-89.4982
0
LINE
8
BLACK
6
CONTINUOUS
10
107.352
20
-89.4982
11
106.008
21
-89.4982
0
LINE
8
BLACK
6
CONTINUOUS
10
106.008
20
-89.4982
11
106.008
21
-90.8418
0
LINE
8
BLACK
6
CONTINUOUS
10
106.008
20
-90.8418
11
107.352
21
-90.8418
0
LINE
8
BLACK
6
CONTINUOUS
10
107.352
20
-111.162
11
107.352
21
-109.818
0
LINE
8
BLACK
6
CONTINUOUS
10
107.352
20
-109.818
11
106.008
21
-109.818
0
LINE
8
BLACK
6
CONTINUOUS
10
106.008
20
-109.818
11
106.008
21
-111.162
0
LINE
8
BLACK
6
CONTINUOUS
10
106.008
20
-111.162
11
107.352
21
-111.162
0
LINE
8
BLACK
6
CONTINUOUS
10
107.352
20
-131.482
11
107.352
21
-130.138
0
LINE
8
BLACK
6
CONTINUOUS
10
107.352
20
-130.138
11
106.008
21
-130.138
0
LINE
8
BLACK
6
CONTINUOUS
10
106.008
20
-130.138
11
106.008
21
-131.482
0
LINE
8
BLACK
6
CONTINUOUS
10
106.008
20
-131.482
11
107.352
21
-131.482
0
LINE
8
BLACK
6
CONTINUOUS
10
107.352
20
-151.802
11
107.352
21
-150.458
0
LINE
8
BLACK
6
CONTINUOUS
10
107.352
20
-150.458
11
106.008
21
-150.458
0
LINE
8
BLACK
6
CONTINUOUS
10
106.008
20
-150.458
11
106.008
21
-151.802
0
LINE
8
BLACK
6
CONTINUOUS
10
106.008
20
-151.802
11
107.352
21
-151.802
0
LINE
8
BLACK
6
CONTINUOUS
10
117.512
20
-90.8418
11
117.512
21
-89.4982
0
LINE
8
BLACK
6
CONTINUOUS
10
117.512
20
-89.4982
11
116.168
21
-89.4982
0
LINE
8
BLACK
6
CONTINUOUS
10
116.168
20
-89.4982
11
116.168
21
-90.8418
0
LINE
8
BLACK
6
CONTINUOUS
10
116.168
20
-90.8418
11
117.512
21
-90.8418
0
LINE
8
BLACK
6
CONTINUOUS
10
117.512
20
-111.162
11
117.512
21
-109.818
0
LINE
8
BLACK
6
CONTINUOUS
10
117.512
20
-109.818
11
116.168
21
-109.818
0
LINE
8
BLACK
6
CONTINUOUS
10
116.168
20
-109.818
11
116.168
21
-111.162
0
LINE
8
BLACK
6
CONTINUOUS
10
116.168
20
-111.162
11
117.512
21
-111.162
0
LINE
8
BLACK
6
CONTINUOUS
10
117.512
20
-131.482
11
117.512
21
-130.138
0
LINE
8
BLACK
6
CONTINUOUS
10
117.512
20
-130.138
11
116.168
21
-130.138
0
LINE
8
BLACK
6
CONTINUOUS
10
116.168
20
-130.138
11
116.168
21
-131.482
0
LINE
8
BLACK
6
CONTINUOUS
10
116.168
20
-131.482
11
117.512
21
-131.482
0
LINE
8
BLACK
6
CONTINUOUS
10
117.512
20
-151.802
11
117.512
21
-150.458
0
LINE
8
BLACK
6
CONTINUOUS
10
117.512
20
-150.458
11
116.168
21
-150.458
0
LINE
8
BLACK
6
CONTINUOUS
10
116.168
20
-150.458
11
116.168
21
-151.802
0
LINE
8
BLACK
6
CONTINUOUS
10
116.168
20
-151.802
11
117.512
21
-151.802
0
LINE
8
BLACK
6
CONTINUOUS
10
127.672
20
-90.8418
11
127.672
21
-89.4982
0
LINE
8
BLACK
6
CONTINUOUS
10
127.672
20
-89.4982
11
126.328
21
-89.4982
0
LINE
8
BLACK
6
CONTINUOUS
10
126.328
20
-89.4982
11
126.328
21
-90.8418
0
LINE
8
BLACK
6
CONTINUOUS
10
126.328
20
-90.8418
11
127.672
21
-90.8418
0
LINE
8
BLACK
6
CONTINUOUS
10
127.672
20
-111.162
11
127.672
21
-109.818
0
LINE
8
BLACK
6
CONTINUOUS
10
127.672
20
-109.818
11
126.328
21
-109.818
0
LINE
8
BLACK
6
CONTINUOUS
10
126.328
20
-109.818
11
126.328
21
-111.162
0
LINE
8
BLACK
6
CONTINUOUS
10
126.328
20
-111.162
11
127.672
21
-111.162
0
LINE
8
BLACK
6
CONTINUOUS
10
127.672
20
-131.482
11
127.672
21
-130.138
0
LINE
8
BLACK
6
CONTINUOUS
10
127.672
20
-130.138
11
126.328
21
-130.138
0
LINE
8
BLACK
6
CONTINUOUS
10
126.328
20
-130.138
11
126.328
21
-131.482
0
LINE
8
BLACK
6
CONTINUOUS
10
126.328
20
-131.482
11
127.672
21
-131.482
0
LINE
8
BLACK
6
CONTINUOUS
10
127.672
20
-151.802
11
127.672
21
-150.458
0
LINE
8
BLACK
6
CONTINUOUS
10
127.672
20
-150.458
11
126.328
21
-150.458
0
LINE
8
BLACK
6
CONTINUOUS
10
126.328
20
-150.458
11
126.328
21
-151.802
0
LINE
8
BLACK
6
CONTINUOUS
10
126.328
20
-151.802
11
127.672
21
-151.802
0
LINE
8
BLACK
6
CONTINUOUS
10
137.832
20
-90.8418
11
137.832
21
-89.4982
0
LINE
8
BLACK
6
CONTINUOUS
10
137.832
20
-89.4982
11
136.488
21
-89.4982
0
LINE
8
BLACK
6
CONTINUOUS
10
136.488
20
-89.4982
11
136.488
21
-90.8418
0
LINE
8
BLACK
6
CONTINUOUS
10
136.488
20
-90.8418
11
137.832
21
-90.8418
0
LINE
8
BLACK
6
CONTINUOUS
10
137.832
20
-111.162
11
137.832
21
-109.818
0
LINE
8
BLACK
6
CONTINUOUS
10
137.832
20
-109.818
11
136.488
21
-109.818
0
LINE
8
BLACK
6
CONTINUOUS
10
136.488
20
-109.818
11
136.488
21
-111.162
0
LINE
8
BLACK
6
CONTINUOUS
10
136.488
20
-111.162
11
137.832
21
-111.162
0
LINE
8
BLACK
6
CONTINUOUS
10
137.832
20
-131.482
11
137.832
21
-130.138
0
LINE
8
BLACK
6
CONTINUOUS
10
137.832
20
-130.138
11
136.488
21
-130.138
0
LINE
8
BLACK
6
CONTINUOUS
10
136.488
20
-130.138
11
136.488
21
-131.482
0
LINE
8
BLACK
6
CONTINUOUS
10
136.488
20
-131.482
11
137.832
21
-131.482
0
LINE
8
BLACK
6
CONTINUOUS
10
137.832
20
-151.802
11
137.832
21
-150.458
0
LINE
8
BLACK
6
CONTINUOUS
10
137.832
20
-150.458
11
136.488
21
-150.458
0
LINE
8
BLACK
6
CONTINUOUS
10
136.488
20
-150.458
11
136.488
21
-151.802
0
LINE
8
BLACK
6
CONTINUOUS
10
136.488
20
-151.802
11
137.832
21
-151.802
0
LINE
8
BLACK
6
CONTINUOUS
10
147.992
20
-90.8418
11
147.992
21
-89.4982
0
LINE
8
BLACK
6
CONTINUOUS
10
147.992
20
-89.4982
11
146.648
21
-89.4982
0
LINE
8
BLACK
6
CONTINUOUS
10
146.648
20
-89.4982
11
146.648
21
-90.8418
0
LINE
8
BLACK
6
CONTINUOUS
10
146.648
20
-90.8418
11
147.992
21
-90.8418
0
LINE
8
BLACK
6
CONTINUOUS
10
147.992
20
-111.162
11
147.992
21
-109.818
0
LINE
8
BLACK
6
CONTINUOUS
10
147.992
20
-109.818
11
146.648
21
-109.818
0
LINE
8
BLACK
6
CONTINUOUS
10
146.648
20
-109.818
11
146.648
21
-111.162
0
LINE
8
BLACK
6
CONTINUOUS
10
146.648
20
-111.162
11
147.992
21
-111.162
0
LINE
8
BLACK
6
CONTINUOUS
10
147.992
20
-131.482
11
147.992
21
-130.138
0
LINE
8
BLACK
6
CONTINUOUS
10
147.992
20
-130.138
11
146.648
21
-130.138
0
LINE
8
BLACK
6
CONTINUOUS
10
146.648
20
-130.138
11
146.648
21
-131.482
0
LINE
8
BLACK
6
CONTINUOUS
10
146.648
20
-131.482
11
147.992
21
-131.482
0
LINE
8
BLACK
6
CONTINUOUS
10
147.992
20
-151.802
11
147.992
21
-150.458
0
LINE
8
BLACK
6
CONTINUOUS
10
147.992
20
-150.458
11
146.648
21
-150.458
0
LINE
8
BLACK
6
CONTINUOUS
10
146.648
20
-150.458
11
146.648
21
-151.802
0
LINE
8
BLACK
6
CONTINUOUS
10
146.648
20
-151.802
11
147.992
21
-151.802
0
LINE
8
BLACK
6
CONTINUOUS
10
158.152
20
-90.8418
11
158.152
21
-89.4982
0
LINE
8
BLACK
6
CONTINUOUS
10
158.152
20
-89.4982
11
156.808
21
-89.4982
0
LINE
8
BLACK
6
CONTINUOUS
10
156.808
20
-89.4982
11
156.808
21
-90.8418
0
LINE
8
BLACK
6
CONTINUOUS
10
156.808
20
-90.8418
11
158.152
21
-90.8418
0
LINE
8
BLACK
6
CONTINUOUS
10
158.152
20
-111.162
11
158.152
21
-109.818
0
LINE
8
BLACK
6
CONTINUOUS
10
158.152
20
-109.818
11
156.808
21
-109.818
0
LINE
8
BLACK
6
CONTINUOUS
10
156.808
20
-109.818
11
156.808
21
-111.162
0
LINE
8
BLACK
6
CONTINUOUS
10
156.808
20
-111.162
11
158.152
21
-111.162
0
LINE
8
BLACK
6
CONTINUOUS
10
158.152
20
-131.482
11
158.152
21
-130.138
0
LINE
8
BLACK
6
CONTINUOUS
10
158.152
20
-130.138
11
156.808
21
-130.138
0
LINE
8
BLACK
6
CONTINUOUS
10
156.808
20
-130.138
11
156.808
21
-131.482
0
LINE
8
BLACK
6
CONTINUOUS
10
156.808
20
-131.482
11
158.152
21
-131.482
0
LINE
8
BLACK
6
CONTINUOUS
10
158.152
20
-151.802
11
158.152
21
-150.458
0
LINE
8
BLACK
6
CONTINUOUS
10
158.152
20
-150.458
11
156.808
21
-150.458
0
LINE
8
BLACK
6
CONTINUOUS
10
156.808
20
-150.458
11
156.808
21
-151.802
0
LINE
8
BLACK
6
CONTINUOUS
10
156.808
20
-151.802
11
158.152
21
-151.802
0
LINE
8
BLACK
6
CONTINUOUS
10
91.44
20
-60.79
11
93.44
21
-58.79
0
LINE
8
BLACK
6
CONTINUOUS
10
93.44
20
-58.79
11
91.44
21
-56.79
0
LINE
8
BLACK
6
CONTINUOUS
10
91.44
20
-56.79
11
89.44
21
-58.79
0
LINE
8
BLACK
6
CONTINUOUS
10
89.44
20
-58.79
11
91.44
21
-60.79
0
LINE
8
BLACK
6
CONTINUOUS
10
91.44
20
-92.17
11
93.44
21
-90.17
0
LINE
8
BLACK
6
CONTINUOUS
10
93.44
20
-90.17
11
91.44
21
-88.17
0
LINE
8
BLACK
6
CONTINUOUS
10
91.44
20
-88.17
11
89.44
21
-90.17
0
LINE
8
BLACK
6
CONTINUOUS
10
89.44
20
-90.17
11
91.44
21
-92.17
0
LINE
8
BLACK
6
CONTINUOUS
10
91.44
20
-112.49
11
93.44
21
-110.49
0
LINE
8
BLACK
6
CONTINUOUS
10
93.44
20
-110.49
11
91.44
21
-108.49
0
LINE
8
BLACK
6
CONTINUOUS
10
91.44
20
-108.49
11
89.44
21
-110.49
0
LINE
8
BLACK
6
CONTINUOUS
10
89.44
20
-110.49
11
91.44
21
-112.49
0
LINE
8
BLACK
6
CONTINUOUS
10
91.44
20
-132.81
11
93.44
21
-130.81
0
LINE
8
BLACK
6
CONTINUOUS
10
93.44
20
-130.81
11
91.44
21
-128.81
0
LINE
8
BLACK
6
CONTINUOUS
10
91.44
20
-128.81
11
89.44
21
-130.81
0
LINE
8
BLACK
6
CONTINUOUS
10
89.44
20
-130.81
11
91.44
21
-132.81
0
LINE
8
BLACK
6
CONTINUOUS
10
91.44
20
-153.13
11
93.44
21
-151.13
0
LINE
8
BLACK
6
CONTINUOUS
10
93.44
20
-151.13
11
91.44
21
-149.13
0
LINE
8
BLACK
6
CONTINUOUS
10
91.44
20
-149.13
11
89.44
21
-151.13
0
LINE
8
BLACK
6
CONTINUOUS
10
89.44
20
-151.13
11
91.44
21
-153.13
0
LINE
8
BLACK
6
CONTINUOUS
10
111.76
20
-92.17
11
113.76
21
-90.17
0
LINE
8
BLACK
6
CONTINUOUS
10
113.76
20
-90.17
11
111.76
21
-88.17
0
LINE
8
BLACK
6
CONTINUOUS
10
111.76
20
-88.17
11
109.76
21
-90.17
0
LINE
8
BLACK
6
CONTINUOUS
10
109.76
20
-90.17
11
111.76
21
-92.17
0
LINE
8
BLACK
6
CONTINUOUS
10
111.76
20
-112.49
11
113.76
21
-110.49
0
LINE
8
BLACK
6
CONTINUOUS
10
113.76
20
-110.49
11
111.76
21
-108.49
0
LINE
8
BLACK
6
CONTINUOUS
10
111.76
20
-108.49
11
109.76
21
-110.49
0
LINE
8
BLACK
6
CONTINUOUS
10
109.76
20
-110.49
11
111.76
21
-112.49
0
LINE
8
BLACK
6
CONTINUOUS
10
111.76
20
-132.81
11
113.76
21
-130.81
0
LINE
8
BLACK
6
CONTINUOUS
10
113.76
20
-130.81
11
111.76
21
-128.81
0
LINE
8
BLACK
6
CONTINUOUS
10
111.76
20
-128.81
11
109.76
21
-130.81
0
LINE
8
BLACK
6
CONTINUOUS
10
109.76
20
-130.81
11
111.76
21
-132.81
0
LINE
8
BLACK
6
CONTINUOUS
10
111.76
20
-153.13
11
113.76
21
-151.13
0
LINE
8
BLACK
6
CONTINUOUS
10
113.76
20
-151.13
11
111.76
21
-149.13
0
LINE
8
BLACK
6
CONTINUOUS
10
111.76
20
-149.13
11
109.76
21
-151.13
0
LINE
8
BLACK
6
CONTINUOUS
10
109.76
20
-151.13
11
111.76
21
-153.13
0
LINE
8
BLACK
6
CONTINUOUS
10
132.08
20
-92.17
11
134.08
21
-90.17
0
LINE
8
BLACK
6
CONTINUOUS
10
134.08
20
-90.17
11
132.08
21
-88.17
0
LINE
8
BLACK
6
CONTINUOUS
10
132.08
20
-88.17
11
130.08
21
-90.17
0
LINE
8
BLACK
6
CONTINUOUS
10
130.08
20
-90.17
11
132.08
21
-92.17
0
LINE
8
BLACK
6
CONTINUOUS
10
132.08
20
-112.49
11
134.08
21
-110.49
0
LINE
8
BLACK
6
CONTINUOUS
10
134.08
20
-110.49
11
132.08
21
-108.49
0
LINE
8
BLACK
6
CONTINUOUS
10
132.08
20
-108.49
11
130.08
21
-110.49
0
LINE
8
BLACK
6
CONTINUOUS
10
130.08
20
-110.49
11
132.08
21
-112.49
0
LINE
8
BLACK
6
CONTINUOUS
10
132.08
20
-132.81
11
134.08
21
-130.81
0
LINE
8
BLACK
6
CONTINUOUS
10
134.08
20
-130.81
11
132.08
21
-128.81
0
LINE
8
BLACK
6
CONTINUOUS
10
132.08
20
-128.81
11
130.08
21
-130.81
0
LINE
8
BLACK
6
CONTINUOUS
10
130.08
20
-130.81
11
132.08
21
-132.81
0
LINE
8
BLACK
6
CONTINUOUS
10
132.08
20
-153.13
11
134.08
21
-151.13
0
LINE
8
BLACK
6
CONTINUOUS
10
134.08
20
-151.13
11
132.08
21
-149.13
0
LINE
8
BLACK
6
CONTINUOUS
10
132.08
20
-149.13
11
130.08
21
-151.13
0
LINE
8
BLACK
6
CONTINUOUS
10
130.08
20
-151.13
11
132.08
21
-153.13
0
LINE
8
BLACK
6
CONTINUOUS
10
152.4
20
-92.17
11
154.4
21
-90.17
0
LINE
8
BLACK
6
CONTINUOUS
10
154.4
20
-90.17
11
152.4
21
-88.17
0
LINE
8
BLACK
6
CONTINUOUS
10
152.4
20
-88.17
11
150.4
21
-90.17
0
LINE
8
BLACK
6
CONTINUOUS
10
150.4
20
-90.17
11
152.4
21
-92.17
0
LINE
8
BLACK
6
CONTINUOUS
10
152.4
20
-112.49
11
154.4
21
-110.49
0
LINE
8
BLACK
6
CONTINUOUS
10
154.4
20
-110.49
11
152.4
21
-108.49
0
LINE
8
BLACK
6
CONTINUOUS
10
152.4
20
-108.49
11
150.4
21
-110.49
0
LINE
8
BLACK
6
CONTINUOUS
10
150.4
20
-110.49
11
152.4
21
-112.49
0
LINE
8
BLACK
6
CONTINUOUS
10
152.4
20
-132.81
11
154.4
21
-130.81
0
LINE
8
BLACK
6
CONTINUOUS
10
154.4
20
-130.81
11
152.4
21
-128.81
0
LINE
8
BLACK
6
CONTINUOUS
10
152.4
20
-128.81
11
150.4
21
-130.81
0
LINE
8
BLACK
6
CONTINUOUS
10
150.4
20
-130.81
11
152.4
21
-132.81
0
LINE
8
BLACK
6
CONTINUOUS
10
152.4
20
-153.13
11
154.4
21
-151.13
0
LINE
8
BLACK
6
CONTINUOUS
10
154.4
20
-151.13
11
152.4
21
-149.13
0
LINE
8
BLACK
6
CONTINUOUS
10
152.4
20
-149.13
11
150.4
21
-151.13
0
LINE
8
BLACK
6
CONTINUOUS
10
150.4
20
-151.13
11
152.4
21
-153.13
0
LINE
8
BLACK
6
CONTINUOUS
10
77.2338
20
-166.741
11
77.2338
21
-164.741
0
LINE
8
BLACK
6
CONTINUOUS
10
77.2338
20
-164.741
11
77.71
21
-164.741
0
LINE
8
BLACK
6
CONTINUOUS
10
77.71
20
-164.741
11
77.9957
21
-164.836
0
LINE
8
BLACK
6
CONTINUOUS
10
77.9957
20
-164.836
11
78.1861
21
-165.027
0
LINE
8
BLACK
6
CONTINUOUS
10
78.1861
20
-165.027
11
78.2814
21
-165.217
0
LINE
8
BLACK
6
CONTINUOUS
10
78.2814
20
-165.217
11
78.3766
21
-165.598
0
LINE
8
BLACK
6
CONTINUOUS
10
78.3766
20
-165.598
11
78.3766
21
-165.884
0
LINE
8
BLACK
6
CONTINUOUS
10
78.3766
20
-165.884
11
78.2814
21
-166.265
0
LINE
8
BLACK
6
CONTINUOUS
10
78.2814
20
-166.265
11
78.1861
21
-166.455
0
LINE
8
BLACK
6
CONTINUOUS
10
78.1861
20
-166.455
11
77.9957
21
-166.646
0
LINE
8
BLACK
6
CONTINUOUS
10
77.9957
20
-166.646
11
77.71
21
-166.741
0
LINE
8
BLACK
6
CONTINUOUS
10
77.71
20
-166.741
11
77.2338
21
-166.741
0
LINE
8
BLACK
6
CONTINUOUS
10
79.2338
20
-166.741
11
79.2338
21
-165.408
0
LINE
8
BLACK
6
CONTINUOUS
10
79.2338
20
-165.788
11
79.329
21
-165.598
0
LINE
8
BLACK
6
CONTINUOUS
10
79.329
20
-165.598
11
79.4242
21
-165.503
0
LINE
8
BLACK
6
CONTINUOUS
10
79.4242
20
-165.503
11
79.6147
21
-165.408
0
LINE
8
BLACK
6
CONTINUOUS
10
79.6147
20
-165.408
11
79.8052
21
-165.408
0
LINE
8
BLACK
6
CONTINUOUS
10
80.4719
20
-166.741
11
80.4719
21
-165.408
0
LINE
8
BLACK
6
CONTINUOUS
10
80.4719
20
-164.741
11
80.3766
21
-164.836
0
LINE
8
BLACK
6
CONTINUOUS
10
80.3766
20
-164.836
11
80.4719
21
-164.931
0
LINE
8
BLACK
6
CONTINUOUS
10
80.4719
20
-164.931
11
80.5671
21
-164.836
0
LINE
8
BLACK
6
CONTINUOUS
10
80.5671
20
-164.836
11
80.4719
21
-164.741
0
LINE
8
BLACK
6
CONTINUOUS
10
80.4719
20
-164.741
11
80.4719
21
-164.931
0
LINE
8
BLACK
6
CONTINUOUS
10
81.71
20
-166.741
11
81.5195
21
-166.646
0
LINE
8
BLACK
6
CONTINUOUS
10
81.5195
20
-166.646
11
81.4242
21
-166.455
0
LINE
8
BLACK
6
CONTINUOUS
10
81.4242
20
-166.455
11
81.4242
21
-164.741
0
LINE
8
BLACK
6
CONTINUOUS
10
82.7576
20
-166.741
11
82.5671
21
-166.646
0
LINE
8
BLACK
6
CONTINUOUS
10
82.5671
20
-166.646
11
82.4719
21
-166.455
0
LINE
8
BLACK
6
CONTINUOUS
10
82.4719
20
-166.455
11
82.4719
21
-164.741
0
LINE
8
BLACK
6
CONTINUOUS
10
85.0433
20
-166.741
11
85.0433
21
-164.741
0
LINE
8
BLACK
6
CONTINUOUS
10
85.0433
20
-164.741
11
85.71
21
-166.169
0
LINE
8
BLACK
6
CONTINUOUS
10
85.71
20
-166.169
11
86.3766
21
-164.741
0
LINE
8
BLACK
6
CONTINUOUS
10
86.3766
20
-164.741
11
86.3766
21
-166.741
0
LINE
8
BLACK
6
CONTINUOUS
10
88.1861
20
-166.741
11
88.1861
21
-165.693
0
LINE
8
BLACK
6
CONTINUOUS
10
88.1861
20
-165.693
11
88.0909
21
-165.503
0
LINE
8
BLACK
6
CONTINUOUS
10
88.0909
20
-165.503
11
87.9004
21
-165.408
0
LINE
8
BLACK
6
CONTINUOUS
10
87.9004
20
-165.408
11
87.5195
21
-165.408
0
LINE
8
BLACK
6
CONTINUOUS
10
87.5195
20
-165.408
11
87.329
21
-165.503
0
LINE
8
BLACK
6
CONTINUOUS
10
88.1861
20
-166.646
11
87.9957
21
-166.741
0
LINE
8
BLACK
6
CONTINUOUS
10
87.9957
20
-166.741
11
87.5195
21
-166.741
0
LINE
8
BLACK
6
CONTINUOUS
10
87.5195
20
-166.741
11
87.329
21
-166.646
0
LINE
8
BLACK
6
CONTINUOUS
10
87.329
20
-166.646
11
87.2338
21
-166.455
0
LINE
8
BLACK
6
CONTINUOUS
10
87.2338
20
-166.455
11
87.2338
21
-166.265
0
LINE
8
BLACK
6
CONTINUOUS
10
87.2338
20
-166.265
11
87.329
21
-166.074
0
LINE
8
BLACK
6
CONTINUOUS
10
87.329
20
-166.074
11
87.5195
21
-165.979
0
LINE
8
BLACK
6
CONTINUOUS
10
87.5195
20
-165.979
11
87.9957
21
-165.979
0
LINE
8
BLACK
6
CONTINUOUS
10
87.9957
20
-165.979
11
88.1861
21
-165.884
0
LINE
8
BLACK
6
CONTINUOUS
10
89.1385
20
-165.408
11
89.1385
21
-167.408
0
LINE
8
BLACK
6
CONTINUOUS
10
89.1385
20
-165.503
11
89.329
21
-165.408
0
LINE
8
BLACK
6
CONTINUOUS
10
89.329
20
-165.408
11
89.71
21
-165.408
0
LINE
8
BLACK
6
CONTINUOUS
10
89.71
20
-165.408
11
89.9004
21
-165.503
0
LINE
8
BLACK
6
CONTINUOUS
10
89.9004
20
-165.503
11
89.9957
21
-165.598
0
LINE
8
BLACK
6
CONTINUOUS
10
89.9957
20
-165.598
11
90.0909
21
-165.788
0
LINE
8
BLACK
6
CONTINUOUS
10
90.0909
20
-165.788
11
90.0909
21
-166.36
0
LINE
8
BLACK
6
CONTINUOUS
10
90.0909
20
-166.36
11
89.9957
21
-166.55
0
LINE
8
BLACK
6
CONTINUOUS
10
89.9957
20
-166.55
11
89.9004
21
-166.646
0
LINE
8
BLACK
6
CONTINUOUS
10
89.9004
20
-166.646
11
89.71
21
-166.741
0
LINE
8
BLACK
6
CONTINUOUS
10
89.71
20
-166.741
11
89.329
21
-166.741
0
LINE
8
BLACK
6
CONTINUOUS
10
89.329
20
-166.741
11
89.1385
21
-166.646
0
LINE
8
BLACK
6
CONTINUOUS
10
90.9481
20
-166.55
11
91.0433
21
-166.646
0
LINE
8
BLACK
6
CONTINUOUS
10
91.0433
20
-166.646
11
90.9481
21
-166.741
0
LINE
8
BLACK
6
CONTINUOUS
10
90.9481
20
-166.741
11
90.8528
21
-166.646
0
LINE
8
BLACK
6
CONTINUOUS
10
90.8528
20
-166.646
11
90.9481
21
-166.55
0
LINE
8
BLACK
6
CONTINUOUS
10
90.9481
20
-166.55
11
90.9481
21
-166.741
0
LINE
8
BLACK
6
CONTINUOUS
10
90.9481
20
-165.503
11
91.0433
21
-165.598
0
LINE
8
BLACK
6
CONTINUOUS
10
91.0433
20
-165.598
11
90.9481
21
-165.693
0
LINE
8
BLACK
6
CONTINUOUS
10
90.9481
20
-165.693
11
90.8528
21
-165.598
0
LINE
8
BLACK
6
CONTINUOUS
10
90.8528
20
-165.598
11
90.9481
21
-165.503
0
LINE
8
BLACK
6
CONTINUOUS
10
90.9481
20
-165.503
11
90.9481
21
-165.693
0
LINE
8
BLACK
6
CONTINUOUS
10
73.126
20
-169.276
11
74.626
21
-170.776
0
LINE
8
BLACK
6
CONTINUOUS
10
74.626
20
-169.276
11
73.126
21
-170.776
0
LINE
8
BLACK
6
CONTINUOUS
10
78.2814
20
-170.941
11
77.1385
21
-170.941
0
LINE
8
BLACK
6
CONTINUOUS
10
77.71
20
-170.941
11
77.71
21
-168.941
0
LINE
8
BLACK
6
CONTINUOUS
10
77.71
20
-168.941
11
77.5195
21
-169.227
0
LINE
8
BLACK
6
CONTINUOUS
10
77.5195
20
-169.227
11
77.329
21
-169.417
0
LINE
8
BLACK
6
CONTINUOUS
10
77.329
20
-169.417
11
77.1385
21
-169.512
0
LINE
8
BLACK
6
CONTINUOUS
10
79.1385
20
-170.75
11
79.2338
21
-170.846
0
LINE
8
BLACK
6
CONTINUOUS
10
79.2338
20
-170.846
11
79.1385
21
-170.941
0
LINE
8
BLACK
6
CONTINUOUS
10
79.1385
20
-170.941
11
79.0433
21
-170.846
0
LINE
8
BLACK
6
CONTINUOUS
10
79.0433
20
-170.846
11
79.1385
21
-170.75
0
LINE
8
BLACK
6
CONTINUOUS
10
79.1385
20
-170.75
11
79.1385
21
-170.941
0
LINE
8
BLACK
6
CONTINUOUS
10
81.0433
20
-168.941
11
80.0909
21
-168.941
0
LINE
8
BLACK
6
CONTINUOUS
10
80.0909
20
-168.941
11
79.9957
21
-169.893
0
LINE
8
BLACK
6
CONTINUOUS
10
79.9957
20
-169.893
11
80.0909
21
-169.798
0
LINE
8
BLACK
6
CONTINUOUS
10
80.0909
20
-169.798
11
80.2814
21
-169.703
0
LINE
8
BLACK
6
CONTINUOUS
10
80.2814
20
-169.703
11
80.7576
21
-169.703
0
LINE
8
BLACK
6
CONTINUOUS
10
80.7576
20
-169.703
11
80.9481
21
-169.798
0
LINE
8
BLACK
6
CONTINUOUS
10
80.9481
20
-169.798
11
81.0433
21
-169.893
0
LINE
8
BLACK
6
CONTINUOUS
10
81.0433
20
-169.893
11
81.1385
21
-170.084
0
LINE
8
BLACK
6
CONTINUOUS
10
81.1385
20
-170.084
11
81.1385
21
-170.56
0
LINE
8
BLACK
6
CONTINUOUS
10
81.1385
20
-170.56
11
81.0433
21
-170.75
0
LINE
8
BLACK
6
CONTINUOUS
10
81.0433
20
-170.75
11
80.9481
21
-170.846
0
LINE
8
BLACK
6
CONTINUOUS
10
80.9481
20
-170.846
11
80.7576
21
-170.941
0
LINE
8
BLACK
6
CONTINUOUS
10
80.7576
20
-170.941
11
80.2814
21
-170.941
0
LINE
8
BLACK
6
CONTINUOUS
10
80.2814
20
-170.941
11
80.0909
21
-170.846
0
LINE
8
BLACK
6
CONTINUOUS
10
80.0909
20
-170.846
11
79.9957
21
-170.75
0
LINE
8
BLACK
6
CONTINUOUS
10
82.3766
20
-168.941
11
82.5671
21
-168.941
0
LINE
8
BLACK
6
CONTINUOUS
10
82.5671
20
-168.941
11
82.7576
21
-169.036
0
LINE
8
BLACK
6
CONTINUOUS
10
82.7576
20
-169.036
11
82.8528
21
-169.131
0
LINE
8
BLACK
6
CONTINUOUS
10
82.8528
20
-169.131
11
82.9481
21
-169.322
0
LINE
8
BLACK
6
CONTINUOUS
10
82.9481
20
-169.322
11
83.0433
21
-169.703
0
LINE
8
BLACK
6
CONTINUOUS
10
83.0433
20
-169.703
11
83.0433
21
-170.179
0
LINE
8
BLACK
6
CONTINUOUS
10
83.0433
20
-170.179
11
82.9481
21
-170.56
0
LINE
8
BLACK
6
CONTINUOUS
10
82.9481
20
-170.56
11
82.8528
21
-170.75
0
LINE
8
BLACK
6
CONTINUOUS
10
82.8528
20
-170.75
11
82.7576
21
-170.846
0
LINE
8
BLACK
6
CONTINUOUS
10
82.7576
20
-170.846
11
82.5671
21
-170.941
0
LINE
8
BLACK
6
CONTINUOUS
10
82.5671
20
-170.941
11
82.3766
21
-170.941
0
LINE
8
BLACK
6
CONTINUOUS
10
82.3766
20
-170.941
11
82.1861
21
-170.846
0
LINE
8
BLACK
6
CONTINUOUS
10
82.1861
20
-170.846
11
82.0909
21
-170.75
0
LINE
8
BLACK
6
CONTINUOUS
10
82.0909
20
-170.75
11
81.9957
21
-170.56
0
LINE
8
BLACK
6
CONTINUOUS
10
81.9957
20
-170.56
11
81.9004
21
-170.179
0
LINE
8
BLACK
6
CONTINUOUS
10
81.9004
20
-170.179
11
81.9004
21
-169.703
0
LINE
8
BLACK
6
CONTINUOUS
10
81.9004
20
-169.703
11
81.9957
21
-169.322
0
LINE
8
BLACK
6
CONTINUOUS
10
81.9957
20
-169.322
11
82.0909
21
-169.131
0
LINE
8
BLACK
6
CONTINUOUS
10
82.0909
20
-169.131
11
82.1861
21
-169.036
0
LINE
8
BLACK
6
CONTINUOUS
10
82.1861
20
-169.036
11
82.3766
21
-168.941
0
LINE
8
BLACK
6
CONTINUOUS
10
84.2814
20
-168.941
11
84.4719
21
-168.941
0
LINE
8
BLACK
6
CONTINUOUS
10
84.4719
20
-168.941
11
84.6623
21
-169.036
0
LINE
8
BLACK
6
CONTINUOUS
10
84.6623
20
-169.036
11
84.7576
21
-169.131
0
LINE
8
BLACK
6
CONTINUOUS
10
84.7576
20
-169.131
11
84.8528
21
-169.322
0
LINE
8
BLACK
6
CONTINUOUS
10
84.8528
20
-169.322
11
84.9481
21
-169.703
0
LINE
8
BLACK
6
CONTINUOUS
10
84.9481
20
-169.703
11
84.9481
21
-170.179
0
LINE
8
BLACK
6
CONTINUOUS
10
84.9481
20
-170.179
11
84.8528
21
-170.56
0
LINE
8
BLACK
6
CONTINUOUS
10
84.8528
20
-170.56
11
84.7576
21
-170.75
0
LINE
8
BLACK
6
CONTINUOUS
10
84.7576
20
-170.75
11
84.6623
21
-170.846
0
LINE
8
BLACK
6
CONTINUOUS
10
84.6623
20
-170.846
11
84.4719
21
-170.941
0
LINE
8
BLACK
6
CONTINUOUS
10
84.4719
20
-170.941
11
84.2814
21
-170.941
0
LINE
8
BLACK
6
CONTINUOUS
10
84.2814
20
-170.941
11
84.0909
21
-170.846
0
LINE
8
BLACK
6
CONTINUOUS
10
84.0909
20
-170.846
11
83.9957
21
-170.75
0
LINE
8
BLACK
6
CONTINUOUS
10
83.9957
20
-170.75
11
83.9004
21
-170.56
0
LINE
8
BLACK
6
CONTINUOUS
10
83.9004
20
-170.56
11
83.8052
21
-170.179
0
LINE
8
BLACK
6
CONTINUOUS
10
83.8052
20
-170.179
11
83.8052
21
-169.703
0
LINE
8
BLACK
6
CONTINUOUS
10
83.8052
20
-169.703
11
83.9004
21
-169.322
0
LINE
8
BLACK
6
CONTINUOUS
10
83.9004
20
-169.322
11
83.9957
21
-169.131
0
LINE
8
BLACK
6
CONTINUOUS
10
83.9957
20
-169.131
11
84.0909
21
-169.036
0
LINE
8
BLACK
6
CONTINUOUS
10
84.0909
20
-169.036
11
84.2814
21
-168.941
0
LINE
8
BLACK
6
CONTINUOUS
10
85.8052
20
-170.941
11
85.8052
21
-169.608
0
LINE
8
BLACK
6
CONTINUOUS
10
85.8052
20
-169.798
11
85.9004
21
-169.703
0
LINE
8
BLACK
6
CONTINUOUS
10
85.9004
20
-169.703
11
86.0909
21
-169.608
0
LINE
8
BLACK
6
CONTINUOUS
10
86.0909
20
-169.608
11
86.3766
21
-169.608
0
LINE
8
BLACK
6
CONTINUOUS
10
86.3766
20
-169.608
11
86.5671
21
-169.703
0
LINE
8
BLACK
6
CONTINUOUS
10
86.5671
20
-169.703
11
86.6623
21
-169.893
0
LINE
8
BLACK
6
CONTINUOUS
10
86.6623
20
-169.893
11
86.6623
21
-170.941
0
LINE
8
BLACK
6
CONTINUOUS
10
86.6623
20
-169.893
11
86.7576
21
-169.703
0
LINE
8
BLACK
6
CONTINUOUS
10
86.7576
20
-169.703
11
86.9481
21
-169.608
0
LINE
8
BLACK
6
CONTINUOUS
10
86.9481
20
-169.608
11
87.2338
21
-169.608
0
LINE
8
BLACK
6
CONTINUOUS
10
87.2338
20
-169.608
11
87.4242
21
-169.703
0
LINE
8
BLACK
6
CONTINUOUS
10
87.4242
20
-169.703
11
87.5195
21
-169.893
0
LINE
8
BLACK
6
CONTINUOUS
10
87.5195
20
-169.893
11
87.5195
21
-170.941
0
LINE
8
BLACK
6
CONTINUOUS
10
88.4719
20
-170.941
11
88.4719
21
-169.608
0
LINE
8
BLACK
6
CONTINUOUS
10
88.4719
20
-169.798
11
88.5671
21
-169.703
0
LINE
8
BLACK
6
CONTINUOUS
10
88.5671
20
-169.703
11
88.7576
21
-169.608
0
LINE
8
BLACK
6
CONTINUOUS
10
88.7576
20
-169.608
11
89.0433
21
-169.608
0
LINE
8
BLACK
6
CONTINUOUS
10
89.0433
20
-169.608
11
89.2338
21
-169.703
0
LINE
8
BLACK
6
CONTINUOUS
10
89.2338
20
-169.703
11
89.329
21
-169.893
0
LINE
8
BLACK
6
CONTINUOUS
10
89.329
20
-169.893
11
89.329
21
-170.941
0
LINE
8
BLACK
6
CONTINUOUS
10
89.329
20
-169.893
11
89.4242
21
-169.703
0
LINE
8
BLACK
6
CONTINUOUS
10
89.4242
20
-169.703
11
89.6147
21
-169.608
0
LINE
8
BLACK
6
CONTINUOUS
10
89.6147
20
-169.608
11
89.9004
21
-169.608
0
LINE
8
BLACK
6
CONTINUOUS
10
89.9004
20
-169.608
11
90.0909
21
-169.703
0
LINE
8
BLACK
6
CONTINUOUS
10
90.0909
20
-169.703
11
90.1861
21
-169.893
0
LINE
8
BLACK
6
CONTINUOUS
10
90.1861
20
-169.893
11
90.1861
21
-170.941
0
LINE
8
BLACK
6
CONTINUOUS
10
94.0909
20
-168.846
11
92.3766
21
-171.417
0
LINE
8
BLACK
6
CONTINUOUS
10
96.6623
20
-168.941
11
96.8528
21
-168.941
0
LINE
8
BLACK
6
CONTINUOUS
10
96.8528
20
-168.941
11
97.0433
21
-169.036
0
LINE
8
BLACK
6
CONTINUOUS
10
97.0433
20
-169.036
11
97.1385
21
-169.131
0
LINE
8
BLACK
6
CONTINUOUS
10
97.1385
20
-169.131
11
97.2338
21
-169.322
0
LINE
8
BLACK
6
CONTINUOUS
10
97.2338
20
-169.322
11
97.329
21
-169.703
0
LINE
8
BLACK
6
CONTINUOUS
10
97.329
20
-169.703
11
97.329
21
-170.179
0
LINE
8
BLACK
6
CONTINUOUS
10
97.329
20
-170.179
11
97.2338
21
-170.56
0
LINE
8
BLACK
6
CONTINUOUS
10
97.2338
20
-170.56
11
97.1385
21
-170.75
0
LINE
8
BLACK
6
CONTINUOUS
10
97.1385
20
-170.75
11
97.0433
21
-170.846
0
LINE
8
BLACK
6
CONTINUOUS
10
97.0433
20
-170.846
11
96.8528
21
-170.941
0
LINE
8
BLACK
6
CONTINUOUS
10
96.8528
20
-170.941
11
96.6623
21
-170.941
0
LINE
8
BLACK
6
CONTINUOUS
10
96.6623
20
-170.941
11
96.4719
21
-170.846
0
LINE
8
BLACK
6
CONTINUOUS
10
96.4719
20
-170.846
11
96.3766
21
-170.75
0
LINE
8
BLACK
6
CONTINUOUS
10
96.3766
20
-170.75
11
96.2814
21
-170.56
0
LINE
8
BLACK
6
CONTINUOUS
10
96.2814
20
-170.56
11
96.1862
21
-170.179
0
LINE
8
BLACK
6
CONTINUOUS
10
96.1862
20
-170.179
11
96.1862
21
-169.703
0
LINE
8
BLACK
6
CONTINUOUS
10
96.1862
20
-169.703
11
96.2814
21
-169.322
0
LINE
8
BLACK
6
CONTINUOUS
10
96.2814
20
-169.322
11
96.3766
21
-169.131
0
LINE
8
BLACK
6
CONTINUOUS
10
96.3766
20
-169.131
11
96.4719
21
-169.036
0
LINE
8
BLACK
6
CONTINUOUS
10
96.4719
20
-169.036
11
96.6623
21
-168.941
0
LINE
8
BLACK
6
CONTINUOUS
10
98.1862
20
-170.75
11
98.2814
21
-170.846
0
LINE
8
BLACK
6
CONTINUOUS
10
98.2814
20
-170.846
11
98.1862
21
-170.941
0
LINE
8
BLACK
6
CONTINUOUS
10
98.1862
20
-170.941
11
98.0909
21
-170.846
0
LINE
8
BLACK
6
CONTINUOUS
10
98.0909
20
-170.846
11
98.1862
21
-170.75
0
LINE
8
BLACK
6
CONTINUOUS
10
98.1862
20
-170.75
11
98.1862
21
-170.941
0
LINE
8
BLACK
6
CONTINUOUS
10
99.5195
20
-168.941
11
99.71
21
-168.941
0
LINE
8
BLACK
6
CONTINUOUS
10
99.71
20
-168.941
11
99.9004
21
-169.036
0
LINE
8
BLACK
6
CONTINUOUS
10
99.9004
20
-169.036
11
99.9957
21
-169.131
0
LINE
8
BLACK
6
CONTINUOUS
10
99.9957
20
-169.131
11
100.091
21
-169.322
0
LINE
8
BLACK
6
CONTINUOUS
10
100.091
20
-169.322
11
100.186
21
-169.703
0
LINE
8
BLACK
6
CONTINUOUS
10
100.186
20
-169.703
11
100.186
21
-170.179
0
LINE
8
BLACK
6
CONTINUOUS
10
100.186
20
-170.179
11
100.091
21
-170.56
0
LINE
8
BLACK
6
CONTINUOUS
10
100.091
20
-170.56
11
99.9957
21
-170.75
0
LINE
8
BLACK
6
CONTINUOUS
10
99.9957
20
-170.75
11
99.9004
21
-170.846
0
LINE
8
BLACK
6
CONTINUOUS
10
99.9004
20
-170.846
11
99.71
21
-170.941
0
LINE
8
BLACK
6
CONTINUOUS
10
99.71
20
-170.941
11
99.5195
21
-170.941
0
LINE
8
BLACK
6
CONTINUOUS
10
99.5195
20
-170.941
11
99.329
21
-170.846
0
LINE
8
BLACK
6
CONTINUOUS
10
99.329
20
-170.846
11
99.2338
21
-170.75
0
LINE
8
BLACK
6
CONTINUOUS
10
99.2338
20
-170.75
11
99.1385
21
-170.56
0
LINE
8
BLACK
6
CONTINUOUS
10
99.1385
20
-170.56
11
99.0433
21
-170.179
0
LINE
8
BLACK
6
CONTINUOUS
10
99.0433
20
-170.179
11
99.0433
21
-169.703
0
LINE
8
BLACK
6
CONTINUOUS
10
99.0433
20
-169.703
11
99.1385
21
-169.322
0
LINE
8
BLACK
6
CONTINUOUS
10
99.1385
20
-169.322
11
99.2338
21
-169.131
0
LINE
8
BLACK
6
CONTINUOUS
10
99.2338
20
-169.131
11
99.329
21
-169.036
0
LINE
8
BLACK
6
CONTINUOUS
10
99.329
20
-169.036
11
99.5195
21
-168.941
0
LINE
8
BLACK
6
CONTINUOUS
10
101.996
20
-168.941
11
101.043
21
-168.941
0
LINE
8
BLACK
6
CONTINUOUS
10
101.043
20
-168.941
11
100.948
21
-169.893
0
LINE
8
BLACK
6
CONTINUOUS
10
100.948
20
-169.893
11
101.043
21
-169.798
0
LINE
8
BLACK
6
CONTINUOUS
10
101.043
20
-169.798
11
101.234
21
-169.703
0
LINE
8
BLACK
6
CONTINUOUS
10
101.234
20
-169.703
11
101.71
21
-169.703
0
LINE
8
BLACK
6
CONTINUOUS
10
101.71
20
-169.703
11
101.9
21
-169.798
0
LINE
8
BLACK
6
CONTINUOUS
10
101.9
20
-169.798
11
101.996
21
-169.893
0
LINE
8
BLACK
6
CONTINUOUS
10
101.996
20
-169.893
11
102.091
21
-170.084
0
LINE
8
BLACK
6
CONTINUOUS
10
102.091
20
-170.084
11
102.091
21
-170.56
0
LINE
8
BLACK
6
CONTINUOUS
10
102.091
20
-170.56
11
101.996
21
-170.75
0
LINE
8
BLACK
6
CONTINUOUS
10
101.996
20
-170.75
11
101.9
21
-170.846
0
LINE
8
BLACK
6
CONTINUOUS
10
101.9
20
-170.846
11
101.71
21
-170.941
0
LINE
8
BLACK
6
CONTINUOUS
10
101.71
20
-170.941
11
101.234
21
-170.941
0
LINE
8
BLACK
6
CONTINUOUS
10
101.234
20
-170.941
11
101.043
21
-170.846
0
LINE
8
BLACK
6
CONTINUOUS
10
101.043
20
-170.846
11
100.948
21
-170.75
0
LINE
8
BLACK
6
CONTINUOUS
10
103.043
20
-170.941
11
103.424
21
-170.941
0
LINE
8
BLACK
6
CONTINUOUS
10
103.424
20
-170.941
11
103.615
21
-170.846
0
LINE
8
BLACK
6
CONTINUOUS
10
103.615
20
-170.846
11
103.71
21
-170.75
0
LINE
8
BLACK
6
CONTINUOUS
10
103.71
20
-170.75
11
103.9
21
-170.465
0
LINE
8
BLACK
6
CONTINUOUS
10
103.9
20
-170.465
11
103.996
21
-170.084
0
LINE
8
BLACK
6
CONTINUOUS
10
103.996
20
-170.084
11
103.996
21
-169.322
0
LINE
8
BLACK
6
CONTINUOUS
10
103.996
20
-169.322
11
103.9
21
-169.131
0
LINE
8
BLACK
6
CONTINUOUS
10
103.9
20
-169.131
11
103.805
21
-169.036
0
LINE
8
BLACK
6
CONTINUOUS
10
103.805
20
-169.036
11
103.615
21
-168.941
0
LINE
8
BLACK
6
CONTINUOUS
10
103.615
20
-168.941
11
103.234
21
-168.941
0
LINE
8
BLACK
6
CONTINUOUS
10
103.234
20
-168.941
11
103.043
21
-169.036
0
LINE
8
BLACK
6
CONTINUOUS
10
103.043
20
-169.036
11
102.948
21
-169.131
0
LINE
8
BLACK
6
CONTINUOUS
10
102.948
20
-169.131
11
102.853
21
-169.322
0
LINE
8
BLACK
6
CONTINUOUS
10
102.853
20
-169.322
11
102.853
21
-169.798
0
LINE
8
BLACK
6
CONTINUOUS
10
102.853
20
-169.798
11
102.948
21
-169.988
0
LINE
8
BLACK
6
CONTINUOUS
10
102.948
20
-169.988
11
103.043
21
-170.084
0
LINE
8
BLACK
6
CONTINUOUS
10
103.043
20
-170.084
11
103.234
21
-170.179
0
LINE
8
BLACK
6
CONTINUOUS
10
103.234
20
-170.179
11
103.615
21
-170.179
0
LINE
8
BLACK
6
CONTINUOUS
10
103.615
20
-170.179
11
103.805
21
-170.084
0
LINE
8
BLACK
6
CONTINUOUS
10
103.805
20
-170.084
11
103.9
21
-169.988
0
LINE
8
BLACK
6
CONTINUOUS
10
103.9
20
-169.988
11
103.996
21
-169.798
0
LINE
8
BLACK
6
CONTINUOUS
10
105.9
20
-170.941
11
104.758
21
-170.941
0
LINE
8
BLACK
6
CONTINUOUS
10
105.329
20
-170.941
11
105.329
21
-168.941
0
LINE
8
BLACK
6
CONTINUOUS
10
105.329
20
-168.941
11
105.139
21
-169.227
0
LINE
8
BLACK
6
CONTINUOUS
10
105.139
20
-169.227
11
104.948
21
-169.417
0
LINE
8
BLACK
6
CONTINUOUS
10
104.948
20
-169.417
11
104.758
21
-169.512
0
LINE
8
BLACK
6
CONTINUOUS
10
106.662
20
-168.941
11
106.662
21
-169.322
0
LINE
8
BLACK
6
CONTINUOUS
10
107.424
20
-168.941
11
107.424
21
-169.322
0
LINE
8
BLACK
6
CONTINUOUS
10
110.377
20
-171.703
11
110.281
21
-171.608
0
LINE
8
BLACK
6
CONTINUOUS
10
110.281
20
-171.608
11
110.091
21
-171.322
0
LINE
8
BLACK
6
CONTINUOUS
10
110.091
20
-171.322
11
109.996
21
-171.131
0
LINE
8
BLACK
6
CONTINUOUS
10
109.996
20
-171.131
11
109.9
21
-170.846
0
LINE
8
BLACK
6
CONTINUOUS
10
109.9
20
-170.846
11
109.805
21
-170.369
0
LINE
8
BLACK
6
CONTINUOUS
10
109.805
20
-170.369
11
109.805
21
-169.988
0
LINE
8
BLACK
6
CONTINUOUS
10
109.805
20
-169.988
11
109.9
21
-169.512
0
LINE
8
BLACK
6
CONTINUOUS
10
109.9
20
-169.512
11
109.996
21
-169.227
0
LINE
8
BLACK
6
CONTINUOUS
10
109.996
20
-169.227
11
110.091
21
-169.036
0
LINE
8
BLACK
6
CONTINUOUS
10
110.091
20
-169.036
11
110.281
21
-168.75
0
LINE
8
BLACK
6
CONTINUOUS
10
110.281
20
-168.75
11
110.377
21
-168.655
0
LINE
8
BLACK
6
CONTINUOUS
10
111.043
20
-169.131
11
111.139
21
-169.036
0
LINE
8
BLACK
6
CONTINUOUS
10
111.139
20
-169.036
11
111.329
21
-168.941
0
LINE
8
BLACK
6
CONTINUOUS
10
111.329
20
-168.941
11
111.805
21
-168.941
0
LINE
8
BLACK
6
CONTINUOUS
10
111.805
20
-168.941
11
111.996
21
-169.036
0
LINE
8
BLACK
6
CONTINUOUS
10
111.996
20
-169.036
11
112.091
21
-169.131
0
LINE
8
BLACK
6
CONTINUOUS
10
112.091
20
-169.131
11
112.186
21
-169.322
0
LINE
8
BLACK
6
CONTINUOUS
10
112.186
20
-169.322
11
112.186
21
-169.512
0
LINE
8
BLACK
6
CONTINUOUS
10
112.186
20
-169.512
11
112.091
21
-169.798
0
LINE
8
BLACK
6
CONTINUOUS
10
112.091
20
-169.798
11
110.948
21
-170.941
0
LINE
8
BLACK
6
CONTINUOUS
10
110.948
20
-170.941
11
112.186
21
-170.941
0
LINE
8
BLACK
6
CONTINUOUS
10
114.567
20
-170.941
11
114.567
21
-168.941
0
LINE
8
BLACK
6
CONTINUOUS
10
115.424
20
-170.941
11
115.424
21
-169.893
0
LINE
8
BLACK
6
CONTINUOUS
10
115.424
20
-169.893
11
115.329
21
-169.703
0
LINE
8
BLACK
6
CONTINUOUS
10
115.329
20
-169.703
11
115.139
21
-169.608
0
LINE
8
BLACK
6
CONTINUOUS
10
115.139
20
-169.608
11
114.853
21
-169.608
0
LINE
8
BLACK
6
CONTINUOUS
10
114.853
20
-169.608
11
114.662
21
-169.703
0
LINE
8
BLACK
6
CONTINUOUS
10
114.662
20
-169.703
11
114.567
21
-169.798
0
LINE
8
BLACK
6
CONTINUOUS
10
116.662
20
-170.941
11
116.472
21
-170.846
0
LINE
8
BLACK
6
CONTINUOUS
10
116.472
20
-170.846
11
116.377
21
-170.75
0
LINE
8
BLACK
6
CONTINUOUS
10
116.377
20
-170.75
11
116.281
21
-170.56
0
LINE
8
BLACK
6
CONTINUOUS
10
116.281
20
-170.56
11
116.281
21
-169.988
0
LINE
8
BLACK
6
CONTINUOUS
10
116.281
20
-169.988
11
116.377
21
-169.798
0
LINE
8
BLACK
6
CONTINUOUS
10
116.377
20
-169.798
11
116.472
21
-169.703
0
LINE
8
BLACK
6
CONTINUOUS
10
116.472
20
-169.703
11
116.662
21
-169.608
0
LINE
8
BLACK
6
CONTINUOUS
10
116.662
20
-169.608
11
116.948
21
-169.608
0
LINE
8
BLACK
6
CONTINUOUS
10
116.948
20
-169.608
11
117.139
21
-169.703
0
LINE
8
BLACK
6
CONTINUOUS
10
117.139
20
-169.703
11
117.234
21
-169.798
0
LINE
8
BLACK
6
CONTINUOUS
10
117.234
20
-169.798
11
117.329
21
-169.988
0
LINE
8
BLACK
6
CONTINUOUS
10
117.329
20
-169.988
11
117.329
21
-170.56
0
LINE
8
BLACK
6
CONTINUOUS
10
117.329
20
-170.56
11
117.234
21
-170.75
0
LINE
8
BLACK
6
CONTINUOUS
10
117.234
20
-170.75
11
117.139
21
-170.846
0
LINE
8
BLACK
6
CONTINUOUS
10
117.139
20
-170.846
11
116.948
21
-170.941
0
LINE
8
BLACK
6
CONTINUOUS
10
116.948
20
-170.941
11
116.662
21
-170.941
0
LINE
8
BLACK
6
CONTINUOUS
10
118.472
20
-170.941
11
118.281
21
-170.846
0
LINE
8
BLACK
6
CONTINUOUS
10
118.281
20
-170.846
11
118.186
21
-170.655
0
LINE
8
BLACK
6
CONTINUOUS
10
118.186
20
-170.655
11
118.186
21
-168.941
0
LINE
8
BLACK
6
CONTINUOUS
10
119.996
20
-170.846
11
119.805
21
-170.941
0
LINE
8
BLACK
6
CONTINUOUS
10
119.805
20
-170.941
11
119.424
21
-170.941
0
LINE
8
BLACK
6
CONTINUOUS
10
119.424
20
-170.941
11
119.234
21
-170.846
0
LINE
8
BLACK
6
CONTINUOUS
10
119.234
20
-170.846
11
119.139
21
-170.655
0
LINE
8
BLACK
6
CONTINUOUS
10
119.139
20
-170.655
11
119.139
21
-169.893
0
LINE
8
BLACK
6
CONTINUOUS
10
119.139
20
-169.893
11
119.234
21
-169.703
0
LINE
8
BLACK
6
CONTINUOUS
10
119.234
20
-169.703
11
119.424
21
-169.608
0
LINE
8
BLACK
6
CONTINUOUS
10
119.424
20
-169.608
11
119.805
21
-169.608
0
LINE
8
BLACK
6
CONTINUOUS
10
119.805
20
-169.608
11
119.996
21
-169.703
0
LINE
8
BLACK
6
CONTINUOUS
10
119.996
20
-169.703
11
120.091
21
-169.893
0
LINE
8
BLACK
6
CONTINUOUS
10
120.091
20
-169.893
11
120.091
21
-170.084
0
LINE
8
BLACK
6
CONTINUOUS
10
120.091
20
-170.084
11
119.139
21
-170.274
0
LINE
8
BLACK
6
CONTINUOUS
10
120.853
20
-170.846
11
121.043
21
-170.941
0
LINE
8
BLACK
6
CONTINUOUS
10
121.043
20
-170.941
11
121.424
21
-170.941
0
LINE
8
BLACK
6
CONTINUOUS
10
121.424
20
-170.941
11
121.615
21
-170.846
0
LINE
8
BLACK
6
CONTINUOUS
10
121.615
20
-170.846
11
121.71
21
-170.655
0
LINE
8
BLACK
6
CONTINUOUS
10
121.71
20
-170.655
11
121.71
21
-170.56
0
LINE
8
BLACK
6
CONTINUOUS
10
121.71
20
-170.56
11
121.615
21
-170.369
0
LINE
8
BLACK
6
CONTINUOUS
10
121.615
20
-170.369
11
121.424
21
-170.274
0
LINE
8
BLACK
6
CONTINUOUS
10
121.424
20
-170.274
11
121.139
21
-170.274
0
LINE
8
BLACK
6
CONTINUOUS
10
121.139
20
-170.274
11
120.948
21
-170.179
0
LINE
8
BLACK
6
CONTINUOUS
10
120.948
20
-170.179
11
120.853
21
-169.988
0
LINE
8
BLACK
6
CONTINUOUS
10
120.853
20
-169.988
11
120.853
21
-169.893
0
LINE
8
BLACK
6
CONTINUOUS
10
120.853
20
-169.893
11
120.948
21
-169.703
0
LINE
8
BLACK
6
CONTINUOUS
10
120.948
20
-169.703
11
121.139
21
-169.608
0
LINE
8
BLACK
6
CONTINUOUS
10
121.139
20
-169.608
11
121.424
21
-169.608
0
LINE
8
BLACK
6
CONTINUOUS
10
121.424
20
-169.608
11
121.615
21
-169.703
0
LINE
8
BLACK
6
CONTINUOUS
10
122.377
20
-171.703
11
122.472
21
-171.608
0
LINE
8
BLACK
6
CONTINUOUS
10
122.472
20
-171.608
11
122.662
21
-171.322
0
LINE
8
BLACK
6
CONTINUOUS
10
122.662
20
-171.322
11
122.758
21
-171.131
0
LINE
8
BLACK
6
CONTINUOUS
10
122.758
20
-171.131
11
122.853
21
-170.846
0
LINE
8
BLACK
6
CONTINUOUS
10
122.853
20
-170.846
11
122.948
21
-170.369
0
LINE
8
BLACK
6
CONTINUOUS
10
122.948
20
-170.369
11
122.948
21
-169.988
0
LINE
8
BLACK
6
CONTINUOUS
10
122.948
20
-169.988
11
122.853
21
-169.512
0
LINE
8
BLACK
6
CONTINUOUS
10
122.853
20
-169.512
11
122.758
21
-169.227
0
LINE
8
BLACK
6
CONTINUOUS
10
122.758
20
-169.227
11
122.662
21
-169.036
0
LINE
8
BLACK
6
CONTINUOUS
10
122.662
20
-169.036
11
122.472
21
-168.75
0
LINE
8
BLACK
6
CONTINUOUS
10
122.472
20
-168.75
11
122.377
21
-168.655
0
LINE
8
BLACK
6
CONTINUOUS
10
125.996
20
-171.703
11
125.9
21
-171.608
0
LINE
8
BLACK
6
CONTINUOUS
10
125.9
20
-171.608
11
125.71
21
-171.322
0
LINE
8
BLACK
6
CONTINUOUS
10
125.71
20
-171.322
11
125.615
21
-171.131
0
LINE
8
BLACK
6
CONTINUOUS
10
125.615
20
-171.131
11
125.519
21
-170.846
0
LINE
8
BLACK
6
CONTINUOUS
10
125.519
20
-170.846
11
125.424
21
-170.369
0
LINE
8
BLACK
6
CONTINUOUS
10
125.424
20
-170.369
11
125.424
21
-169.988
0
LINE
8
BLACK
6
CONTINUOUS
10
125.424
20
-169.988
11
125.519
21
-169.512
0
LINE
8
BLACK
6
CONTINUOUS
10
125.519
20
-169.512
11
125.615
21
-169.227
0
LINE
8
BLACK
6
CONTINUOUS
10
125.615
20
-169.227
11
125.71
21
-169.036
0
LINE
8
BLACK
6
CONTINUOUS
10
125.71
20
-169.036
11
125.9
21
-168.75
0
LINE
8
BLACK
6
CONTINUOUS
10
125.9
20
-168.75
11
125.996
21
-168.655
0
LINE
8
BLACK
6
CONTINUOUS
10
126.758
20
-169.608
11
126.758
21
-170.941
0
LINE
8
BLACK
6
CONTINUOUS
10
126.758
20
-169.798
11
126.853
21
-169.703
0
LINE
8
BLACK
6
CONTINUOUS
10
126.853
20
-169.703
11
127.043
21
-169.608
0
LINE
8
BLACK
6
CONTINUOUS
10
127.043
20
-169.608
11
127.329
21
-169.608
0
LINE
8
BLACK
6
CONTINUOUS
10
127.329
20
-169.608
11
127.519
21
-169.703
0
LINE
8
BLACK
6
CONTINUOUS
10
127.519
20
-169.703
11
127.615
21
-169.893
0
LINE
8
BLACK
6
CONTINUOUS
10
127.615
20
-169.893
11
127.615
21
-170.941
0
LINE
8
BLACK
6
CONTINUOUS
10
128.853
20
-170.941
11
128.662
21
-170.846
0
LINE
8
BLACK
6
CONTINUOUS
10
128.662
20
-170.846
11
128.567
21
-170.75
0
LINE
8
BLACK
6
CONTINUOUS
10
128.567
20
-170.75
11
128.472
21
-170.56
0
LINE
8
BLACK
6
CONTINUOUS
10
128.472
20
-170.56
11
128.472
21
-169.988
0
LINE
8
BLACK
6
CONTINUOUS
10
128.472
20
-169.988
11
128.567
21
-169.798
0
LINE
8
BLACK
6
CONTINUOUS
10
128.567
20
-169.798
11
128.662
21
-169.703
0
LINE
8
BLACK
6
CONTINUOUS
10
128.662
20
-169.703
11
128.853
21
-169.608
0
LINE
8
BLACK
6
CONTINUOUS
10
128.853
20
-169.608
11
129.139
21
-169.608
0
LINE
8
BLACK
6
CONTINUOUS
10
129.139
20
-169.608
11
129.329
21
-169.703
0
LINE
8
BLACK
6
CONTINUOUS
10
129.329
20
-169.703
11
129.424
21
-169.798
0
LINE
8
BLACK
6
CONTINUOUS
10
129.424
20
-169.798
11
129.519
21
-169.988
0
LINE
8
BLACK
6
CONTINUOUS
10
129.519
20
-169.988
11
129.519
21
-170.56
0
LINE
8
BLACK
6
CONTINUOUS
10
129.519
20
-170.56
11
129.424
21
-170.75
0
LINE
8
BLACK
6
CONTINUOUS
10
129.424
20
-170.75
11
129.329
21
-170.846
0
LINE
8
BLACK
6
CONTINUOUS
10
129.329
20
-170.846
11
129.139
21
-170.941
0
LINE
8
BLACK
6
CONTINUOUS
10
129.139
20
-170.941
11
128.853
21
-170.941
0
LINE
8
BLACK
6
CONTINUOUS
10
130.091
20
-169.608
11
130.853
21
-169.608
0
LINE
8
BLACK
6
CONTINUOUS
10
130.377
20
-168.941
11
130.377
21
-170.655
0
LINE
8
BLACK
6
CONTINUOUS
10
130.377
20
-170.655
11
130.472
21
-170.846
0
LINE
8
BLACK
6
CONTINUOUS
10
130.472
20
-170.846
11
130.662
21
-170.941
0
LINE
8
BLACK
6
CONTINUOUS
10
130.662
20
-170.941
11
130.853
21
-170.941
0
LINE
8
BLACK
6
CONTINUOUS
10
133.043
20
-169.608
11
133.043
21
-171.608
0
LINE
8
BLACK
6
CONTINUOUS
10
133.043
20
-169.703
11
133.234
21
-169.608
0
LINE
8
BLACK
6
CONTINUOUS
10
133.234
20
-169.608
11
133.615
21
-169.608
0
LINE
8
BLACK
6
CONTINUOUS
10
133.615
20
-169.608
11
133.805
21
-169.703
0
LINE
8
BLACK
6
CONTINUOUS
10
133.805
20
-169.703
11
133.9
21
-169.798
0
LINE
8
BLACK
6
CONTINUOUS
10
133.9
20
-169.798
11
133.996
21
-169.988
0
LINE
8
BLACK
6
CONTINUOUS
10
133.996
20
-169.988
11
133.996
21
-170.56
0
LINE
8
BLACK
6
CONTINUOUS
10
133.996
20
-170.56
11
133.9
21
-170.75
0
LINE
8
BLACK
6
CONTINUOUS
10
133.9
20
-170.75
11
133.805
21
-170.846
0
LINE
8
BLACK
6
CONTINUOUS
10
133.805
20
-170.846
11
133.615
21
-170.941
0
LINE
8
BLACK
6
CONTINUOUS
10
133.615
20
-170.941
11
133.234
21
-170.941
0
LINE
8
BLACK
6
CONTINUOUS
10
133.234
20
-170.941
11
133.043
21
-170.846
0
LINE
8
BLACK
6
CONTINUOUS
10
135.139
20
-170.941
11
134.948
21
-170.846
0
LINE
8
BLACK
6
CONTINUOUS
10
134.948
20
-170.846
11
134.853
21
-170.655
0
LINE
8
BLACK
6
CONTINUOUS
10
134.853
20
-170.655
11
134.853
21
-168.941
0
LINE
8
BLACK
6
CONTINUOUS
10
136.758
20
-170.941
11
136.758
21
-169.893
0
LINE
8
BLACK
6
CONTINUOUS
10
136.758
20
-169.893
11
136.662
21
-169.703
0
LINE
8
BLACK
6
CONTINUOUS
10
136.662
20
-169.703
11
136.472
21
-169.608
0
LINE
8
BLACK
6
CONTINUOUS
10
136.472
20
-169.608
11
136.091
21
-169.608
0
LINE
8
BLACK
6
CONTINUOUS
10
136.091
20
-169.608
11
135.9
21
-169.703
0
LINE
8
BLACK
6
CONTINUOUS
10
136.758
20
-170.846
11
136.567
21
-170.941
0
LINE
8
BLACK
6
CONTINUOUS
10
136.567
20
-170.941
11
136.091
21
-170.941
0
LINE
8
BLACK
6
CONTINUOUS
10
136.091
20
-170.941
11
135.9
21
-170.846
0
LINE
8
BLACK
6
CONTINUOUS
10
135.9
20
-170.846
11
135.805
21
-170.655
0
LINE
8
BLACK
6
CONTINUOUS
10
135.805
20
-170.655
11
135.805
21
-170.465
0
LINE
8
BLACK
6
CONTINUOUS
10
135.805
20
-170.465
11
135.9
21
-170.274
0
LINE
8
BLACK
6
CONTINUOUS
10
135.9
20
-170.274
11
136.091
21
-170.179
0
LINE
8
BLACK
6
CONTINUOUS
10
136.091
20
-170.179
11
136.567
21
-170.179
0
LINE
8
BLACK
6
CONTINUOUS
10
136.567
20
-170.179
11
136.758
21
-170.084
0
LINE
8
BLACK
6
CONTINUOUS
10
137.424
20
-169.608
11
138.186
21
-169.608
0
LINE
8
BLACK
6
CONTINUOUS
10
137.71
20
-168.941
11
137.71
21
-170.655
0
LINE
8
BLACK
6
CONTINUOUS
10
137.71
20
-170.655
11
137.805
21
-170.846
0
LINE
8
BLACK
6
CONTINUOUS
10
137.805
20
-170.846
11
137.996
21
-170.941
0
LINE
8
BLACK
6
CONTINUOUS
10
137.996
20
-170.941
11
138.186
21
-170.941
0
LINE
8
BLACK
6
CONTINUOUS
10
139.615
20
-170.846
11
139.424
21
-170.941
0
LINE
8
BLACK
6
CONTINUOUS
10
139.424
20
-170.941
11
139.043
21
-170.941
0
LINE
8
BLACK
6
CONTINUOUS
10
139.043
20
-170.941
11
138.853
21
-170.846
0
LINE
8
BLACK
6
CONTINUOUS
10
138.853
20
-170.846
11
138.758
21
-170.655
0
LINE
8
BLACK
6
CONTINUOUS
10
138.758
20
-170.655
11
138.758
21
-169.893
0
LINE
8
BLACK
6
CONTINUOUS
10
138.758
20
-169.893
11
138.853
21
-169.703
0
LINE
8
BLACK
6
CONTINUOUS
10
138.853
20
-169.703
11
139.043
21
-169.608
0
LINE
8
BLACK
6
CONTINUOUS
10
139.043
20
-169.608
11
139.424
21
-169.608
0
LINE
8
BLACK
6
CONTINUOUS
10
139.424
20
-169.608
11
139.615
21
-169.703
0
LINE
8
BLACK
6
CONTINUOUS
10
139.615
20
-169.703
11
139.71
21
-169.893
0
LINE
8
BLACK
6
CONTINUOUS
10
139.71
20
-169.893
11
139.71
21
-170.084
0
LINE
8
BLACK
6
CONTINUOUS
10
139.71
20
-170.084
11
138.758
21
-170.274
0
LINE
8
BLACK
6
CONTINUOUS
10
141.424
20
-170.941
11
141.424
21
-168.941
0
LINE
8
BLACK
6
CONTINUOUS
10
141.424
20
-170.846
11
141.234
21
-170.941
0
LINE
8
BLACK
6
CONTINUOUS
10
141.234
20
-170.941
11
140.853
21
-170.941
0
LINE
8
BLACK
6
CONTINUOUS
10
140.853
20
-170.941
11
140.662
21
-170.846
0
LINE
8
BLACK
6
CONTINUOUS
10
140.662
20
-170.846
11
140.567
21
-170.75
0
LINE
8
BLACK
6
CONTINUOUS
10
140.567
20
-170.75
11
140.472
21
-170.56
0
LINE
8
BLACK
6
CONTINUOUS
10
140.472
20
-170.56
11
140.472
21
-169.988
0
LINE
8
BLACK
6
CONTINUOUS
10
140.472
20
-169.988
11
140.567
21
-169.798
0
LINE
8
BLACK
6
CONTINUOUS
10
140.567
20
-169.798
11
140.662
21
-169.703
0
LINE
8
BLACK
6
CONTINUOUS
10
140.662
20
-169.703
11
140.853
21
-169.608
0
LINE
8
BLACK
6
CONTINUOUS
10
140.853
20
-169.608
11
141.234
21
-169.608
0
LINE
8
BLACK
6
CONTINUOUS
10
141.234
20
-169.608
11
141.424
21
-169.703
0
LINE
8
BLACK
6
CONTINUOUS
10
142.186
20
-171.703
11
142.281
21
-171.608
0
LINE
8
BLACK
6
CONTINUOUS
10
142.281
20
-171.608
11
142.472
21
-171.322
0
LINE
8
BLACK
6
CONTINUOUS
10
142.472
20
-171.322
11
142.567
21
-171.131
0
LINE
8
BLACK
6
CONTINUOUS
10
142.567
20
-171.131
11
142.662
21
-170.846
0
LINE
8
BLACK
6
CONTINUOUS
10
142.662
20
-170.846
11
142.758
21
-170.369
0
LINE
8
BLACK
6
CONTINUOUS
10
142.758
20
-170.369
11
142.758
21
-169.988
0
LINE
8
BLACK
6
CONTINUOUS
10
142.758
20
-169.988
11
142.662
21
-169.512
0
LINE
8
BLACK
6
CONTINUOUS
10
142.662
20
-169.512
11
142.567
21
-169.227
0
LINE
8
BLACK
6
CONTINUOUS
10
142.567
20
-169.227
11
142.472
21
-169.036
0
LINE
8
BLACK
6
CONTINUOUS
10
142.472
20
-169.036
11
142.281
21
-168.75
0
LINE
8
BLACK
6
CONTINUOUS
10
142.281
20
-168.75
11
142.186
21
-168.655
0
CIRCLE
8
BLACK
10
73.776
20
-172.726
40
0.85
0
LINE
8
BLACK
6
CONTINUOUS
10
78.2814
20
-173.641
11
77.1385
21
-173.641
0
LINE
8
BLACK
6
CONTINUOUS
10
77.71
20
-173.641
11
77.71
21
-171.641
0
LINE
8
BLACK
6
CONTINUOUS
10
77.71
20
-171.641
11
77.5195
21
-171.927
0
LINE
8
BLACK
6
CONTINUOUS
10
77.5195
20
-171.927
11
77.329
21
-172.117
0
LINE
8
BLACK
6
CONTINUOUS
10
77.329
20
-172.117
11
77.1385
21
-172.212
0
LINE
8
BLACK
6
CONTINUOUS
10
79.1385
20
-173.45
11
79.2338
21
-173.546
0
LINE
8
BLACK
6
CONTINUOUS
10
79.2338
20
-173.546
11
79.1385
21
-173.641
0
LINE
8
BLACK
6
CONTINUOUS
10
79.1385
20
-173.641
11
79.0433
21
-173.546
0
LINE
8
BLACK
6
CONTINUOUS
10
79.0433
20
-173.546
11
79.1385
21
-173.45
0
LINE
8
BLACK
6
CONTINUOUS
10
79.1385
20
-173.45
11
79.1385
21
-173.641
0
LINE
8
BLACK
6
CONTINUOUS
10
79.9004
20
-171.641
11
81.2338
21
-171.641
0
LINE
8
BLACK
6
CONTINUOUS
10
81.2338
20
-171.641
11
80.3766
21
-173.641
0
LINE
8
BLACK
6
CONTINUOUS
10
82.3766
20
-171.641
11
82.5671
21
-171.641
0
LINE
8
BLACK
6
CONTINUOUS
10
82.5671
20
-171.641
11
82.7576
21
-171.736
0
LINE
8
BLACK
6
CONTINUOUS
10
82.7576
20
-171.736
11
82.8528
21
-171.831
0
LINE
8
BLACK
6
CONTINUOUS
10
82.8528
20
-171.831
11
82.9481
21
-172.022
0
LINE
8
BLACK
6
CONTINUOUS
10
82.9481
20
-172.022
11
83.0433
21
-172.403
0
LINE
8
BLACK
6
CONTINUOUS
10
83.0433
20
-172.403
11
83.0433
21
-172.879
0
LINE
8
BLACK
6
CONTINUOUS
10
83.0433
20
-172.879
11
82.9481
21
-173.26
0
LINE
8
BLACK
6
CONTINUOUS
10
82.9481
20
-173.26
11
82.8528
21
-173.45
0
LINE
8
BLACK
6
CONTINUOUS
10
82.8528
20
-173.45
11
82.7576
21
-173.546
0
LINE
8
BLACK
6
CONTINUOUS
10
82.7576
20
-173.546
11
82.5671
21
-173.641
0
LINE
8
BLACK
6
CONTINUOUS
10
82.5671
20
-173.641
11
82.3766
21
-173.641
0
LINE
8
BLACK
6
CONTINUOUS
10
82.3766
20
-173.641
11
82.1861
21
-173.546
0
LINE
8
BLACK
6
CONTINUOUS
10
82.1861
20
-173.546
11
82.0909
21
-173.45
0
LINE
8
BLACK
6
CONTINUOUS
10
82.0909
20
-173.45
11
81.9957
21
-173.26
0
LINE
8
BLACK
6
CONTINUOUS
10
81.9957
20
-173.26
11
81.9004
21
-172.879
0
LINE
8
BLACK
6
CONTINUOUS
10
81.9004
20
-172.879
11
81.9004
21
-172.403
0
LINE
8
BLACK
6
CONTINUOUS
10
81.9004
20
-172.403
11
81.9957
21
-172.022
0
LINE
8
BLACK
6
CONTINUOUS
10
81.9957
20
-172.022
11
82.0909
21
-171.831
0
LINE
8
BLACK
6
CONTINUOUS
10
82.0909
20
-171.831
11
82.1861
21
-171.736
0
LINE
8
BLACK
6
CONTINUOUS
10
82.1861
20
-171.736
11
82.3766
21
-171.641
0
LINE
8
BLACK
6
CONTINUOUS
10
84.2814
20
-171.641
11
84.4719
21
-171.641
0
LINE
8
BLACK
6
CONTINUOUS
10
84.4719
20
-171.641
11
84.6623
21
-171.736
0
LINE
8
BLACK
6
CONTINUOUS
10
84.6623
20
-171.736
11
84.7576
21
-171.831
0
LINE
8
BLACK
6
CONTINUOUS
10
84.7576
20
-171.831
11
84.8528
21
-172.022
0
LINE
8
BLACK
6
CONTINUOUS
10
84.8528
20
-172.022
11
84.9481
21
-172.403
0
LINE
8
BLACK
6
CONTINUOUS
10
84.9481
20
-172.403
11
84.9481
21
-172.879
0
LINE
8
BLACK
6
CONTINUOUS
10
84.9481
20
-172.879
11
84.8528
21
-173.26
0
LINE
8
BLACK
6
CONTINUOUS
10
84.8528
20
-173.26
11
84.7576
21
-173.45
0
LINE
8
BLACK
6
CONTINUOUS
10
84.7576
20
-173.45
11
84.6623
21
-173.546
0
LINE
8
BLACK
6
CONTINUOUS
10
84.6623
20
-173.546
11
84.4719
21
-173.641
0
LINE
8
BLACK
6
CONTINUOUS
10
84.4719
20
-173.641
11
84.2814
21
-173.641
0
LINE
8
BLACK
6
CONTINUOUS
10
84.2814
20
-173.641
11
84.0909
21
-173.546
0
LINE
8
BLACK
6
CONTINUOUS
10
84.0909
20
-173.546
11
83.9957
21
-173.45
0
LINE
8
BLACK
6
CONTINUOUS
10
83.9957
20
-173.45
11
83.9004
21
-173.26
0
LINE
8
BLACK
6
CONTINUOUS
10
83.9004
20
-173.26
11
83.8052
21
-172.879
0
LINE
8
BLACK
6
CONTINUOUS
10
83.8052
20
-172.879
11
83.8052
21
-172.403
0
LINE
8
BLACK
6
CONTINUOUS
10
83.8052
20
-172.403
11
83.9004
21
-172.022
0
LINE
8
BLACK
6
CONTINUOUS
10
83.9004
20
-172.022
11
83.9957
21
-171.831
0
LINE
8
BLACK
6
CONTINUOUS
10
83.9957
20
-171.831
11
84.0909
21
-171.736
0
LINE
8
BLACK
6
CONTINUOUS
10
84.0909
20
-171.736
11
84.2814
21
-171.641
0
LINE
8
BLACK
6
CONTINUOUS
10
85.8052
20
-173.641
11
85.8052
21
-172.308
0
LINE
8
BLACK
6
CONTINUOUS
10
85.8052
20
-172.498
11
85.9004
21
-172.403
0
LINE
8
BLACK
6
CONTINUOUS
10
85.9004
20
-172.403
11
86.0909
21
-172.308
0
LINE
8
BLACK
6
CONTINUOUS
10
86.0909
20
-172.308
11
86.3766
21
-172.308
0
LINE
8
BLACK
6
CONTINUOUS
10
86.3766
20
-172.308
11
86.5671
21
-172.403
0
LINE
8
BLACK
6
CONTINUOUS
10
86.5671
20
-172.403
11
86.6623
21
-172.593
0
LINE
8
BLACK
6
CONTINUOUS
10
86.6623
20
-172.593
11
86.6623
21
-173.641
0
LINE
8
BLACK
6
CONTINUOUS
10
86.6623
20
-172.593
11
86.7576
21
-172.403
0
LINE
8
BLACK
6
CONTINUOUS
10
86.7576
20
-172.403
11
86.9481
21
-172.308
0
LINE
8
BLACK
6
CONTINUOUS
10
86.9481
20
-172.308
11
87.2338
21
-172.308
0
LINE
8
BLACK
6
CONTINUOUS
10
87.2338
20
-172.308
11
87.4242
21
-172.403
0
LINE
8
BLACK
6
CONTINUOUS
10
87.4242
20
-172.403
11
87.5195
21
-172.593
0
LINE
8
BLACK
6
CONTINUOUS
10
87.5195
20
-172.593
11
87.5195
21
-173.641
0
LINE
8
BLACK
6
CONTINUOUS
10
88.4719
20
-173.641
11
88.4719
21
-172.308
0
LINE
8
BLACK
6
CONTINUOUS
10
88.4719
20
-172.498
11
88.5671
21
-172.403
0
LINE
8
BLACK
6
CONTINUOUS
10
88.5671
20
-172.403
11
88.7576
21
-172.308
0
LINE
8
BLACK
6
CONTINUOUS
10
88.7576
20
-172.308
11
89.0433
21
-172.308
0
LINE
8
BLACK
6
CONTINUOUS
10
89.0433
20
-172.308
11
89.2338
21
-172.403
0
LINE
8
BLACK
6
CONTINUOUS
10
89.2338
20
-172.403
11
89.329
21
-172.593
0
LINE
8
BLACK
6
CONTINUOUS
10
89.329
20
-172.593
11
89.329
21
-173.641
0
LINE
8
BLACK
6
CONTINUOUS
10
89.329
20
-172.593
11
89.4242
21
-172.403
0
LINE
8
BLACK
6
CONTINUOUS
10
89.4242
20
-172.403
11
89.6147
21
-172.308
0
LINE
8
BLACK
6
CONTINUOUS
10
89.6147
20
-172.308
11
89.9004
21
-172.308
0
LINE
8
BLACK
6
CONTINUOUS
10
89.9004
20
-172.308
11
90.0909
21
-172.403
0
LINE
8
BLACK
6
CONTINUOUS
10
90.0909
20
-172.403
11
90.1861
21
-172.593
0
LINE
8
BLACK
6
CONTINUOUS
10
90.1861
20
-172.593
11
90.1861
21
-173.641
0
LINE
8
BLACK
6
CONTINUOUS
10
94.0909
20
-171.546
11
92.3766
21
-174.117
0
LINE
8
BLACK
6
CONTINUOUS
10
96.6623
20
-171.641
11
96.8528
21
-171.641
0
LINE
8
BLACK
6
CONTINUOUS
10
96.8528
20
-171.641
11
97.0433
21
-171.736
0
LINE
8
BLACK
6
CONTINUOUS
10
97.0433
20
-171.736
11
97.1385
21
-171.831
0
LINE
8
BLACK
6
CONTINUOUS
10
97.1385
20
-171.831
11
97.2338
21
-172.022
0
LINE
8
BLACK
6
CONTINUOUS
10
97.2338
20
-172.022
11
97.329
21
-172.403
0
LINE
8
BLACK
6
CONTINUOUS
10
97.329
20
-172.403
11
97.329
21
-172.879
0
LINE
8
BLACK
6
CONTINUOUS
10
97.329
20
-172.879
11
97.2338
21
-173.26
0
LINE
8
BLACK
6
CONTINUOUS
10
97.2338
20
-173.26
11
97.1385
21
-173.45
0
LINE
8
BLACK
6
CONTINUOUS
10
97.1385
20
-173.45
11
97.0433
21
-173.546
0
LINE
8
BLACK
6
CONTINUOUS
10
97.0433
20
-173.546
11
96.8528
21
-173.641
0
LINE
8
BLACK
6
CONTINUOUS
10
96.8528
20
-173.641
11
96.6623
21
-173.641
0
LINE
8
BLACK
6
CONTINUOUS
10
96.6623
20
-173.641
11
96.4719
21
-173.546
0
LINE
8
BLACK
6
CONTINUOUS
10
96.4719
20
-173.546
11
96.3766
21
-173.45
0
LINE
8
BLACK
6
CONTINUOUS
10
96.3766
20
-173.45
11
96.2814
21
-173.26
0
LINE
8
BLACK
6
CONTINUOUS
10
96.2814
20
-173.26
11
96.1862
21
-172.879
0
LINE
8
BLACK
6
CONTINUOUS
10
96.1862
20
-172.879
11
96.1862
21
-172.403
0
LINE
8
BLACK
6
CONTINUOUS
10
96.1862
20
-172.403
11
96.2814
21
-172.022
0
LINE
8
BLACK
6
CONTINUOUS
10
96.2814
20
-172.022
11
96.3766
21
-171.831
0
LINE
8
BLACK
6
CONTINUOUS
10
96.3766
20
-171.831
11
96.4719
21
-171.736
0
LINE
8
BLACK
6
CONTINUOUS
10
96.4719
20
-171.736
11
96.6623
21
-171.641
0
LINE
8
BLACK
6
CONTINUOUS
10
98.1862
20
-173.45
11
98.2814
21
-173.546
0
LINE
8
BLACK
6
CONTINUOUS
10
98.2814
20
-173.546
11
98.1862
21
-173.641
0
LINE
8
BLACK
6
CONTINUOUS
10
98.1862
20
-173.641
11
98.0909
21
-173.546
0
LINE
8
BLACK
6
CONTINUOUS
10
98.0909
20
-173.546
11
98.1862
21
-173.45
0
LINE
8
BLACK
6
CONTINUOUS
10
98.1862
20
-173.45
11
98.1862
21
-173.641
0
LINE
8
BLACK
6
CONTINUOUS
10
99.5195
20
-171.641
11
99.71
21
-171.641
0
LINE
8
BLACK
6
CONTINUOUS
10
99.71
20
-171.641
11
99.9004
21
-171.736
0
LINE
8
BLACK
6
CONTINUOUS
10
99.9004
20
-171.736
11
99.9957
21
-171.831
0
LINE
8
BLACK
6
CONTINUOUS
10
99.9957
20
-171.831
11
100.091
21
-172.022
0
LINE
8
BLACK
6
CONTINUOUS
10
100.091
20
-172.022
11
100.186
21
-172.403
0
LINE
8
BLACK
6
CONTINUOUS
10
100.186
20
-172.403
11
100.186
21
-172.879
0
LINE
8
BLACK
6
CONTINUOUS
10
100.186
20
-172.879
11
100.091
21
-173.26
0
LINE
8
BLACK
6
CONTINUOUS
10
100.091
20
-173.26
11
99.9957
21
-173.45
0
LINE
8
BLACK
6
CONTINUOUS
10
99.9957
20
-173.45
11
99.9004
21
-173.546
0
LINE
8
BLACK
6
CONTINUOUS
10
99.9004
20
-173.546
11
99.71
21
-173.641
0
LINE
8
BLACK
6
CONTINUOUS
10
99.71
20
-173.641
11
99.5195
21
-173.641
0
LINE
8
BLACK
6
CONTINUOUS
10
99.5195
20
-173.641
11
99.329
21
-173.546
0
LINE
8
BLACK
6
CONTINUOUS
10
99.329
20
-173.546
11
99.2338
21
-173.45
0
LINE
8
BLACK
6
CONTINUOUS
10
99.2338
20
-173.45
11
99.1385
21
-173.26
0
LINE
8
BLACK
6
CONTINUOUS
10
99.1385
20
-173.26
11
99.0433
21
-172.879
0
LINE
8
BLACK
6
CONTINUOUS
10
99.0433
20
-172.879
11
99.0433
21
-172.403
0
LINE
8
BLACK
6
CONTINUOUS
10
99.0433
20
-172.403
11
99.1385
21
-172.022
0
LINE
8
BLACK
6
CONTINUOUS
10
99.1385
20
-172.022
11
99.2338
21
-171.831
0
LINE
8
BLACK
6
CONTINUOUS
10
99.2338
20
-171.831
11
99.329
21
-171.736
0
LINE
8
BLACK
6
CONTINUOUS
10
99.329
20
-171.736
11
99.5195
21
-171.641
0
LINE
8
BLACK
6
CONTINUOUS
10
101.9
20
-171.641
11
101.519
21
-171.641
0
LINE
8
BLACK
6
CONTINUOUS
10
101.519
20
-171.641
11
101.329
21
-171.736
0
LINE
8
BLACK
6
CONTINUOUS
10
101.329
20
-171.736
11
101.234
21
-171.831
0
LINE
8
BLACK
6
CONTINUOUS
10
101.234
20
-171.831
11
101.043
21
-172.117
0
LINE
8
BLACK
6
CONTINUOUS
10
101.043
20
-172.117
11
100.948
21
-172.498
0
LINE
8
BLACK
6
CONTINUOUS
10
100.948
20
-172.498
11
100.948
21
-173.26
0
LINE
8
BLACK
6
CONTINUOUS
10
100.948
20
-173.26
11
101.043
21
-173.45
0
LINE
8
BLACK
6
CONTINUOUS
10
101.043
20
-173.45
11
101.139
21
-173.546
0
LINE
8
BLACK
6
CONTINUOUS
10
101.139
20
-173.546
11
101.329
21
-173.641
0
LINE
8
BLACK
6
CONTINUOUS
10
101.329
20
-173.641
11
101.71
21
-173.641
0
LINE
8
BLACK
6
CONTINUOUS
10
101.71
20
-173.641
11
101.9
21
-173.546
0
LINE
8
BLACK
6
CONTINUOUS
10
101.9
20
-173.546
11
101.996
21
-173.45
0
LINE
8
BLACK
6
CONTINUOUS
10
101.996
20
-173.45
11
102.091
21
-173.26
0
LINE
8
BLACK
6
CONTINUOUS
10
102.091
20
-173.26
11
102.091
21
-172.784
0
LINE
8
BLACK
6
CONTINUOUS
10
102.091
20
-172.784
11
101.996
21
-172.593
0
LINE
8
BLACK
6
CONTINUOUS
10
101.996
20
-172.593
11
101.9
21
-172.498
0
LINE
8
BLACK
6
CONTINUOUS
10
101.9
20
-172.498
11
101.71
21
-172.403
0
LINE
8
BLACK
6
CONTINUOUS
10
101.71
20
-172.403
11
101.329
21
-172.403
0
LINE
8
BLACK
6
CONTINUOUS
10
101.329
20
-172.403
11
101.139
21
-172.498
0
LINE
8
BLACK
6
CONTINUOUS
10
101.139
20
-172.498
11
101.043
21
-172.593
0
LINE
8
BLACK
6
CONTINUOUS
10
101.043
20
-172.593
11
100.948
21
-172.784
0
LINE
8
BLACK
6
CONTINUOUS
10
103.805
20
-171.641
11
103.424
21
-171.641
0
LINE
8
BLACK
6
CONTINUOUS
10
103.424
20
-171.641
11
103.234
21
-171.736
0
LINE
8
BLACK
6
CONTINUOUS
10
103.234
20
-171.736
11
103.139
21
-171.831
0
LINE
8
BLACK
6
CONTINUOUS
10
103.139
20
-171.831
11
102.948
21
-172.117
0
LINE
8
BLACK
6
CONTINUOUS
10
102.948
20
-172.117
11
102.853
21
-172.498
0
LINE
8
BLACK
6
CONTINUOUS
10
102.853
20
-172.498
11
102.853
21
-173.26
0
LINE
8
BLACK
6
CONTINUOUS
10
102.853
20
-173.26
11
102.948
21
-173.45
0
LINE
8
BLACK
6
CONTINUOUS
10
102.948
20
-173.45
11
103.043
21
-173.546
0
LINE
8
BLACK
6
CONTINUOUS
10
103.043
20
-173.546
11
103.234
21
-173.641
0
LINE
8
BLACK
6
CONTINUOUS
10
103.234
20
-173.641
11
103.615
21
-173.641
0
LINE
8
BLACK
6
CONTINUOUS
10
103.615
20
-173.641
11
103.805
21
-173.546
0
LINE
8
BLACK
6
CONTINUOUS
10
103.805
20
-173.546
11
103.9
21
-173.45
0
LINE
8
BLACK
6
CONTINUOUS
10
103.9
20
-173.45
11
103.996
21
-173.26
0
LINE
8
BLACK
6
CONTINUOUS
10
103.996
20
-173.26
11
103.996
21
-172.784
0
LINE
8
BLACK
6
CONTINUOUS
10
103.996
20
-172.784
11
103.9
21
-172.593
0
LINE
8
BLACK
6
CONTINUOUS
10
103.9
20
-172.593
11
103.805
21
-172.498
0
LINE
8
BLACK
6
CONTINUOUS
10
103.805
20
-172.498
11
103.615
21
-172.403
0
LINE
8
BLACK
6
CONTINUOUS
10
103.615
20
-172.403
11
103.234
21
-172.403
0
LINE
8
BLACK
6
CONTINUOUS
10
103.234
20
-172.403
11
103.043
21
-172.498
0
LINE
8
BLACK
6
CONTINUOUS
10
103.043
20
-172.498
11
102.948
21
-172.593
0
LINE
8
BLACK
6
CONTINUOUS
10
102.948
20
-172.593
11
102.853
21
-172.784
0
LINE
8
BLACK
6
CONTINUOUS
10
104.948
20
-173.641
11
105.329
21
-173.641
0
LINE
8
BLACK
6
CONTINUOUS
10
105.329
20
-173.641
11
105.519
21
-173.546
0
LINE
8
BLACK
6
CONTINUOUS
10
105.519
20
-173.546
11
105.615
21
-173.45
0
LINE
8
BLACK
6
CONTINUOUS
10
105.615
20
-173.45
11
105.805
21
-173.165
0
LINE
8
BLACK
6
CONTINUOUS
10
105.805
20
-173.165
11
105.9
21
-172.784
0
LINE
8
BLACK
6
CONTINUOUS
10
105.9
20
-172.784
11
105.9
21
-172.022
0
LINE
8
BLACK
6
CONTINUOUS
10
105.9
20
-172.022
11
105.805
21
-171.831
0
LINE
8
BLACK
6
CONTINUOUS
10
105.805
20
-171.831
11
105.71
21
-171.736
0
LINE
8
BLACK
6
CONTINUOUS
10
105.71
20
-171.736
11
105.519
21
-171.641
0
LINE
8
BLACK
6
CONTINUOUS
10
105.519
20
-171.641
11
105.139
21
-171.641
0
LINE
8
BLACK
6
CONTINUOUS
10
105.139
20
-171.641
11
104.948
21
-171.736
0
LINE
8
BLACK
6
CONTINUOUS
10
104.948
20
-171.736
11
104.853
21
-171.831
0
LINE
8
BLACK
6
CONTINUOUS
10
104.853
20
-171.831
11
104.758
21
-172.022
0
LINE
8
BLACK
6
CONTINUOUS
10
104.758
20
-172.022
11
104.758
21
-172.498
0
LINE
8
BLACK
6
CONTINUOUS
10
104.758
20
-172.498
11
104.853
21
-172.688
0
LINE
8
BLACK
6
CONTINUOUS
10
104.853
20
-172.688
11
104.948
21
-172.784
0
LINE
8
BLACK
6
CONTINUOUS
10
104.948
20
-172.784
11
105.139
21
-172.879
0
LINE
8
BLACK
6
CONTINUOUS
10
105.139
20
-172.879
11
105.519
21
-172.879
0
LINE
8
BLACK
6
CONTINUOUS
10
105.519
20
-172.879
11
105.71
21
-172.784
0
LINE
8
BLACK
6
CONTINUOUS
10
105.71
20
-172.784
11
105.805
21
-172.688
0
LINE
8
BLACK
6
CONTINUOUS
10
105.805
20
-172.688
11
105.9
21
-172.498
0
LINE
8
BLACK
6
CONTINUOUS
10
106.662
20
-171.641
11
106.662
21
-172.022
0
LINE
8
BLACK
6
CONTINUOUS
10
107.424
20
-171.641
11
107.424
21
-172.022
0
LINE
8
BLACK
6
CONTINUOUS
10
110.377
20
-174.403
11
110.281
21
-174.308
0
LINE
8
BLACK
6
CONTINUOUS
10
110.281
20
-174.308
11
110.091
21
-174.022
0
LINE
8
BLACK
6
CONTINUOUS
10
110.091
20
-174.022
11
109.996
21
-173.831
0
LINE
8
BLACK
6
CONTINUOUS
10
109.996
20
-173.831
11
109.9
21
-173.546
0
LINE
8
BLACK
6
CONTINUOUS
10
109.9
20
-173.546
11
109.805
21
-173.069
0
LINE
8
BLACK
6
CONTINUOUS
10
109.805
20
-173.069
11
109.805
21
-172.688
0
LINE
8
BLACK
6
CONTINUOUS
10
109.805
20
-172.688
11
109.9
21
-172.212
0
LINE
8
BLACK
6
CONTINUOUS
10
109.9
20
-172.212
11
109.996
21
-171.927
0
LINE
8
BLACK
6
CONTINUOUS
10
109.996
20
-171.927
11
110.091
21
-171.736
0
LINE
8
BLACK
6
CONTINUOUS
10
110.091
20
-171.736
11
110.281
21
-171.45
0
LINE
8
BLACK
6
CONTINUOUS
10
110.281
20
-171.45
11
110.377
21
-171.355
0
LINE
8
BLACK
6
CONTINUOUS
10
111.043
20
-171.831
11
111.139
21
-171.736
0
LINE
8
BLACK
6
CONTINUOUS
10
111.139
20
-171.736
11
111.329
21
-171.641
0
LINE
8
BLACK
6
CONTINUOUS
10
111.329
20
-171.641
11
111.805
21
-171.641
0
LINE
8
BLACK
6
CONTINUOUS
10
111.805
20
-171.641
11
111.996
21
-171.736
0
LINE
8
BLACK
6
CONTINUOUS
10
111.996
20
-171.736
11
112.091
21
-171.831
0
LINE
8
BLACK
6
CONTINUOUS
10
112.091
20
-171.831
11
112.186
21
-172.022
0
LINE
8
BLACK
6
CONTINUOUS
10
112.186
20
-172.022
11
112.186
21
-172.212
0
LINE
8
BLACK
6
CONTINUOUS
10
112.186
20
-172.212
11
112.091
21
-172.498
0
LINE
8
BLACK
6
CONTINUOUS
10
112.091
20
-172.498
11
110.948
21
-173.641
0
LINE
8
BLACK
6
CONTINUOUS
10
110.948
20
-173.641
11
112.186
21
-173.641
0
LINE
8
BLACK
6
CONTINUOUS
10
114.567
20
-173.641
11
114.567
21
-171.641
0
LINE
8
BLACK
6
CONTINUOUS
10
115.424
20
-173.641
11
115.424
21
-172.593
0
LINE
8
BLACK
6
CONTINUOUS
10
115.424
20
-172.593
11
115.329
21
-172.403
0
LINE
8
BLACK
6
CONTINUOUS
10
115.329
20
-172.403
11
115.139
21
-172.308
0
LINE
8
BLACK
6
CONTINUOUS
10
115.139
20
-172.308
11
114.853
21
-172.308
0
LINE
8
BLACK
6
CONTINUOUS
10
114.853
20
-172.308
11
114.662
21
-172.403
0
LINE
8
BLACK
6
CONTINUOUS
10
114.662
20
-172.403
11
114.567
21
-172.498
0
LINE
8
BLACK
6
CONTINUOUS
10
116.662
20
-173.641
11
116.472
21
-173.546
0
LINE
8
BLACK
6
CONTINUOUS
10
116.472
20
-173.546
11
116.377
21
-173.45
0
LINE
8
BLACK
6
CONTINUOUS
10
116.377
20
-173.45
11
116.281
21
-173.26
0
LINE
8
BLACK
6
CONTINUOUS
10
116.281
20
-173.26
11
116.281
21
-172.688
0
LINE
8
BLACK
6
CONTINUOUS
10
116.281
20
-172.688
11
116.377
21
-172.498
0
LINE
8
BLACK
6
CONTINUOUS
10
116.377
20
-172.498
11
116.472
21
-172.403
0
LINE
8
BLACK
6
CONTINUOUS
10
116.472
20
-172.403
11
116.662
21
-172.308
0
LINE
8
BLACK
6
CONTINUOUS
10
116.662
20
-172.308
11
116.948
21
-172.308
0
LINE
8
BLACK
6
CONTINUOUS
10
116.948
20
-172.308
11
117.139
21
-172.403
0
LINE
8
BLACK
6
CONTINUOUS
10
117.139
20
-172.403
11
117.234
21
-172.498
0
LINE
8
BLACK
6
CONTINUOUS
10
117.234
20
-172.498
11
117.329
21
-172.688
0
LINE
8
BLACK
6
CONTINUOUS
10
117.329
20
-172.688
11
117.329
21
-173.26
0
LINE
8
BLACK
6
CONTINUOUS
10
117.329
20
-173.26
11
117.234
21
-173.45
0
LINE
8
BLACK
6
CONTINUOUS
10
117.234
20
-173.45
11
117.139
21
-173.546
0
LINE
8
BLACK
6
CONTINUOUS
10
117.139
20
-173.546
11
116.948
21
-173.641
0
LINE
8
BLACK
6
CONTINUOUS
10
116.948
20
-173.641
11
116.662
21
-173.641
0
LINE
8
BLACK
6
CONTINUOUS
10
118.472
20
-173.641
11
118.281
21
-173.546
0
LINE
8
BLACK
6
CONTINUOUS
10
118.281
20
-173.546
11
118.186
21
-173.355
0
LINE
8
BLACK
6
CONTINUOUS
10
118.186
20
-173.355
11
118.186
21
-171.641
0
LINE
8
BLACK
6
CONTINUOUS
10
119.996
20
-173.546
11
119.805
21
-173.641
0
LINE
8
BLACK
6
CONTINUOUS
10
119.805
20
-173.641
11
119.424
21
-173.641
0
LINE
8
BLACK
6
CONTINUOUS
10
119.424
20
-173.641
11
119.234
21
-173.546
0
LINE
8
BLACK
6
CONTINUOUS
10
119.234
20
-173.546
11
119.139
21
-173.355
0
LINE
8
BLACK
6
CONTINUOUS
10
119.139
20
-173.355
11
119.139
21
-172.593
0
LINE
8
BLACK
6
CONTINUOUS
10
119.139
20
-172.593
11
119.234
21
-172.403
0
LINE
8
BLACK
6
CONTINUOUS
10
119.234
20
-172.403
11
119.424
21
-172.308
0
LINE
8
BLACK
6
CONTINUOUS
10
119.424
20
-172.308
11
119.805
21
-172.308
0
LINE
8
BLACK
6
CONTINUOUS
10
119.805
20
-172.308
11
119.996
21
-172.403
0
LINE
8
BLACK
6
CONTINUOUS
10
119.996
20
-172.403
11
120.091
21
-172.593
0
LINE
8
BLACK
6
CONTINUOUS
10
120.091
20
-172.593
11
120.091
21
-172.784
0
LINE
8
BLACK
6
CONTINUOUS
10
120.091
20
-172.784
11
119.139
21
-172.974
0
LINE
8
BLACK
6
CONTINUOUS
10
120.853
20
-173.546
11
121.043
21
-173.641
0
LINE
8
BLACK
6
CONTINUOUS
10
121.043
20
-173.641
11
121.424
21
-173.641
0
LINE
8
BLACK
6
CONTINUOUS
10
121.424
20
-173.641
11
121.615
21
-173.546
0
LINE
8
BLACK
6
CONTINUOUS
10
121.615
20
-173.546
11
121.71
21
-173.355
0
LINE
8
BLACK
6
CONTINUOUS
10
121.71
20
-173.355
11
121.71
21
-173.26
0
LINE
8
BLACK
6
CONTINUOUS
10
121.71
20
-173.26
11
121.615
21
-173.069
0
LINE
8
BLACK
6
CONTINUOUS
10
121.615
20
-173.069
11
121.424
21
-172.974
0
LINE
8
BLACK
6
CONTINUOUS
10
121.424
20
-172.974
11
121.139
21
-172.974
0
LINE
8
BLACK
6
CONTINUOUS
10
121.139
20
-172.974
11
120.948
21
-172.879
0
LINE
8
BLACK
6
CONTINUOUS
10
120.948
20
-172.879
11
120.853
21
-172.688
0
LINE
8
BLACK
6
CONTINUOUS
10
120.853
20
-172.688
11
120.853
21
-172.593
0
LINE
8
BLACK
6
CONTINUOUS
10
120.853
20
-172.593
11
120.948
21
-172.403
0
LINE
8
BLACK
6
CONTINUOUS
10
120.948
20
-172.403
11
121.139
21
-172.308
0
LINE
8
BLACK
6
CONTINUOUS
10
121.139
20
-172.308
11
121.424
21
-172.308
0
LINE
8
BLACK
6
CONTINUOUS
10
121.424
20
-172.308
11
121.615
21
-172.403
0
LINE
8
BLACK
6
CONTINUOUS
10
122.377
20
-174.403
11
122.472
21
-174.308
0
LINE
8
BLACK
6
CONTINUOUS
10
122.472
20
-174.308
11
122.662
21
-174.022
0
LINE
8
BLACK
6
CONTINUOUS
10
122.662
20
-174.022
11
122.758
21
-173.831
0
LINE
8
BLACK
6
CONTINUOUS
10
122.758
20
-173.831
11
122.853
21
-173.546
0
LINE
8
BLACK
6
CONTINUOUS
10
122.853
20
-173.546
11
122.948
21
-173.069
0
LINE
8
BLACK
6
CONTINUOUS
10
122.948
20
-173.069
11
122.948
21
-172.688
0
LINE
8
BLACK
6
CONTINUOUS
10
122.948
20
-172.688
11
122.853
21
-172.212
0
LINE
8
BLACK
6
CONTINUOUS
10
122.853
20
-172.212
11
122.758
21
-171.927
0
LINE
8
BLACK
6
CONTINUOUS
10
122.758
20
-171.927
11
122.662
21
-171.736
0
LINE
8
BLACK
6
CONTINUOUS
10
122.662
20
-171.736
11
122.472
21
-171.45
0
LINE
8
BLACK
6
CONTINUOUS
10
122.472
20
-171.45
11
122.377
21
-171.355
0
LINE
8
BLACK
6
CONTINUOUS
10
125.996
20
-174.403
11
125.9
21
-174.308
0
LINE
8
BLACK
6
CONTINUOUS
10
125.9
20
-174.308
11
125.71
21
-174.022
0
LINE
8
BLACK
6
CONTINUOUS
10
125.71
20
-174.022
11
125.615
21
-173.831
0
LINE
8
BLACK
6
CONTINUOUS
10
125.615
20
-173.831
11
125.519
21
-173.546
0
LINE
8
BLACK
6
CONTINUOUS
10
125.519
20
-173.546
11
125.424
21
-173.069
0
LINE
8
BLACK
6
CONTINUOUS
10
125.424
20
-173.069
11
125.424
21
-172.688
0
LINE
8
BLACK
6
CONTINUOUS
10
125.424
20
-172.688
11
125.519
21
-172.212
0
LINE
8
BLACK
6
CONTINUOUS
10
125.519
20
-172.212
11
125.615
21
-171.927
0
LINE
8
BLACK
6
CONTINUOUS
10
125.615
20
-171.927
11
125.71
21
-171.736
0
LINE
8
BLACK
6
CONTINUOUS
10
125.71
20
-171.736
11
125.9
21
-171.45
0
LINE
8
BLACK
6
CONTINUOUS
10
125.9
20
-171.45
11
125.996
21
-171.355
0
LINE
8
BLACK
6
CONTINUOUS
10
126.758
20
-172.308
11
126.758
21
-173.641
0
LINE
8
BLACK
6
CONTINUOUS
10
126.758
20
-172.498
11
126.853
21
-172.403
0
LINE
8
BLACK
6
CONTINUOUS
10
126.853
20
-172.403
11
127.043
21
-172.308
0
LINE
8
BLACK
6
CONTINUOUS
10
127.043
20
-172.308
11
127.329
21
-172.308
0
LINE
8
BLACK
6
CONTINUOUS
10
127.329
20
-172.308
11
127.519
21
-172.403
0
LINE
8
BLACK
6
CONTINUOUS
10
127.519
20
-172.403
11
127.615
21
-172.593
0
LINE
8
BLACK
6
CONTINUOUS
10
127.615
20
-172.593
11
127.615
21
-173.641
0
LINE
8
BLACK
6
CONTINUOUS
10
128.853
20
-173.641
11
128.662
21
-173.546
0
LINE
8
BLACK
6
CONTINUOUS
10
128.662
20
-173.546
11
128.567
21
-173.45
0
LINE
8
BLACK
6
CONTINUOUS
10
128.567
20
-173.45
11
128.472
21
-173.26
0
LINE
8
BLACK
6
CONTINUOUS
10
128.472
20
-173.26
11
128.472
21
-172.688
0
LINE
8
BLACK
6
CONTINUOUS
10
128.472
20
-172.688
11
128.567
21
-172.498
0
LINE
8
BLACK
6
CONTINUOUS
10
128.567
20
-172.498
11
128.662
21
-172.403
0
LINE
8
BLACK
6
CONTINUOUS
10
128.662
20
-172.403
11
128.853
21
-172.308
0
LINE
8
BLACK
6
CONTINUOUS
10
128.853
20
-172.308
11
129.139
21
-172.308
0
LINE
8
BLACK
6
CONTINUOUS
10
129.139
20
-172.308
11
129.329
21
-172.403
0
LINE
8
BLACK
6
CONTINUOUS
10
129.329
20
-172.403
11
129.424
21
-172.498
0
LINE
8
BLACK
6
CONTINUOUS
10
129.424
20
-172.498
11
129.519
21
-172.688
0
LINE
8
BLACK
6
CONTINUOUS
10
129.519
20
-172.688
11
129.519
21
-173.26
0
LINE
8
BLACK
6
CONTINUOUS
10
129.519
20
-173.26
11
129.424
21
-173.45
0
LINE
8
BLACK
6
CONTINUOUS
10
129.424
20
-173.45
11
129.329
21
-173.546
0
LINE
8
BLACK
6
CONTINUOUS
10
129.329
20
-173.546
11
129.139
21
-173.641
0
LINE
8
BLACK
6
CONTINUOUS
10
129.139
20
-173.641
11
128.853
21
-173.641
0
LINE
8
BLACK
6
CONTINUOUS
10
130.091
20
-172.308
11
130.853
21
-172.308
0
LINE
8
BLACK
6
CONTINUOUS
10
130.377
20
-171.641
11
130.377
21
-173.355
0
LINE
8
BLACK
6
CONTINUOUS
10
130.377
20
-173.355
11
130.472
21
-173.546
0
LINE
8
BLACK
6
CONTINUOUS
10
130.472
20
-173.546
11
130.662
21
-173.641
0
LINE
8
BLACK
6
CONTINUOUS
10
130.662
20
-173.641
11
130.853
21
-173.641
0
LINE
8
BLACK
6
CONTINUOUS
10
133.043
20
-172.308
11
133.043
21
-174.308
0
LINE
8
BLACK
6
CONTINUOUS
10
133.043
20
-172.403
11
133.234
21
-172.308
0
LINE
8
BLACK
6
CONTINUOUS
10
133.234
20
-172.308
11
133.615
21
-172.308
0
LINE
8
BLACK
6
CONTINUOUS
10
133.615
20
-172.308
11
133.805
21
-172.403
0
LINE
8
BLACK
6
CONTINUOUS
10
133.805
20
-172.403
11
133.9
21
-172.498
0
LINE
8
BLACK
6
CONTINUOUS
10
133.9
20
-172.498
11
133.996
21
-172.688
0
LINE
8
BLACK
6
CONTINUOUS
10
133.996
20
-172.688
11
133.996
21
-173.26
0
LINE
8
BLACK
6
CONTINUOUS
10
133.996
20
-173.26
11
133.9
21
-173.45
0
LINE
8
BLACK
6
CONTINUOUS
10
133.9
20
-173.45
11
133.805
21
-173.546
0
LINE
8
BLACK
6
CONTINUOUS
10
133.805
20
-173.546
11
133.615
21
-173.641
0
LINE
8
BLACK
6
CONTINUOUS
10
133.615
20
-173.641
11
133.234
21
-173.641
0
LINE
8
BLACK
6
CONTINUOUS
10
133.234
20
-173.641
11
133.043
21
-173.546
0
LINE
8
BLACK
6
CONTINUOUS
10
135.139
20
-173.641
11
134.948
21
-173.546
0
LINE
8
BLACK
6
CONTINUOUS
10
134.948
20
-173.546
11
134.853
21
-173.355
0
LINE
8
BLACK
6
CONTINUOUS
10
134.853
20
-173.355
11
134.853
21
-171.641
0
LINE
8
BLACK
6
CONTINUOUS
10
136.758
20
-173.641
11
136.758
21
-172.593
0
LINE
8
BLACK
6
CONTINUOUS
10
136.758
20
-172.593
11
136.662
21
-172.403
0
LINE
8
BLACK
6
CONTINUOUS
10
136.662
20
-172.403
11
136.472
21
-172.308
0
LINE
8
BLACK
6
CONTINUOUS
10
136.472
20
-172.308
11
136.091
21
-172.308
0
LINE
8
BLACK
6
CONTINUOUS
10
136.091
20
-172.308
11
135.9
21
-172.403
0
LINE
8
BLACK
6
CONTINUOUS
10
136.758
20
-173.546
11
136.567
21
-173.641
0
LINE
8
BLACK
6
CONTINUOUS
10
136.567
20
-173.641
11
136.091
21
-173.641
0
LINE
8
BLACK
6
CONTINUOUS
10
136.091
20
-173.641
11
135.9
21
-173.546
0
LINE
8
BLACK
6
CONTINUOUS
10
135.9
20
-173.546
11
135.805
21
-173.355
0
LINE
8
BLACK
6
CONTINUOUS
10
135.805
20
-173.355
11
135.805
21
-173.165
0
LINE
8
BLACK
6
CONTINUOUS
10
135.805
20
-173.165
11
135.9
21
-172.974
0
LINE
8
BLACK
6
CONTINUOUS
10
135.9
20
-172.974
11
136.091
21
-172.879
0
LINE
8
BLACK
6
CONTINUOUS
10
136.091
20
-172.879
11
136.567
21
-172.879
0
LINE
8
BLACK
6
CONTINUOUS
10
136.567
20
-172.879
11
136.758
21
-172.784
0
LINE
8
BLACK
6
CONTINUOUS
10
137.424
20
-172.308
11
138.186
21
-172.308
0
LINE
8
BLACK
6
CONTINUOUS
10
137.71
20
-171.641
11
137.71
21
-173.355
0
LINE
8
BLACK
6
CONTINUOUS
10
137.71
20
-173.355
11
137.805
21
-173.546
0
LINE
8
BLACK
6
CONTINUOUS
10
137.805
20
-173.546
11
137.996
21
-173.641
0
LINE
8
BLACK
6
CONTINUOUS
10
137.996
20
-173.641
11
138.186
21
-173.641
0
LINE
8
BLACK
6
CONTINUOUS
10
139.615
20
-173.546
11
139.424
21
-173.641
0
LINE
8
BLACK
6
CONTINUOUS
10
139.424
20
-173.641
11
139.043
21
-173.641
0
LINE
8
BLACK
6
CONTINUOUS
10
139.043
20
-173.641
11
138.853
21
-173.546
0
LINE
8
BLACK
6
CONTINUOUS
10
138.853
20
-173.546
11
138.758
21
-173.355
0
LINE
8
BLACK
6
CONTINUOUS
10
138.758
20
-173.355
11
138.758
21
-172.593
0
LINE
8
BLACK
6
CONTINUOUS
10
138.758
20
-172.593
11
138.853
21
-172.403
0
LINE
8
BLACK
6
CONTINUOUS
10
138.853
20
-172.403
11
139.043
21
-172.308
0
LINE
8
BLACK
6
CONTINUOUS
10
139.043
20
-172.308
11
139.424
21
-172.308
0
LINE
8
BLACK
6
CONTINUOUS
10
139.424
20
-172.308
11
139.615
21
-172.403
0
LINE
8
BLACK
6
CONTINUOUS
10
139.615
20
-172.403
11
139.71
21
-172.593
0
LINE
8
BLACK
6
CONTINUOUS
10
139.71
20
-172.593
11
139.71
21
-172.784
0
LINE
8
BLACK
6
CONTINUOUS
10
139.71
20
-172.784
11
138.758
21
-172.974
0
LINE
8
BLACK
6
CONTINUOUS
10
141.424
20
-173.641
11
141.424
21
-171.641
0
LINE
8
BLACK
6
CONTINUOUS
10
141.424
20
-173.546
11
141.234
21
-173.641
0
LINE
8
BLACK
6
CONTINUOUS
10
141.234
20
-173.641
11
140.853
21
-173.641
0
LINE
8
BLACK
6
CONTINUOUS
10
140.853
20
-173.641
11
140.662
21
-173.546
0
LINE
8
BLACK
6
CONTINUOUS
10
140.662
20
-173.546
11
140.567
21
-173.45
0
LINE
8
BLACK
6
CONTINUOUS
10
140.567
20
-173.45
11
140.472
21
-173.26
0
LINE
8
BLACK
6
CONTINUOUS
10
140.472
20
-173.26
11
140.472
21
-172.688
0
LINE
8
BLACK
6
CONTINUOUS
10
140.472
20
-172.688
11
140.567
21
-172.498
0
LINE
8
BLACK
6
CONTINUOUS
10
140.567
20
-172.498
11
140.662
21
-172.403
0
LINE
8
BLACK
6
CONTINUOUS
10
140.662
20
-172.403
11
140.853
21
-172.308
0
LINE
8
BLACK
6
CONTINUOUS
10
140.853
20
-172.308
11
141.234
21
-172.308
0
LINE
8
BLACK
6
CONTINUOUS
10
141.234
20
-172.308
11
141.424
21
-172.403
0
LINE
8
BLACK
6
CONTINUOUS
10
142.186
20
-174.403
11
142.281
21
-174.308
0
LINE
8
BLACK
6
CONTINUOUS
10
142.281
20
-174.308
11
142.472
21
-174.022
0
LINE
8
BLACK
6
CONTINUOUS
10
142.472
20
-174.022
11
142.567
21
-173.831
0
LINE
8
BLACK
6
CONTINUOUS
10
142.567
20
-173.831
11
142.662
21
-173.546
0
LINE
8
BLACK
6
CONTINUOUS
10
142.662
20
-173.546
11
142.758
21
-173.069
0
LINE
8
BLACK
6
CONTINUOUS
10
142.758
20
-173.069
11
142.758
21
-172.688
0
LINE
8
BLACK
6
CONTINUOUS
10
142.758
20
-172.688
11
142.662
21
-172.212
0
LINE
8
BLACK
6
CONTINUOUS
10
142.662
20
-172.212
11
142.567
21
-171.927
0
LINE
8
BLACK
6
CONTINUOUS
10
142.567
20
-171.927
11
142.472
21
-171.736
0
LINE
8
BLACK
6
CONTINUOUS
10
142.472
20
-171.736
11
142.281
21
-171.45
0
LINE
8
BLACK
6
CONTINUOUS
10
142.281
20
-171.45
11
142.186
21
-171.355
0
LINE
8
BLACK
6
CONTINUOUS
10
73.726
20
-174.726
11
73.726
21
-176.526
0
LINE
8
BLACK
6
CONTINUOUS
10
72.826
20
-175.626
11
74.626
21
-175.626
0
LINE
8
BLACK
6
CONTINUOUS
10
78.2814
20
-176.541
11
77.1385
21
-176.541
0
LINE
8
BLACK
6
CONTINUOUS
10
77.71
20
-176.541
11
77.71
21
-174.541
0
LINE
8
BLACK
6
CONTINUOUS
10
77.71
20
-174.541
11
77.5195
21
-174.827
0
LINE
8
BLACK
6
CONTINUOUS
10
77.5195
20
-174.827
11
77.329
21
-175.017
0
LINE
8
BLACK
6
CONTINUOUS
10
77.329
20
-175.017
11
77.1385
21
-175.112
0
LINE
8
BLACK
6
CONTINUOUS
10
79.1385
20
-176.35
11
79.2338
21
-176.446
0
LINE
8
BLACK
6
CONTINUOUS
10
79.2338
20
-176.446
11
79.1385
21
-176.541
0
LINE
8
BLACK
6
CONTINUOUS
10
79.1385
20
-176.541
11
79.0433
21
-176.446
0
LINE
8
BLACK
6
CONTINUOUS
10
79.0433
20
-176.446
11
79.1385
21
-176.35
0
LINE
8
BLACK
6
CONTINUOUS
10
79.1385
20
-176.35
11
79.1385
21
-176.541
0
LINE
8
BLACK
6
CONTINUOUS
10
80.3766
20
-175.398
11
80.1861
21
-175.303
0
LINE
8
BLACK
6
CONTINUOUS
10
80.1861
20
-175.303
11
80.0909
21
-175.208
0
LINE
8
BLACK
6
CONTINUOUS
10
80.0909
20
-175.208
11
79.9957
21
-175.017
0
LINE
8
BLACK
6
CONTINUOUS
10
79.9957
20
-175.017
11
79.9957
21
-174.922
0
LINE
8
BLACK
6
CONTINUOUS
10
79.9957
20
-174.922
11
80.0909
21
-174.731
0
LINE
8
BLACK
6
CONTINUOUS
10
80.0909
20
-174.731
11
80.1861
21
-174.636
0
LINE
8
BLACK
6
CONTINUOUS
10
80.1861
20
-174.636
11
80.3766
21
-174.541
0
LINE
8
BLACK
6
CONTINUOUS
10
80.3766
20
-174.541
11
80.7576
21
-174.541
0
LINE
8
BLACK
6
CONTINUOUS
10
80.7576
20
-174.541
11
80.9481
21
-174.636
0
LINE
8
BLACK
6
CONTINUOUS
10
80.9481
20
-174.636
11
81.0433
21
-174.731
0
LINE
8
BLACK
6
CONTINUOUS
10
81.0433
20
-174.731
11
81.1385
21
-174.922
0
LINE
8
BLACK
6
CONTINUOUS
10
81.1385
20
-174.922
11
81.1385
21
-175.017
0
LINE
8
BLACK
6
CONTINUOUS
10
81.1385
20
-175.017
11
81.0433
21
-175.208
0
LINE
8
BLACK
6
CONTINUOUS
10
81.0433
20
-175.208
11
80.9481
21
-175.303
0
LINE
8
BLACK
6
CONTINUOUS
10
80.9481
20
-175.303
11
80.7576
21
-175.398
0
LINE
8
BLACK
6
CONTINUOUS
10
80.7576
20
-175.398
11
80.3766
21
-175.398
0
LINE
8
BLACK
6
CONTINUOUS
10
80.3766
20
-175.398
11
80.1861
21
-175.493
0
LINE
8
BLACK
6
CONTINUOUS
10
80.1861
20
-175.493
11
80.0909
21
-175.588
0
LINE
8
BLACK
6
CONTINUOUS
10
80.0909
20
-175.588
11
79.9957
21
-175.779
0
LINE
8
BLACK
6
CONTINUOUS
10
79.9957
20
-175.779
11
79.9957
21
-176.16
0
LINE
8
BLACK
6
CONTINUOUS
10
79.9957
20
-176.16
11
80.0909
21
-176.35
0
LINE
8
BLACK
6
CONTINUOUS
10
80.0909
20
-176.35
11
80.1861
21
-176.446
0
LINE
8
BLACK
6
CONTINUOUS
10
80.1861
20
-176.446
11
80.3766
21
-176.541
0
LINE
8
BLACK
6
CONTINUOUS
10
80.3766
20
-176.541
11
80.7576
21
-176.541
0
LINE
8
BLACK
6
CONTINUOUS
10
80.7576
20
-176.541
11
80.9481
21
-176.446
0
LINE
8
BLACK
6
CONTINUOUS
10
80.9481
20
-176.446
11
81.0433
21
-176.35
0
LINE
8
BLACK
6
CONTINUOUS
10
81.0433
20
-176.35
11
81.1385
21
-176.16
0
LINE
8
BLACK
6
CONTINUOUS
10
81.1385
20
-176.16
11
81.1385
21
-175.779
0
LINE
8
BLACK
6
CONTINUOUS
10
81.1385
20
-175.779
11
81.0433
21
-175.588
0
LINE
8
BLACK
6
CONTINUOUS
10
81.0433
20
-175.588
11
80.9481
21
-175.493
0
LINE
8
BLACK
6
CONTINUOUS
10
80.9481
20
-175.493
11
80.7576
21
-175.398
0
LINE
8
BLACK
6
CONTINUOUS
10
82.3766
20
-174.541
11
82.5671
21
-174.541
0
LINE
8
BLACK
6
CONTINUOUS
10
82.5671
20
-174.541
11
82.7576
21
-174.636
0
LINE
8
BLACK
6
CONTINUOUS
10
82.7576
20
-174.636
11
82.8528
21
-174.731
0
LINE
8
BLACK
6
CONTINUOUS
10
82.8528
20
-174.731
11
82.9481
21
-174.922
0
LINE
8
BLACK
6
CONTINUOUS
10
82.9481
20
-174.922
11
83.0433
21
-175.303
0
LINE
8
BLACK
6
CONTINUOUS
10
83.0433
20
-175.303
11
83.0433
21
-175.779
0
LINE
8
BLACK
6
CONTINUOUS
10
83.0433
20
-175.779
11
82.9481
21
-176.16
0
LINE
8
BLACK
6
CONTINUOUS
10
82.9481
20
-176.16
11
82.8528
21
-176.35
0
LINE
8
BLACK
6
CONTINUOUS
10
82.8528
20
-176.35
11
82.7576
21
-176.446
0
LINE
8
BLACK
6
CONTINUOUS
10
82.7576
20
-176.446
11
82.5671
21
-176.541
0
LINE
8
BLACK
6
CONTINUOUS
10
82.5671
20
-176.541
11
82.3766
21
-176.541
0
LINE
8
BLACK
6
CONTINUOUS
10
82.3766
20
-176.541
11
82.1861
21
-176.446
0
LINE
8
BLACK
6
CONTINUOUS
10
82.1861
20
-176.446
11
82.0909
21
-176.35
0
LINE
8
BLACK
6
CONTINUOUS
10
82.0909
20
-176.35
11
81.9957
21
-176.16
0
LINE
8
BLACK
6
CONTINUOUS
10
81.9957
20
-176.16
11
81.9004
21
-175.779
0
LINE
8
BLACK
6
CONTINUOUS
10
81.9004
20
-175.779
11
81.9004
21
-175.303
0
LINE
8
BLACK
6
CONTINUOUS
10
81.9004
20
-175.303
11
81.9957
21
-174.922
0
LINE
8
BLACK
6
CONTINUOUS
10
81.9957
20
-174.922
11
82.0909
21
-174.731
0
LINE
8
BLACK
6
CONTINUOUS
10
82.0909
20
-174.731
11
82.1861
21
-174.636
0
LINE
8
BLACK
6
CONTINUOUS
10
82.1861
20
-174.636
11
82.3766
21
-174.541
0
LINE
8
BLACK
6
CONTINUOUS
10
84.2814
20
-174.541
11
84.4719
21
-174.541
0
LINE
8
BLACK
6
CONTINUOUS
10
84.4719
20
-174.541
11
84.6623
21
-174.636
0
LINE
8
BLACK
6
CONTINUOUS
10
84.6623
20
-174.636
11
84.7576
21
-174.731
0
LINE
8
BLACK
6
CONTINUOUS
10
84.7576
20
-174.731
11
84.8528
21
-174.922
0
LINE
8
BLACK
6
CONTINUOUS
10
84.8528
20
-174.922
11
84.9481
21
-175.303
0
LINE
8
BLACK
6
CONTINUOUS
10
84.9481
20
-175.303
11
84.9481
21
-175.779
0
LINE
8
BLACK
6
CONTINUOUS
10
84.9481
20
-175.779
11
84.8528
21
-176.16
0
LINE
8
BLACK
6
CONTINUOUS
10
84.8528
20
-176.16
11
84.7576
21
-176.35
0
LINE
8
BLACK
6
CONTINUOUS
10
84.7576
20
-176.35
11
84.6623
21
-176.446
0
LINE
8
BLACK
6
CONTINUOUS
10
84.6623
20
-176.446
11
84.4719
21
-176.541
0
LINE
8
BLACK
6
CONTINUOUS
10
84.4719
20
-176.541
11
84.2814
21
-176.541
0
LINE
8
BLACK
6
CONTINUOUS
10
84.2814
20
-176.541
11
84.0909
21
-176.446
0
LINE
8
BLACK
6
CONTINUOUS
10
84.0909
20
-176.446
11
83.9957
21
-176.35
0
LINE
8
BLACK
6
CONTINUOUS
10
83.9957
20
-176.35
11
83.9004
21
-176.16
0
LINE
8
BLACK
6
CONTINUOUS
10
83.9004
20
-176.16
11
83.8052
21
-175.779
0
LINE
8
BLACK
6
CONTINUOUS
10
83.8052
20
-175.779
11
83.8052
21
-175.303
0
LINE
8
BLACK
6
CONTINUOUS
10
83.8052
20
-175.303
11
83.9004
21
-174.922
0
LINE
8
BLACK
6
CONTINUOUS
10
83.9004
20
-174.922
11
83.9957
21
-174.731
0
LINE
8
BLACK
6
CONTINUOUS
10
83.9957
20
-174.731
11
84.0909
21
-174.636
0
LINE
8
BLACK
6
CONTINUOUS
10
84.0909
20
-174.636
11
84.2814
21
-174.541
0
LINE
8
BLACK
6
CONTINUOUS
10
85.8052
20
-176.541
11
85.8052
21
-175.208
0
LINE
8
BLACK
6
CONTINUOUS
10
85.8052
20
-175.398
11
85.9004
21
-175.303
0
LINE
8
BLACK
6
CONTINUOUS
10
85.9004
20
-175.303
11
86.0909
21
-175.208
0
LINE
8
BLACK
6
CONTINUOUS
10
86.0909
20
-175.208
11
86.3766
21
-175.208
0
LINE
8
BLACK
6
CONTINUOUS
10
86.3766
20
-175.208
11
86.5671
21
-175.303
0
LINE
8
BLACK
6
CONTINUOUS
10
86.5671
20
-175.303
11
86.6623
21
-175.493
0
LINE
8
BLACK
6
CONTINUOUS
10
86.6623
20
-175.493
11
86.6623
21
-176.541
0
LINE
8
BLACK
6
CONTINUOUS
10
86.6623
20
-175.493
11
86.7576
21
-175.303
0
LINE
8
BLACK
6
CONTINUOUS
10
86.7576
20
-175.303
11
86.9481
21
-175.208
0
LINE
8
BLACK
6
CONTINUOUS
10
86.9481
20
-175.208
11
87.2338
21
-175.208
0
LINE
8
BLACK
6
CONTINUOUS
10
87.2338
20
-175.208
11
87.4242
21
-175.303
0
LINE
8
BLACK
6
CONTINUOUS
10
87.4242
20
-175.303
11
87.5195
21
-175.493
0
LINE
8
BLACK
6
CONTINUOUS
10
87.5195
20
-175.493
11
87.5195
21
-176.541
0
LINE
8
BLACK
6
CONTINUOUS
10
88.4719
20
-176.541
11
88.4719
21
-175.208
0
LINE
8
BLACK
6
CONTINUOUS
10
88.4719
20
-175.398
11
88.5671
21
-175.303
0
LINE
8
BLACK
6
CONTINUOUS
10
88.5671
20
-175.303
11
88.7576
21
-175.208
0
LINE
8
BLACK
6
CONTINUOUS
10
88.7576
20
-175.208
11
89.0433
21
-175.208
0
LINE
8
BLACK
6
CONTINUOUS
10
89.0433
20
-175.208
11
89.2338
21
-175.303
0
LINE
8
BLACK
6
CONTINUOUS
10
89.2338
20
-175.303
11
89.329
21
-175.493
0
LINE
8
BLACK
6
CONTINUOUS
10
89.329
20
-175.493
11
89.329
21
-176.541
0
LINE
8
BLACK
6
CONTINUOUS
10
89.329
20
-175.493
11
89.4242
21
-175.303
0
LINE
8
BLACK
6
CONTINUOUS
10
89.4242
20
-175.303
11
89.6147
21
-175.208
0
LINE
8
BLACK
6
CONTINUOUS
10
89.6147
20
-175.208
11
89.9004
21
-175.208
0
LINE
8
BLACK
6
CONTINUOUS
10
89.9004
20
-175.208
11
90.0909
21
-175.303
0
LINE
8
BLACK
6
CONTINUOUS
10
90.0909
20
-175.303
11
90.1861
21
-175.493
0
LINE
8
BLACK
6
CONTINUOUS
10
90.1861
20
-175.493
11
90.1861
21
-176.541
0
LINE
8
BLACK
6
CONTINUOUS
10
94.0909
20
-174.446
11
92.3766
21
-177.017
0
LINE
8
BLACK
6
CONTINUOUS
10
96.6623
20
-174.541
11
96.8528
21
-174.541
0
LINE
8
BLACK
6
CONTINUOUS
10
96.8528
20
-174.541
11
97.0433
21
-174.636
0
LINE
8
BLACK
6
CONTINUOUS
10
97.0433
20
-174.636
11
97.1385
21
-174.731
0
LINE
8
BLACK
6
CONTINUOUS
10
97.1385
20
-174.731
11
97.2338
21
-174.922
0
LINE
8
BLACK
6
CONTINUOUS
10
97.2338
20
-174.922
11
97.329
21
-175.303
0
LINE
8
BLACK
6
CONTINUOUS
10
97.329
20
-175.303
11
97.329
21
-175.779
0
LINE
8
BLACK
6
CONTINUOUS
10
97.329
20
-175.779
11
97.2338
21
-176.16
0
LINE
8
BLACK
6
CONTINUOUS
10
97.2338
20
-176.16
11
97.1385
21
-176.35
0
LINE
8
BLACK
6
CONTINUOUS
10
97.1385
20
-176.35
11
97.0433
21
-176.446
0
LINE
8
BLACK
6
CONTINUOUS
10
97.0433
20
-176.446
11
96.8528
21
-176.541
0
LINE
8
BLACK
6
CONTINUOUS
10
96.8528
20
-176.541
11
96.6623
21
-176.541
0
LINE
8
BLACK
6
CONTINUOUS
10
96.6623
20
-176.541
11
96.4719
21
-176.446
0
LINE
8
BLACK
6
CONTINUOUS
10
96.4719
20
-176.446
11
96.3766
21
-176.35
0
LINE
8
BLACK
6
CONTINUOUS
10
96.3766
20
-176.35
11
96.2814
21
-176.16
0
LINE
8
BLACK
6
CONTINUOUS
10
96.2814
20
-176.16
11
96.1862
21
-175.779
0
LINE
8
BLACK
6
CONTINUOUS
10
96.1862
20
-175.779
11
96.1862
21
-175.303
0
LINE
8
BLACK
6
CONTINUOUS
10
96.1862
20
-175.303
11
96.2814
21
-174.922
0
LINE
8
BLACK
6
CONTINUOUS
10
96.2814
20
-174.922
11
96.3766
21
-174.731
0
LINE
8
BLACK
6
CONTINUOUS
10
96.3766
20
-174.731
11
96.4719
21
-174.636
0
LINE
8
BLACK
6
CONTINUOUS
10
96.4719
20
-174.636
11
96.6623
21
-174.541
0
LINE
8
BLACK
6
CONTINUOUS
10
98.1862
20
-176.35
11
98.2814
21
-176.446
0
LINE
8
BLACK
6
CONTINUOUS
10
98.2814
20
-176.446
11
98.1862
21
-176.541
0
LINE
8
BLACK
6
CONTINUOUS
10
98.1862
20
-176.541
11
98.0909
21
-176.446
0
LINE
8
BLACK
6
CONTINUOUS
10
98.0909
20
-176.446
11
98.1862
21
-176.35
0
LINE
8
BLACK
6
CONTINUOUS
10
98.1862
20
-176.35
11
98.1862
21
-176.541
0
LINE
8
BLACK
6
CONTINUOUS
10
99.5195
20
-174.541
11
99.71
21
-174.541
0
LINE
8
BLACK
6
CONTINUOUS
10
99.71
20
-174.541
11
99.9004
21
-174.636
0
LINE
8
BLACK
6
CONTINUOUS
10
99.9004
20
-174.636
11
99.9957
21
-174.731
0
LINE
8
BLACK
6
CONTINUOUS
10
99.9957
20
-174.731
11
100.091
21
-174.922
0
LINE
8
BLACK
6
CONTINUOUS
10
100.091
20
-174.922
11
100.186
21
-175.303
0
LINE
8
BLACK
6
CONTINUOUS
10
100.186
20
-175.303
11
100.186
21
-175.779
0
LINE
8
BLACK
6
CONTINUOUS
10
100.186
20
-175.779
11
100.091
21
-176.16
0
LINE
8
BLACK
6
CONTINUOUS
10
100.091
20
-176.16
11
99.9957
21
-176.35
0
LINE
8
BLACK
6
CONTINUOUS
10
99.9957
20
-176.35
11
99.9004
21
-176.446
0
LINE
8
BLACK
6
CONTINUOUS
10
99.9004
20
-176.446
11
99.71
21
-176.541
0
LINE
8
BLACK
6
CONTINUOUS
10
99.71
20
-176.541
11
99.5195
21
-176.541
0
LINE
8
BLACK
6
CONTINUOUS
10
99.5195
20
-176.541
11
99.329
21
-176.446
0
LINE
8
BLACK
6
CONTINUOUS
10
99.329
20
-176.446
11
99.2338
21
-176.35
0
LINE
8
BLACK
6
CONTINUOUS
10
99.2338
20
-176.35
11
99.1385
21
-176.16
0
LINE
8
BLACK
6
CONTINUOUS
10
99.1385
20
-176.16
11
99.0433
21
-175.779
0
LINE
8
BLACK
6
CONTINUOUS
10
99.0433
20
-175.779
11
99.0433
21
-175.303
0
LINE
8
BLACK
6
CONTINUOUS
10
99.0433
20
-175.303
11
99.1385
21
-174.922
0
LINE
8
BLACK
6
CONTINUOUS
10
99.1385
20
-174.922
11
99.2338
21
-174.731
0
LINE
8
BLACK
6
CONTINUOUS
10
99.2338
20
-174.731
11
99.329
21
-174.636
0
LINE
8
BLACK
6
CONTINUOUS
10
99.329
20
-174.636
11
99.5195
21
-174.541
0
LINE
8
BLACK
6
CONTINUOUS
10
100.853
20
-174.541
11
102.186
21
-174.541
0
LINE
8
BLACK
6
CONTINUOUS
10
102.186
20
-174.541
11
101.329
21
-176.541
0
LINE
8
BLACK
6
CONTINUOUS
10
103.329
20
-174.541
11
103.519
21
-174.541
0
LINE
8
BLACK
6
CONTINUOUS
10
103.519
20
-174.541
11
103.71
21
-174.636
0
LINE
8
BLACK
6
CONTINUOUS
10
103.71
20
-174.636
11
103.805
21
-174.731
0
LINE
8
BLACK
6
CONTINUOUS
10
103.805
20
-174.731
11
103.9
21
-174.922
0
LINE
8
BLACK
6
CONTINUOUS
10
103.9
20
-174.922
11
103.996
21
-175.303
0
LINE
8
BLACK
6
CONTINUOUS
10
103.996
20
-175.303
11
103.996
21
-175.779
0
LINE
8
BLACK
6
CONTINUOUS
10
103.996
20
-175.779
11
103.9
21
-176.16
0
LINE
8
BLACK
6
CONTINUOUS
10
103.9
20
-176.16
11
103.805
21
-176.35
0
LINE
8
BLACK
6
CONTINUOUS
10
103.805
20
-176.35
11
103.71
21
-176.446
0
LINE
8
BLACK
6
CONTINUOUS
10
103.71
20
-176.446
11
103.519
21
-176.541
0
LINE
8
BLACK
6
CONTINUOUS
10
103.519
20
-176.541
11
103.329
21
-176.541
0
LINE
8
BLACK
6
CONTINUOUS
10
103.329
20
-176.541
11
103.139
21
-176.446
0
LINE
8
BLACK
6
CONTINUOUS
10
103.139
20
-176.446
11
103.043
21
-176.35
0
LINE
8
BLACK
6
CONTINUOUS
10
103.043
20
-176.35
11
102.948
21
-176.16
0
LINE
8
BLACK
6
CONTINUOUS
10
102.948
20
-176.16
11
102.853
21
-175.779
0
LINE
8
BLACK
6
CONTINUOUS
10
102.853
20
-175.779
11
102.853
21
-175.303
0
LINE
8
BLACK
6
CONTINUOUS
10
102.853
20
-175.303
11
102.948
21
-174.922
0
LINE
8
BLACK
6
CONTINUOUS
10
102.948
20
-174.922
11
103.043
21
-174.731
0
LINE
8
BLACK
6
CONTINUOUS
10
103.043
20
-174.731
11
103.139
21
-174.636
0
LINE
8
BLACK
6
CONTINUOUS
10
103.139
20
-174.636
11
103.329
21
-174.541
0
LINE
8
BLACK
6
CONTINUOUS
10
104.948
20
-176.541
11
105.329
21
-176.541
0
LINE
8
BLACK
6
CONTINUOUS
10
105.329
20
-176.541
11
105.519
21
-176.446
0
LINE
8
BLACK
6
CONTINUOUS
10
105.519
20
-176.446
11
105.615
21
-176.35
0
LINE
8
BLACK
6
CONTINUOUS
10
105.615
20
-176.35
11
105.805
21
-176.065
0
LINE
8
BLACK
6
CONTINUOUS
10
105.805
20
-176.065
11
105.9
21
-175.684
0
LINE
8
BLACK
6
CONTINUOUS
10
105.9
20
-175.684
11
105.9
21
-174.922
0
LINE
8
BLACK
6
CONTINUOUS
10
105.9
20
-174.922
11
105.805
21
-174.731
0
LINE
8
BLACK
6
CONTINUOUS
10
105.805
20
-174.731
11
105.71
21
-174.636
0
LINE
8
BLACK
6
CONTINUOUS
10
105.71
20
-174.636
11
105.519
21
-174.541
0
LINE
8
BLACK
6
CONTINUOUS
10
105.519
20
-174.541
11
105.139
21
-174.541
0
LINE
8
BLACK
6
CONTINUOUS
10
105.139
20
-174.541
11
104.948
21
-174.636
0
LINE
8
BLACK
6
CONTINUOUS
10
104.948
20
-174.636
11
104.853
21
-174.731
0
LINE
8
BLACK
6
CONTINUOUS
10
104.853
20
-174.731
11
104.758
21
-174.922
0
LINE
8
BLACK
6
CONTINUOUS
10
104.758
20
-174.922
11
104.758
21
-175.398
0
LINE
8
BLACK
6
CONTINUOUS
10
104.758
20
-175.398
11
104.853
21
-175.588
0
LINE
8
BLACK
6
CONTINUOUS
10
104.853
20
-175.588
11
104.948
21
-175.684
0
LINE
8
BLACK
6
CONTINUOUS
10
104.948
20
-175.684
11
105.139
21
-175.779
0
LINE
8
BLACK
6
CONTINUOUS
10
105.139
20
-175.779
11
105.519
21
-175.779
0
LINE
8
BLACK
6
CONTINUOUS
10
105.519
20
-175.779
11
105.71
21
-175.684
0
LINE
8
BLACK
6
CONTINUOUS
10
105.71
20
-175.684
11
105.805
21
-175.588
0
LINE
8
BLACK
6
CONTINUOUS
10
105.805
20
-175.588
11
105.9
21
-175.398
0
LINE
8
BLACK
6
CONTINUOUS
10
106.662
20
-174.541
11
106.662
21
-174.922
0
LINE
8
BLACK
6
CONTINUOUS
10
107.424
20
-174.541
11
107.424
21
-174.922
0
LINE
8
BLACK
6
CONTINUOUS
10
110.377
20
-177.303
11
110.281
21
-177.208
0
LINE
8
BLACK
6
CONTINUOUS
10
110.281
20
-177.208
11
110.091
21
-176.922
0
LINE
8
BLACK
6
CONTINUOUS
10
110.091
20
-176.922
11
109.996
21
-176.731
0
LINE
8
BLACK
6
CONTINUOUS
10
109.996
20
-176.731
11
109.9
21
-176.446
0
LINE
8
BLACK
6
CONTINUOUS
10
109.9
20
-176.446
11
109.805
21
-175.969
0
LINE
8
BLACK
6
CONTINUOUS
10
109.805
20
-175.969
11
109.805
21
-175.588
0
LINE
8
BLACK
6
CONTINUOUS
10
109.805
20
-175.588
11
109.9
21
-175.112
0
LINE
8
BLACK
6
CONTINUOUS
10
109.9
20
-175.112
11
109.996
21
-174.827
0
LINE
8
BLACK
6
CONTINUOUS
10
109.996
20
-174.827
11
110.091
21
-174.636
0
LINE
8
BLACK
6
CONTINUOUS
10
110.091
20
-174.636
11
110.281
21
-174.35
0
LINE
8
BLACK
6
CONTINUOUS
10
110.281
20
-174.35
11
110.377
21
-174.255
0
LINE
8
BLACK
6
CONTINUOUS
10
111.043
20
-174.731
11
111.139
21
-174.636
0
LINE
8
BLACK
6
CONTINUOUS
10
111.139
20
-174.636
11
111.329
21
-174.541
0
LINE
8
BLACK
6
CONTINUOUS
10
111.329
20
-174.541
11
111.805
21
-174.541
0
LINE
8
BLACK
6
CONTINUOUS
10
111.805
20
-174.541
11
111.996
21
-174.636
0
LINE
8
BLACK
6
CONTINUOUS
10
111.996
20
-174.636
11
112.091
21
-174.731
0
LINE
8
BLACK
6
CONTINUOUS
10
112.091
20
-174.731
11
112.186
21
-174.922
0
LINE
8
BLACK
6
CONTINUOUS
10
112.186
20
-174.922
11
112.186
21
-175.112
0
LINE
8
BLACK
6
CONTINUOUS
10
112.186
20
-175.112
11
112.091
21
-175.398
0
LINE
8
BLACK
6
CONTINUOUS
10
112.091
20
-175.398
11
110.948
21
-176.541
0
LINE
8
BLACK
6
CONTINUOUS
10
110.948
20
-176.541
11
112.186
21
-176.541
0
LINE
8
BLACK
6
CONTINUOUS
10
114.567
20
-176.541
11
114.567
21
-174.541
0
LINE
8
BLACK
6
CONTINUOUS
10
115.424
20
-176.541
11
115.424
21
-175.493
0
LINE
8
BLACK
6
CONTINUOUS
10
115.424
20
-175.493
11
115.329
21
-175.303
0
LINE
8
BLACK
6
CONTINUOUS
10
115.329
20
-175.303
11
115.139
21
-175.208
0
LINE
8
BLACK
6
CONTINUOUS
10
115.139
20
-175.208
11
114.853
21
-175.208
0
LINE
8
BLACK
6
CONTINUOUS
10
114.853
20
-175.208
11
114.662
21
-175.303
0
LINE
8
BLACK
6
CONTINUOUS
10
114.662
20
-175.303
11
114.567
21
-175.398
0
LINE
8
BLACK
6
CONTINUOUS
10
116.662
20
-176.541
11
116.472
21
-176.446
0
LINE
8
BLACK
6
CONTINUOUS
10
116.472
20
-176.446
11
116.377
21
-176.35
0
LINE
8
BLACK
6
CONTINUOUS
10
116.377
20
-176.35
11
116.281
21
-176.16
0
LINE
8
BLACK
6
CONTINUOUS
10
116.281
20
-176.16
11
116.281
21
-175.588
0
LINE
8
BLACK
6
CONTINUOUS
10
116.281
20
-175.588
11
116.377
21
-175.398
0
LINE
8
BLACK
6
CONTINUOUS
10
116.377
20
-175.398
11
116.472
21
-175.303
0
LINE
8
BLACK
6
CONTINUOUS
10
116.472
20
-175.303
11
116.662
21
-175.208
0
LINE
8
BLACK
6
CONTINUOUS
10
116.662
20
-175.208
11
116.948
21
-175.208
0
LINE
8
BLACK
6
CONTINUOUS
10
116.948
20
-175.208
11
117.139
21
-175.303
0
LINE
8
BLACK
6
CONTINUOUS
10
117.139
20
-175.303
11
117.234
21
-175.398
0
LINE
8
BLACK
6
CONTINUOUS
10
117.234
20
-175.398
11
117.329
21
-175.588
0
LINE
8
BLACK
6
CONTINUOUS
10
117.329
20
-175.588
11
117.329
21
-176.16
0
LINE
8
BLACK
6
CONTINUOUS
10
117.329
20
-176.16
11
117.234
21
-176.35
0
LINE
8
BLACK
6
CONTINUOUS
10
117.234
20
-176.35
11
117.139
21
-176.446
0
LINE
8
BLACK
6
CONTINUOUS
10
117.139
20
-176.446
11
116.948
21
-176.541
0
LINE
8
BLACK
6
CONTINUOUS
10
116.948
20
-176.541
11
116.662
21
-176.541
0
LINE
8
BLACK
6
CONTINUOUS
10
118.472
20
-176.541
11
118.281
21
-176.446
0
LINE
8
BLACK
6
CONTINUOUS
10
118.281
20
-176.446
11
118.186
21
-176.255
0
LINE
8
BLACK
6
CONTINUOUS
10
118.186
20
-176.255
11
118.186
21
-174.541
0
LINE
8
BLACK
6
CONTINUOUS
10
119.996
20
-176.446
11
119.805
21
-176.541
0
LINE
8
BLACK
6
CONTINUOUS
10
119.805
20
-176.541
11
119.424
21
-176.541
0
LINE
8
BLACK
6
CONTINUOUS
10
119.424
20
-176.541
11
119.234
21
-176.446
0
LINE
8
BLACK
6
CONTINUOUS
10
119.234
20
-176.446
11
119.139
21
-176.255
0
LINE
8
BLACK
6
CONTINUOUS
10
119.139
20
-176.255
11
119.139
21
-175.493
0
LINE
8
BLACK
6
CONTINUOUS
10
119.139
20
-175.493
11
119.234
21
-175.303
0
LINE
8
BLACK
6
CONTINUOUS
10
119.234
20
-175.303
11
119.424
21
-175.208
0
LINE
8
BLACK
6
CONTINUOUS
10
119.424
20
-175.208
11
119.805
21
-175.208
0
LINE
8
BLACK
6
CONTINUOUS
10
119.805
20
-175.208
11
119.996
21
-175.303
0
LINE
8
BLACK
6
CONTINUOUS
10
119.996
20
-175.303
11
120.091
21
-175.493
0
LINE
8
BLACK
6
CONTINUOUS
10
120.091
20
-175.493
11
120.091
21
-175.684
0
LINE
8
BLACK
6
CONTINUOUS
10
120.091
20
-175.684
11
119.139
21
-175.874
0
LINE
8
BLACK
6
CONTINUOUS
10
120.853
20
-176.446
11
121.043
21
-176.541
0
LINE
8
BLACK
6
CONTINUOUS
10
121.043
20
-176.541
11
121.424
21
-176.541
0
LINE
8
BLACK
6
CONTINUOUS
10
121.424
20
-176.541
11
121.615
21
-176.446
0
LINE
8
BLACK
6
CONTINUOUS
10
121.615
20
-176.446
11
121.71
21
-176.255
0
LINE
8
BLACK
6
CONTINUOUS
10
121.71
20
-176.255
11
121.71
21
-176.16
0
LINE
8
BLACK
6
CONTINUOUS
10
121.71
20
-176.16
11
121.615
21
-175.969
0
LINE
8
BLACK
6
CONTINUOUS
10
121.615
20
-175.969
11
121.424
21
-175.874
0
LINE
8
BLACK
6
CONTINUOUS
10
121.424
20
-175.874
11
121.139
21
-175.874
0
LINE
8
BLACK
6
CONTINUOUS
10
121.139
20
-175.874
11
120.948
21
-175.779
0
LINE
8
BLACK
6
CONTINUOUS
10
120.948
20
-175.779
11
120.853
21
-175.588
0
LINE
8
BLACK
6
CONTINUOUS
10
120.853
20
-175.588
11
120.853
21
-175.493
0
LINE
8
BLACK
6
CONTINUOUS
10
120.853
20
-175.493
11
120.948
21
-175.303
0
LINE
8
BLACK
6
CONTINUOUS
10
120.948
20
-175.303
11
121.139
21
-175.208
0
LINE
8
BLACK
6
CONTINUOUS
10
121.139
20
-175.208
11
121.424
21
-175.208
0
LINE
8
BLACK
6
CONTINUOUS
10
121.424
20
-175.208
11
121.615
21
-175.303
0
LINE
8
BLACK
6
CONTINUOUS
10
122.377
20
-177.303
11
122.472
21
-177.208
0
LINE
8
BLACK
6
CONTINUOUS
10
122.472
20
-177.208
11
122.662
21
-176.922
0
LINE
8
BLACK
6
CONTINUOUS
10
122.662
20
-176.922
11
122.758
21
-176.731
0
LINE
8
BLACK
6
CONTINUOUS
10
122.758
20
-176.731
11
122.853
21
-176.446
0
LINE
8
BLACK
6
CONTINUOUS
10
122.853
20
-176.446
11
122.948
21
-175.969
0
LINE
8
BLACK
6
CONTINUOUS
10
122.948
20
-175.969
11
122.948
21
-175.588
0
LINE
8
BLACK
6
CONTINUOUS
10
122.948
20
-175.588
11
122.853
21
-175.112
0
LINE
8
BLACK
6
CONTINUOUS
10
122.853
20
-175.112
11
122.758
21
-174.827
0
LINE
8
BLACK
6
CONTINUOUS
10
122.758
20
-174.827
11
122.662
21
-174.636
0
LINE
8
BLACK
6
CONTINUOUS
10
122.662
20
-174.636
11
122.472
21
-174.35
0
LINE
8
BLACK
6
CONTINUOUS
10
122.472
20
-174.35
11
122.377
21
-174.255
0
LINE
8
BLACK
6
CONTINUOUS
10
125.996
20
-177.303
11
125.9
21
-177.208
0
LINE
8
BLACK
6
CONTINUOUS
10
125.9
20
-177.208
11
125.71
21
-176.922
0
LINE
8
BLACK
6
CONTINUOUS
10
125.71
20
-176.922
11
125.615
21
-176.731
0
LINE
8
BLACK
6
CONTINUOUS
10
125.615
20
-176.731
11
125.519
21
-176.446
0
LINE
8
BLACK
6
CONTINUOUS
10
125.519
20
-176.446
11
125.424
21
-175.969
0
LINE
8
BLACK
6
CONTINUOUS
10
125.424
20
-175.969
11
125.424
21
-175.588
0
LINE
8
BLACK
6
CONTINUOUS
10
125.424
20
-175.588
11
125.519
21
-175.112
0
LINE
8
BLACK
6
CONTINUOUS
10
125.519
20
-175.112
11
125.615
21
-174.827
0
LINE
8
BLACK
6
CONTINUOUS
10
125.615
20
-174.827
11
125.71
21
-174.636
0
LINE
8
BLACK
6
CONTINUOUS
10
125.71
20
-174.636
11
125.9
21
-174.35
0
LINE
8
BLACK
6
CONTINUOUS
10
125.9
20
-174.35
11
125.996
21
-174.255
0
LINE
8
BLACK
6
CONTINUOUS
10
126.758
20
-175.208
11
126.758
21
-176.541
0
LINE
8
BLACK
6
CONTINUOUS
10
126.758
20
-175.398
11
126.853
21
-175.303
0
LINE
8
BLACK
6
CONTINUOUS
10
126.853
20
-175.303
11
127.043
21
-175.208
0
LINE
8
BLACK
6
CONTINUOUS
10
127.043
20
-175.208
11
127.329
21
-175.208
0
LINE
8
BLACK
6
CONTINUOUS
10
127.329
20
-175.208
11
127.519
21
-175.303
0
LINE
8
BLACK
6
CONTINUOUS
10
127.519
20
-175.303
11
127.615
21
-175.493
0
LINE
8
BLACK
6
CONTINUOUS
10
127.615
20
-175.493
11
127.615
21
-176.541
0
LINE
8
BLACK
6
CONTINUOUS
10
128.853
20
-176.541
11
128.662
21
-176.446
0
LINE
8
BLACK
6
CONTINUOUS
10
128.662
20
-176.446
11
128.567
21
-176.35
0
LINE
8
BLACK
6
CONTINUOUS
10
128.567
20
-176.35
11
128.472
21
-176.16
0
LINE
8
BLACK
6
CONTINUOUS
10
128.472
20
-176.16
11
128.472
21
-175.588
0
LINE
8
BLACK
6
CONTINUOUS
10
128.472
20
-175.588
11
128.567
21
-175.398
0
LINE
8
BLACK
6
CONTINUOUS
10
128.567
20
-175.398
11
128.662
21
-175.303
0
LINE
8
BLACK
6
CONTINUOUS
10
128.662
20
-175.303
11
128.853
21
-175.208
0
LINE
8
BLACK
6
CONTINUOUS
10
128.853
20
-175.208
11
129.139
21
-175.208
0
LINE
8
BLACK
6
CONTINUOUS
10
129.139
20
-175.208
11
129.329
21
-175.303
0
LINE
8
BLACK
6
CONTINUOUS
10
129.329
20
-175.303
11
129.424
21
-175.398
0
LINE
8
BLACK
6
CONTINUOUS
10
129.424
20
-175.398
11
129.519
21
-175.588
0
LINE
8
BLACK
6
CONTINUOUS
10
129.519
20
-175.588
11
129.519
21
-176.16
0
LINE
8
BLACK
6
CONTINUOUS
10
129.519
20
-176.16
11
129.424
21
-176.35
0
LINE
8
BLACK
6
CONTINUOUS
10
129.424
20
-176.35
11
129.329
21
-176.446
0
LINE
8
BLACK
6
CONTINUOUS
10
129.329
20
-176.446
11
129.139
21
-176.541
0
LINE
8
BLACK
6
CONTINUOUS
10
129.139
20
-176.541
11
128.853
21
-176.541
0
LINE
8
BLACK
6
CONTINUOUS
10
130.091
20
-175.208
11
130.853
21
-175.208
0
LINE
8
BLACK
6
CONTINUOUS
10
130.377
20
-174.541
11
130.377
21
-176.255
0
LINE
8
BLACK
6
CONTINUOUS
10
130.377
20
-176.255
11
130.472
21
-176.446
0
LINE
8
BLACK
6
CONTINUOUS
10
130.472
20
-176.446
11
130.662
21
-176.541
0
LINE
8
BLACK
6
CONTINUOUS
10
130.662
20
-176.541
11
130.853
21
-176.541
0
LINE
8
BLACK
6
CONTINUOUS
10
133.043
20
-175.208
11
133.043
21
-177.208
0
LINE
8
BLACK
6
CONTINUOUS
10
133.043
20
-175.303
11
133.234
21
-175.208
0
LINE
8
BLACK
6
CONTINUOUS
10
133.234
20
-175.208
11
133.615
21
-175.208
0
LINE
8
BLACK
6
CONTINUOUS
10
133.615
20
-175.208
11
133.805
21
-175.303
0
LINE
8
BLACK
6
CONTINUOUS
10
133.805
20
-175.303
11
133.9
21
-175.398
0
LINE
8
BLACK
6
CONTINUOUS
10
133.9
20
-175.398
11
133.996
21
-175.588
0
LINE
8
BLACK
6
CONTINUOUS
10
133.996
20
-175.588
11
133.996
21
-176.16
0
LINE
8
BLACK
6
CONTINUOUS
10
133.996
20
-176.16
11
133.9
21
-176.35
0
LINE
8
BLACK
6
CONTINUOUS
10
133.9
20
-176.35
11
133.805
21
-176.446
0
LINE
8
BLACK
6
CONTINUOUS
10
133.805
20
-176.446
11
133.615
21
-176.541
0
LINE
8
BLACK
6
CONTINUOUS
10
133.615
20
-176.541
11
133.234
21
-176.541
0
LINE
8
BLACK
6
CONTINUOUS
10
133.234
20
-176.541
11
133.043
21
-176.446
0
LINE
8
BLACK
6
CONTINUOUS
10
135.139
20
-176.541
11
134.948
21
-176.446
0
LINE
8
BLACK
6
CONTINUOUS
10
134.948
20
-176.446
11
134.853
21
-176.255
0
LINE
8
BLACK
6
CONTINUOUS
10
134.853
20
-176.255
11
134.853
21
-174.541
0
LINE
8
BLACK
6
CONTINUOUS
10
136.758
20
-176.541
11
136.758
21
-175.493
0
LINE
8
BLACK
6
CONTINUOUS
10
136.758
20
-175.493
11
136.662
21
-175.303
0
LINE
8
BLACK
6
CONTINUOUS
10
136.662
20
-175.303
11
136.472
21
-175.208
0
LINE
8
BLACK
6
CONTINUOUS
10
136.472
20
-175.208
11
136.091
21
-175.208
0
LINE
8
BLACK
6
CONTINUOUS
10
136.091
20
-175.208
11
135.9
21
-175.303
0
LINE
8
BLACK
6
CONTINUOUS
10
136.758
20
-176.446
11
136.567
21
-176.541
0
LINE
8
BLACK
6
CONTINUOUS
10
136.567
20
-176.541
11
136.091
21
-176.541
0
LINE
8
BLACK
6
CONTINUOUS
10
136.091
20
-176.541
11
135.9
21
-176.446
0
LINE
8
BLACK
6
CONTINUOUS
10
135.9
20
-176.446
11
135.805
21
-176.255
0
LINE
8
BLACK
6
CONTINUOUS
10
135.805
20
-176.255
11
135.805
21
-176.065
0
LINE
8
BLACK
6
CONTINUOUS
10
135.805
20
-176.065
11
135.9
21
-175.874
0
LINE
8
BLACK
6
CONTINUOUS
10
135.9
20
-175.874
11
136.091
21
-175.779
0
LINE
8
BLACK
6
CONTINUOUS
10
136.091
20
-175.779
11
136.567
21
-175.779
0
LINE
8
BLACK
6
CONTINUOUS
10
136.567
20
-175.779
11
136.758
21
-175.684
0
LINE
8
BLACK
6
CONTINUOUS
10
137.424
20
-175.208
11
138.186
21
-175.208
0
LINE
8
BLACK
6
CONTINUOUS
10
137.71
20
-174.541
11
137.71
21
-176.255
0
LINE
8
BLACK
6
CONTINUOUS
10
137.71
20
-176.255
11
137.805
21
-176.446
0
LINE
8
BLACK
6
CONTINUOUS
10
137.805
20
-176.446
11
137.996
21
-176.541
0
LINE
8
BLACK
6
CONTINUOUS
10
137.996
20
-176.541
11
138.186
21
-176.541
0
LINE
8
BLACK
6
CONTINUOUS
10
139.615
20
-176.446
11
139.424
21
-176.541
0
LINE
8
BLACK
6
CONTINUOUS
10
139.424
20
-176.541
11
139.043
21
-176.541
0
LINE
8
BLACK
6
CONTINUOUS
10
139.043
20
-176.541
11
138.853
21
-176.446
0
LINE
8
BLACK
6
CONTINUOUS
10
138.853
20
-176.446
11
138.758
21
-176.255
0
LINE
8
BLACK
6
CONTINUOUS
10
138.758
20
-176.255
11
138.758
21
-175.493
0
LINE
8
BLACK
6
CONTINUOUS
10
138.758
20
-175.493
11
138.853
21
-175.303
0
LINE
8
BLACK
6
CONTINUOUS
10
138.853
20
-175.303
11
139.043
21
-175.208
0
LINE
8
BLACK
6
CONTINUOUS
10
139.043
20
-175.208
11
139.424
21
-175.208
0
LINE
8
BLACK
6
CONTINUOUS
10
139.424
20
-175.208
11
139.615
21
-175.303
0
LINE
8
BLACK
6
CONTINUOUS
10
139.615
20
-175.303
11
139.71
21
-175.493
0
LINE
8
BLACK
6
CONTINUOUS
10
139.71
20
-175.493
11
139.71
21
-175.684
0
LINE
8
BLACK
6
CONTINUOUS
10
139.71
20
-175.684
11
138.758
21
-175.874
0
LINE
8
BLACK
6
CONTINUOUS
10
141.424
20
-176.541
11
141.424
21
-174.541
0
LINE
8
BLACK
6
CONTINUOUS
10
141.424
20
-176.446
11
141.234
21
-176.541
0
LINE
8
BLACK
6
CONTINUOUS
10
141.234
20
-176.541
11
140.853
21
-176.541
0
LINE
8
BLACK
6
CONTINUOUS
10
140.853
20
-176.541
11
140.662
21
-176.446
0
LINE
8
BLACK
6
CONTINUOUS
10
140.662
20
-176.446
11
140.567
21
-176.35
0
LINE
8
BLACK
6
CONTINUOUS
10
140.567
20
-176.35
11
140.472
21
-176.16
0
LINE
8
BLACK
6
CONTINUOUS
10
140.472
20
-176.16
11
140.472
21
-175.588
0
LINE
8
BLACK
6
CONTINUOUS
10
140.472
20
-175.588
11
140.567
21
-175.398
0
LINE
8
BLACK
6
CONTINUOUS
10
140.567
20
-175.398
11
140.662
21
-175.303
0
LINE
8
BLACK
6
CONTINUOUS
10
140.662
20
-175.303
11
140.853
21
-175.208
0
LINE
8
BLACK
6
CONTINUOUS
10
140.853
20
-175.208
11
141.234
21
-175.208
0
LINE
8
BLACK
6
CONTINUOUS
10
141.234
20
-175.208
11
141.424
21
-175.303
0
LINE
8
BLACK
6
CONTINUOUS
10
142.186
20
-177.303
11
142.281
21
-177.208
0
LINE
8
BLACK
6
CONTINUOUS
10
142.281
20
-177.208
11
142.472
21
-176.922
0
LINE
8
BLACK
6
CONTINUOUS
10
142.472
20
-176.922
11
142.567
21
-176.731
0
LINE
8
BLACK
6
CONTINUOUS
10
142.567
20
-176.731
11
142.662
21
-176.446
0
LINE
8
BLACK
6
CONTINUOUS
10
142.662
20
-176.446
11
142.758
21
-175.969
0
LINE
8
BLACK
6
CONTINUOUS
10
142.758
20
-175.969
11
142.758
21
-175.588
0
LINE
8
BLACK
6
CONTINUOUS
10
142.758
20
-175.588
11
142.662
21
-175.112
0
LINE
8
BLACK
6
CONTINUOUS
10
142.662
20
-175.112
11
142.567
21
-174.827
0
LINE
8
BLACK
6
CONTINUOUS
10
142.567
20
-174.827
11
142.472
21
-174.636
0
LINE
8
BLACK
6
CONTINUOUS
10
142.472
20
-174.636
11
142.281
21
-174.35
0
LINE
8
BLACK
6
CONTINUOUS
10
142.281
20
-174.35
11
142.186
21
-174.255
0
LINE
8
BLACK
6
CONTINUOUS
10
74.3478
20
-179.298
11
74.3478
21
-177.954
0
LINE
8
BLACK
6
CONTINUOUS
10
74.3478
20
-177.954
11
73.0042
21
-177.954
0
LINE
8
BLACK
6
CONTINUOUS
10
73.0042
20
-177.954
11
73.0042
21
-179.298
0
LINE
8
BLACK
6
CONTINUOUS
10
73.0042
20
-179.298
11
74.3478
21
-179.298
0
LINE
8
BLACK
6
CONTINUOUS
10
78.2814
20
-179.541
11
77.1385
21
-179.541
0
LINE
8
BLACK
6
CONTINUOUS
10
77.71
20
-179.541
11
77.71
21
-177.541
0
LINE
8
BLACK
6
CONTINUOUS
10
77.71
20
-177.541
11
77.5195
21
-177.827
0
LINE
8
BLACK
6
CONTINUOUS
10
77.5195
20
-177.827
11
77.329
21
-178.017
0
LINE
8
BLACK
6
CONTINUOUS
10
77.329
20
-178.017
11
77.1385
21
-178.112
0
LINE
8
BLACK
6
CONTINUOUS
10
79.1385
20
-179.35
11
79.2338
21
-179.446
0
LINE
8
BLACK
6
CONTINUOUS
10
79.2338
20
-179.446
11
79.1385
21
-179.541
0
LINE
8
BLACK
6
CONTINUOUS
10
79.1385
20
-179.541
11
79.0433
21
-179.446
0
LINE
8
BLACK
6
CONTINUOUS
10
79.0433
20
-179.446
11
79.1385
21
-179.35
0
LINE
8
BLACK
6
CONTINUOUS
10
79.1385
20
-179.35
11
79.1385
21
-179.541
0
LINE
8
BLACK
6
CONTINUOUS
10
80.1861
20
-179.541
11
80.5671
21
-179.541
0
LINE
8
BLACK
6
CONTINUOUS
10
80.5671
20
-179.541
11
80.7576
21
-179.446
0
LINE
8
BLACK
6
CONTINUOUS
10
80.7576
20
-179.446
11
80.8528
21
-179.35
0
LINE
8
BLACK
6
CONTINUOUS
10
80.8528
20
-179.35
11
81.0433
21
-179.065
0
LINE
8
BLACK
6
CONTINUOUS
10
81.0433
20
-179.065
11
81.1385
21
-178.684
0
LINE
8
BLACK
6
CONTINUOUS
10
81.1385
20
-178.684
11
81.1385
21
-177.922
0
LINE
8
BLACK
6
CONTINUOUS
10
81.1385
20
-177.922
11
81.0433
21
-177.731
0
LINE
8
BLACK
6
CONTINUOUS
10
81.0433
20
-177.731
11
80.9481
21
-177.636
0
LINE
8
BLACK
6
CONTINUOUS
10
80.9481
20
-177.636
11
80.7576
21
-177.541
0
LINE
8
BLACK
6
CONTINUOUS
10
80.7576
20
-177.541
11
80.3766
21
-177.541
0
LINE
8
BLACK
6
CONTINUOUS
10
80.3766
20
-177.541
11
80.1861
21
-177.636
0
LINE
8
BLACK
6
CONTINUOUS
10
80.1861
20
-177.636
11
80.0909
21
-177.731
0
LINE
8
BLACK
6
CONTINUOUS
10
80.0909
20
-177.731
11
79.9957
21
-177.922
0
LINE
8
BLACK
6
CONTINUOUS
10
79.9957
20
-177.922
11
79.9957
21
-178.398
0
LINE
8
BLACK
6
CONTINUOUS
10
79.9957
20
-178.398
11
80.0909
21
-178.588
0
LINE
8
BLACK
6
CONTINUOUS
10
80.0909
20
-178.588
11
80.1861
21
-178.684
0
LINE
8
BLACK
6
CONTINUOUS
10
80.1861
20
-178.684
11
80.3766
21
-178.779
0
LINE
8
BLACK
6
CONTINUOUS
10
80.3766
20
-178.779
11
80.7576
21
-178.779
0
LINE
8
BLACK
6
CONTINUOUS
10
80.7576
20
-178.779
11
80.9481
21
-178.684
0
LINE
8
BLACK
6
CONTINUOUS
10
80.9481
20
-178.684
11
81.0433
21
-178.588
0
LINE
8
BLACK
6
CONTINUOUS
10
81.0433
20
-178.588
11
81.1385
21
-178.398
0
LINE
8
BLACK
6
CONTINUOUS
10
82.3766
20
-177.541
11
82.5671
21
-177.541
0
LINE
8
BLACK
6
CONTINUOUS
10
82.5671
20
-177.541
11
82.7576
21
-177.636
0
LINE
8
BLACK
6
CONTINUOUS
10
82.7576
20
-177.636
11
82.8528
21
-177.731
0
LINE
8
BLACK
6
CONTINUOUS
10
82.8528
20
-177.731
11
82.9481
21
-177.922
0
LINE
8
BLACK
6
CONTINUOUS
10
82.9481
20
-177.922
11
83.0433
21
-178.303
0
LINE
8
BLACK
6
CONTINUOUS
10
83.0433
20
-178.303
11
83.0433
21
-178.779
0
LINE
8
BLACK
6
CONTINUOUS
10
83.0433
20
-178.779
11
82.9481
21
-179.16
0
LINE
8
BLACK
6
CONTINUOUS
10
82.9481
20
-179.16
11
82.8528
21
-179.35
0
LINE
8
BLACK
6
CONTINUOUS
10
82.8528
20
-179.35
11
82.7576
21
-179.446
0
LINE
8
BLACK
6
CONTINUOUS
10
82.7576
20
-179.446
11
82.5671
21
-179.541
0
LINE
8
BLACK
6
CONTINUOUS
10
82.5671
20
-179.541
11
82.3766
21
-179.541
0
LINE
8
BLACK
6
CONTINUOUS
10
82.3766
20
-179.541
11
82.1861
21
-179.446
0
LINE
8
BLACK
6
CONTINUOUS
10
82.1861
20
-179.446
11
82.0909
21
-179.35
0
LINE
8
BLACK
6
CONTINUOUS
10
82.0909
20
-179.35
11
81.9957
21
-179.16
0
LINE
8
BLACK
6
CONTINUOUS
10
81.9957
20
-179.16
11
81.9004
21
-178.779
0
LINE
8
BLACK
6
CONTINUOUS
10
81.9004
20
-178.779
11
81.9004
21
-178.303
0
LINE
8
BLACK
6
CONTINUOUS
10
81.9004
20
-178.303
11
81.9957
21
-177.922
0
LINE
8
BLACK
6
CONTINUOUS
10
81.9957
20
-177.922
11
82.0909
21
-177.731
0
LINE
8
BLACK
6
CONTINUOUS
10
82.0909
20
-177.731
11
82.1861
21
-177.636
0
LINE
8
BLACK
6
CONTINUOUS
10
82.1861
20
-177.636
11
82.3766
21
-177.541
0
LINE
8
BLACK
6
CONTINUOUS
10
84.2814
20
-177.541
11
84.4719
21
-177.541
0
LINE
8
BLACK
6
CONTINUOUS
10
84.4719
20
-177.541
11
84.6623
21
-177.636
0
LINE
8
BLACK
6
CONTINUOUS
10
84.6623
20
-177.636
11
84.7576
21
-177.731
0
LINE
8
BLACK
6
CONTINUOUS
10
84.7576
20
-177.731
11
84.8528
21
-177.922
0
LINE
8
BLACK
6
CONTINUOUS
10
84.8528
20
-177.922
11
84.9481
21
-178.303
0
LINE
8
BLACK
6
CONTINUOUS
10
84.9481
20
-178.303
11
84.9481
21
-178.779
0
LINE
8
BLACK
6
CONTINUOUS
10
84.9481
20
-178.779
11
84.8528
21
-179.16
0
LINE
8
BLACK
6
CONTINUOUS
10
84.8528
20
-179.16
11
84.7576
21
-179.35
0
LINE
8
BLACK
6
CONTINUOUS
10
84.7576
20
-179.35
11
84.6623
21
-179.446
0
LINE
8
BLACK
6
CONTINUOUS
10
84.6623
20
-179.446
11
84.4719
21
-179.541
0
LINE
8
BLACK
6
CONTINUOUS
10
84.4719
20
-179.541
11
84.2814
21
-179.541
0
LINE
8
BLACK
6
CONTINUOUS
10
84.2814
20
-179.541
11
84.0909
21
-179.446
0
LINE
8
BLACK
6
CONTINUOUS
10
84.0909
20
-179.446
11
83.9957
21
-179.35
0
LINE
8
BLACK
6
CONTINUOUS
10
83.9957
20
-179.35
11
83.9004
21
-179.16
0
LINE
8
BLACK
6
CONTINUOUS
10
83.9004
20
-179.16
11
83.8052
21
-178.779
0
LINE
8
BLACK
6
CONTINUOUS
10
83.8052
20
-178.779
11
83.8052
21
-178.303
0
LINE
8
BLACK
6
CONTINUOUS
10
83.8052
20
-178.303
11
83.9004
21
-177.922
0
LINE
8
BLACK
6
CONTINUOUS
10
83.9004
20
-177.922
11
83.9957
21
-177.731
0
LINE
8
BLACK
6
CONTINUOUS
10
83.9957
20
-177.731
11
84.0909
21
-177.636
0
LINE
8
BLACK
6
CONTINUOUS
10
84.0909
20
-177.636
11
84.2814
21
-177.541
0
LINE
8
BLACK
6
CONTINUOUS
10
85.8052
20
-179.541
11
85.8052
21
-178.208
0
LINE
8
BLACK
6
CONTINUOUS
10
85.8052
20
-178.398
11
85.9004
21
-178.303
0
LINE
8
BLACK
6
CONTINUOUS
10
85.9004
20
-178.303
11
86.0909
21
-178.208
0
LINE
8
BLACK
6
CONTINUOUS
10
86.0909
20
-178.208
11
86.3766
21
-178.208
0
LINE
8
BLACK
6
CONTINUOUS
10
86.3766
20
-178.208
11
86.5671
21
-178.303
0
LINE
8
BLACK
6
CONTINUOUS
10
86.5671
20
-178.303
11
86.6623
21
-178.493
0
LINE
8
BLACK
6
CONTINUOUS
10
86.6623
20
-178.493
11
86.6623
21
-179.541
0
LINE
8
BLACK
6
CONTINUOUS
10
86.6623
20
-178.493
11
86.7576
21
-178.303
0
LINE
8
BLACK
6
CONTINUOUS
10
86.7576
20
-178.303
11
86.9481
21
-178.208
0
LINE
8
BLACK
6
CONTINUOUS
10
86.9481
20
-178.208
11
87.2338
21
-178.208
0
LINE
8
BLACK
6
CONTINUOUS
10
87.2338
20
-178.208
11
87.4242
21
-178.303
0
LINE
8
BLACK
6
CONTINUOUS
10
87.4242
20
-178.303
11
87.5195
21
-178.493
0
LINE
8
BLACK
6
CONTINUOUS
10
87.5195
20
-178.493
11
87.5195
21
-179.541
0
LINE
8
BLACK
6
CONTINUOUS
10
88.4719
20
-179.541
11
88.4719
21
-178.208
0
LINE
8
BLACK
6
CONTINUOUS
10
88.4719
20
-178.398
11
88.5671
21
-178.303
0
LINE
8
BLACK
6
CONTINUOUS
10
88.5671
20
-178.303
11
88.7576
21
-178.208
0
LINE
8
BLACK
6
CONTINUOUS
10
88.7576
20
-178.208
11
89.0433
21
-178.208
0
LINE
8
BLACK
6
CONTINUOUS
10
89.0433
20
-178.208
11
89.2338
21
-178.303
0
LINE
8
BLACK
6
CONTINUOUS
10
89.2338
20
-178.303
11
89.329
21
-178.493
0
LINE
8
BLACK
6
CONTINUOUS
10
89.329
20
-178.493
11
89.329
21
-179.541
0
LINE
8
BLACK
6
CONTINUOUS
10
89.329
20
-178.493
11
89.4242
21
-178.303
0
LINE
8
BLACK
6
CONTINUOUS
10
89.4242
20
-178.303
11
89.6147
21
-178.208
0
LINE
8
BLACK
6
CONTINUOUS
10
89.6147
20
-178.208
11
89.9004
21
-178.208
0
LINE
8
BLACK
6
CONTINUOUS
10
89.9004
20
-178.208
11
90.0909
21
-178.303
0
LINE
8
BLACK
6
CONTINUOUS
10
90.0909
20
-178.303
11
90.1861
21
-178.493
0
LINE
8
BLACK
6
CONTINUOUS
10
90.1861
20
-178.493
11
90.1861
21
-179.541
0
LINE
8
BLACK
6
CONTINUOUS
10
94.0909
20
-177.446
11
92.3766
21
-180.017
0
LINE
8
BLACK
6
CONTINUOUS
10
96.6623
20
-177.541
11
96.8528
21
-177.541
0
LINE
8
BLACK
6
CONTINUOUS
10
96.8528
20
-177.541
11
97.0433
21
-177.636
0
LINE
8
BLACK
6
CONTINUOUS
10
97.0433
20
-177.636
11
97.1385
21
-177.731
0
LINE
8
BLACK
6
CONTINUOUS
10
97.1385
20
-177.731
11
97.2338
21
-177.922
0
LINE
8
BLACK
6
CONTINUOUS
10
97.2338
20
-177.922
11
97.329
21
-178.303
0
LINE
8
BLACK
6
CONTINUOUS
10
97.329
20
-178.303
11
97.329
21
-178.779
0
LINE
8
BLACK
6
CONTINUOUS
10
97.329
20
-178.779
11
97.2338
21
-179.16
0
LINE
8
BLACK
6
CONTINUOUS
10
97.2338
20
-179.16
11
97.1385
21
-179.35
0
LINE
8
BLACK
6
CONTINUOUS
10
97.1385
20
-179.35
11
97.0433
21
-179.446
0
LINE
8
BLACK
6
CONTINUOUS
10
97.0433
20
-179.446
11
96.8528
21
-179.541
0
LINE
8
BLACK
6
CONTINUOUS
10
96.8528
20
-179.541
11
96.6623
21
-179.541
0
LINE
8
BLACK
6
CONTINUOUS
10
96.6623
20
-179.541
11
96.4719
21
-179.446
0
LINE
8
BLACK
6
CONTINUOUS
10
96.4719
20
-179.446
11
96.3766
21
-179.35
0
LINE
8
BLACK
6
CONTINUOUS
10
96.3766
20
-179.35
11
96.2814
21
-179.16
0
LINE
8
BLACK
6
CONTINUOUS
10
96.2814
20
-179.16
11
96.1862
21
-178.779
0
LINE
8
BLACK
6
CONTINUOUS
10
96.1862
20
-178.779
11
96.1862
21
-178.303
0
LINE
8
BLACK
6
CONTINUOUS
10
96.1862
20
-178.303
11
96.2814
21
-177.922
0
LINE
8
BLACK
6
CONTINUOUS
10
96.2814
20
-177.922
11
96.3766
21
-177.731
0
LINE
8
BLACK
6
CONTINUOUS
10
96.3766
20
-177.731
11
96.4719
21
-177.636
0
LINE
8
BLACK
6
CONTINUOUS
10
96.4719
20
-177.636
11
96.6623
21
-177.541
0
LINE
8
BLACK
6
CONTINUOUS
10
98.1862
20
-179.35
11
98.2814
21
-179.446
0
LINE
8
BLACK
6
CONTINUOUS
10
98.2814
20
-179.446
11
98.1862
21
-179.541
0
LINE
8
BLACK
6
CONTINUOUS
10
98.1862
20
-179.541
11
98.0909
21
-179.446
0
LINE
8
BLACK
6
CONTINUOUS
10
98.0909
20
-179.446
11
98.1862
21
-179.35
0
LINE
8
BLACK
6
CONTINUOUS
10
98.1862
20
-179.35
11
98.1862
21
-179.541
0
LINE
8
BLACK
6
CONTINUOUS
10
99.5195
20
-177.541
11
99.71
21
-177.541
0
LINE
8
BLACK
6
CONTINUOUS
10
99.71
20
-177.541
11
99.9004
21
-177.636
0
LINE
8
BLACK
6
CONTINUOUS
10
99.9004
20
-177.636
11
99.9957
21
-177.731
0
LINE
8
BLACK
6
CONTINUOUS
10
99.9957
20
-177.731
11
100.091
21
-177.922
0
LINE
8
BLACK
6
CONTINUOUS
10
100.091
20
-177.922
11
100.186
21
-178.303
0
LINE
8
BLACK
6
CONTINUOUS
10
100.186
20
-178.303
11
100.186
21
-178.779
0
LINE
8
BLACK
6
CONTINUOUS
10
100.186
20
-178.779
11
100.091
21
-179.16
0
LINE
8
BLACK
6
CONTINUOUS
10
100.091
20
-179.16
11
99.9957
21
-179.35
0
LINE
8
BLACK
6
CONTINUOUS
10
99.9957
20
-179.35
11
99.9004
21
-179.446
0
LINE
8
BLACK
6
CONTINUOUS
10
99.9004
20
-179.446
11
99.71
21
-179.541
0
LINE
8
BLACK
6
CONTINUOUS
10
99.71
20
-179.541
11
99.5195
21
-179.541
0
LINE
8
BLACK
6
CONTINUOUS
10
99.5195
20
-179.541
11
99.329
21
-179.446
0
LINE
8
BLACK
6
CONTINUOUS
10
99.329
20
-179.446
11
99.2338
21
-179.35
0
LINE
8
BLACK
6
CONTINUOUS
10
99.2338
20
-179.35
11
99.1385
21
-179.16
0
LINE
8
BLACK
6
CONTINUOUS
10
99.1385
20
-179.16
11
99.0433
21
-178.779
0
LINE
8
BLACK
6
CONTINUOUS
10
99.0433
20
-178.779
11
99.0433
21
-178.303
0
LINE
8
BLACK
6
CONTINUOUS
10
99.0433
20
-178.303
11
99.1385
21
-177.922
0
LINE
8
BLACK
6
CONTINUOUS
10
99.1385
20
-177.922
11
99.2338
21
-177.731
0
LINE
8
BLACK
6
CONTINUOUS
10
99.2338
20
-177.731
11
99.329
21
-177.636
0
LINE
8
BLACK
6
CONTINUOUS
10
99.329
20
-177.636
11
99.5195
21
-177.541
0
LINE
8
BLACK
6
CONTINUOUS
10
100.853
20
-177.541
11
102.186
21
-177.541
0
LINE
8
BLACK
6
CONTINUOUS
10
102.186
20
-177.541
11
101.329
21
-179.541
0
LINE
8
BLACK
6
CONTINUOUS
10
103.805
20
-178.208
11
103.805
21
-179.541
0
LINE
8
BLACK
6
CONTINUOUS
10
103.329
20
-177.446
11
102.853
21
-178.874
0
LINE
8
BLACK
6
CONTINUOUS
10
102.853
20
-178.874
11
104.091
21
-178.874
0
LINE
8
BLACK
6
CONTINUOUS
10
105.139
20
-178.398
11
104.948
21
-178.303
0
LINE
8
BLACK
6
CONTINUOUS
10
104.948
20
-178.303
11
104.853
21
-178.208
0
LINE
8
BLACK
6
CONTINUOUS
10
104.853
20
-178.208
11
104.758
21
-178.017
0
LINE
8
BLACK
6
CONTINUOUS
10
104.758
20
-178.017
11
104.758
21
-177.922
0
LINE
8
BLACK
6
CONTINUOUS
10
104.758
20
-177.922
11
104.853
21
-177.731
0
LINE
8
BLACK
6
CONTINUOUS
10
104.853
20
-177.731
11
104.948
21
-177.636
0
LINE
8
BLACK
6
CONTINUOUS
10
104.948
20
-177.636
11
105.139
21
-177.541
0
LINE
8
BLACK
6
CONTINUOUS
10
105.139
20
-177.541
11
105.519
21
-177.541
0
LINE
8
BLACK
6
CONTINUOUS
10
105.519
20
-177.541
11
105.71
21
-177.636
0
LINE
8
BLACK
6
CONTINUOUS
10
105.71
20
-177.636
11
105.805
21
-177.731
0
LINE
8
BLACK
6
CONTINUOUS
10
105.805
20
-177.731
11
105.9
21
-177.922
0
LINE
8
BLACK
6
CONTINUOUS
10
105.9
20
-177.922
11
105.9
21
-178.017
0
LINE
8
BLACK
6
CONTINUOUS
10
105.9
20
-178.017
11
105.805
21
-178.208
0
LINE
8
BLACK
6
CONTINUOUS
10
105.805
20
-178.208
11
105.71
21
-178.303
0
LINE
8
BLACK
6
CONTINUOUS
10
105.71
20
-178.303
11
105.519
21
-178.398
0
LINE
8
BLACK
6
CONTINUOUS
10
105.519
20
-178.398
11
105.139
21
-178.398
0
LINE
8
BLACK
6
CONTINUOUS
10
105.139
20
-178.398
11
104.948
21
-178.493
0
LINE
8
BLACK
6
CONTINUOUS
10
104.948
20
-178.493
11
104.853
21
-178.588
0
LINE
8
BLACK
6
CONTINUOUS
10
104.853
20
-178.588
11
104.758
21
-178.779
0
LINE
8
BLACK
6
CONTINUOUS
10
104.758
20
-178.779
11
104.758
21
-179.16
0
LINE
8
BLACK
6
CONTINUOUS
10
104.758
20
-179.16
11
104.853
21
-179.35
0
LINE
8
BLACK
6
CONTINUOUS
10
104.853
20
-179.35
11
104.948
21
-179.446
0
LINE
8
BLACK
6
CONTINUOUS
10
104.948
20
-179.446
11
105.139
21
-179.541
0
LINE
8
BLACK
6
CONTINUOUS
10
105.139
20
-179.541
11
105.519
21
-179.541
0
LINE
8
BLACK
6
CONTINUOUS
10
105.519
20
-179.541
11
105.71
21
-179.446
0
LINE
8
BLACK
6
CONTINUOUS
10
105.71
20
-179.446
11
105.805
21
-179.35
0
LINE
8
BLACK
6
CONTINUOUS
10
105.805
20
-179.35
11
105.9
21
-179.16
0
LINE
8
BLACK
6
CONTINUOUS
10
105.9
20
-179.16
11
105.9
21
-178.779
0
LINE
8
BLACK
6
CONTINUOUS
10
105.9
20
-178.779
11
105.805
21
-178.588
0
LINE
8
BLACK
6
CONTINUOUS
10
105.805
20
-178.588
11
105.71
21
-178.493
0
LINE
8
BLACK
6
CONTINUOUS
10
105.71
20
-178.493
11
105.519
21
-178.398
0
LINE
8
BLACK
6
CONTINUOUS
10
106.662
20
-177.541
11
106.662
21
-177.922
0
LINE
8
BLACK
6
CONTINUOUS
10
107.424
20
-177.541
11
107.424
21
-177.922
0
LINE
8
BLACK
6
CONTINUOUS
10
110.377
20
-180.303
11
110.281
21
-180.208
0
LINE
8
BLACK
6
CONTINUOUS
10
110.281
20
-180.208
11
110.091
21
-179.922
0
LINE
8
BLACK
6
CONTINUOUS
10
110.091
20
-179.922
11
109.996
21
-179.731
0
LINE
8
BLACK
6
CONTINUOUS
10
109.996
20
-179.731
11
109.9
21
-179.446
0
LINE
8
BLACK
6
CONTINUOUS
10
109.9
20
-179.446
11
109.805
21
-178.969
0
LINE
8
BLACK
6
CONTINUOUS
10
109.805
20
-178.969
11
109.805
21
-178.588
0
LINE
8
BLACK
6
CONTINUOUS
10
109.805
20
-178.588
11
109.9
21
-178.112
0
LINE
8
BLACK
6
CONTINUOUS
10
109.9
20
-178.112
11
109.996
21
-177.827
0
LINE
8
BLACK
6
CONTINUOUS
10
109.996
20
-177.827
11
110.091
21
-177.636
0
LINE
8
BLACK
6
CONTINUOUS
10
110.091
20
-177.636
11
110.281
21
-177.35
0
LINE
8
BLACK
6
CONTINUOUS
10
110.281
20
-177.35
11
110.377
21
-177.255
0
LINE
8
BLACK
6
CONTINUOUS
10
110.948
20
-177.541
11
112.186
21
-177.541
0
LINE
8
BLACK
6
CONTINUOUS
10
112.186
20
-177.541
11
111.519
21
-178.303
0
LINE
8
BLACK
6
CONTINUOUS
10
111.519
20
-178.303
11
111.805
21
-178.303
0
LINE
8
BLACK
6
CONTINUOUS
10
111.805
20
-178.303
11
111.996
21
-178.398
0
LINE
8
BLACK
6
CONTINUOUS
10
111.996
20
-178.398
11
112.091
21
-178.493
0
LINE
8
BLACK
6
CONTINUOUS
10
112.091
20
-178.493
11
112.186
21
-178.684
0
LINE
8
BLACK
6
CONTINUOUS
10
112.186
20
-178.684
11
112.186
21
-179.16
0
LINE
8
BLACK
6
CONTINUOUS
10
112.186
20
-179.16
11
112.091
21
-179.35
0
LINE
8
BLACK
6
CONTINUOUS
10
112.091
20
-179.35
11
111.996
21
-179.446
0
LINE
8
BLACK
6
CONTINUOUS
10
111.996
20
-179.446
11
111.805
21
-179.541
0
LINE
8
BLACK
6
CONTINUOUS
10
111.805
20
-179.541
11
111.234
21
-179.541
0
LINE
8
BLACK
6
CONTINUOUS
10
111.234
20
-179.541
11
111.043
21
-179.446
0
LINE
8
BLACK
6
CONTINUOUS
10
111.043
20
-179.446
11
110.948
21
-179.35
0
LINE
8
BLACK
6
CONTINUOUS
10
113.9
20
-178.208
11
113.9
21
-179.541
0
LINE
8
BLACK
6
CONTINUOUS
10
113.424
20
-177.446
11
112.948
21
-178.874
0
LINE
8
BLACK
6
CONTINUOUS
10
112.948
20
-178.874
11
114.186
21
-178.874
0
LINE
8
BLACK
6
CONTINUOUS
10
116.472
20
-179.541
11
116.472
21
-177.541
0
LINE
8
BLACK
6
CONTINUOUS
10
117.329
20
-179.541
11
117.329
21
-178.493
0
LINE
8
BLACK
6
CONTINUOUS
10
117.329
20
-178.493
11
117.234
21
-178.303
0
LINE
8
BLACK
6
CONTINUOUS
10
117.234
20
-178.303
11
117.043
21
-178.208
0
LINE
8
BLACK
6
CONTINUOUS
10
117.043
20
-178.208
11
116.758
21
-178.208
0
LINE
8
BLACK
6
CONTINUOUS
10
116.758
20
-178.208
11
116.567
21
-178.303
0
LINE
8
BLACK
6
CONTINUOUS
10
116.567
20
-178.303
11
116.472
21
-178.398
0
LINE
8
BLACK
6
CONTINUOUS
10
118.567
20
-179.541
11
118.377
21
-179.446
0
LINE
8
BLACK
6
CONTINUOUS
10
118.377
20
-179.446
11
118.281
21
-179.35
0
LINE
8
BLACK
6
CONTINUOUS
10
118.281
20
-179.35
11
118.186
21
-179.16
0
LINE
8
BLACK
6
CONTINUOUS
10
118.186
20
-179.16
11
118.186
21
-178.588
0
LINE
8
BLACK
6
CONTINUOUS
10
118.186
20
-178.588
11
118.281
21
-178.398
0
LINE
8
BLACK
6
CONTINUOUS
10
118.281
20
-178.398
11
118.377
21
-178.303
0
LINE
8
BLACK
6
CONTINUOUS
10
118.377
20
-178.303
11
118.567
21
-178.208
0
LINE
8
BLACK
6
CONTINUOUS
10
118.567
20
-178.208
11
118.853
21
-178.208
0
LINE
8
BLACK
6
CONTINUOUS
10
118.853
20
-178.208
11
119.043
21
-178.303
0
LINE
8
BLACK
6
CONTINUOUS
10
119.043
20
-178.303
11
119.139
21
-178.398
0
LINE
8
BLACK
6
CONTINUOUS
10
119.139
20
-178.398
11
119.234
21
-178.588
0
LINE
8
BLACK
6
CONTINUOUS
10
119.234
20
-178.588
11
119.234
21
-179.16
0
LINE
8
BLACK
6
CONTINUOUS
10
119.234
20
-179.16
11
119.139
21
-179.35
0
LINE
8
BLACK
6
CONTINUOUS
10
119.139
20
-179.35
11
119.043
21
-179.446
0
LINE
8
BLACK
6
CONTINUOUS
10
119.043
20
-179.446
11
118.853
21
-179.541
0
LINE
8
BLACK
6
CONTINUOUS
10
118.853
20
-179.541
11
118.567
21
-179.541
0
LINE
8
BLACK
6
CONTINUOUS
10
120.377
20
-179.541
11
120.186
21
-179.446
0
LINE
8
BLACK
6
CONTINUOUS
10
120.186
20
-179.446
11
120.091
21
-179.255
0
LINE
8
BLACK
6
CONTINUOUS
10
120.091
20
-179.255
11
120.091
21
-177.541
0
LINE
8
BLACK
6
CONTINUOUS
10
121.9
20
-179.446
11
121.71
21
-179.541
0
LINE
8
BLACK
6
CONTINUOUS
10
121.71
20
-179.541
11
121.329
21
-179.541
0
LINE
8
BLACK
6
CONTINUOUS
10
121.329
20
-179.541
11
121.139
21
-179.446
0
LINE
8
BLACK
6
CONTINUOUS
10
121.139
20
-179.446
11
121.043
21
-179.255
0
LINE
8
BLACK
6
CONTINUOUS
10
121.043
20
-179.255
11
121.043
21
-178.493
0
LINE
8
BLACK
6
CONTINUOUS
10
121.043
20
-178.493
11
121.139
21
-178.303
0
LINE
8
BLACK
6
CONTINUOUS
10
121.139
20
-178.303
11
121.329
21
-178.208
0
LINE
8
BLACK
6
CONTINUOUS
10
121.329
20
-178.208
11
121.71
21
-178.208
0
LINE
8
BLACK
6
CONTINUOUS
10
121.71
20
-178.208
11
121.9
21
-178.303
0
LINE
8
BLACK
6
CONTINUOUS
10
121.9
20
-178.303
11
121.996
21
-178.493
0
LINE
8
BLACK
6
CONTINUOUS
10
121.996
20
-178.493
11
121.996
21
-178.684
0
LINE
8
BLACK
6
CONTINUOUS
10
121.996
20
-178.684
11
121.043
21
-178.874
0
LINE
8
BLACK
6
CONTINUOUS
10
122.758
20
-179.446
11
122.948
21
-179.541
0
LINE
8
BLACK
6
CONTINUOUS
10
122.948
20
-179.541
11
123.329
21
-179.541
0
LINE
8
BLACK
6
CONTINUOUS
10
123.329
20
-179.541
11
123.519
21
-179.446
0
LINE
8
BLACK
6
CONTINUOUS
10
123.519
20
-179.446
11
123.615
21
-179.255
0
LINE
8
BLACK
6
CONTINUOUS
10
123.615
20
-179.255
11
123.615
21
-179.16
0
LINE
8
BLACK
6
CONTINUOUS
10
123.615
20
-179.16
11
123.519
21
-178.969
0
LINE
8
BLACK
6
CONTINUOUS
10
123.519
20
-178.969
11
123.329
21
-178.874
0
LINE
8
BLACK
6
CONTINUOUS
10
123.329
20
-178.874
11
123.043
21
-178.874
0
LINE
8
BLACK
6
CONTINUOUS
10
123.043
20
-178.874
11
122.853
21
-178.779
0
LINE
8
BLACK
6
CONTINUOUS
10
122.853
20
-178.779
11
122.758
21
-178.588
0
LINE
8
BLACK
6
CONTINUOUS
10
122.758
20
-178.588
11
122.758
21
-178.493
0
LINE
8
BLACK
6
CONTINUOUS
10
122.758
20
-178.493
11
122.853
21
-178.303
0
LINE
8
BLACK
6
CONTINUOUS
10
122.853
20
-178.303
11
123.043
21
-178.208
0
LINE
8
BLACK
6
CONTINUOUS
10
123.043
20
-178.208
11
123.329
21
-178.208
0
LINE
8
BLACK
6
CONTINUOUS
10
123.329
20
-178.208
11
123.519
21
-178.303
0
LINE
8
BLACK
6
CONTINUOUS
10
124.281
20
-180.303
11
124.377
21
-180.208
0
LINE
8
BLACK
6
CONTINUOUS
10
124.377
20
-180.208
11
124.567
21
-179.922
0
LINE
8
BLACK
6
CONTINUOUS
10
124.567
20
-179.922
11
124.662
21
-179.731
0
LINE
8
BLACK
6
CONTINUOUS
10
124.662
20
-179.731
11
124.758
21
-179.446
0
LINE
8
BLACK
6
CONTINUOUS
10
124.758
20
-179.446
11
124.853
21
-178.969
0
LINE
8
BLACK
6
CONTINUOUS
10
124.853
20
-178.969
11
124.853
21
-178.588
0
LINE
8
BLACK
6
CONTINUOUS
10
124.853
20
-178.588
11
124.758
21
-178.112
0
LINE
8
BLACK
6
CONTINUOUS
10
124.758
20
-178.112
11
124.662
21
-177.827
0
LINE
8
BLACK
6
CONTINUOUS
10
124.662
20
-177.827
11
124.567
21
-177.636
0
LINE
8
BLACK
6
CONTINUOUS
10
124.567
20
-177.636
11
124.377
21
-177.35
0
LINE
8
BLACK
6
CONTINUOUS
10
124.377
20
-177.35
11
124.281
21
-177.255
0
LINE
8
BLACK
6
CONTINUOUS
10
127.9
20
-180.303
11
127.805
21
-180.208
0
LINE
8
BLACK
6
CONTINUOUS
10
127.805
20
-180.208
11
127.615
21
-179.922
0
LINE
8
BLACK
6
CONTINUOUS
10
127.615
20
-179.922
11
127.519
21
-179.731
0
LINE
8
BLACK
6
CONTINUOUS
10
127.519
20
-179.731
11
127.424
21
-179.446
0
LINE
8
BLACK
6
CONTINUOUS
10
127.424
20
-179.446
11
127.329
21
-178.969
0
LINE
8
BLACK
6
CONTINUOUS
10
127.329
20
-178.969
11
127.329
21
-178.588
0
LINE
8
BLACK
6
CONTINUOUS
10
127.329
20
-178.588
11
127.424
21
-178.112
0
LINE
8
BLACK
6
CONTINUOUS
10
127.424
20
-178.112
11
127.519
21
-177.827
0
LINE
8
BLACK
6
CONTINUOUS
10
127.519
20
-177.827
11
127.615
21
-177.636
0
LINE
8
BLACK
6
CONTINUOUS
10
127.615
20
-177.636
11
127.805
21
-177.35
0
LINE
8
BLACK
6
CONTINUOUS
10
127.805
20
-177.35
11
127.9
21
-177.255
0
LINE
8
BLACK
6
CONTINUOUS
10
128.662
20
-178.208
11
128.662
21
-179.541
0
LINE
8
BLACK
6
CONTINUOUS
10
128.662
20
-178.398
11
128.758
21
-178.303
0
LINE
8
BLACK
6
CONTINUOUS
10
128.758
20
-178.303
11
128.948
21
-178.208
0
LINE
8
BLACK
6
CONTINUOUS
10
128.948
20
-178.208
11
129.234
21
-178.208
0
LINE
8
BLACK
6
CONTINUOUS
10
129.234
20
-178.208
11
129.424
21
-178.303
0
LINE
8
BLACK
6
CONTINUOUS
10
129.424
20
-178.303
11
129.519
21
-178.493
0
LINE
8
BLACK
6
CONTINUOUS
10
129.519
20
-178.493
11
129.519
21
-179.541
0
LINE
8
BLACK
6
CONTINUOUS
10
130.758
20
-179.541
11
130.567
21
-179.446
0
LINE
8
BLACK
6
CONTINUOUS
10
130.567
20
-179.446
11
130.472
21
-179.35
0
LINE
8
BLACK
6
CONTINUOUS
10
130.472
20
-179.35
11
130.377
21
-179.16
0
LINE
8
BLACK
6
CONTINUOUS
10
130.377
20
-179.16
11
130.377
21
-178.588
0
LINE
8
BLACK
6
CONTINUOUS
10
130.377
20
-178.588
11
130.472
21
-178.398
0
LINE
8
BLACK
6
CONTINUOUS
10
130.472
20
-178.398
11
130.567
21
-178.303
0
LINE
8
BLACK
6
CONTINUOUS
10
130.567
20
-178.303
11
130.758
21
-178.208
0
LINE
8
BLACK
6
CONTINUOUS
10
130.758
20
-178.208
11
131.043
21
-178.208
0
LINE
8
BLACK
6
CONTINUOUS
10
131.043
20
-178.208
11
131.234
21
-178.303
0
LINE
8
BLACK
6
CONTINUOUS
10
131.234
20
-178.303
11
131.329
21
-178.398
0
LINE
8
BLACK
6
CONTINUOUS
10
131.329
20
-178.398
11
131.424
21
-178.588
0
LINE
8
BLACK
6
CONTINUOUS
10
131.424
20
-178.588
11
131.424
21
-179.16
0
LINE
8
BLACK
6
CONTINUOUS
10
131.424
20
-179.16
11
131.329
21
-179.35
0
LINE
8
BLACK
6
CONTINUOUS
10
131.329
20
-179.35
11
131.234
21
-179.446
0
LINE
8
BLACK
6
CONTINUOUS
10
131.234
20
-179.446
11
131.043
21
-179.541
0
LINE
8
BLACK
6
CONTINUOUS
10
131.043
20
-179.541
11
130.758
21
-179.541
0
LINE
8
BLACK
6
CONTINUOUS
10
131.996
20
-178.208
11
132.758
21
-178.208
0
LINE
8
BLACK
6
CONTINUOUS
10
132.281
20
-177.541
11
132.281
21
-179.255
0
LINE
8
BLACK
6
CONTINUOUS
10
132.281
20
-179.255
11
132.377
21
-179.446
0
LINE
8
BLACK
6
CONTINUOUS
10
132.377
20
-179.446
11
132.567
21
-179.541
0
LINE
8
BLACK
6
CONTINUOUS
10
132.567
20
-179.541
11
132.758
21
-179.541
0
LINE
8
BLACK
6
CONTINUOUS
10
134.948
20
-178.208
11
134.948
21
-180.208
0
LINE
8
BLACK
6
CONTINUOUS
10
134.948
20
-178.303
11
135.139
21
-178.208
0
LINE
8
BLACK
6
CONTINUOUS
10
135.139
20
-178.208
11
135.519
21
-178.208
0
LINE
8
BLACK
6
CONTINUOUS
10
135.519
20
-178.208
11
135.71
21
-178.303
0
LINE
8
BLACK
6
CONTINUOUS
10
135.71
20
-178.303
11
135.805
21
-178.398
0
LINE
8
BLACK
6
CONTINUOUS
10
135.805
20
-178.398
11
135.9
21
-178.588
0
LINE
8
BLACK
6
CONTINUOUS
10
135.9
20
-178.588
11
135.9
21
-179.16
0
LINE
8
BLACK
6
CONTINUOUS
10
135.9
20
-179.16
11
135.805
21
-179.35
0
LINE
8
BLACK
6
CONTINUOUS
10
135.805
20
-179.35
11
135.71
21
-179.446
0
LINE
8
BLACK
6
CONTINUOUS
10
135.71
20
-179.446
11
135.519
21
-179.541
0
LINE
8
BLACK
6
CONTINUOUS
10
135.519
20
-179.541
11
135.139
21
-179.541
0
LINE
8
BLACK
6
CONTINUOUS
10
135.139
20
-179.541
11
134.948
21
-179.446
0
LINE
8
BLACK
6
CONTINUOUS
10
137.043
20
-179.541
11
136.853
21
-179.446
0
LINE
8
BLACK
6
CONTINUOUS
10
136.853
20
-179.446
11
136.758
21
-179.255
0
LINE
8
BLACK
6
CONTINUOUS
10
136.758
20
-179.255
11
136.758
21
-177.541
0
LINE
8
BLACK
6
CONTINUOUS
10
138.662
20
-179.541
11
138.662
21
-178.493
0
LINE
8
BLACK
6
CONTINUOUS
10
138.662
20
-178.493
11
138.567
21
-178.303
0
LINE
8
BLACK
6
CONTINUOUS
10
138.567
20
-178.303
11
138.377
21
-178.208
0
LINE
8
BLACK
6
CONTINUOUS
10
138.377
20
-178.208
11
137.996
21
-178.208
0
LINE
8
BLACK
6
CONTINUOUS
10
137.996
20
-178.208
11
137.805
21
-178.303
0
LINE
8
BLACK
6
CONTINUOUS
10
138.662
20
-179.446
11
138.472
21
-179.541
0
LINE
8
BLACK
6
CONTINUOUS
10
138.472
20
-179.541
11
137.996
21
-179.541
0
LINE
8
BLACK
6
CONTINUOUS
10
137.996
20
-179.541
11
137.805
21
-179.446
0
LINE
8
BLACK
6
CONTINUOUS
10
137.805
20
-179.446
11
137.71
21
-179.255
0
LINE
8
BLACK
6
CONTINUOUS
10
137.71
20
-179.255
11
137.71
21
-179.065
0
LINE
8
BLACK
6
CONTINUOUS
10
137.71
20
-179.065
11
137.805
21
-178.874
0
LINE
8
BLACK
6
CONTINUOUS
10
137.805
20
-178.874
11
137.996
21
-178.779
0
LINE
8
BLACK
6
CONTINUOUS
10
137.996
20
-178.779
11
138.472
21
-178.779
0
LINE
8
BLACK
6
CONTINUOUS
10
138.472
20
-178.779
11
138.662
21
-178.684
0
LINE
8
BLACK
6
CONTINUOUS
10
139.329
20
-178.208
11
140.091
21
-178.208
0
LINE
8
BLACK
6
CONTINUOUS
10
139.615
20
-177.541
11
139.615
21
-179.255
0
LINE
8
BLACK
6
CONTINUOUS
10
139.615
20
-179.255
11
139.71
21
-179.446
0
LINE
8
BLACK
6
CONTINUOUS
10
139.71
20
-179.446
11
139.9
21
-179.541
0
LINE
8
BLACK
6
CONTINUOUS
10
139.9
20
-179.541
11
140.091
21
-179.541
0
LINE
8
BLACK
6
CONTINUOUS
10
141.519
20
-179.446
11
141.329
21
-179.541
0
LINE
8
BLACK
6
CONTINUOUS
10
141.329
20
-179.541
11
140.948
21
-179.541
0
LINE
8
BLACK
6
CONTINUOUS
10
140.948
20
-179.541
11
140.758
21
-179.446
0
LINE
8
BLACK
6
CONTINUOUS
10
140.758
20
-179.446
11
140.662
21
-179.255
0
LINE
8
BLACK
6
CONTINUOUS
10
140.662
20
-179.255
11
140.662
21
-178.493
0
LINE
8
BLACK
6
CONTINUOUS
10
140.662
20
-178.493
11
140.758
21
-178.303
0
LINE
8
BLACK
6
CONTINUOUS
10
140.758
20
-178.303
11
140.948
21
-178.208
0
LINE
8
BLACK
6
CONTINUOUS
10
140.948
20
-178.208
11
141.329
21
-178.208
0
LINE
8
BLACK
6
CONTINUOUS
10
141.329
20
-178.208
11
141.519
21
-178.303
0
LINE
8
BLACK
6
CONTINUOUS
10
141.519
20
-178.303
11
141.615
21
-178.493
0
LINE
8
BLACK
6
CONTINUOUS
10
141.615
20
-178.493
11
141.615
21
-178.684
0
LINE
8
BLACK
6
CONTINUOUS
10
141.615
20
-178.684
11
140.662
21
-178.874
0
LINE
8
BLACK
6
CONTINUOUS
10
143.329
20
-179.541
11
143.329
21
-177.541
0
LINE
8
BLACK
6
CONTINUOUS
10
143.329
20
-179.446
11
143.139
21
-179.541
0
LINE
8
BLACK
6
CONTINUOUS
10
143.139
20
-179.541
11
142.758
21
-179.541
0
LINE
8
BLACK
6
CONTINUOUS
10
142.758
20
-179.541
11
142.567
21
-179.446
0
LINE
8
BLACK
6
CONTINUOUS
10
142.567
20
-179.446
11
142.472
21
-179.35
0
LINE
8
BLACK
6
CONTINUOUS
10
142.472
20
-179.35
11
142.377
21
-179.16
0
LINE
8
BLACK
6
CONTINUOUS
10
142.377
20
-179.16
11
142.377
21
-178.588
0
LINE
8
BLACK
6
CONTINUOUS
10
142.377
20
-178.588
11
142.472
21
-178.398
0
LINE
8
BLACK
6
CONTINUOUS
10
142.472
20
-178.398
11
142.567
21
-178.303
0
LINE
8
BLACK
6
CONTINUOUS
10
142.567
20
-178.303
11
142.758
21
-178.208
0
LINE
8
BLACK
6
CONTINUOUS
10
142.758
20
-178.208
11
143.139
21
-178.208
0
LINE
8
BLACK
6
CONTINUOUS
10
143.139
20
-178.208
11
143.329
21
-178.303
0
LINE
8
BLACK
6
CONTINUOUS
10
144.091
20
-180.303
11
144.186
21
-180.208
0
LINE
8
BLACK
6
CONTINUOUS
10
144.186
20
-180.208
11
144.377
21
-179.922
0
LINE
8
BLACK
6
CONTINUOUS
10
144.377
20
-179.922
11
144.472
21
-179.731
0
LINE
8
BLACK
6
CONTINUOUS
10
144.472
20
-179.731
11
144.567
21
-179.446
0
LINE
8
BLACK
6
CONTINUOUS
10
144.567
20
-179.446
11
144.662
21
-178.969
0
LINE
8
BLACK
6
CONTINUOUS
10
144.662
20
-178.969
11
144.662
21
-178.588
0
LINE
8
BLACK
6
CONTINUOUS
10
144.662
20
-178.588
11
144.567
21
-178.112
0
LINE
8
BLACK
6
CONTINUOUS
10
144.567
20
-178.112
11
144.472
21
-177.827
0
LINE
8
BLACK
6
CONTINUOUS
10
144.472
20
-177.827
11
144.377
21
-177.636
0
LINE
8
BLACK
6
CONTINUOUS
10
144.377
20
-177.636
11
144.186
21
-177.35
0
LINE
8
BLACK
6
CONTINUOUS
10
144.186
20
-177.35
11
144.091
21
-177.255
0
LINE
8
BLACK
6
CONTINUOUS
10
73.626
20
-182.726
11
74.626
21
-181.726
0
LINE
8
BLACK
6
CONTINUOUS
10
74.626
20
-181.726
11
73.626
21
-180.726
0
LINE
8
BLACK
6
CONTINUOUS
10
73.626
20
-180.726
11
72.626
21
-181.726
0
LINE
8
BLACK
6
CONTINUOUS
10
72.626
20
-181.726
11
73.626
21
-182.726
0
LINE
8
BLACK
6
CONTINUOUS
10
78.0909
20
-181.308
11
78.0909
21
-182.641
0
LINE
8
BLACK
6
CONTINUOUS
10
77.6147
20
-180.546
11
77.1385
21
-181.974
0
LINE
8
BLACK
6
CONTINUOUS
10
77.1385
20
-181.974
11
78.3766
21
-181.974
0
LINE
8
BLACK
6
CONTINUOUS
10
79.1385
20
-182.45
11
79.2338
21
-182.546
0
LINE
8
BLACK
6
CONTINUOUS
10
79.2338
20
-182.546
11
79.1385
21
-182.641
0
LINE
8
BLACK
6
CONTINUOUS
10
79.1385
20
-182.641
11
79.0433
21
-182.546
0
LINE
8
BLACK
6
CONTINUOUS
10
79.0433
20
-182.546
11
79.1385
21
-182.45
0
LINE
8
BLACK
6
CONTINUOUS
10
79.1385
20
-182.45
11
79.1385
21
-182.641
0
LINE
8
BLACK
6
CONTINUOUS
10
80.4719
20
-180.641
11
80.6623
21
-180.641
0
LINE
8
BLACK
6
CONTINUOUS
10
80.6623
20
-180.641
11
80.8528
21
-180.736
0
LINE
8
BLACK
6
CONTINUOUS
10
80.8528
20
-180.736
11
80.9481
21
-180.831
0
LINE
8
BLACK
6
CONTINUOUS
10
80.9481
20
-180.831
11
81.0433
21
-181.022
0
LINE
8
BLACK
6
CONTINUOUS
10
81.0433
20
-181.022
11
81.1385
21
-181.403
0
LINE
8
BLACK
6
CONTINUOUS
10
81.1385
20
-181.403
11
81.1385
21
-181.879
0
LINE
8
BLACK
6
CONTINUOUS
10
81.1385
20
-181.879
11
81.0433
21
-182.26
0
LINE
8
BLACK
6
CONTINUOUS
10
81.0433
20
-182.26
11
80.9481
21
-182.45
0
LINE
8
BLACK
6
CONTINUOUS
10
80.9481
20
-182.45
11
80.8528
21
-182.546
0
LINE
8
BLACK
6
CONTINUOUS
10
80.8528
20
-182.546
11
80.6623
21
-182.641
0
LINE
8
BLACK
6
CONTINUOUS
10
80.6623
20
-182.641
11
80.4719
21
-182.641
0
LINE
8
BLACK
6
CONTINUOUS
10
80.4719
20
-182.641
11
80.2814
21
-182.546
0
LINE
8
BLACK
6
CONTINUOUS
10
80.2814
20
-182.546
11
80.1861
21
-182.45
0
LINE
8
BLACK
6
CONTINUOUS
10
80.1861
20
-182.45
11
80.0909
21
-182.26
0
LINE
8
BLACK
6
CONTINUOUS
10
80.0909
20
-182.26
11
79.9957
21
-181.879
0
LINE
8
BLACK
6
CONTINUOUS
10
79.9957
20
-181.879
11
79.9957
21
-181.403
0
LINE
8
BLACK
6
CONTINUOUS
10
79.9957
20
-181.403
11
80.0909
21
-181.022
0
LINE
8
BLACK
6
CONTINUOUS
10
80.0909
20
-181.022
11
80.1861
21
-180.831
0
LINE
8
BLACK
6
CONTINUOUS
10
80.1861
20
-180.831
11
80.2814
21
-180.736
0
LINE
8
BLACK
6
CONTINUOUS
10
80.2814
20
-180.736
11
80.4719
21
-180.641
0
LINE
8
BLACK
6
CONTINUOUS
10
82.3766
20
-180.641
11
82.5671
21
-180.641
0
LINE
8
BLACK
6
CONTINUOUS
10
82.5671
20
-180.641
11
82.7576
21
-180.736
0
LINE
8
BLACK
6
CONTINUOUS
10
82.7576
20
-180.736
11
82.8528
21
-180.831
0
LINE
8
BLACK
6
CONTINUOUS
10
82.8528
20
-180.831
11
82.9481
21
-181.022
0
LINE
8
BLACK
6
CONTINUOUS
10
82.9481
20
-181.022
11
83.0433
21
-181.403
0
LINE
8
BLACK
6
CONTINUOUS
10
83.0433
20
-181.403
11
83.0433
21
-181.879
0
LINE
8
BLACK
6
CONTINUOUS
10
83.0433
20
-181.879
11
82.9481
21
-182.26
0
LINE
8
BLACK
6
CONTINUOUS
10
82.9481
20
-182.26
11
82.8528
21
-182.45
0
LINE
8
BLACK
6
CONTINUOUS
10
82.8528
20
-182.45
11
82.7576
21
-182.546
0
LINE
8
BLACK
6
CONTINUOUS
10
82.7576
20
-182.546
11
82.5671
21
-182.641
0
LINE
8
BLACK
6
CONTINUOUS
10
82.5671
20
-182.641
11
82.3766
21
-182.641
0
LINE
8
BLACK
6
CONTINUOUS
10
82.3766
20
-182.641
11
82.1861
21
-182.546
0
LINE
8
BLACK
6
CONTINUOUS
10
82.1861
20
-182.546
11
82.0909
21
-182.45
0
LINE
8
BLACK
6
CONTINUOUS
10
82.0909
20
-182.45
11
81.9957
21
-182.26
0
LINE
8
BLACK
6
CONTINUOUS
10
81.9957
20
-182.26
11
81.9004
21
-181.879
0
LINE
8
BLACK
6
CONTINUOUS
10
81.9004
20
-181.879
11
81.9004
21
-181.403
0
LINE
8
BLACK
6
CONTINUOUS
10
81.9004
20
-181.403
11
81.9957
21
-181.022
0
LINE
8
BLACK
6
CONTINUOUS
10
81.9957
20
-181.022
11
82.0909
21
-180.831
0
LINE
8
BLACK
6
CONTINUOUS
10
82.0909
20
-180.831
11
82.1861
21
-180.736
0
LINE
8
BLACK
6
CONTINUOUS
10
82.1861
20
-180.736
11
82.3766
21
-180.641
0
LINE
8
BLACK
6
CONTINUOUS
10
84.2814
20
-180.641
11
84.4719
21
-180.641
0
LINE
8
BLACK
6
CONTINUOUS
10
84.4719
20
-180.641
11
84.6623
21
-180.736
0
LINE
8
BLACK
6
CONTINUOUS
10
84.6623
20
-180.736
11
84.7576
21
-180.831
0
LINE
8
BLACK
6
CONTINUOUS
10
84.7576
20
-180.831
11
84.8528
21
-181.022
0
LINE
8
BLACK
6
CONTINUOUS
10
84.8528
20
-181.022
11
84.9481
21
-181.403
0
LINE
8
BLACK
6
CONTINUOUS
10
84.9481
20
-181.403
11
84.9481
21
-181.879
0
LINE
8
BLACK
6
CONTINUOUS
10
84.9481
20
-181.879
11
84.8528
21
-182.26
0
LINE
8
BLACK
6
CONTINUOUS
10
84.8528
20
-182.26
11
84.7576
21
-182.45
0
LINE
8
BLACK
6
CONTINUOUS
10
84.7576
20
-182.45
11
84.6623
21
-182.546
0
LINE
8
BLACK
6
CONTINUOUS
10
84.6623
20
-182.546
11
84.4719
21
-182.641
0
LINE
8
BLACK
6
CONTINUOUS
10
84.4719
20
-182.641
11
84.2814
21
-182.641
0
LINE
8
BLACK
6
CONTINUOUS
10
84.2814
20
-182.641
11
84.0909
21
-182.546
0
LINE
8
BLACK
6
CONTINUOUS
10
84.0909
20
-182.546
11
83.9957
21
-182.45
0
LINE
8
BLACK
6
CONTINUOUS
10
83.9957
20
-182.45
11
83.9004
21
-182.26
0
LINE
8
BLACK
6
CONTINUOUS
10
83.9004
20
-182.26
11
83.8052
21
-181.879
0
LINE
8
BLACK
6
CONTINUOUS
10
83.8052
20
-181.879
11
83.8052
21
-181.403
0
LINE
8
BLACK
6
CONTINUOUS
10
83.8052
20
-181.403
11
83.9004
21
-181.022
0
LINE
8
BLACK
6
CONTINUOUS
10
83.9004
20
-181.022
11
83.9957
21
-180.831
0
LINE
8
BLACK
6
CONTINUOUS
10
83.9957
20
-180.831
11
84.0909
21
-180.736
0
LINE
8
BLACK
6
CONTINUOUS
10
84.0909
20
-180.736
11
84.2814
21
-180.641
0
LINE
8
BLACK
6
CONTINUOUS
10
85.8052
20
-182.641
11
85.8052
21
-181.308
0
LINE
8
BLACK
6
CONTINUOUS
10
85.8052
20
-181.498
11
85.9004
21
-181.403
0
LINE
8
BLACK
6
CONTINUOUS
10
85.9004
20
-181.403
11
86.0909
21
-181.308
0
LINE
8
BLACK
6
CONTINUOUS
10
86.0909
20
-181.308
11
86.3766
21
-181.308
0
LINE
8
BLACK
6
CONTINUOUS
10
86.3766
20
-181.308
11
86.5671
21
-181.403
0
LINE
8
BLACK
6
CONTINUOUS
10
86.5671
20
-181.403
11
86.6623
21
-181.593
0
LINE
8
BLACK
6
CONTINUOUS
10
86.6623
20
-181.593
11
86.6623
21
-182.641
0
LINE
8
BLACK
6
CONTINUOUS
10
86.6623
20
-181.593
11
86.7576
21
-181.403
0
LINE
8
BLACK
6
CONTINUOUS
10
86.7576
20
-181.403
11
86.9481
21
-181.308
0
LINE
8
BLACK
6
CONTINUOUS
10
86.9481
20
-181.308
11
87.2338
21
-181.308
0
LINE
8
BLACK
6
CONTINUOUS
10
87.2338
20
-181.308
11
87.4242
21
-181.403
0
LINE
8
BLACK
6
CONTINUOUS
10
87.4242
20
-181.403
11
87.5195
21
-181.593
0
LINE
8
BLACK
6
CONTINUOUS
10
87.5195
20
-181.593
11
87.5195
21
-182.641
0
LINE
8
BLACK
6
CONTINUOUS
10
88.4719
20
-182.641
11
88.4719
21
-181.308
0
LINE
8
BLACK
6
CONTINUOUS
10
88.4719
20
-181.498
11
88.5671
21
-181.403
0
LINE
8
BLACK
6
CONTINUOUS
10
88.5671
20
-181.403
11
88.7576
21
-181.308
0
LINE
8
BLACK
6
CONTINUOUS
10
88.7576
20
-181.308
11
89.0433
21
-181.308
0
LINE
8
BLACK
6
CONTINUOUS
10
89.0433
20
-181.308
11
89.2338
21
-181.403
0
LINE
8
BLACK
6
CONTINUOUS
10
89.2338
20
-181.403
11
89.329
21
-181.593
0
LINE
8
BLACK
6
CONTINUOUS
10
89.329
20
-181.593
11
89.329
21
-182.641
0
LINE
8
BLACK
6
CONTINUOUS
10
89.329
20
-181.593
11
89.4242
21
-181.403
0
LINE
8
BLACK
6
CONTINUOUS
10
89.4242
20
-181.403
11
89.6147
21
-181.308
0
LINE
8
BLACK
6
CONTINUOUS
10
89.6147
20
-181.308
11
89.9004
21
-181.308
0
LINE
8
BLACK
6
CONTINUOUS
10
89.9004
20
-181.308
11
90.0909
21
-181.403
0
LINE
8
BLACK
6
CONTINUOUS
10
90.0909
20
-181.403
11
90.1861
21
-181.593
0
LINE
8
BLACK
6
CONTINUOUS
10
90.1861
20
-181.593
11
90.1861
21
-182.641
0
LINE
8
BLACK
6
CONTINUOUS
10
94.0909
20
-180.546
11
92.3766
21
-183.117
0
LINE
8
BLACK
6
CONTINUOUS
10
96.6623
20
-180.641
11
96.8528
21
-180.641
0
LINE
8
BLACK
6
CONTINUOUS
10
96.8528
20
-180.641
11
97.0433
21
-180.736
0
LINE
8
BLACK
6
CONTINUOUS
10
97.0433
20
-180.736
11
97.1385
21
-180.831
0
LINE
8
BLACK
6
CONTINUOUS
10
97.1385
20
-180.831
11
97.2338
21
-181.022
0
LINE
8
BLACK
6
CONTINUOUS
10
97.2338
20
-181.022
11
97.329
21
-181.403
0
LINE
8
BLACK
6
CONTINUOUS
10
97.329
20
-181.403
11
97.329
21
-181.879
0
LINE
8
BLACK
6
CONTINUOUS
10
97.329
20
-181.879
11
97.2338
21
-182.26
0
LINE
8
BLACK
6
CONTINUOUS
10
97.2338
20
-182.26
11
97.1385
21
-182.45
0
LINE
8
BLACK
6
CONTINUOUS
10
97.1385
20
-182.45
11
97.0433
21
-182.546
0
LINE
8
BLACK
6
CONTINUOUS
10
97.0433
20
-182.546
11
96.8528
21
-182.641
0
LINE
8
BLACK
6
CONTINUOUS
10
96.8528
20
-182.641
11
96.6623
21
-182.641
0
LINE
8
BLACK
6
CONTINUOUS
10
96.6623
20
-182.641
11
96.4719
21
-182.546
0
LINE
8
BLACK
6
CONTINUOUS
10
96.4719
20
-182.546
11
96.3766
21
-182.45
0
LINE
8
BLACK
6
CONTINUOUS
10
96.3766
20
-182.45
11
96.2814
21
-182.26
0
LINE
8
BLACK
6
CONTINUOUS
10
96.2814
20
-182.26
11
96.1862
21
-181.879
0
LINE
8
BLACK
6
CONTINUOUS
10
96.1862
20
-181.879
11
96.1862
21
-181.403
0
LINE
8
BLACK
6
CONTINUOUS
10
96.1862
20
-181.403
11
96.2814
21
-181.022
0
LINE
8
BLACK
6
CONTINUOUS
10
96.2814
20
-181.022
11
96.3766
21
-180.831
0
LINE
8
BLACK
6
CONTINUOUS
10
96.3766
20
-180.831
11
96.4719
21
-180.736
0
LINE
8
BLACK
6
CONTINUOUS
10
96.4719
20
-180.736
11
96.6623
21
-180.641
0
LINE
8
BLACK
6
CONTINUOUS
10
98.1862
20
-182.45
11
98.2814
21
-182.546
0
LINE
8
BLACK
6
CONTINUOUS
10
98.2814
20
-182.546
11
98.1862
21
-182.641
0
LINE
8
BLACK
6
CONTINUOUS
10
98.1862
20
-182.641
11
98.0909
21
-182.546
0
LINE
8
BLACK
6
CONTINUOUS
10
98.0909
20
-182.546
11
98.1862
21
-182.45
0
LINE
8
BLACK
6
CONTINUOUS
10
98.1862
20
-182.45
11
98.1862
21
-182.641
0
LINE
8
BLACK
6
CONTINUOUS
10
100.186
20
-182.641
11
99.0433
21
-182.641
0
LINE
8
BLACK
6
CONTINUOUS
10
99.6147
20
-182.641
11
99.6147
21
-180.641
0
LINE
8
BLACK
6
CONTINUOUS
10
99.6147
20
-180.641
11
99.4242
21
-180.927
0
LINE
8
BLACK
6
CONTINUOUS
10
99.4242
20
-180.927
11
99.2338
21
-181.117
0
LINE
8
BLACK
6
CONTINUOUS
10
99.2338
20
-181.117
11
99.0433
21
-181.212
0
LINE
8
BLACK
6
CONTINUOUS
10
101.996
20
-180.641
11
101.043
21
-180.641
0
LINE
8
BLACK
6
CONTINUOUS
10
101.043
20
-180.641
11
100.948
21
-181.593
0
LINE
8
BLACK
6
CONTINUOUS
10
100.948
20
-181.593
11
101.043
21
-181.498
0
LINE
8
BLACK
6
CONTINUOUS
10
101.043
20
-181.498
11
101.234
21
-181.403
0
LINE
8
BLACK
6
CONTINUOUS
10
101.234
20
-181.403
11
101.71
21
-181.403
0
LINE
8
BLACK
6
CONTINUOUS
10
101.71
20
-181.403
11
101.9
21
-181.498
0
LINE
8
BLACK
6
CONTINUOUS
10
101.9
20
-181.498
11
101.996
21
-181.593
0
LINE
8
BLACK
6
CONTINUOUS
10
101.996
20
-181.593
11
102.091
21
-181.784
0
LINE
8
BLACK
6
CONTINUOUS
10
102.091
20
-181.784
11
102.091
21
-182.26
0
LINE
8
BLACK
6
CONTINUOUS
10
102.091
20
-182.26
11
101.996
21
-182.45
0
LINE
8
BLACK
6
CONTINUOUS
10
101.996
20
-182.45
11
101.9
21
-182.546
0
LINE
8
BLACK
6
CONTINUOUS
10
101.9
20
-182.546
11
101.71
21
-182.641
0
LINE
8
BLACK
6
CONTINUOUS
10
101.71
20
-182.641
11
101.234
21
-182.641
0
LINE
8
BLACK
6
CONTINUOUS
10
101.234
20
-182.641
11
101.043
21
-182.546
0
LINE
8
BLACK
6
CONTINUOUS
10
101.043
20
-182.546
11
100.948
21
-182.45
0
LINE
8
BLACK
6
CONTINUOUS
10
102.758
20
-180.641
11
104.091
21
-180.641
0
LINE
8
BLACK
6
CONTINUOUS
10
104.091
20
-180.641
11
103.234
21
-182.641
0
LINE
8
BLACK
6
CONTINUOUS
10
105.805
20
-180.641
11
104.853
21
-180.641
0
LINE
8
BLACK
6
CONTINUOUS
10
104.853
20
-180.641
11
104.758
21
-181.593
0
LINE
8
BLACK
6
CONTINUOUS
10
104.758
20
-181.593
11
104.853
21
-181.498
0
LINE
8
BLACK
6
CONTINUOUS
10
104.853
20
-181.498
11
105.043
21
-181.403
0
LINE
8
BLACK
6
CONTINUOUS
10
105.043
20
-181.403
11
105.519
21
-181.403
0
LINE
8
BLACK
6
CONTINUOUS
10
105.519
20
-181.403
11
105.71
21
-181.498
0
LINE
8
BLACK
6
CONTINUOUS
10
105.71
20
-181.498
11
105.805
21
-181.593
0
LINE
8
BLACK
6
CONTINUOUS
10
105.805
20
-181.593
11
105.9
21
-181.784
0
LINE
8
BLACK
6
CONTINUOUS
10
105.9
20
-181.784
11
105.9
21
-182.26
0
LINE
8
BLACK
6
CONTINUOUS
10
105.9
20
-182.26
11
105.805
21
-182.45
0
LINE
8
BLACK
6
CONTINUOUS
10
105.805
20
-182.45
11
105.71
21
-182.546
0
LINE
8
BLACK
6
CONTINUOUS
10
105.71
20
-182.546
11
105.519
21
-182.641
0
LINE
8
BLACK
6
CONTINUOUS
10
105.519
20
-182.641
11
105.043
21
-182.641
0
LINE
8
BLACK
6
CONTINUOUS
10
105.043
20
-182.641
11
104.853
21
-182.546
0
LINE
8
BLACK
6
CONTINUOUS
10
104.853
20
-182.546
11
104.758
21
-182.45
0
LINE
8
BLACK
6
CONTINUOUS
10
106.662
20
-180.641
11
106.662
21
-181.022
0
LINE
8
BLACK
6
CONTINUOUS
10
107.424
20
-180.641
11
107.424
21
-181.022
0
LINE
8
BLACK
6
CONTINUOUS
10
110.377
20
-183.403
11
110.281
21
-183.308
0
LINE
8
BLACK
6
CONTINUOUS
10
110.281
20
-183.308
11
110.091
21
-183.022
0
LINE
8
BLACK
6
CONTINUOUS
10
110.091
20
-183.022
11
109.996
21
-182.831
0
LINE
8
BLACK
6
CONTINUOUS
10
109.996
20
-182.831
11
109.9
21
-182.546
0
LINE
8
BLACK
6
CONTINUOUS
10
109.9
20
-182.546
11
109.805
21
-182.069
0
LINE
8
BLACK
6
CONTINUOUS
10
109.805
20
-182.069
11
109.805
21
-181.688
0
LINE
8
BLACK
6
CONTINUOUS
10
109.805
20
-181.688
11
109.9
21
-181.212
0
LINE
8
BLACK
6
CONTINUOUS
10
109.9
20
-181.212
11
109.996
21
-180.927
0
LINE
8
BLACK
6
CONTINUOUS
10
109.996
20
-180.927
11
110.091
21
-180.736
0
LINE
8
BLACK
6
CONTINUOUS
10
110.091
20
-180.736
11
110.281
21
-180.45
0
LINE
8
BLACK
6
CONTINUOUS
10
110.281
20
-180.45
11
110.377
21
-180.355
0
LINE
8
BLACK
6
CONTINUOUS
10
112.186
20
-182.641
11
111.043
21
-182.641
0
LINE
8
BLACK
6
CONTINUOUS
10
111.615
20
-182.641
11
111.615
21
-180.641
0
LINE
8
BLACK
6
CONTINUOUS
10
111.615
20
-180.641
11
111.424
21
-180.927
0
LINE
8
BLACK
6
CONTINUOUS
10
111.424
20
-180.927
11
111.234
21
-181.117
0
LINE
8
BLACK
6
CONTINUOUS
10
111.234
20
-181.117
11
111.043
21
-181.212
0
LINE
8
BLACK
6
CONTINUOUS
10
112.853
20
-180.641
11
114.186
21
-180.641
0
LINE
8
BLACK
6
CONTINUOUS
10
114.186
20
-180.641
11
113.329
21
-182.641
0
LINE
8
BLACK
6
CONTINUOUS
10
116.472
20
-182.641
11
116.472
21
-180.641
0
LINE
8
BLACK
6
CONTINUOUS
10
117.329
20
-182.641
11
117.329
21
-181.593
0
LINE
8
BLACK
6
CONTINUOUS
10
117.329
20
-181.593
11
117.234
21
-181.403
0
LINE
8
BLACK
6
CONTINUOUS
10
117.234
20
-181.403
11
117.043
21
-181.308
0
LINE
8
BLACK
6
CONTINUOUS
10
117.043
20
-181.308
11
116.758
21
-181.308
0
LINE
8
BLACK
6
CONTINUOUS
10
116.758
20
-181.308
11
116.567
21
-181.403
0
LINE
8
BLACK
6
CONTINUOUS
10
116.567
20
-181.403
11
116.472
21
-181.498
0
LINE
8
BLACK
6
CONTINUOUS
10
118.567
20
-182.641
11
118.377
21
-182.546
0
LINE
8
BLACK
6
CONTINUOUS
10
118.377
20
-182.546
11
118.281
21
-182.45
0
LINE
8
BLACK
6
CONTINUOUS
10
118.281
20
-182.45
11
118.186
21
-182.26
0
LINE
8
BLACK
6
CONTINUOUS
10
118.186
20
-182.26
11
118.186
21
-181.688
0
LINE
8
BLACK
6
CONTINUOUS
10
118.186
20
-181.688
11
118.281
21
-181.498
0
LINE
8
BLACK
6
CONTINUOUS
10
118.281
20
-181.498
11
118.377
21
-181.403
0
LINE
8
BLACK
6
CONTINUOUS
10
118.377
20
-181.403
11
118.567
21
-181.308
0
LINE
8
BLACK
6
CONTINUOUS
10
118.567
20
-181.308
11
118.853
21
-181.308
0
LINE
8
BLACK
6
CONTINUOUS
10
118.853
20
-181.308
11
119.043
21
-181.403
0
LINE
8
BLACK
6
CONTINUOUS
10
119.043
20
-181.403
11
119.139
21
-181.498
0
LINE
8
BLACK
6
CONTINUOUS
10
119.139
20
-181.498
11
119.234
21
-181.688
0
LINE
8
BLACK
6
CONTINUOUS
10
119.234
20
-181.688
11
119.234
21
-182.26
0
LINE
8
BLACK
6
CONTINUOUS
10
119.234
20
-182.26
11
119.139
21
-182.45
0
LINE
8
BLACK
6
CONTINUOUS
10
119.139
20
-182.45
11
119.043
21
-182.546
0
LINE
8
BLACK
6
CONTINUOUS
10
119.043
20
-182.546
11
118.853
21
-182.641
0
LINE
8
BLACK
6
CONTINUOUS
10
118.853
20
-182.641
11
118.567
21
-182.641
0
LINE
8
BLACK
6
CONTINUOUS
10
120.377
20
-182.641
11
120.186
21
-182.546
0
LINE
8
BLACK
6
CONTINUOUS
10
120.186
20
-182.546
11
120.091
21
-182.355
0
LINE
8
BLACK
6
CONTINUOUS
10
120.091
20
-182.355
11
120.091
21
-180.641
0
LINE
8
BLACK
6
CONTINUOUS
10
121.9
20
-182.546
11
121.71
21
-182.641
0
LINE
8
BLACK
6
CONTINUOUS
10
121.71
20
-182.641
11
121.329
21
-182.641
0
LINE
8
BLACK
6
CONTINUOUS
10
121.329
20
-182.641
11
121.139
21
-182.546
0
LINE
8
BLACK
6
CONTINUOUS
10
121.139
20
-182.546
11
121.043
21
-182.355
0
LINE
8
BLACK
6
CONTINUOUS
10
121.043
20
-182.355
11
121.043
21
-181.593
0
LINE
8
BLACK
6
CONTINUOUS
10
121.043
20
-181.593
11
121.139
21
-181.403
0
LINE
8
BLACK
6
CONTINUOUS
10
121.139
20
-181.403
11
121.329
21
-181.308
0
LINE
8
BLACK
6
CONTINUOUS
10
121.329
20
-181.308
11
121.71
21
-181.308
0
LINE
8
BLACK
6
CONTINUOUS
10
121.71
20
-181.308
11
121.9
21
-181.403
0
LINE
8
BLACK
6
CONTINUOUS
10
121.9
20
-181.403
11
121.996
21
-181.593
0
LINE
8
BLACK
6
CONTINUOUS
10
121.996
20
-181.593
11
121.996
21
-181.784
0
LINE
8
BLACK
6
CONTINUOUS
10
121.996
20
-181.784
11
121.043
21
-181.974
0
LINE
8
BLACK
6
CONTINUOUS
10
122.758
20
-182.546
11
122.948
21
-182.641
0
LINE
8
BLACK
6
CONTINUOUS
10
122.948
20
-182.641
11
123.329
21
-182.641
0
LINE
8
BLACK
6
CONTINUOUS
10
123.329
20
-182.641
11
123.519
21
-182.546
0
LINE
8
BLACK
6
CONTINUOUS
10
123.519
20
-182.546
11
123.615
21
-182.355
0
LINE
8
BLACK
6
CONTINUOUS
10
123.615
20
-182.355
11
123.615
21
-182.26
0
LINE
8
BLACK
6
CONTINUOUS
10
123.615
20
-182.26
11
123.519
21
-182.069
0
LINE
8
BLACK
6
CONTINUOUS
10
123.519
20
-182.069
11
123.329
21
-181.974
0
LINE
8
BLACK
6
CONTINUOUS
10
123.329
20
-181.974
11
123.043
21
-181.974
0
LINE
8
BLACK
6
CONTINUOUS
10
123.043
20
-181.974
11
122.853
21
-181.879
0
LINE
8
BLACK
6
CONTINUOUS
10
122.853
20
-181.879
11
122.758
21
-181.688
0
LINE
8
BLACK
6
CONTINUOUS
10
122.758
20
-181.688
11
122.758
21
-181.593
0
LINE
8
BLACK
6
CONTINUOUS
10
122.758
20
-181.593
11
122.853
21
-181.403
0
LINE
8
BLACK
6
CONTINUOUS
10
122.853
20
-181.403
11
123.043
21
-181.308
0
LINE
8
BLACK
6
CONTINUOUS
10
123.043
20
-181.308
11
123.329
21
-181.308
0
LINE
8
BLACK
6
CONTINUOUS
10
123.329
20
-181.308
11
123.519
21
-181.403
0
LINE
8
BLACK
6
CONTINUOUS
10
124.281
20
-183.403
11
124.377
21
-183.308
0
LINE
8
BLACK
6
CONTINUOUS
10
124.377
20
-183.308
11
124.567
21
-183.022
0
LINE
8
BLACK
6
CONTINUOUS
10
124.567
20
-183.022
11
124.662
21
-182.831
0
LINE
8
BLACK
6
CONTINUOUS
10
124.662
20
-182.831
11
124.758
21
-182.546
0
LINE
8
BLACK
6
CONTINUOUS
10
124.758
20
-182.546
11
124.853
21
-182.069
0
LINE
8
BLACK
6
CONTINUOUS
10
124.853
20
-182.069
11
124.853
21
-181.688
0
LINE
8
BLACK
6
CONTINUOUS
10
124.853
20
-181.688
11
124.758
21
-181.212
0
LINE
8
BLACK
6
CONTINUOUS
10
124.758
20
-181.212
11
124.662
21
-180.927
0
LINE
8
BLACK
6
CONTINUOUS
10
124.662
20
-180.927
11
124.567
21
-180.736
0
LINE
8
BLACK
6
CONTINUOUS
10
124.567
20
-180.736
11
124.377
21
-180.45
0
LINE
8
BLACK
6
CONTINUOUS
10
124.377
20
-180.45
11
124.281
21
-180.355
0
LINE
8
BLACK
6
CONTINUOUS
10
127.9
20
-183.403
11
127.805
21
-183.308
0
LINE
8
BLACK
6
CONTINUOUS
10
127.805
20
-183.308
11
127.615
21
-183.022
0
LINE
8
BLACK
6
CONTINUOUS
10
127.615
20
-183.022
11
127.519
21
-182.831
0
LINE
8
BLACK
6
CONTINUOUS
10
127.519
20
-182.831
11
127.424
21
-182.546
0
LINE
8
BLACK
6
CONTINUOUS
10
127.424
20
-182.546
11
127.329
21
-182.069
0
LINE
8
BLACK
6
CONTINUOUS
10
127.329
20
-182.069
11
127.329
21
-181.688
0
LINE
8
BLACK
6
CONTINUOUS
10
127.329
20
-181.688
11
127.424
21
-181.212
0
LINE
8
BLACK
6
CONTINUOUS
10
127.424
20
-181.212
11
127.519
21
-180.927
0
LINE
8
BLACK
6
CONTINUOUS
10
127.519
20
-180.927
11
127.615
21
-180.736
0
LINE
8
BLACK
6
CONTINUOUS
10
127.615
20
-180.736
11
127.805
21
-180.45
0
LINE
8
BLACK
6
CONTINUOUS
10
127.805
20
-180.45
11
127.9
21
-180.355
0
LINE
8
BLACK
6
CONTINUOUS
10
128.662
20
-181.308
11
128.662
21
-182.641
0
LINE
8
BLACK
6
CONTINUOUS
10
128.662
20
-181.498
11
128.758
21
-181.403
0
LINE
8
BLACK
6
CONTINUOUS
10
128.758
20
-181.403
11
128.948
21
-181.308
0
LINE
8
BLACK
6
CONTINUOUS
10
128.948
20
-181.308
11
129.234
21
-181.308
0
LINE
8
BLACK
6
CONTINUOUS
10
129.234
20
-181.308
11
129.424
21
-181.403
0
LINE
8
BLACK
6
CONTINUOUS
10
129.424
20
-181.403
11
129.519
21
-181.593
0
LINE
8
BLACK
6
CONTINUOUS
10
129.519
20
-181.593
11
129.519
21
-182.641
0
LINE
8
BLACK
6
CONTINUOUS
10
130.758
20
-182.641
11
130.567
21
-182.546
0
LINE
8
BLACK
6
CONTINUOUS
10
130.567
20
-182.546
11
130.472
21
-182.45
0
LINE
8
BLACK
6
CONTINUOUS
10
130.472
20
-182.45
11
130.377
21
-182.26
0
LINE
8
BLACK
6
CONTINUOUS
10
130.377
20
-182.26
11
130.377
21
-181.688
0
LINE
8
BLACK
6
CONTINUOUS
10
130.377
20
-181.688
11
130.472
21
-181.498
0
LINE
8
BLACK
6
CONTINUOUS
10
130.472
20
-181.498
11
130.567
21
-181.403
0
LINE
8
BLACK
6
CONTINUOUS
10
130.567
20
-181.403
11
130.758
21
-181.308
0
LINE
8
BLACK
6
CONTINUOUS
10
130.758
20
-181.308
11
131.043
21
-181.308
0
LINE
8
BLACK
6
CONTINUOUS
10
131.043
20
-181.308
11
131.234
21
-181.403
0
LINE
8
BLACK
6
CONTINUOUS
10
131.234
20
-181.403
11
131.329
21
-181.498
0
LINE
8
BLACK
6
CONTINUOUS
10
131.329
20
-181.498
11
131.424
21
-181.688
0
LINE
8
BLACK
6
CONTINUOUS
10
131.424
20
-181.688
11
131.424
21
-182.26
0
LINE
8
BLACK
6
CONTINUOUS
10
131.424
20
-182.26
11
131.329
21
-182.45
0
LINE
8
BLACK
6
CONTINUOUS
10
131.329
20
-182.45
11
131.234
21
-182.546
0
LINE
8
BLACK
6
CONTINUOUS
10
131.234
20
-182.546
11
131.043
21
-182.641
0
LINE
8
BLACK
6
CONTINUOUS
10
131.043
20
-182.641
11
130.758
21
-182.641
0
LINE
8
BLACK
6
CONTINUOUS
10
131.996
20
-181.308
11
132.758
21
-181.308
0
LINE
8
BLACK
6
CONTINUOUS
10
132.281
20
-180.641
11
132.281
21
-182.355
0
LINE
8
BLACK
6
CONTINUOUS
10
132.281
20
-182.355
11
132.377
21
-182.546
0
LINE
8
BLACK
6
CONTINUOUS
10
132.377
20
-182.546
11
132.567
21
-182.641
0
LINE
8
BLACK
6
CONTINUOUS
10
132.567
20
-182.641
11
132.758
21
-182.641
0
LINE
8
BLACK
6
CONTINUOUS
10
134.948
20
-181.308
11
134.948
21
-183.308
0
LINE
8
BLACK
6
CONTINUOUS
10
134.948
20
-181.403
11
135.139
21
-181.308
0
LINE
8
BLACK
6
CONTINUOUS
10
135.139
20
-181.308
11
135.519
21
-181.308
0
LINE
8
BLACK
6
CONTINUOUS
10
135.519
20
-181.308
11
135.71
21
-181.403
0
LINE
8
BLACK
6
CONTINUOUS
10
135.71
20
-181.403
11
135.805
21
-181.498
0
LINE
8
BLACK
6
CONTINUOUS
10
135.805
20
-181.498
11
135.9
21
-181.688
0
LINE
8
BLACK
6
CONTINUOUS
10
135.9
20
-181.688
11
135.9
21
-182.26
0
LINE
8
BLACK
6
CONTINUOUS
10
135.9
20
-182.26
11
135.805
21
-182.45
0
LINE
8
BLACK
6
CONTINUOUS
10
135.805
20
-182.45
11
135.71
21
-182.546
0
LINE
8
BLACK
6
CONTINUOUS
10
135.71
20
-182.546
11
135.519
21
-182.641
0
LINE
8
BLACK
6
CONTINUOUS
10
135.519
20
-182.641
11
135.139
21
-182.641
0
LINE
8
BLACK
6
CONTINUOUS
10
135.139
20
-182.641
11
134.948
21
-182.546
0
LINE
8
BLACK
6
CONTINUOUS
10
137.043
20
-182.641
11
136.853
21
-182.546
0
LINE
8
BLACK
6
CONTINUOUS
10
136.853
20
-182.546
11
136.758
21
-182.355
0
LINE
8
BLACK
6
CONTINUOUS
10
136.758
20
-182.355
11
136.758
21
-180.641
0
LINE
8
BLACK
6
CONTINUOUS
10
138.662
20
-182.641
11
138.662
21
-181.593
0
LINE
8
BLACK
6
CONTINUOUS
10
138.662
20
-181.593
11
138.567
21
-181.403
0
LINE
8
BLACK
6
CONTINUOUS
10
138.567
20
-181.403
11
138.377
21
-181.308
0
LINE
8
BLACK
6
CONTINUOUS
10
138.377
20
-181.308
11
137.996
21
-181.308
0
LINE
8
BLACK
6
CONTINUOUS
10
137.996
20
-181.308
11
137.805
21
-181.403
0
LINE
8
BLACK
6
CONTINUOUS
10
138.662
20
-182.546
11
138.472
21
-182.641
0
LINE
8
BLACK
6
CONTINUOUS
10
138.472
20
-182.641
11
137.996
21
-182.641
0
LINE
8
BLACK
6
CONTINUOUS
10
137.996
20
-182.641
11
137.805
21
-182.546
0
LINE
8
BLACK
6
CONTINUOUS
10
137.805
20
-182.546
11
137.71
21
-182.355
0
LINE
8
BLACK
6
CONTINUOUS
10
137.71
20
-182.355
11
137.71
21
-182.165
0
LINE
8
BLACK
6
CONTINUOUS
10
137.71
20
-182.165
11
137.805
21
-181.974
0
LINE
8
BLACK
6
CONTINUOUS
10
137.805
20
-181.974
11
137.996
21
-181.879
0
LINE
8
BLACK
6
CONTINUOUS
10
137.996
20
-181.879
11
138.472
21
-181.879
0
LINE
8
BLACK
6
CONTINUOUS
10
138.472
20
-181.879
11
138.662
21
-181.784
0
LINE
8
BLACK
6
CONTINUOUS
10
139.329
20
-181.308
11
140.091
21
-181.308
0
LINE
8
BLACK
6
CONTINUOUS
10
139.615
20
-180.641
11
139.615
21
-182.355
0
LINE
8
BLACK
6
CONTINUOUS
10
139.615
20
-182.355
11
139.71
21
-182.546
0
LINE
8
BLACK
6
CONTINUOUS
10
139.71
20
-182.546
11
139.9
21
-182.641
0
LINE
8
BLACK
6
CONTINUOUS
10
139.9
20
-182.641
11
140.091
21
-182.641
0
LINE
8
BLACK
6
CONTINUOUS
10
141.519
20
-182.546
11
141.329
21
-182.641
0
LINE
8
BLACK
6
CONTINUOUS
10
141.329
20
-182.641
11
140.948
21
-182.641
0
LINE
8
BLACK
6
CONTINUOUS
10
140.948
20
-182.641
11
140.758
21
-182.546
0
LINE
8
BLACK
6
CONTINUOUS
10
140.758
20
-182.546
11
140.662
21
-182.355
0
LINE
8
BLACK
6
CONTINUOUS
10
140.662
20
-182.355
11
140.662
21
-181.593
0
LINE
8
BLACK
6
CONTINUOUS
10
140.662
20
-181.593
11
140.758
21
-181.403
0
LINE
8
BLACK
6
CONTINUOUS
10
140.758
20
-181.403
11
140.948
21
-181.308
0
LINE
8
BLACK
6
CONTINUOUS
10
140.948
20
-181.308
11
141.329
21
-181.308
0
LINE
8
BLACK
6
CONTINUOUS
10
141.329
20
-181.308
11
141.519
21
-181.403
0
LINE
8
BLACK
6
CONTINUOUS
10
141.519
20
-181.403
11
141.615
21
-181.593
0
LINE
8
BLACK
6
CONTINUOUS
10
141.615
20
-181.593
11
141.615
21
-181.784
0
LINE
8
BLACK
6
CONTINUOUS
10
141.615
20
-181.784
11
140.662
21
-181.974
0
LINE
8
BLACK
6
CONTINUOUS
10
143.329
20
-182.641
11
143.329
21
-180.641
0
LINE
8
BLACK
6
CONTINUOUS
10
143.329
20
-182.546
11
143.139
21
-182.641
0
LINE
8
BLACK
6
CONTINUOUS
10
143.139
20
-182.641
11
142.758
21
-182.641
0
LINE
8
BLACK
6
CONTINUOUS
10
142.758
20
-182.641
11
142.567
21
-182.546
0
LINE
8
BLACK
6
CONTINUOUS
10
142.567
20
-182.546
11
142.472
21
-182.45
0
LINE
8
BLACK
6
CONTINUOUS
10
142.472
20
-182.45
11
142.377
21
-182.26
0
LINE
8
BLACK
6
CONTINUOUS
10
142.377
20
-182.26
11
142.377
21
-181.688
0
LINE
8
BLACK
6
CONTINUOUS
10
142.377
20
-181.688
11
142.472
21
-181.498
0
LINE
8
BLACK
6
CONTINUOUS
10
142.472
20
-181.498
11
142.567
21
-181.403
0
LINE
8
BLACK
6
CONTINUOUS
10
142.567
20
-181.403
11
142.758
21
-181.308
0
LINE
8
BLACK
6
CONTINUOUS
10
142.758
20
-181.308
11
143.139
21
-181.308
0
LINE
8
BLACK
6
CONTINUOUS
10
143.139
20
-181.308
11
143.329
21
-181.403
0
LINE
8
BLACK
6
CONTINUOUS
10
144.091
20
-183.403
11
144.186
21
-183.308
0
LINE
8
BLACK
6
CONTINUOUS
10
144.186
20
-183.308
11
144.377
21
-183.022
0
LINE
8
BLACK
6
CONTINUOUS
10
144.377
20
-183.022
11
144.472
21
-182.831
0
LINE
8
BLACK
6
CONTINUOUS
10
144.472
20
-182.831
11
144.567
21
-182.546
0
LINE
8
BLACK
6
CONTINUOUS
10
144.567
20
-182.546
11
144.662
21
-182.069
0
LINE
8
BLACK
6
CONTINUOUS
10
144.662
20
-182.069
11
144.662
21
-181.688
0
LINE
8
BLACK
6
CONTINUOUS
10
144.662
20
-181.688
11
144.567
21
-181.212
0
LINE
8
BLACK
6
CONTINUOUS
10
144.567
20
-181.212
11
144.472
21
-180.927
0
LINE
8
BLACK
6
CONTINUOUS
10
144.472
20
-180.927
11
144.377
21
-180.736
0
LINE
8
BLACK
6
CONTINUOUS
10
144.377
20
-180.736
11
144.186
21
-180.45
0
LINE
8
BLACK
6
CONTINUOUS
10
144.186
20
-180.45
11
144.091
21
-180.355
  0
ENDSEC
  0
EOF
