M48
; DRILL file {KiCad 7.0.7} date 2023 September 12, Tuesday 14:39:45
; FORMAT={-:-/ absolute / metric / decimal}
; #@! TF.CreationDate,2023-09-12T14:39:45-06:00
; #@! TF.GenerationSoftware,Kicad,Pcbnew,7.0.7
; #@! TF.FileFunction,NonPlated,1,2,NPTH
FMAT,2
METRIC
; #@! TA.AperFunction,NonPlated,NPTH,ComponentDrill
T1C1.500
; #@! TA.AperFunction,NonPlated,NPTH,ComponentDrill
T2C1.700
; #@! TA.AperFunction,NonPlated,NPTH,ComponentDrill
T3C1.800
; #@! TA.AperFunction,NonPlated,NPTH,ComponentDrill
T4C1.900
; #@! TA.AperFunction,NonPlated,NPTH,ComponentDrill
T5C4.000
%
G90
G05
T1
X89.269Y-46.086
X94.119Y-46.086
T2
X133.858Y-43.328
X133.858Y-50.328
T3
X88.969Y-43.056
X94.419Y-43.056
T4
X86.36Y-90.17
X86.36Y-110.49
X86.36Y-130.81
X86.36Y-151.13
X91.44Y-53.71
X91.44Y-63.87
X96.52Y-90.17
X96.52Y-110.49
X96.52Y-130.81
X96.52Y-151.13
X106.68Y-90.17
X106.68Y-110.49
X106.68Y-130.81
X106.68Y-151.13
X116.84Y-90.17
X116.84Y-110.49
X116.84Y-130.81
X116.84Y-151.13
X127.0Y-90.17
X127.0Y-110.49
X127.0Y-130.81
X127.0Y-151.13
X137.16Y-90.17
X137.16Y-110.49
X137.16Y-130.81
X137.16Y-151.13
X147.32Y-90.17
X147.32Y-110.49
X147.32Y-130.81
X147.32Y-151.13
X157.48Y-90.17
X157.48Y-110.49
X157.48Y-130.81
X157.48Y-151.13
T5
X91.44Y-58.79
X91.44Y-90.17
X91.44Y-110.49
X91.44Y-130.81
X91.44Y-151.13
X111.76Y-90.17
X111.76Y-110.49
X111.76Y-130.81
X111.76Y-151.13
X132.08Y-90.17
X132.08Y-110.49
X132.08Y-130.81
X132.08Y-151.13
X152.4Y-90.17
X152.4Y-110.49
X152.4Y-130.81
X152.4Y-151.13
T0
M30
