%TF.GenerationSoftware,KiCad,Pcbnew,7.0.7*%
%TF.CreationDate,2023-09-12T14:39:03-06:00*%
%TF.ProjectId,DJBB Drumpad V2 Pico,444a4242-2044-4727-956d-706164205632,V01*%
%TF.SameCoordinates,Original*%
%TF.FileFunction,Soldermask,Top*%
%TF.FilePolarity,Negative*%
%FSLAX46Y46*%
G04 Gerber Fmt 4.6, Leading zero omitted, Abs format (unit mm)*
G04 Created by KiCad (PCBNEW 7.0.7) date 2023-09-12 14:39:03*
%MOMM*%
%LPD*%
G01*
G04 APERTURE LIST*
%ADD10O,1.800000X1.800000*%
%ADD11O,1.500000X1.500000*%
%ADD12O,1.700000X1.700000*%
%ADD13R,1.700000X1.700000*%
%ADD14C,1.900000*%
%ADD15C,4.000000*%
%ADD16O,2.000000X2.500000*%
%ADD17O,2.500000X2.000000*%
%ADD18C,1.600000*%
%ADD19O,1.600000X1.600000*%
%ADD20C,1.524000*%
%ADD21O,2.900000X3.000000*%
%ADD22O,1.600000X2.000000*%
%ADD23C,1.700000*%
G04 APERTURE END LIST*
D10*
%TO.C,U1*%
X94419000Y-43056000D03*
D11*
X94119000Y-46086000D03*
X89269000Y-46086000D03*
D10*
X88969000Y-43056000D03*
D12*
X100584000Y-42926000D03*
X100584000Y-45466000D03*
D13*
X100584000Y-48006000D03*
D12*
X100584000Y-50546000D03*
X100584000Y-53086000D03*
X100584000Y-55626000D03*
X100584000Y-58166000D03*
D13*
X100584000Y-60706000D03*
D12*
X100584000Y-63246000D03*
X100584000Y-65786000D03*
X100584000Y-68326000D03*
X100584000Y-70866000D03*
D13*
X100584000Y-73406000D03*
D12*
X100584000Y-75946000D03*
X100584000Y-78486000D03*
X100584000Y-81026000D03*
X100584000Y-83566000D03*
D13*
X100584000Y-86106000D03*
D12*
X100584000Y-88646000D03*
X100584000Y-91186000D03*
X82804000Y-91186000D03*
X82804000Y-88646000D03*
D13*
X82804000Y-86106000D03*
D12*
X82804000Y-83566000D03*
X82804000Y-81026000D03*
X82804000Y-78486000D03*
X82804000Y-75946000D03*
D13*
X82804000Y-73406000D03*
D12*
X82804000Y-70866000D03*
X82804000Y-68326000D03*
X82804000Y-65786000D03*
X82804000Y-63246000D03*
D13*
X82804000Y-60706000D03*
D12*
X82804000Y-58166000D03*
X82804000Y-55626000D03*
X82804000Y-53086000D03*
X82804000Y-50546000D03*
D13*
X82804000Y-48006000D03*
D12*
X82804000Y-45466000D03*
X82804000Y-42926000D03*
%TD*%
D14*
%TO.C,SW1*%
X91440000Y-63870000D03*
D15*
X91440000Y-58790000D03*
D14*
X91440000Y-53710000D03*
D16*
X88900000Y-62600000D03*
X86360000Y-56250000D03*
%TD*%
D14*
%TO.C,SW17*%
X147320000Y-151130000D03*
D15*
X152400000Y-151130000D03*
D14*
X157480000Y-151130000D03*
D17*
X148590000Y-148590000D03*
X154940000Y-146050000D03*
%TD*%
D14*
%TO.C,SW3*%
X86360000Y-110490000D03*
D15*
X91440000Y-110490000D03*
D14*
X96520000Y-110490000D03*
D17*
X87630000Y-107950000D03*
X93980000Y-105410000D03*
%TD*%
D18*
%TO.C,R2*%
X156972000Y-74930000D03*
D19*
X149352000Y-74930000D03*
%TD*%
D14*
%TO.C,SW13*%
X127000000Y-151130000D03*
D15*
X132080000Y-151130000D03*
D14*
X137160000Y-151130000D03*
D17*
X128270000Y-148590000D03*
X134620000Y-146050000D03*
%TD*%
D20*
%TO.C,SW18*%
X152948000Y-66686000D03*
X157948000Y-66686000D03*
X155448000Y-66686000D03*
X152948000Y-52186000D03*
X157948000Y-52186000D03*
D21*
X148848000Y-59186000D03*
X162048000Y-59186000D03*
%TD*%
D18*
%TO.C,C1*%
X143510000Y-64476000D03*
X143510000Y-59476000D03*
%TD*%
%TO.C,C3*%
X143510000Y-51308000D03*
X143510000Y-56308000D03*
%TD*%
D14*
%TO.C,SW10*%
X127000000Y-90170000D03*
D15*
X132080000Y-90170000D03*
D14*
X137160000Y-90170000D03*
D17*
X128270000Y-87630000D03*
X134620000Y-85090000D03*
%TD*%
D18*
%TO.C,R1*%
X140970000Y-68072000D03*
D19*
X148590000Y-68072000D03*
%TD*%
D14*
%TO.C,SW2*%
X86360000Y-90170000D03*
D15*
X91440000Y-90170000D03*
D14*
X96520000Y-90170000D03*
D17*
X87630000Y-87630000D03*
X93980000Y-85090000D03*
%TD*%
D18*
%TO.C,R3*%
X149352000Y-71628000D03*
D19*
X156972000Y-71628000D03*
%TD*%
D18*
%TO.C,R4*%
X156972000Y-78740000D03*
D19*
X149352000Y-78740000D03*
%TD*%
D14*
%TO.C,SW11*%
X127000000Y-110490000D03*
D15*
X132080000Y-110490000D03*
D14*
X137160000Y-110490000D03*
D17*
X128270000Y-107950000D03*
X134620000Y-105410000D03*
%TD*%
D14*
%TO.C,SW7*%
X106680000Y-110490000D03*
D15*
X111760000Y-110490000D03*
D14*
X116840000Y-110490000D03*
D17*
X107950000Y-107950000D03*
X114300000Y-105410000D03*
%TD*%
D22*
%TO.C,Screen*%
X120078000Y-46550000D03*
X122618000Y-46550000D03*
X125158000Y-46550000D03*
X127698000Y-46550000D03*
%TD*%
D14*
%TO.C,SW5*%
X86360000Y-151130000D03*
D15*
X91440000Y-151130000D03*
D14*
X96520000Y-151130000D03*
D17*
X87630000Y-148590000D03*
X93980000Y-146050000D03*
%TD*%
D14*
%TO.C,SW9*%
X106680000Y-151130000D03*
D15*
X111760000Y-151130000D03*
D14*
X116840000Y-151130000D03*
D17*
X107950000Y-148590000D03*
X114300000Y-146050000D03*
%TD*%
D14*
%TO.C,SW12*%
X127000000Y-130810000D03*
D15*
X132080000Y-130810000D03*
D14*
X137160000Y-130810000D03*
D17*
X128270000Y-128270000D03*
X134620000Y-125730000D03*
%TD*%
D18*
%TO.C,R5*%
X140970000Y-48006000D03*
D19*
X148590000Y-48006000D03*
%TD*%
D14*
%TO.C,SW15*%
X147320000Y-110490000D03*
D15*
X152400000Y-110490000D03*
D14*
X157480000Y-110490000D03*
D17*
X148590000Y-107950000D03*
X154940000Y-105410000D03*
%TD*%
D14*
%TO.C,SW8*%
X106680000Y-130810000D03*
D15*
X111760000Y-130810000D03*
D14*
X116840000Y-130810000D03*
D17*
X107950000Y-128270000D03*
X114300000Y-125730000D03*
%TD*%
D14*
%TO.C,SW4*%
X86360000Y-130810000D03*
D15*
X91440000Y-130810000D03*
D14*
X96520000Y-130810000D03*
D17*
X87630000Y-128270000D03*
X93980000Y-125730000D03*
%TD*%
D14*
%TO.C,SW6*%
X106680000Y-90170000D03*
D15*
X111760000Y-90170000D03*
D14*
X116840000Y-90170000D03*
D17*
X107950000Y-87630000D03*
X114300000Y-85090000D03*
%TD*%
D14*
%TO.C,SW14*%
X147320000Y-90170000D03*
D15*
X152400000Y-90170000D03*
D14*
X157480000Y-90170000D03*
D17*
X148590000Y-87630000D03*
X154940000Y-85090000D03*
%TD*%
D18*
%TO.C,C2*%
X146558000Y-76708000D03*
X141558000Y-76708000D03*
%TD*%
D14*
%TO.C,SW16*%
X147320000Y-130810000D03*
D15*
X152400000Y-130810000D03*
D14*
X157480000Y-130810000D03*
D17*
X148590000Y-128270000D03*
X154940000Y-125730000D03*
%TD*%
D23*
%TO.C,J1*%
X133858000Y-43327500D03*
X133858000Y-50327500D03*
%TD*%
D18*
%TO.C,R6*%
X126746000Y-43180000D03*
D19*
X119126000Y-43180000D03*
%TD*%
D18*
%TO.C,R7*%
X136906000Y-59436000D03*
D19*
X129286000Y-59436000D03*
%TD*%
M02*
