M48
; DRILL file {KiCad 7.0.7} date 2023 September 12, Tuesday 14:39:45
; FORMAT={-:-/ absolute / metric / decimal}
; #@! TF.CreationDate,2023-09-12T14:39:45-06:00
; #@! TF.GenerationSoftware,Kicad,Pcbnew,7.0.7
; #@! TF.FileFunction,Plated,1,2,PTH
FMAT,2
METRIC
; #@! TA.AperFunction,Plated,PTH,ViaDrill
T1C0.381
; #@! TA.AperFunction,Plated,PTH,ComponentDrill
T2C0.800
; #@! TA.AperFunction,Plated,PTH,ComponentDrill
T3C1.000
; #@! TA.AperFunction,Plated,PTH,ComponentDrill
T4C1.020
; #@! TA.AperFunction,Plated,PTH,ComponentDrill
T5C2.600
%
G90
G05
T1
X86.868Y-94.488
X92.71Y-87.63
X93.98Y-67.31
X93.98Y-93.472
X94.742Y-61.722
X95.531Y-48.26
X96.315Y-84.34
X96.792Y-86.886
X97.001Y-46.736
X97.536Y-67.564
X97.79Y-83.058
X97.808Y-85.87
X97.908Y-94.488
X98.361Y-73.152
X98.563Y-93.713
X99.06Y-95.504
X99.314Y-109.22
X100.33Y-106.934
X100.584Y-96.774
X105.664Y-53.086
X105.664Y-69.342
X107.188Y-53.086
X107.188Y-65.786
X108.458Y-42.418
X108.458Y-47.498
X108.966Y-72.644
X110.0Y-65.768
X113.03Y-96.012
X113.284Y-121.92
X115.316Y-96.012
X120.423Y-81.026
X120.65Y-63.5
X120.65Y-68.072
X121.412Y-121.92
X122.428Y-63.246
X122.428Y-68.326
X122.908Y-81.026
T2
X119.126Y-43.18
X126.746Y-43.18
X129.286Y-59.436
X136.906Y-59.436
X140.97Y-48.006
X140.97Y-68.072
X141.558Y-76.708
X143.51Y-51.308
X143.51Y-56.308
X143.51Y-59.476
X143.51Y-64.476
X146.558Y-76.708
X148.59Y-48.006
X148.59Y-68.072
X149.352Y-71.628
X149.352Y-74.93
X149.352Y-78.74
X156.972Y-71.628
X156.972Y-74.93
X156.972Y-78.74
T3
X120.078Y-46.55
X122.618Y-46.55
X125.158Y-46.55
X127.698Y-46.55
X152.948Y-52.186
X152.948Y-66.686
X155.448Y-66.686
X157.948Y-52.186
X157.948Y-66.686
T4
X82.804Y-42.926
X82.804Y-45.466
X82.804Y-48.006
X82.804Y-50.546
X82.804Y-53.086
X82.804Y-55.626
X82.804Y-58.166
X82.804Y-60.706
X82.804Y-63.246
X82.804Y-65.786
X82.804Y-68.326
X82.804Y-70.866
X82.804Y-73.406
X82.804Y-75.946
X82.804Y-78.486
X82.804Y-81.026
X82.804Y-83.566
X82.804Y-86.106
X82.804Y-88.646
X82.804Y-91.186
X100.584Y-42.926
X100.584Y-45.466
X100.584Y-48.006
X100.584Y-50.546
X100.584Y-53.086
X100.584Y-55.626
X100.584Y-58.166
X100.584Y-60.706
X100.584Y-63.246
X100.584Y-65.786
X100.584Y-68.326
X100.584Y-70.866
X100.584Y-73.406
X100.584Y-75.946
X100.584Y-78.486
X100.584Y-81.026
X100.584Y-83.566
X100.584Y-86.106
X100.584Y-88.646
X100.584Y-91.186
T2
X86.36Y-56.45G85X86.36Y-56.05
G05
X87.43Y-87.63G85X87.83Y-87.63
G05
X87.43Y-107.95G85X87.83Y-107.95
G05
X87.43Y-128.27G85X87.83Y-128.27
G05
X87.43Y-148.59G85X87.83Y-148.59
G05
X88.9Y-62.8G85X88.9Y-62.4
G05
X93.78Y-85.09G85X94.18Y-85.09
G05
X93.78Y-105.41G85X94.18Y-105.41
G05
X93.78Y-125.73G85X94.18Y-125.73
G05
X93.78Y-146.05G85X94.18Y-146.05
G05
X107.75Y-87.63G85X108.15Y-87.63
G05
X107.75Y-107.95G85X108.15Y-107.95
G05
X107.75Y-128.27G85X108.15Y-128.27
G05
X107.75Y-148.59G85X108.15Y-148.59
G05
X114.1Y-85.09G85X114.5Y-85.09
G05
X114.1Y-105.41G85X114.5Y-105.41
G05
X114.1Y-125.73G85X114.5Y-125.73
G05
X114.1Y-146.05G85X114.5Y-146.05
G05
X128.07Y-87.63G85X128.47Y-87.63
G05
X128.07Y-107.95G85X128.47Y-107.95
G05
X128.07Y-128.27G85X128.47Y-128.27
G05
X128.07Y-148.59G85X128.47Y-148.59
G05
X134.42Y-85.09G85X134.82Y-85.09
G05
X134.42Y-105.41G85X134.82Y-105.41
G05
X134.42Y-125.73G85X134.82Y-125.73
G05
X134.42Y-146.05G85X134.82Y-146.05
G05
X148.39Y-87.63G85X148.79Y-87.63
G05
X148.39Y-107.95G85X148.79Y-107.95
G05
X148.39Y-128.27G85X148.79Y-128.27
G05
X148.39Y-148.59G85X148.79Y-148.59
G05
X154.74Y-85.09G85X155.14Y-85.09
G05
X154.74Y-105.41G85X155.14Y-105.41
G05
X154.74Y-125.73G85X155.14Y-125.73
G05
X154.74Y-146.05G85X155.14Y-146.05
G05
T5
X148.848Y-59.186G85X148.848Y-59.186
G05
X162.048Y-59.186G85X162.048Y-59.186
G05
T0
M30
