  0
SECTION
  2
HEADER
  9
$ANGBASE
  50
0.0
  9
$ANGDIR
  70
1
  9
$MEASUREMENT
  70
1
  0
ENDSEC
  0
SECTION
  2
TABLES
  0
TABLE
  2
LTYPE
  70
4
  0
LTYPE
  5
40F
  2
CONTINUOUS
  70
0
  3
Solid line
  72
65
  73
0
  40
0.0
  0
LTYPE
  5
410
  2
DASHDOT
 70
0
  3
Dash Dot ____ _ ____ _
 72
65
 73
4
 40
2.0
 49
1.25
 49
-0.25
 49
0.25
 49
-0.25
  0
LTYPE
  5
411
  2
DASHED
 70
0
  3
Dashed __ __ __ __ __
 72
65
 73
2
 40
0.75
 49
0.5
 49
-0.25
  0
LTYPE
  5
43B
  2
DOTTED
 70
0
  3
Dotted .  .  .  .
 72
65
 73
2
 40
0.2
 49
0.0
 49
-0.2
  0
ENDTAB
  0
TABLE
  2
STYLE
  70
4
  0
STYLE
  2
KICAD
  70
0
  40
0
  41
1
  42
1
  50
0
  71
0
  3
isocp.shx
  0
STYLE
  2
KICADB
  70
0
  40
0
  41
1
  42
1
  50
0
  71
0
  3
isocp.shx
  0
STYLE
  2
KICADI
  70
0
  40
0
  41
1
  42
1
  50
15
  71
0
  3
isocp.shx
  0
STYLE
  2
KICADBI
  70
0
  40
0
  41
1
  42
1
  50
15
  71
0
  3
isocp.shx
  0
ENDTAB
  0
TABLE
  2
LAYER
  70
1
  0
LAYER
  2
BLACK
  70
0
  62
7
  6
CONTINUOUS
  0
ENDTAB
  0
ENDSEC
  0
SECTION
  2
ENTITIES
0
CIRCLE
8
BLACK
10
167.64
20
-161.798
40
1.55
0
LINE
8
BLACK
6
CONTINUOUS
10
74.676
20
-38.608
11
169.418
21
-38.608
0
LINE
8
BLACK
6
CONTINUOUS
10
169.418
20
-38.608
11
169.418
21
-163.576
0
LINE
8
BLACK
6
CONTINUOUS
10
169.418
20
-163.576
11
74.676
21
-163.576
0
LINE
8
BLACK
6
CONTINUOUS
10
74.676
20
-163.576
11
74.676
21
-38.608
0
CIRCLE
8
BLACK
10
76.454
20
-40.386
40
1.55
0
CIRCLE
8
BLACK
10
167.64
20
-40.386
40
1.55
0
CIRCLE
8
BLACK
10
76.454
20
-161.798
40
1.55
0
LINE
8
BLACK
6
CONTINUOUS
10
86.6775
20
-94.2975
11
87.0585
21
-94.6785
0
LINE
8
BLACK
6
CONTINUOUS
10
87.0585
20
-94.2975
11
86.6775
21
-94.6785
0
LINE
8
BLACK
6
CONTINUOUS
10
92.5195
20
-87.4395
11
92.9005
21
-87.8205
0
LINE
8
BLACK
6
CONTINUOUS
10
92.9005
20
-87.4395
11
92.5195
21
-87.8205
0
LINE
8
BLACK
6
CONTINUOUS
10
93.7895
20
-67.1195
11
94.1705
21
-67.5005
0
LINE
8
BLACK
6
CONTINUOUS
10
94.1705
20
-67.1195
11
93.7895
21
-67.5005
0
LINE
8
BLACK
6
CONTINUOUS
10
93.7895
20
-93.2815
11
94.1705
21
-93.6625
0
LINE
8
BLACK
6
CONTINUOUS
10
94.1705
20
-93.2815
11
93.7895
21
-93.6625
0
LINE
8
BLACK
6
CONTINUOUS
10
94.5515
20
-61.5315
11
94.9325
21
-61.9125
0
LINE
8
BLACK
6
CONTINUOUS
10
94.9325
20
-61.5315
11
94.5515
21
-61.9125
0
LINE
8
BLACK
6
CONTINUOUS
10
95.341
20
-48.0695
11
95.722
21
-48.4505
0
LINE
8
BLACK
6
CONTINUOUS
10
95.722
20
-48.0695
11
95.341
21
-48.4505
0
LINE
8
BLACK
6
CONTINUOUS
10
96.1244
20
-84.1494
11
96.5054
21
-84.5304
0
LINE
8
BLACK
6
CONTINUOUS
10
96.5054
20
-84.1494
11
96.1244
21
-84.5304
0
LINE
8
BLACK
6
CONTINUOUS
10
96.6012
20
-86.6952
11
96.9822
21
-87.0762
0
LINE
8
BLACK
6
CONTINUOUS
10
96.9822
20
-86.6952
11
96.6012
21
-87.0762
0
LINE
8
BLACK
6
CONTINUOUS
10
96.81
20
-46.5455
11
97.191
21
-46.9265
0
LINE
8
BLACK
6
CONTINUOUS
10
97.191
20
-46.5455
11
96.81
21
-46.9265
0
LINE
8
BLACK
6
CONTINUOUS
10
97.3455
20
-67.3735
11
97.7265
21
-67.7545
0
LINE
8
BLACK
6
CONTINUOUS
10
97.7265
20
-67.3735
11
97.3455
21
-67.7545
0
LINE
8
BLACK
6
CONTINUOUS
10
97.5995
20
-82.8675
11
97.9805
21
-83.2485
0
LINE
8
BLACK
6
CONTINUOUS
10
97.9805
20
-82.8675
11
97.5995
21
-83.2485
0
LINE
8
BLACK
6
CONTINUOUS
10
97.6172
20
-85.6792
11
97.9982
21
-86.0602
0
LINE
8
BLACK
6
CONTINUOUS
10
97.9982
20
-85.6792
11
97.6172
21
-86.0602
0
LINE
8
BLACK
6
CONTINUOUS
10
97.717
20
-94.2975
11
98.098
21
-94.6785
0
LINE
8
BLACK
6
CONTINUOUS
10
98.098
20
-94.2975
11
97.717
21
-94.6785
0
LINE
8
BLACK
6
CONTINUOUS
10
98.1706
20
-72.9615
11
98.5516
21
-73.3425
0
LINE
8
BLACK
6
CONTINUOUS
10
98.5516
20
-72.9615
11
98.1706
21
-73.3425
0
LINE
8
BLACK
6
CONTINUOUS
10
98.3728
20
-93.5221
11
98.7538
21
-93.9031
0
LINE
8
BLACK
6
CONTINUOUS
10
98.7538
20
-93.5221
11
98.3728
21
-93.9031
0
LINE
8
BLACK
6
CONTINUOUS
10
98.8695
20
-95.3135
11
99.2505
21
-95.6945
0
LINE
8
BLACK
6
CONTINUOUS
10
99.2505
20
-95.3135
11
98.8695
21
-95.6945
0
LINE
8
BLACK
6
CONTINUOUS
10
99.1235
20
-109.029
11
99.5045
21
-109.41
0
LINE
8
BLACK
6
CONTINUOUS
10
99.5045
20
-109.029
11
99.1235
21
-109.41
0
LINE
8
BLACK
6
CONTINUOUS
10
100.139
20
-106.743
11
100.52
21
-107.124
0
LINE
8
BLACK
6
CONTINUOUS
10
100.52
20
-106.743
11
100.139
21
-107.124
0
LINE
8
BLACK
6
CONTINUOUS
10
100.393
20
-96.5835
11
100.774
21
-96.9645
0
LINE
8
BLACK
6
CONTINUOUS
10
100.774
20
-96.5835
11
100.393
21
-96.9645
0
LINE
8
BLACK
6
CONTINUOUS
10
105.474
20
-52.8955
11
105.855
21
-53.2765
0
LINE
8
BLACK
6
CONTINUOUS
10
105.855
20
-52.8955
11
105.474
21
-53.2765
0
LINE
8
BLACK
6
CONTINUOUS
10
105.474
20
-69.1515
11
105.855
21
-69.5325
0
LINE
8
BLACK
6
CONTINUOUS
10
105.855
20
-69.1515
11
105.474
21
-69.5325
0
LINE
8
BLACK
6
CONTINUOUS
10
106.997
20
-52.8955
11
107.378
21
-53.2765
0
LINE
8
BLACK
6
CONTINUOUS
10
107.378
20
-52.8955
11
106.997
21
-53.2765
0
LINE
8
BLACK
6
CONTINUOUS
10
106.997
20
-65.5955
11
107.378
21
-65.9765
0
LINE
8
BLACK
6
CONTINUOUS
10
107.378
20
-65.5955
11
106.997
21
-65.9765
0
LINE
8
BLACK
6
CONTINUOUS
10
108.267
20
-42.2275
11
108.648
21
-42.6085
0
LINE
8
BLACK
6
CONTINUOUS
10
108.648
20
-42.2275
11
108.267
21
-42.6085
0
LINE
8
BLACK
6
CONTINUOUS
10
108.267
20
-47.3075
11
108.648
21
-47.6885
0
LINE
8
BLACK
6
CONTINUOUS
10
108.648
20
-47.3075
11
108.267
21
-47.6885
0
LINE
8
BLACK
6
CONTINUOUS
10
108.775
20
-72.4535
11
109.156
21
-72.8345
0
LINE
8
BLACK
6
CONTINUOUS
10
109.156
20
-72.4535
11
108.775
21
-72.8345
0
LINE
8
BLACK
6
CONTINUOUS
10
109.809
20
-65.5778
11
110.19
21
-65.9588
0
LINE
8
BLACK
6
CONTINUOUS
10
110.19
20
-65.5778
11
109.809
21
-65.9588
0
LINE
8
BLACK
6
CONTINUOUS
10
112.84
20
-95.8215
11
113.221
21
-96.2025
0
LINE
8
BLACK
6
CONTINUOUS
10
113.221
20
-95.8215
11
112.84
21
-96.2025
0
LINE
8
BLACK
6
CONTINUOUS
10
113.093
20
-121.73
11
113.474
21
-122.11
0
LINE
8
BLACK
6
CONTINUOUS
10
113.474
20
-121.73
11
113.093
21
-122.11
0
LINE
8
BLACK
6
CONTINUOUS
10
115.125
20
-95.8215
11
115.506
21
-96.2025
0
LINE
8
BLACK
6
CONTINUOUS
10
115.506
20
-95.8215
11
115.125
21
-96.2025
0
LINE
8
BLACK
6
CONTINUOUS
10
120.233
20
-80.8355
11
120.614
21
-81.2165
0
LINE
8
BLACK
6
CONTINUOUS
10
120.614
20
-80.8355
11
120.233
21
-81.2165
0
LINE
8
BLACK
6
CONTINUOUS
10
120.459
20
-63.3095
11
120.84
21
-63.6905
0
LINE
8
BLACK
6
CONTINUOUS
10
120.84
20
-63.3095
11
120.459
21
-63.6905
0
LINE
8
BLACK
6
CONTINUOUS
10
120.459
20
-67.8815
11
120.84
21
-68.2625
0
LINE
8
BLACK
6
CONTINUOUS
10
120.84
20
-67.8815
11
120.459
21
-68.2625
0
LINE
8
BLACK
6
CONTINUOUS
10
121.221
20
-121.73
11
121.602
21
-122.11
0
LINE
8
BLACK
6
CONTINUOUS
10
121.602
20
-121.73
11
121.221
21
-122.11
0
LINE
8
BLACK
6
CONTINUOUS
10
122.237
20
-63.0555
11
122.618
21
-63.4365
0
LINE
8
BLACK
6
CONTINUOUS
10
122.618
20
-63.0555
11
122.237
21
-63.4365
0
LINE
8
BLACK
6
CONTINUOUS
10
122.237
20
-68.1355
11
122.618
21
-68.5165
0
LINE
8
BLACK
6
CONTINUOUS
10
122.618
20
-68.1355
11
122.237
21
-68.5165
0
LINE
8
BLACK
6
CONTINUOUS
10
122.718
20
-80.8355
11
123.099
21
-81.2165
0
LINE
8
BLACK
6
CONTINUOUS
10
123.099
20
-80.8355
11
122.718
21
-81.2165
0
CIRCLE
8
BLACK
10
86.36
20
-56.25
40
0.4
0
LINE
8
BLACK
6
CONTINUOUS
10
86.76
20
-56.45
11
86.76
21
-56.05
0
ARC
8
BLACK
10
86.36
20
-56.05
40
0.4
50
360
51
540
0
LINE
8
BLACK
6
CONTINUOUS
10
85.96
20
-56.05
11
85.96
21
-56.45
0
ARC
8
BLACK
10
86.36
20
-56.45
40
0.4
50
180
51
360
0
CIRCLE
8
BLACK
10
87.63
20
-87.63
40
0.4
0
LINE
8
BLACK
6
CONTINUOUS
10
87.43
20
-88.03
11
87.83
21
-88.03
0
ARC
8
BLACK
10
87.83
20
-87.63
40
0.4
50
270
51
450
0
LINE
8
BLACK
6
CONTINUOUS
10
87.83
20
-87.23
11
87.43
21
-87.23
0
ARC
8
BLACK
10
87.43
20
-87.63
40
0.4
50
90
51
270
0
CIRCLE
8
BLACK
10
87.63
20
-107.95
40
0.4
0
LINE
8
BLACK
6
CONTINUOUS
10
87.43
20
-108.35
11
87.83
21
-108.35
0
ARC
8
BLACK
10
87.83
20
-107.95
40
0.4
50
270
51
450
0
LINE
8
BLACK
6
CONTINUOUS
10
87.83
20
-107.55
11
87.43
21
-107.55
0
ARC
8
BLACK
10
87.43
20
-107.95
40
0.4
50
90
51
270
0
CIRCLE
8
BLACK
10
87.63
20
-128.27
40
0.4
0
LINE
8
BLACK
6
CONTINUOUS
10
87.43
20
-128.67
11
87.83
21
-128.67
0
ARC
8
BLACK
10
87.83
20
-128.27
40
0.4
50
270
51
450
0
LINE
8
BLACK
6
CONTINUOUS
10
87.83
20
-127.87
11
87.43
21
-127.87
0
ARC
8
BLACK
10
87.43
20
-128.27
40
0.4
50
90
51
270
0
CIRCLE
8
BLACK
10
87.63
20
-148.59
40
0.4
0
LINE
8
BLACK
6
CONTINUOUS
10
87.43
20
-148.99
11
87.83
21
-148.99
0
ARC
8
BLACK
10
87.83
20
-148.59
40
0.4
50
270
51
450
0
LINE
8
BLACK
6
CONTINUOUS
10
87.83
20
-148.19
11
87.43
21
-148.19
0
ARC
8
BLACK
10
87.43
20
-148.59
40
0.4
50
90
51
270
0
CIRCLE
8
BLACK
10
88.9
20
-62.6
40
0.4
0
LINE
8
BLACK
6
CONTINUOUS
10
89.3
20
-62.8
11
89.3
21
-62.4
0
ARC
8
BLACK
10
88.9
20
-62.4
40
0.4
50
360
51
540
0
LINE
8
BLACK
6
CONTINUOUS
10
88.5
20
-62.4
11
88.5
21
-62.8
0
ARC
8
BLACK
10
88.9
20
-62.8
40
0.4
50
180
51
360
0
CIRCLE
8
BLACK
10
93.98
20
-85.09
40
0.4
0
LINE
8
BLACK
6
CONTINUOUS
10
93.78
20
-85.49
11
94.18
21
-85.49
0
ARC
8
BLACK
10
94.18
20
-85.09
40
0.4
50
270
51
450
0
LINE
8
BLACK
6
CONTINUOUS
10
94.18
20
-84.69
11
93.78
21
-84.69
0
ARC
8
BLACK
10
93.78
20
-85.09
40
0.4
50
90
51
270
0
CIRCLE
8
BLACK
10
93.98
20
-105.41
40
0.4
0
LINE
8
BLACK
6
CONTINUOUS
10
93.78
20
-105.81
11
94.18
21
-105.81
0
ARC
8
BLACK
10
94.18
20
-105.41
40
0.4
50
270
51
450
0
LINE
8
BLACK
6
CONTINUOUS
10
94.18
20
-105.01
11
93.78
21
-105.01
0
ARC
8
BLACK
10
93.78
20
-105.41
40
0.4
50
90
51
270
0
CIRCLE
8
BLACK
10
93.98
20
-125.73
40
0.4
0
LINE
8
BLACK
6
CONTINUOUS
10
93.78
20
-126.13
11
94.18
21
-126.13
0
ARC
8
BLACK
10
94.18
20
-125.73
40
0.4
50
270
51
450
0
LINE
8
BLACK
6
CONTINUOUS
10
94.18
20
-125.33
11
93.78
21
-125.33
0
ARC
8
BLACK
10
93.78
20
-125.73
40
0.4
50
90
51
270
0
CIRCLE
8
BLACK
10
93.98
20
-146.05
40
0.4
0
LINE
8
BLACK
6
CONTINUOUS
10
93.78
20
-146.45
11
94.18
21
-146.45
0
ARC
8
BLACK
10
94.18
20
-146.05
40
0.4
50
270
51
450
0
LINE
8
BLACK
6
CONTINUOUS
10
94.18
20
-145.65
11
93.78
21
-145.65
0
ARC
8
BLACK
10
93.78
20
-146.05
40
0.4
50
90
51
270
0
CIRCLE
8
BLACK
10
107.95
20
-87.63
40
0.4
0
LINE
8
BLACK
6
CONTINUOUS
10
107.75
20
-88.03
11
108.15
21
-88.03
0
ARC
8
BLACK
10
108.15
20
-87.63
40
0.4
50
270
51
450
0
LINE
8
BLACK
6
CONTINUOUS
10
108.15
20
-87.23
11
107.75
21
-87.23
0
ARC
8
BLACK
10
107.75
20
-87.63
40
0.4
50
90
51
270
0
CIRCLE
8
BLACK
10
107.95
20
-107.95
40
0.4
0
LINE
8
BLACK
6
CONTINUOUS
10
107.75
20
-108.35
11
108.15
21
-108.35
0
ARC
8
BLACK
10
108.15
20
-107.95
40
0.4
50
270
51
450
0
LINE
8
BLACK
6
CONTINUOUS
10
108.15
20
-107.55
11
107.75
21
-107.55
0
ARC
8
BLACK
10
107.75
20
-107.95
40
0.4
50
90
51
270
0
CIRCLE
8
BLACK
10
107.95
20
-128.27
40
0.4
0
LINE
8
BLACK
6
CONTINUOUS
10
107.75
20
-128.67
11
108.15
21
-128.67
0
ARC
8
BLACK
10
108.15
20
-128.27
40
0.4
50
270
51
450
0
LINE
8
BLACK
6
CONTINUOUS
10
108.15
20
-127.87
11
107.75
21
-127.87
0
ARC
8
BLACK
10
107.75
20
-128.27
40
0.4
50
90
51
270
0
CIRCLE
8
BLACK
10
107.95
20
-148.59
40
0.4
0
LINE
8
BLACK
6
CONTINUOUS
10
107.75
20
-148.99
11
108.15
21
-148.99
0
ARC
8
BLACK
10
108.15
20
-148.59
40
0.4
50
270
51
450
0
LINE
8
BLACK
6
CONTINUOUS
10
108.15
20
-148.19
11
107.75
21
-148.19
0
ARC
8
BLACK
10
107.75
20
-148.59
40
0.4
50
90
51
270
0
CIRCLE
8
BLACK
10
114.3
20
-85.09
40
0.4
0
LINE
8
BLACK
6
CONTINUOUS
10
114.1
20
-85.49
11
114.5
21
-85.49
0
ARC
8
BLACK
10
114.5
20
-85.09
40
0.4
50
270
51
450
0
LINE
8
BLACK
6
CONTINUOUS
10
114.5
20
-84.69
11
114.1
21
-84.69
0
ARC
8
BLACK
10
114.1
20
-85.09
40
0.4
50
90
51
270
0
CIRCLE
8
BLACK
10
114.3
20
-105.41
40
0.4
0
LINE
8
BLACK
6
CONTINUOUS
10
114.1
20
-105.81
11
114.5
21
-105.81
0
ARC
8
BLACK
10
114.5
20
-105.41
40
0.4
50
270
51
450
0
LINE
8
BLACK
6
CONTINUOUS
10
114.5
20
-105.01
11
114.1
21
-105.01
0
ARC
8
BLACK
10
114.1
20
-105.41
40
0.4
50
90
51
270
0
CIRCLE
8
BLACK
10
114.3
20
-125.73
40
0.4
0
LINE
8
BLACK
6
CONTINUOUS
10
114.1
20
-126.13
11
114.5
21
-126.13
0
ARC
8
BLACK
10
114.5
20
-125.73
40
0.4
50
270
51
450
0
LINE
8
BLACK
6
CONTINUOUS
10
114.5
20
-125.33
11
114.1
21
-125.33
0
ARC
8
BLACK
10
114.1
20
-125.73
40
0.4
50
90
51
270
0
CIRCLE
8
BLACK
10
114.3
20
-146.05
40
0.4
0
LINE
8
BLACK
6
CONTINUOUS
10
114.1
20
-146.45
11
114.5
21
-146.45
0
ARC
8
BLACK
10
114.5
20
-146.05
40
0.4
50
270
51
450
0
LINE
8
BLACK
6
CONTINUOUS
10
114.5
20
-145.65
11
114.1
21
-145.65
0
ARC
8
BLACK
10
114.1
20
-146.05
40
0.4
50
90
51
270
0
CIRCLE
8
BLACK
10
119.126
20
-43.18
40
0.4
0
CIRCLE
8
BLACK
10
126.746
20
-43.18
40
0.4
0
CIRCLE
8
BLACK
10
128.27
20
-87.63
40
0.4
0
LINE
8
BLACK
6
CONTINUOUS
10
128.07
20
-88.03
11
128.47
21
-88.03
0
ARC
8
BLACK
10
128.47
20
-87.63
40
0.4
50
270
51
450
0
LINE
8
BLACK
6
CONTINUOUS
10
128.47
20
-87.23
11
128.07
21
-87.23
0
ARC
8
BLACK
10
128.07
20
-87.63
40
0.4
50
90
51
270
0
CIRCLE
8
BLACK
10
128.27
20
-107.95
40
0.4
0
LINE
8
BLACK
6
CONTINUOUS
10
128.07
20
-108.35
11
128.47
21
-108.35
0
ARC
8
BLACK
10
128.47
20
-107.95
40
0.4
50
270
51
450
0
LINE
8
BLACK
6
CONTINUOUS
10
128.47
20
-107.55
11
128.07
21
-107.55
0
ARC
8
BLACK
10
128.07
20
-107.95
40
0.4
50
90
51
270
0
CIRCLE
8
BLACK
10
128.27
20
-128.27
40
0.4
0
LINE
8
BLACK
6
CONTINUOUS
10
128.07
20
-128.67
11
128.47
21
-128.67
0
ARC
8
BLACK
10
128.47
20
-128.27
40
0.4
50
270
51
450
0
LINE
8
BLACK
6
CONTINUOUS
10
128.47
20
-127.87
11
128.07
21
-127.87
0
ARC
8
BLACK
10
128.07
20
-128.27
40
0.4
50
90
51
270
0
CIRCLE
8
BLACK
10
128.27
20
-148.59
40
0.4
0
LINE
8
BLACK
6
CONTINUOUS
10
128.07
20
-148.99
11
128.47
21
-148.99
0
ARC
8
BLACK
10
128.47
20
-148.59
40
0.4
50
270
51
450
0
LINE
8
BLACK
6
CONTINUOUS
10
128.47
20
-148.19
11
128.07
21
-148.19
0
ARC
8
BLACK
10
128.07
20
-148.59
40
0.4
50
90
51
270
0
CIRCLE
8
BLACK
10
129.286
20
-59.436
40
0.4
0
CIRCLE
8
BLACK
10
134.62
20
-85.09
40
0.4
0
LINE
8
BLACK
6
CONTINUOUS
10
134.42
20
-85.49
11
134.82
21
-85.49
0
ARC
8
BLACK
10
134.82
20
-85.09
40
0.4
50
270
51
450
0
LINE
8
BLACK
6
CONTINUOUS
10
134.82
20
-84.69
11
134.42
21
-84.69
0
ARC
8
BLACK
10
134.42
20
-85.09
40
0.4
50
90
51
270
0
CIRCLE
8
BLACK
10
134.62
20
-105.41
40
0.4
0
LINE
8
BLACK
6
CONTINUOUS
10
134.42
20
-105.81
11
134.82
21
-105.81
0
ARC
8
BLACK
10
134.82
20
-105.41
40
0.4
50
270
51
450
0
LINE
8
BLACK
6
CONTINUOUS
10
134.82
20
-105.01
11
134.42
21
-105.01
0
ARC
8
BLACK
10
134.42
20
-105.41
40
0.4
50
90
51
270
0
CIRCLE
8
BLACK
10
134.62
20
-125.73
40
0.4
0
LINE
8
BLACK
6
CONTINUOUS
10
134.42
20
-126.13
11
134.82
21
-126.13
0
ARC
8
BLACK
10
134.82
20
-125.73
40
0.4
50
270
51
450
0
LINE
8
BLACK
6
CONTINUOUS
10
134.82
20
-125.33
11
134.42
21
-125.33
0
ARC
8
BLACK
10
134.42
20
-125.73
40
0.4
50
90
51
270
0
CIRCLE
8
BLACK
10
134.62
20
-146.05
40
0.4
0
LINE
8
BLACK
6
CONTINUOUS
10
134.42
20
-146.45
11
134.82
21
-146.45
0
ARC
8
BLACK
10
134.82
20
-146.05
40
0.4
50
270
51
450
0
LINE
8
BLACK
6
CONTINUOUS
10
134.82
20
-145.65
11
134.42
21
-145.65
0
ARC
8
BLACK
10
134.42
20
-146.05
40
0.4
50
90
51
270
0
CIRCLE
8
BLACK
10
136.906
20
-59.436
40
0.4
0
CIRCLE
8
BLACK
10
140.97
20
-48.006
40
0.4
0
CIRCLE
8
BLACK
10
140.97
20
-68.072
40
0.4
0
CIRCLE
8
BLACK
10
141.558
20
-76.708
40
0.4
0
CIRCLE
8
BLACK
10
143.51
20
-51.308
40
0.4
0
CIRCLE
8
BLACK
10
143.51
20
-56.308
40
0.4
0
CIRCLE
8
BLACK
10
143.51
20
-59.476
40
0.4
0
CIRCLE
8
BLACK
10
143.51
20
-64.476
40
0.4
0
CIRCLE
8
BLACK
10
146.558
20
-76.708
40
0.4
0
CIRCLE
8
BLACK
10
148.59
20
-48.006
40
0.4
0
CIRCLE
8
BLACK
10
148.59
20
-68.072
40
0.4
0
CIRCLE
8
BLACK
10
148.59
20
-87.63
40
0.4
0
LINE
8
BLACK
6
CONTINUOUS
10
148.39
20
-88.03
11
148.79
21
-88.03
0
ARC
8
BLACK
10
148.79
20
-87.63
40
0.4
50
270
51
450
0
LINE
8
BLACK
6
CONTINUOUS
10
148.79
20
-87.23
11
148.39
21
-87.23
0
ARC
8
BLACK
10
148.39
20
-87.63
40
0.4
50
90
51
270
0
CIRCLE
8
BLACK
10
148.59
20
-107.95
40
0.4
0
LINE
8
BLACK
6
CONTINUOUS
10
148.39
20
-108.35
11
148.79
21
-108.35
0
ARC
8
BLACK
10
148.79
20
-107.95
40
0.4
50
270
51
450
0
LINE
8
BLACK
6
CONTINUOUS
10
148.79
20
-107.55
11
148.39
21
-107.55
0
ARC
8
BLACK
10
148.39
20
-107.95
40
0.4
50
90
51
270
0
CIRCLE
8
BLACK
10
148.59
20
-128.27
40
0.4
0
LINE
8
BLACK
6
CONTINUOUS
10
148.39
20
-128.67
11
148.79
21
-128.67
0
ARC
8
BLACK
10
148.79
20
-128.27
40
0.4
50
270
51
450
0
LINE
8
BLACK
6
CONTINUOUS
10
148.79
20
-127.87
11
148.39
21
-127.87
0
ARC
8
BLACK
10
148.39
20
-128.27
40
0.4
50
90
51
270
0
CIRCLE
8
BLACK
10
148.59
20
-148.59
40
0.4
0
LINE
8
BLACK
6
CONTINUOUS
10
148.39
20
-148.99
11
148.79
21
-148.99
0
ARC
8
BLACK
10
148.79
20
-148.59
40
0.4
50
270
51
450
0
LINE
8
BLACK
6
CONTINUOUS
10
148.79
20
-148.19
11
148.39
21
-148.19
0
ARC
8
BLACK
10
148.39
20
-148.59
40
0.4
50
90
51
270
0
CIRCLE
8
BLACK
10
149.352
20
-71.628
40
0.4
0
CIRCLE
8
BLACK
10
149.352
20
-74.93
40
0.4
0
CIRCLE
8
BLACK
10
149.352
20
-78.74
40
0.4
0
CIRCLE
8
BLACK
10
154.94
20
-85.09
40
0.4
0
LINE
8
BLACK
6
CONTINUOUS
10
154.74
20
-85.49
11
155.14
21
-85.49
0
ARC
8
BLACK
10
155.14
20
-85.09
40
0.4
50
270
51
450
0
LINE
8
BLACK
6
CONTINUOUS
10
155.14
20
-84.69
11
154.74
21
-84.69
0
ARC
8
BLACK
10
154.74
20
-85.09
40
0.4
50
90
51
270
0
CIRCLE
8
BLACK
10
154.94
20
-105.41
40
0.4
0
LINE
8
BLACK
6
CONTINUOUS
10
154.74
20
-105.81
11
155.14
21
-105.81
0
ARC
8
BLACK
10
155.14
20
-105.41
40
0.4
50
270
51
450
0
LINE
8
BLACK
6
CONTINUOUS
10
155.14
20
-105.01
11
154.74
21
-105.01
0
ARC
8
BLACK
10
154.74
20
-105.41
40
0.4
50
90
51
270
0
CIRCLE
8
BLACK
10
154.94
20
-125.73
40
0.4
0
LINE
8
BLACK
6
CONTINUOUS
10
154.74
20
-126.13
11
155.14
21
-126.13
0
ARC
8
BLACK
10
155.14
20
-125.73
40
0.4
50
270
51
450
0
LINE
8
BLACK
6
CONTINUOUS
10
155.14
20
-125.33
11
154.74
21
-125.33
0
ARC
8
BLACK
10
154.74
20
-125.73
40
0.4
50
90
51
270
0
CIRCLE
8
BLACK
10
154.94
20
-146.05
40
0.4
0
LINE
8
BLACK
6
CONTINUOUS
10
154.74
20
-146.45
11
155.14
21
-146.45
0
ARC
8
BLACK
10
155.14
20
-146.05
40
0.4
50
270
51
450
0
LINE
8
BLACK
6
CONTINUOUS
10
155.14
20
-145.65
11
154.74
21
-145.65
0
ARC
8
BLACK
10
154.74
20
-146.05
40
0.4
50
90
51
270
0
CIRCLE
8
BLACK
10
156.972
20
-71.628
40
0.4
0
CIRCLE
8
BLACK
10
156.972
20
-74.93
40
0.4
0
CIRCLE
8
BLACK
10
156.972
20
-78.74
40
0.4
0
LINE
8
BLACK
6
CONTINUOUS
10
120.078
20
-46.05
11
120.078
21
-47.05
0
LINE
8
BLACK
6
CONTINUOUS
10
119.578
20
-46.55
11
120.578
21
-46.55
0
LINE
8
BLACK
6
CONTINUOUS
10
122.618
20
-46.05
11
122.618
21
-47.05
0
LINE
8
BLACK
6
CONTINUOUS
10
122.118
20
-46.55
11
123.118
21
-46.55
0
LINE
8
BLACK
6
CONTINUOUS
10
125.158
20
-46.05
11
125.158
21
-47.05
0
LINE
8
BLACK
6
CONTINUOUS
10
124.658
20
-46.55
11
125.658
21
-46.55
0
LINE
8
BLACK
6
CONTINUOUS
10
127.698
20
-46.05
11
127.698
21
-47.05
0
LINE
8
BLACK
6
CONTINUOUS
10
127.198
20
-46.55
11
128.198
21
-46.55
0
LINE
8
BLACK
6
CONTINUOUS
10
152.948
20
-51.686
11
152.948
21
-52.686
0
LINE
8
BLACK
6
CONTINUOUS
10
152.448
20
-52.186
11
153.448
21
-52.186
0
LINE
8
BLACK
6
CONTINUOUS
10
152.948
20
-66.186
11
152.948
21
-67.186
0
LINE
8
BLACK
6
CONTINUOUS
10
152.448
20
-66.686
11
153.448
21
-66.686
0
LINE
8
BLACK
6
CONTINUOUS
10
155.448
20
-66.186
11
155.448
21
-67.186
0
LINE
8
BLACK
6
CONTINUOUS
10
154.948
20
-66.686
11
155.948
21
-66.686
0
LINE
8
BLACK
6
CONTINUOUS
10
157.948
20
-51.686
11
157.948
21
-52.686
0
LINE
8
BLACK
6
CONTINUOUS
10
157.448
20
-52.186
11
158.448
21
-52.186
0
LINE
8
BLACK
6
CONTINUOUS
10
157.948
20
-66.186
11
157.948
21
-67.186
0
LINE
8
BLACK
6
CONTINUOUS
10
157.448
20
-66.686
11
158.448
21
-66.686
0
LINE
8
BLACK
6
CONTINUOUS
10
83.1646
20
-43.2866
11
83.1646
21
-42.5654
0
LINE
8
BLACK
6
CONTINUOUS
10
83.1646
20
-42.5654
11
82.4434
21
-42.5654
0
LINE
8
BLACK
6
CONTINUOUS
10
82.4434
20
-42.5654
11
82.4434
21
-43.2866
0
LINE
8
BLACK
6
CONTINUOUS
10
82.4434
20
-43.2866
11
83.1646
21
-43.2866
0
LINE
8
BLACK
6
CONTINUOUS
10
83.1646
20
-45.8266
11
83.1646
21
-45.1054
0
LINE
8
BLACK
6
CONTINUOUS
10
83.1646
20
-45.1054
11
82.4434
21
-45.1054
0
LINE
8
BLACK
6
CONTINUOUS
10
82.4434
20
-45.1054
11
82.4434
21
-45.8266
0
LINE
8
BLACK
6
CONTINUOUS
10
82.4434
20
-45.8266
11
83.1646
21
-45.8266
0
LINE
8
BLACK
6
CONTINUOUS
10
83.1646
20
-48.3666
11
83.1646
21
-47.6454
0
LINE
8
BLACK
6
CONTINUOUS
10
83.1646
20
-47.6454
11
82.4434
21
-47.6454
0
LINE
8
BLACK
6
CONTINUOUS
10
82.4434
20
-47.6454
11
82.4434
21
-48.3666
0
LINE
8
BLACK
6
CONTINUOUS
10
82.4434
20
-48.3666
11
83.1646
21
-48.3666
0
LINE
8
BLACK
6
CONTINUOUS
10
83.1646
20
-50.9066
11
83.1646
21
-50.1854
0
LINE
8
BLACK
6
CONTINUOUS
10
83.1646
20
-50.1854
11
82.4434
21
-50.1854
0
LINE
8
BLACK
6
CONTINUOUS
10
82.4434
20
-50.1854
11
82.4434
21
-50.9066
0
LINE
8
BLACK
6
CONTINUOUS
10
82.4434
20
-50.9066
11
83.1646
21
-50.9066
0
LINE
8
BLACK
6
CONTINUOUS
10
83.1646
20
-53.4466
11
83.1646
21
-52.7254
0
LINE
8
BLACK
6
CONTINUOUS
10
83.1646
20
-52.7254
11
82.4434
21
-52.7254
0
LINE
8
BLACK
6
CONTINUOUS
10
82.4434
20
-52.7254
11
82.4434
21
-53.4466
0
LINE
8
BLACK
6
CONTINUOUS
10
82.4434
20
-53.4466
11
83.1646
21
-53.4466
0
LINE
8
BLACK
6
CONTINUOUS
10
83.1646
20
-55.9866
11
83.1646
21
-55.2654
0
LINE
8
BLACK
6
CONTINUOUS
10
83.1646
20
-55.2654
11
82.4434
21
-55.2654
0
LINE
8
BLACK
6
CONTINUOUS
10
82.4434
20
-55.2654
11
82.4434
21
-55.9866
0
LINE
8
BLACK
6
CONTINUOUS
10
82.4434
20
-55.9866
11
83.1646
21
-55.9866
0
LINE
8
BLACK
6
CONTINUOUS
10
83.1646
20
-58.5266
11
83.1646
21
-57.8054
0
LINE
8
BLACK
6
CONTINUOUS
10
83.1646
20
-57.8054
11
82.4434
21
-57.8054
0
LINE
8
BLACK
6
CONTINUOUS
10
82.4434
20
-57.8054
11
82.4434
21
-58.5266
0
LINE
8
BLACK
6
CONTINUOUS
10
82.4434
20
-58.5266
11
83.1646
21
-58.5266
0
LINE
8
BLACK
6
CONTINUOUS
10
83.1646
20
-61.0666
11
83.1646
21
-60.3454
0
LINE
8
BLACK
6
CONTINUOUS
10
83.1646
20
-60.3454
11
82.4434
21
-60.3454
0
LINE
8
BLACK
6
CONTINUOUS
10
82.4434
20
-60.3454
11
82.4434
21
-61.0666
0
LINE
8
BLACK
6
CONTINUOUS
10
82.4434
20
-61.0666
11
83.1646
21
-61.0666
0
LINE
8
BLACK
6
CONTINUOUS
10
83.1646
20
-63.6066
11
83.1646
21
-62.8854
0
LINE
8
BLACK
6
CONTINUOUS
10
83.1646
20
-62.8854
11
82.4434
21
-62.8854
0
LINE
8
BLACK
6
CONTINUOUS
10
82.4434
20
-62.8854
11
82.4434
21
-63.6066
0
LINE
8
BLACK
6
CONTINUOUS
10
82.4434
20
-63.6066
11
83.1646
21
-63.6066
0
LINE
8
BLACK
6
CONTINUOUS
10
83.1646
20
-66.1466
11
83.1646
21
-65.4254
0
LINE
8
BLACK
6
CONTINUOUS
10
83.1646
20
-65.4254
11
82.4434
21
-65.4254
0
LINE
8
BLACK
6
CONTINUOUS
10
82.4434
20
-65.4254
11
82.4434
21
-66.1466
0
LINE
8
BLACK
6
CONTINUOUS
10
82.4434
20
-66.1466
11
83.1646
21
-66.1466
0
LINE
8
BLACK
6
CONTINUOUS
10
83.1646
20
-68.6866
11
83.1646
21
-67.9654
0
LINE
8
BLACK
6
CONTINUOUS
10
83.1646
20
-67.9654
11
82.4434
21
-67.9654
0
LINE
8
BLACK
6
CONTINUOUS
10
82.4434
20
-67.9654
11
82.4434
21
-68.6866
0
LINE
8
BLACK
6
CONTINUOUS
10
82.4434
20
-68.6866
11
83.1646
21
-68.6866
0
LINE
8
BLACK
6
CONTINUOUS
10
83.1646
20
-71.2266
11
83.1646
21
-70.5054
0
LINE
8
BLACK
6
CONTINUOUS
10
83.1646
20
-70.5054
11
82.4434
21
-70.5054
0
LINE
8
BLACK
6
CONTINUOUS
10
82.4434
20
-70.5054
11
82.4434
21
-71.2266
0
LINE
8
BLACK
6
CONTINUOUS
10
82.4434
20
-71.2266
11
83.1646
21
-71.2266
0
LINE
8
BLACK
6
CONTINUOUS
10
83.1646
20
-73.7666
11
83.1646
21
-73.0454
0
LINE
8
BLACK
6
CONTINUOUS
10
83.1646
20
-73.0454
11
82.4434
21
-73.0454
0
LINE
8
BLACK
6
CONTINUOUS
10
82.4434
20
-73.0454
11
82.4434
21
-73.7666
0
LINE
8
BLACK
6
CONTINUOUS
10
82.4434
20
-73.7666
11
83.1646
21
-73.7666
0
LINE
8
BLACK
6
CONTINUOUS
10
83.1646
20
-76.3066
11
83.1646
21
-75.5854
0
LINE
8
BLACK
6
CONTINUOUS
10
83.1646
20
-75.5854
11
82.4434
21
-75.5854
0
LINE
8
BLACK
6
CONTINUOUS
10
82.4434
20
-75.5854
11
82.4434
21
-76.3066
0
LINE
8
BLACK
6
CONTINUOUS
10
82.4434
20
-76.3066
11
83.1646
21
-76.3066
0
LINE
8
BLACK
6
CONTINUOUS
10
83.1646
20
-78.8466
11
83.1646
21
-78.1254
0
LINE
8
BLACK
6
CONTINUOUS
10
83.1646
20
-78.1254
11
82.4434
21
-78.1254
0
LINE
8
BLACK
6
CONTINUOUS
10
82.4434
20
-78.1254
11
82.4434
21
-78.8466
0
LINE
8
BLACK
6
CONTINUOUS
10
82.4434
20
-78.8466
11
83.1646
21
-78.8466
0
LINE
8
BLACK
6
CONTINUOUS
10
83.1646
20
-81.3866
11
83.1646
21
-80.6654
0
LINE
8
BLACK
6
CONTINUOUS
10
83.1646
20
-80.6654
11
82.4434
21
-80.6654
0
LINE
8
BLACK
6
CONTINUOUS
10
82.4434
20
-80.6654
11
82.4434
21
-81.3866
0
LINE
8
BLACK
6
CONTINUOUS
10
82.4434
20
-81.3866
11
83.1646
21
-81.3866
0
LINE
8
BLACK
6
CONTINUOUS
10
83.1646
20
-83.9266
11
83.1646
21
-83.2054
0
LINE
8
BLACK
6
CONTINUOUS
10
83.1646
20
-83.2054
11
82.4434
21
-83.2054
0
LINE
8
BLACK
6
CONTINUOUS
10
82.4434
20
-83.2054
11
82.4434
21
-83.9266
0
LINE
8
BLACK
6
CONTINUOUS
10
82.4434
20
-83.9266
11
83.1646
21
-83.9266
0
LINE
8
BLACK
6
CONTINUOUS
10
83.1646
20
-86.4666
11
83.1646
21
-85.7454
0
LINE
8
BLACK
6
CONTINUOUS
10
83.1646
20
-85.7454
11
82.4434
21
-85.7454
0
LINE
8
BLACK
6
CONTINUOUS
10
82.4434
20
-85.7454
11
82.4434
21
-86.4666
0
LINE
8
BLACK
6
CONTINUOUS
10
82.4434
20
-86.4666
11
83.1646
21
-86.4666
0
LINE
8
BLACK
6
CONTINUOUS
10
83.1646
20
-89.0066
11
83.1646
21
-88.2854
0
LINE
8
BLACK
6
CONTINUOUS
10
83.1646
20
-88.2854
11
82.4434
21
-88.2854
0
LINE
8
BLACK
6
CONTINUOUS
10
82.4434
20
-88.2854
11
82.4434
21
-89.0066
0
LINE
8
BLACK
6
CONTINUOUS
10
82.4434
20
-89.0066
11
83.1646
21
-89.0066
0
LINE
8
BLACK
6
CONTINUOUS
10
83.1646
20
-91.5466
11
83.1646
21
-90.8254
0
LINE
8
BLACK
6
CONTINUOUS
10
83.1646
20
-90.8254
11
82.4434
21
-90.8254
0
LINE
8
BLACK
6
CONTINUOUS
10
82.4434
20
-90.8254
11
82.4434
21
-91.5466
0
LINE
8
BLACK
6
CONTINUOUS
10
82.4434
20
-91.5466
11
83.1646
21
-91.5466
0
LINE
8
BLACK
6
CONTINUOUS
10
100.945
20
-43.2866
11
100.945
21
-42.5654
0
LINE
8
BLACK
6
CONTINUOUS
10
100.945
20
-42.5654
11
100.223
21
-42.5654
0
LINE
8
BLACK
6
CONTINUOUS
10
100.223
20
-42.5654
11
100.223
21
-43.2866
0
LINE
8
BLACK
6
CONTINUOUS
10
100.223
20
-43.2866
11
100.945
21
-43.2866
0
LINE
8
BLACK
6
CONTINUOUS
10
100.945
20
-45.8266
11
100.945
21
-45.1054
0
LINE
8
BLACK
6
CONTINUOUS
10
100.945
20
-45.1054
11
100.223
21
-45.1054
0
LINE
8
BLACK
6
CONTINUOUS
10
100.223
20
-45.1054
11
100.223
21
-45.8266
0
LINE
8
BLACK
6
CONTINUOUS
10
100.223
20
-45.8266
11
100.945
21
-45.8266
0
LINE
8
BLACK
6
CONTINUOUS
10
100.945
20
-48.3666
11
100.945
21
-47.6454
0
LINE
8
BLACK
6
CONTINUOUS
10
100.945
20
-47.6454
11
100.223
21
-47.6454
0
LINE
8
BLACK
6
CONTINUOUS
10
100.223
20
-47.6454
11
100.223
21
-48.3666
0
LINE
8
BLACK
6
CONTINUOUS
10
100.223
20
-48.3666
11
100.945
21
-48.3666
0
LINE
8
BLACK
6
CONTINUOUS
10
100.945
20
-50.9066
11
100.945
21
-50.1854
0
LINE
8
BLACK
6
CONTINUOUS
10
100.945
20
-50.1854
11
100.223
21
-50.1854
0
LINE
8
BLACK
6
CONTINUOUS
10
100.223
20
-50.1854
11
100.223
21
-50.9066
0
LINE
8
BLACK
6
CONTINUOUS
10
100.223
20
-50.9066
11
100.945
21
-50.9066
0
LINE
8
BLACK
6
CONTINUOUS
10
100.945
20
-53.4466
11
100.945
21
-52.7254
0
LINE
8
BLACK
6
CONTINUOUS
10
100.945
20
-52.7254
11
100.223
21
-52.7254
0
LINE
8
BLACK
6
CONTINUOUS
10
100.223
20
-52.7254
11
100.223
21
-53.4466
0
LINE
8
BLACK
6
CONTINUOUS
10
100.223
20
-53.4466
11
100.945
21
-53.4466
0
LINE
8
BLACK
6
CONTINUOUS
10
100.945
20
-55.9866
11
100.945
21
-55.2654
0
LINE
8
BLACK
6
CONTINUOUS
10
100.945
20
-55.2654
11
100.223
21
-55.2654
0
LINE
8
BLACK
6
CONTINUOUS
10
100.223
20
-55.2654
11
100.223
21
-55.9866
0
LINE
8
BLACK
6
CONTINUOUS
10
100.223
20
-55.9866
11
100.945
21
-55.9866
0
LINE
8
BLACK
6
CONTINUOUS
10
100.945
20
-58.5266
11
100.945
21
-57.8054
0
LINE
8
BLACK
6
CONTINUOUS
10
100.945
20
-57.8054
11
100.223
21
-57.8054
0
LINE
8
BLACK
6
CONTINUOUS
10
100.223
20
-57.8054
11
100.223
21
-58.5266
0
LINE
8
BLACK
6
CONTINUOUS
10
100.223
20
-58.5266
11
100.945
21
-58.5266
0
LINE
8
BLACK
6
CONTINUOUS
10
100.945
20
-61.0666
11
100.945
21
-60.3454
0
LINE
8
BLACK
6
CONTINUOUS
10
100.945
20
-60.3454
11
100.223
21
-60.3454
0
LINE
8
BLACK
6
CONTINUOUS
10
100.223
20
-60.3454
11
100.223
21
-61.0666
0
LINE
8
BLACK
6
CONTINUOUS
10
100.223
20
-61.0666
11
100.945
21
-61.0666
0
LINE
8
BLACK
6
CONTINUOUS
10
100.945
20
-63.6066
11
100.945
21
-62.8854
0
LINE
8
BLACK
6
CONTINUOUS
10
100.945
20
-62.8854
11
100.223
21
-62.8854
0
LINE
8
BLACK
6
CONTINUOUS
10
100.223
20
-62.8854
11
100.223
21
-63.6066
0
LINE
8
BLACK
6
CONTINUOUS
10
100.223
20
-63.6066
11
100.945
21
-63.6066
0
LINE
8
BLACK
6
CONTINUOUS
10
100.945
20
-66.1466
11
100.945
21
-65.4254
0
LINE
8
BLACK
6
CONTINUOUS
10
100.945
20
-65.4254
11
100.223
21
-65.4254
0
LINE
8
BLACK
6
CONTINUOUS
10
100.223
20
-65.4254
11
100.223
21
-66.1466
0
LINE
8
BLACK
6
CONTINUOUS
10
100.223
20
-66.1466
11
100.945
21
-66.1466
0
LINE
8
BLACK
6
CONTINUOUS
10
100.945
20
-68.6866
11
100.945
21
-67.9654
0
LINE
8
BLACK
6
CONTINUOUS
10
100.945
20
-67.9654
11
100.223
21
-67.9654
0
LINE
8
BLACK
6
CONTINUOUS
10
100.223
20
-67.9654
11
100.223
21
-68.6866
0
LINE
8
BLACK
6
CONTINUOUS
10
100.223
20
-68.6866
11
100.945
21
-68.6866
0
LINE
8
BLACK
6
CONTINUOUS
10
100.945
20
-71.2266
11
100.945
21
-70.5054
0
LINE
8
BLACK
6
CONTINUOUS
10
100.945
20
-70.5054
11
100.223
21
-70.5054
0
LINE
8
BLACK
6
CONTINUOUS
10
100.223
20
-70.5054
11
100.223
21
-71.2266
0
LINE
8
BLACK
6
CONTINUOUS
10
100.223
20
-71.2266
11
100.945
21
-71.2266
0
LINE
8
BLACK
6
CONTINUOUS
10
100.945
20
-73.7666
11
100.945
21
-73.0454
0
LINE
8
BLACK
6
CONTINUOUS
10
100.945
20
-73.0454
11
100.223
21
-73.0454
0
LINE
8
BLACK
6
CONTINUOUS
10
100.223
20
-73.0454
11
100.223
21
-73.7666
0
LINE
8
BLACK
6
CONTINUOUS
10
100.223
20
-73.7666
11
100.945
21
-73.7666
0
LINE
8
BLACK
6
CONTINUOUS
10
100.945
20
-76.3066
11
100.945
21
-75.5854
0
LINE
8
BLACK
6
CONTINUOUS
10
100.945
20
-75.5854
11
100.223
21
-75.5854
0
LINE
8
BLACK
6
CONTINUOUS
10
100.223
20
-75.5854
11
100.223
21
-76.3066
0
LINE
8
BLACK
6
CONTINUOUS
10
100.223
20
-76.3066
11
100.945
21
-76.3066
0
LINE
8
BLACK
6
CONTINUOUS
10
100.945
20
-78.8466
11
100.945
21
-78.1254
0
LINE
8
BLACK
6
CONTINUOUS
10
100.945
20
-78.1254
11
100.223
21
-78.1254
0
LINE
8
BLACK
6
CONTINUOUS
10
100.223
20
-78.1254
11
100.223
21
-78.8466
0
LINE
8
BLACK
6
CONTINUOUS
10
100.223
20
-78.8466
11
100.945
21
-78.8466
0
LINE
8
BLACK
6
CONTINUOUS
10
100.945
20
-81.3866
11
100.945
21
-80.6654
0
LINE
8
BLACK
6
CONTINUOUS
10
100.945
20
-80.6654
11
100.223
21
-80.6654
0
LINE
8
BLACK
6
CONTINUOUS
10
100.223
20
-80.6654
11
100.223
21
-81.3866
0
LINE
8
BLACK
6
CONTINUOUS
10
100.223
20
-81.3866
11
100.945
21
-81.3866
0
LINE
8
BLACK
6
CONTINUOUS
10
100.945
20
-83.9266
11
100.945
21
-83.2054
0
LINE
8
BLACK
6
CONTINUOUS
10
100.945
20
-83.2054
11
100.223
21
-83.2054
0
LINE
8
BLACK
6
CONTINUOUS
10
100.223
20
-83.2054
11
100.223
21
-83.9266
0
LINE
8
BLACK
6
CONTINUOUS
10
100.223
20
-83.9266
11
100.945
21
-83.9266
0
LINE
8
BLACK
6
CONTINUOUS
10
100.945
20
-86.4666
11
100.945
21
-85.7454
0
LINE
8
BLACK
6
CONTINUOUS
10
100.945
20
-85.7454
11
100.223
21
-85.7454
0
LINE
8
BLACK
6
CONTINUOUS
10
100.223
20
-85.7454
11
100.223
21
-86.4666
0
LINE
8
BLACK
6
CONTINUOUS
10
100.223
20
-86.4666
11
100.945
21
-86.4666
0
LINE
8
BLACK
6
CONTINUOUS
10
100.945
20
-89.0066
11
100.945
21
-88.2854
0
LINE
8
BLACK
6
CONTINUOUS
10
100.945
20
-88.2854
11
100.223
21
-88.2854
0
LINE
8
BLACK
6
CONTINUOUS
10
100.223
20
-88.2854
11
100.223
21
-89.0066
0
LINE
8
BLACK
6
CONTINUOUS
10
100.223
20
-89.0066
11
100.945
21
-89.0066
0
LINE
8
BLACK
6
CONTINUOUS
10
100.945
20
-91.5466
11
100.945
21
-90.8254
0
LINE
8
BLACK
6
CONTINUOUS
10
100.945
20
-90.8254
11
100.223
21
-90.8254
0
LINE
8
BLACK
6
CONTINUOUS
10
100.223
20
-90.8254
11
100.223
21
-91.5466
0
LINE
8
BLACK
6
CONTINUOUS
10
100.223
20
-91.5466
11
100.945
21
-91.5466
0
LINE
8
BLACK
6
CONTINUOUS
10
148.848
20
-60.486
11
150.148
21
-59.186
0
LINE
8
BLACK
6
CONTINUOUS
10
150.148
20
-59.186
11
148.848
21
-57.886
0
LINE
8
BLACK
6
CONTINUOUS
10
148.848
20
-57.886
11
147.548
21
-59.186
0
LINE
8
BLACK
6
CONTINUOUS
10
147.548
20
-59.186
11
148.848
21
-60.486
0
ARC
8
BLACK
10
148.848
20
-59.186
40
1.3
50
180
51
360
0
ARC
8
BLACK
10
148.848
20
-59.186
40
1.3
50
0
51
180
0
LINE
8
BLACK
6
CONTINUOUS
10
162.048
20
-60.486
11
163.348
21
-59.186
0
LINE
8
BLACK
6
CONTINUOUS
10
163.348
20
-59.186
11
162.048
21
-57.886
0
LINE
8
BLACK
6
CONTINUOUS
10
162.048
20
-57.886
11
160.748
21
-59.186
0
LINE
8
BLACK
6
CONTINUOUS
10
160.748
20
-59.186
11
162.048
21
-60.486
0
ARC
8
BLACK
10
162.048
20
-59.186
40
1.3
50
180
51
360
0
ARC
8
BLACK
10
162.048
20
-59.186
40
1.3
50
0
51
180
0
LINE
8
BLACK
6
CONTINUOUS
10
77.2338
20
-166.741
11
77.2338
21
-164.741
0
LINE
8
BLACK
6
CONTINUOUS
10
77.2338
20
-164.741
11
77.71
21
-164.741
0
LINE
8
BLACK
6
CONTINUOUS
10
77.71
20
-164.741
11
77.9957
21
-164.836
0
LINE
8
BLACK
6
CONTINUOUS
10
77.9957
20
-164.836
11
78.1861
21
-165.027
0
LINE
8
BLACK
6
CONTINUOUS
10
78.1861
20
-165.027
11
78.2814
21
-165.217
0
LINE
8
BLACK
6
CONTINUOUS
10
78.2814
20
-165.217
11
78.3766
21
-165.598
0
LINE
8
BLACK
6
CONTINUOUS
10
78.3766
20
-165.598
11
78.3766
21
-165.884
0
LINE
8
BLACK
6
CONTINUOUS
10
78.3766
20
-165.884
11
78.2814
21
-166.265
0
LINE
8
BLACK
6
CONTINUOUS
10
78.2814
20
-166.265
11
78.1861
21
-166.455
0
LINE
8
BLACK
6
CONTINUOUS
10
78.1861
20
-166.455
11
77.9957
21
-166.646
0
LINE
8
BLACK
6
CONTINUOUS
10
77.9957
20
-166.646
11
77.71
21
-166.741
0
LINE
8
BLACK
6
CONTINUOUS
10
77.71
20
-166.741
11
77.2338
21
-166.741
0
LINE
8
BLACK
6
CONTINUOUS
10
79.2338
20
-166.741
11
79.2338
21
-165.408
0
LINE
8
BLACK
6
CONTINUOUS
10
79.2338
20
-165.788
11
79.329
21
-165.598
0
LINE
8
BLACK
6
CONTINUOUS
10
79.329
20
-165.598
11
79.4242
21
-165.503
0
LINE
8
BLACK
6
CONTINUOUS
10
79.4242
20
-165.503
11
79.6147
21
-165.408
0
LINE
8
BLACK
6
CONTINUOUS
10
79.6147
20
-165.408
11
79.8052
21
-165.408
0
LINE
8
BLACK
6
CONTINUOUS
10
80.4719
20
-166.741
11
80.4719
21
-165.408
0
LINE
8
BLACK
6
CONTINUOUS
10
80.4719
20
-164.741
11
80.3766
21
-164.836
0
LINE
8
BLACK
6
CONTINUOUS
10
80.3766
20
-164.836
11
80.4719
21
-164.931
0
LINE
8
BLACK
6
CONTINUOUS
10
80.4719
20
-164.931
11
80.5671
21
-164.836
0
LINE
8
BLACK
6
CONTINUOUS
10
80.5671
20
-164.836
11
80.4719
21
-164.741
0
LINE
8
BLACK
6
CONTINUOUS
10
80.4719
20
-164.741
11
80.4719
21
-164.931
0
LINE
8
BLACK
6
CONTINUOUS
10
81.71
20
-166.741
11
81.5195
21
-166.646
0
LINE
8
BLACK
6
CONTINUOUS
10
81.5195
20
-166.646
11
81.4242
21
-166.455
0
LINE
8
BLACK
6
CONTINUOUS
10
81.4242
20
-166.455
11
81.4242
21
-164.741
0
LINE
8
BLACK
6
CONTINUOUS
10
82.7576
20
-166.741
11
82.5671
21
-166.646
0
LINE
8
BLACK
6
CONTINUOUS
10
82.5671
20
-166.646
11
82.4719
21
-166.455
0
LINE
8
BLACK
6
CONTINUOUS
10
82.4719
20
-166.455
11
82.4719
21
-164.741
0
LINE
8
BLACK
6
CONTINUOUS
10
85.0433
20
-166.741
11
85.0433
21
-164.741
0
LINE
8
BLACK
6
CONTINUOUS
10
85.0433
20
-164.741
11
85.71
21
-166.169
0
LINE
8
BLACK
6
CONTINUOUS
10
85.71
20
-166.169
11
86.3766
21
-164.741
0
LINE
8
BLACK
6
CONTINUOUS
10
86.3766
20
-164.741
11
86.3766
21
-166.741
0
LINE
8
BLACK
6
CONTINUOUS
10
88.1861
20
-166.741
11
88.1861
21
-165.693
0
LINE
8
BLACK
6
CONTINUOUS
10
88.1861
20
-165.693
11
88.0909
21
-165.503
0
LINE
8
BLACK
6
CONTINUOUS
10
88.0909
20
-165.503
11
87.9004
21
-165.408
0
LINE
8
BLACK
6
CONTINUOUS
10
87.9004
20
-165.408
11
87.5195
21
-165.408
0
LINE
8
BLACK
6
CONTINUOUS
10
87.5195
20
-165.408
11
87.329
21
-165.503
0
LINE
8
BLACK
6
CONTINUOUS
10
88.1861
20
-166.646
11
87.9957
21
-166.741
0
LINE
8
BLACK
6
CONTINUOUS
10
87.9957
20
-166.741
11
87.5195
21
-166.741
0
LINE
8
BLACK
6
CONTINUOUS
10
87.5195
20
-166.741
11
87.329
21
-166.646
0
LINE
8
BLACK
6
CONTINUOUS
10
87.329
20
-166.646
11
87.2338
21
-166.455
0
LINE
8
BLACK
6
CONTINUOUS
10
87.2338
20
-166.455
11
87.2338
21
-166.265
0
LINE
8
BLACK
6
CONTINUOUS
10
87.2338
20
-166.265
11
87.329
21
-166.074
0
LINE
8
BLACK
6
CONTINUOUS
10
87.329
20
-166.074
11
87.5195
21
-165.979
0
LINE
8
BLACK
6
CONTINUOUS
10
87.5195
20
-165.979
11
87.9957
21
-165.979
0
LINE
8
BLACK
6
CONTINUOUS
10
87.9957
20
-165.979
11
88.1861
21
-165.884
0
LINE
8
BLACK
6
CONTINUOUS
10
89.1385
20
-165.408
11
89.1385
21
-167.408
0
LINE
8
BLACK
6
CONTINUOUS
10
89.1385
20
-165.503
11
89.329
21
-165.408
0
LINE
8
BLACK
6
CONTINUOUS
10
89.329
20
-165.408
11
89.71
21
-165.408
0
LINE
8
BLACK
6
CONTINUOUS
10
89.71
20
-165.408
11
89.9004
21
-165.503
0
LINE
8
BLACK
6
CONTINUOUS
10
89.9004
20
-165.503
11
89.9957
21
-165.598
0
LINE
8
BLACK
6
CONTINUOUS
10
89.9957
20
-165.598
11
90.0909
21
-165.788
0
LINE
8
BLACK
6
CONTINUOUS
10
90.0909
20
-165.788
11
90.0909
21
-166.36
0
LINE
8
BLACK
6
CONTINUOUS
10
90.0909
20
-166.36
11
89.9957
21
-166.55
0
LINE
8
BLACK
6
CONTINUOUS
10
89.9957
20
-166.55
11
89.9004
21
-166.646
0
LINE
8
BLACK
6
CONTINUOUS
10
89.9004
20
-166.646
11
89.71
21
-166.741
0
LINE
8
BLACK
6
CONTINUOUS
10
89.71
20
-166.741
11
89.329
21
-166.741
0
LINE
8
BLACK
6
CONTINUOUS
10
89.329
20
-166.741
11
89.1385
21
-166.646
0
LINE
8
BLACK
6
CONTINUOUS
10
90.9481
20
-166.55
11
91.0433
21
-166.646
0
LINE
8
BLACK
6
CONTINUOUS
10
91.0433
20
-166.646
11
90.9481
21
-166.741
0
LINE
8
BLACK
6
CONTINUOUS
10
90.9481
20
-166.741
11
90.8528
21
-166.646
0
LINE
8
BLACK
6
CONTINUOUS
10
90.8528
20
-166.646
11
90.9481
21
-166.55
0
LINE
8
BLACK
6
CONTINUOUS
10
90.9481
20
-166.55
11
90.9481
21
-166.741
0
LINE
8
BLACK
6
CONTINUOUS
10
90.9481
20
-165.503
11
91.0433
21
-165.598
0
LINE
8
BLACK
6
CONTINUOUS
10
91.0433
20
-165.598
11
90.9481
21
-165.693
0
LINE
8
BLACK
6
CONTINUOUS
10
90.9481
20
-165.693
11
90.8528
21
-165.598
0
LINE
8
BLACK
6
CONTINUOUS
10
90.8528
20
-165.598
11
90.9481
21
-165.503
0
LINE
8
BLACK
6
CONTINUOUS
10
90.9481
20
-165.503
11
90.9481
21
-165.693
0
LINE
8
BLACK
6
CONTINUOUS
10
74.245
20
-169.835
11
74.626
21
-170.216
0
LINE
8
BLACK
6
CONTINUOUS
10
74.626
20
-169.835
11
74.245
21
-170.216
0
LINE
8
BLACK
6
CONTINUOUS
10
77.6147
20
-168.941
11
77.8052
21
-168.941
0
LINE
8
BLACK
6
CONTINUOUS
10
77.8052
20
-168.941
11
77.9957
21
-169.036
0
LINE
8
BLACK
6
CONTINUOUS
10
77.9957
20
-169.036
11
78.0909
21
-169.131
0
LINE
8
BLACK
6
CONTINUOUS
10
78.0909
20
-169.131
11
78.1861
21
-169.322
0
LINE
8
BLACK
6
CONTINUOUS
10
78.1861
20
-169.322
11
78.2814
21
-169.703
0
LINE
8
BLACK
6
CONTINUOUS
10
78.2814
20
-169.703
11
78.2814
21
-170.179
0
LINE
8
BLACK
6
CONTINUOUS
10
78.2814
20
-170.179
11
78.1861
21
-170.56
0
LINE
8
BLACK
6
CONTINUOUS
10
78.1861
20
-170.56
11
78.0909
21
-170.75
0
LINE
8
BLACK
6
CONTINUOUS
10
78.0909
20
-170.75
11
77.9957
21
-170.846
0
LINE
8
BLACK
6
CONTINUOUS
10
77.9957
20
-170.846
11
77.8052
21
-170.941
0
LINE
8
BLACK
6
CONTINUOUS
10
77.8052
20
-170.941
11
77.6147
21
-170.941
0
LINE
8
BLACK
6
CONTINUOUS
10
77.6147
20
-170.941
11
77.4242
21
-170.846
0
LINE
8
BLACK
6
CONTINUOUS
10
77.4242
20
-170.846
11
77.329
21
-170.75
0
LINE
8
BLACK
6
CONTINUOUS
10
77.329
20
-170.75
11
77.2338
21
-170.56
0
LINE
8
BLACK
6
CONTINUOUS
10
77.2338
20
-170.56
11
77.1385
21
-170.179
0
LINE
8
BLACK
6
CONTINUOUS
10
77.1385
20
-170.179
11
77.1385
21
-169.703
0
LINE
8
BLACK
6
CONTINUOUS
10
77.1385
20
-169.703
11
77.2338
21
-169.322
0
LINE
8
BLACK
6
CONTINUOUS
10
77.2338
20
-169.322
11
77.329
21
-169.131
0
LINE
8
BLACK
6
CONTINUOUS
10
77.329
20
-169.131
11
77.4242
21
-169.036
0
LINE
8
BLACK
6
CONTINUOUS
10
77.4242
20
-169.036
11
77.6147
21
-168.941
0
LINE
8
BLACK
6
CONTINUOUS
10
79.1385
20
-170.75
11
79.2338
21
-170.846
0
LINE
8
BLACK
6
CONTINUOUS
10
79.2338
20
-170.846
11
79.1385
21
-170.941
0
LINE
8
BLACK
6
CONTINUOUS
10
79.1385
20
-170.941
11
79.0433
21
-170.846
0
LINE
8
BLACK
6
CONTINUOUS
10
79.0433
20
-170.846
11
79.1385
21
-170.75
0
LINE
8
BLACK
6
CONTINUOUS
10
79.1385
20
-170.75
11
79.1385
21
-170.941
0
LINE
8
BLACK
6
CONTINUOUS
10
79.9004
20
-168.941
11
81.1385
21
-168.941
0
LINE
8
BLACK
6
CONTINUOUS
10
81.1385
20
-168.941
11
80.4719
21
-169.703
0
LINE
8
BLACK
6
CONTINUOUS
10
80.4719
20
-169.703
11
80.7576
21
-169.703
0
LINE
8
BLACK
6
CONTINUOUS
10
80.7576
20
-169.703
11
80.9481
21
-169.798
0
LINE
8
BLACK
6
CONTINUOUS
10
80.9481
20
-169.798
11
81.0433
21
-169.893
0
LINE
8
BLACK
6
CONTINUOUS
10
81.0433
20
-169.893
11
81.1385
21
-170.084
0
LINE
8
BLACK
6
CONTINUOUS
10
81.1385
20
-170.084
11
81.1385
21
-170.56
0
LINE
8
BLACK
6
CONTINUOUS
10
81.1385
20
-170.56
11
81.0433
21
-170.75
0
LINE
8
BLACK
6
CONTINUOUS
10
81.0433
20
-170.75
11
80.9481
21
-170.846
0
LINE
8
BLACK
6
CONTINUOUS
10
80.9481
20
-170.846
11
80.7576
21
-170.941
0
LINE
8
BLACK
6
CONTINUOUS
10
80.7576
20
-170.941
11
80.1861
21
-170.941
0
LINE
8
BLACK
6
CONTINUOUS
10
80.1861
20
-170.941
11
79.9957
21
-170.846
0
LINE
8
BLACK
6
CONTINUOUS
10
79.9957
20
-170.846
11
79.9004
21
-170.75
0
LINE
8
BLACK
6
CONTINUOUS
10
82.2814
20
-169.798
11
82.0909
21
-169.703
0
LINE
8
BLACK
6
CONTINUOUS
10
82.0909
20
-169.703
11
81.9957
21
-169.608
0
LINE
8
BLACK
6
CONTINUOUS
10
81.9957
20
-169.608
11
81.9004
21
-169.417
0
LINE
8
BLACK
6
CONTINUOUS
10
81.9004
20
-169.417
11
81.9004
21
-169.322
0
LINE
8
BLACK
6
CONTINUOUS
10
81.9004
20
-169.322
11
81.9957
21
-169.131
0
LINE
8
BLACK
6
CONTINUOUS
10
81.9957
20
-169.131
11
82.0909
21
-169.036
0
LINE
8
BLACK
6
CONTINUOUS
10
82.0909
20
-169.036
11
82.2814
21
-168.941
0
LINE
8
BLACK
6
CONTINUOUS
10
82.2814
20
-168.941
11
82.6623
21
-168.941
0
LINE
8
BLACK
6
CONTINUOUS
10
82.6623
20
-168.941
11
82.8528
21
-169.036
0
LINE
8
BLACK
6
CONTINUOUS
10
82.8528
20
-169.036
11
82.9481
21
-169.131
0
LINE
8
BLACK
6
CONTINUOUS
10
82.9481
20
-169.131
11
83.0433
21
-169.322
0
LINE
8
BLACK
6
CONTINUOUS
10
83.0433
20
-169.322
11
83.0433
21
-169.417
0
LINE
8
BLACK
6
CONTINUOUS
10
83.0433
20
-169.417
11
82.9481
21
-169.608
0
LINE
8
BLACK
6
CONTINUOUS
10
82.9481
20
-169.608
11
82.8528
21
-169.703
0
LINE
8
BLACK
6
CONTINUOUS
10
82.8528
20
-169.703
11
82.6623
21
-169.798
0
LINE
8
BLACK
6
CONTINUOUS
10
82.6623
20
-169.798
11
82.2814
21
-169.798
0
LINE
8
BLACK
6
CONTINUOUS
10
82.2814
20
-169.798
11
82.0909
21
-169.893
0
LINE
8
BLACK
6
CONTINUOUS
10
82.0909
20
-169.893
11
81.9957
21
-169.988
0
LINE
8
BLACK
6
CONTINUOUS
10
81.9957
20
-169.988
11
81.9004
21
-170.179
0
LINE
8
BLACK
6
CONTINUOUS
10
81.9004
20
-170.179
11
81.9004
21
-170.56
0
LINE
8
BLACK
6
CONTINUOUS
10
81.9004
20
-170.56
11
81.9957
21
-170.75
0
LINE
8
BLACK
6
CONTINUOUS
10
81.9957
20
-170.75
11
82.0909
21
-170.846
0
LINE
8
BLACK
6
CONTINUOUS
10
82.0909
20
-170.846
11
82.2814
21
-170.941
0
LINE
8
BLACK
6
CONTINUOUS
10
82.2814
20
-170.941
11
82.6623
21
-170.941
0
LINE
8
BLACK
6
CONTINUOUS
10
82.6623
20
-170.941
11
82.8528
21
-170.846
0
LINE
8
BLACK
6
CONTINUOUS
10
82.8528
20
-170.846
11
82.9481
21
-170.75
0
LINE
8
BLACK
6
CONTINUOUS
10
82.9481
20
-170.75
11
83.0433
21
-170.56
0
LINE
8
BLACK
6
CONTINUOUS
10
83.0433
20
-170.56
11
83.0433
21
-170.179
0
LINE
8
BLACK
6
CONTINUOUS
10
83.0433
20
-170.179
11
82.9481
21
-169.988
0
LINE
8
BLACK
6
CONTINUOUS
10
82.9481
20
-169.988
11
82.8528
21
-169.893
0
LINE
8
BLACK
6
CONTINUOUS
10
82.8528
20
-169.893
11
82.6623
21
-169.798
0
LINE
8
BLACK
6
CONTINUOUS
10
84.9481
20
-170.941
11
83.8052
21
-170.941
0
LINE
8
BLACK
6
CONTINUOUS
10
84.3766
20
-170.941
11
84.3766
21
-168.941
0
LINE
8
BLACK
6
CONTINUOUS
10
84.3766
20
-168.941
11
84.1861
21
-169.227
0
LINE
8
BLACK
6
CONTINUOUS
10
84.1861
20
-169.227
11
83.9957
21
-169.417
0
LINE
8
BLACK
6
CONTINUOUS
10
83.9957
20
-169.417
11
83.8052
21
-169.512
0
LINE
8
BLACK
6
CONTINUOUS
10
85.8052
20
-170.941
11
85.8052
21
-169.608
0
LINE
8
BLACK
6
CONTINUOUS
10
85.8052
20
-169.798
11
85.9004
21
-169.703
0
LINE
8
BLACK
6
CONTINUOUS
10
85.9004
20
-169.703
11
86.0909
21
-169.608
0
LINE
8
BLACK
6
CONTINUOUS
10
86.0909
20
-169.608
11
86.3766
21
-169.608
0
LINE
8
BLACK
6
CONTINUOUS
10
86.3766
20
-169.608
11
86.5671
21
-169.703
0
LINE
8
BLACK
6
CONTINUOUS
10
86.5671
20
-169.703
11
86.6623
21
-169.893
0
LINE
8
BLACK
6
CONTINUOUS
10
86.6623
20
-169.893
11
86.6623
21
-170.941
0
LINE
8
BLACK
6
CONTINUOUS
10
86.6623
20
-169.893
11
86.7576
21
-169.703
0
LINE
8
BLACK
6
CONTINUOUS
10
86.7576
20
-169.703
11
86.9481
21
-169.608
0
LINE
8
BLACK
6
CONTINUOUS
10
86.9481
20
-169.608
11
87.2338
21
-169.608
0
LINE
8
BLACK
6
CONTINUOUS
10
87.2338
20
-169.608
11
87.4242
21
-169.703
0
LINE
8
BLACK
6
CONTINUOUS
10
87.4242
20
-169.703
11
87.5195
21
-169.893
0
LINE
8
BLACK
6
CONTINUOUS
10
87.5195
20
-169.893
11
87.5195
21
-170.941
0
LINE
8
BLACK
6
CONTINUOUS
10
88.4719
20
-170.941
11
88.4719
21
-169.608
0
LINE
8
BLACK
6
CONTINUOUS
10
88.4719
20
-169.798
11
88.5671
21
-169.703
0
LINE
8
BLACK
6
CONTINUOUS
10
88.5671
20
-169.703
11
88.7576
21
-169.608
0
LINE
8
BLACK
6
CONTINUOUS
10
88.7576
20
-169.608
11
89.0433
21
-169.608
0
LINE
8
BLACK
6
CONTINUOUS
10
89.0433
20
-169.608
11
89.2338
21
-169.703
0
LINE
8
BLACK
6
CONTINUOUS
10
89.2338
20
-169.703
11
89.329
21
-169.893
0
LINE
8
BLACK
6
CONTINUOUS
10
89.329
20
-169.893
11
89.329
21
-170.941
0
LINE
8
BLACK
6
CONTINUOUS
10
89.329
20
-169.893
11
89.4242
21
-169.703
0
LINE
8
BLACK
6
CONTINUOUS
10
89.4242
20
-169.703
11
89.6147
21
-169.608
0
LINE
8
BLACK
6
CONTINUOUS
10
89.6147
20
-169.608
11
89.9004
21
-169.608
0
LINE
8
BLACK
6
CONTINUOUS
10
89.9004
20
-169.608
11
90.0909
21
-169.703
0
LINE
8
BLACK
6
CONTINUOUS
10
90.0909
20
-169.703
11
90.1861
21
-169.893
0
LINE
8
BLACK
6
CONTINUOUS
10
90.1861
20
-169.893
11
90.1861
21
-170.941
0
LINE
8
BLACK
6
CONTINUOUS
10
94.0909
20
-168.846
11
92.3766
21
-171.417
0
LINE
8
BLACK
6
CONTINUOUS
10
96.6623
20
-168.941
11
96.8528
21
-168.941
0
LINE
8
BLACK
6
CONTINUOUS
10
96.8528
20
-168.941
11
97.0433
21
-169.036
0
LINE
8
BLACK
6
CONTINUOUS
10
97.0433
20
-169.036
11
97.1385
21
-169.131
0
LINE
8
BLACK
6
CONTINUOUS
10
97.1385
20
-169.131
11
97.2338
21
-169.322
0
LINE
8
BLACK
6
CONTINUOUS
10
97.2338
20
-169.322
11
97.329
21
-169.703
0
LINE
8
BLACK
6
CONTINUOUS
10
97.329
20
-169.703
11
97.329
21
-170.179
0
LINE
8
BLACK
6
CONTINUOUS
10
97.329
20
-170.179
11
97.2338
21
-170.56
0
LINE
8
BLACK
6
CONTINUOUS
10
97.2338
20
-170.56
11
97.1385
21
-170.75
0
LINE
8
BLACK
6
CONTINUOUS
10
97.1385
20
-170.75
11
97.0433
21
-170.846
0
LINE
8
BLACK
6
CONTINUOUS
10
97.0433
20
-170.846
11
96.8528
21
-170.941
0
LINE
8
BLACK
6
CONTINUOUS
10
96.8528
20
-170.941
11
96.6623
21
-170.941
0
LINE
8
BLACK
6
CONTINUOUS
10
96.6623
20
-170.941
11
96.4719
21
-170.846
0
LINE
8
BLACK
6
CONTINUOUS
10
96.4719
20
-170.846
11
96.3766
21
-170.75
0
LINE
8
BLACK
6
CONTINUOUS
10
96.3766
20
-170.75
11
96.2814
21
-170.56
0
LINE
8
BLACK
6
CONTINUOUS
10
96.2814
20
-170.56
11
96.1862
21
-170.179
0
LINE
8
BLACK
6
CONTINUOUS
10
96.1862
20
-170.179
11
96.1862
21
-169.703
0
LINE
8
BLACK
6
CONTINUOUS
10
96.1862
20
-169.703
11
96.2814
21
-169.322
0
LINE
8
BLACK
6
CONTINUOUS
10
96.2814
20
-169.322
11
96.3766
21
-169.131
0
LINE
8
BLACK
6
CONTINUOUS
10
96.3766
20
-169.131
11
96.4719
21
-169.036
0
LINE
8
BLACK
6
CONTINUOUS
10
96.4719
20
-169.036
11
96.6623
21
-168.941
0
LINE
8
BLACK
6
CONTINUOUS
10
98.1862
20
-170.75
11
98.2814
21
-170.846
0
LINE
8
BLACK
6
CONTINUOUS
10
98.2814
20
-170.846
11
98.1862
21
-170.941
0
LINE
8
BLACK
6
CONTINUOUS
10
98.1862
20
-170.941
11
98.0909
21
-170.846
0
LINE
8
BLACK
6
CONTINUOUS
10
98.0909
20
-170.846
11
98.1862
21
-170.75
0
LINE
8
BLACK
6
CONTINUOUS
10
98.1862
20
-170.75
11
98.1862
21
-170.941
0
LINE
8
BLACK
6
CONTINUOUS
10
99.5195
20
-168.941
11
99.71
21
-168.941
0
LINE
8
BLACK
6
CONTINUOUS
10
99.71
20
-168.941
11
99.9004
21
-169.036
0
LINE
8
BLACK
6
CONTINUOUS
10
99.9004
20
-169.036
11
99.9957
21
-169.131
0
LINE
8
BLACK
6
CONTINUOUS
10
99.9957
20
-169.131
11
100.091
21
-169.322
0
LINE
8
BLACK
6
CONTINUOUS
10
100.091
20
-169.322
11
100.186
21
-169.703
0
LINE
8
BLACK
6
CONTINUOUS
10
100.186
20
-169.703
11
100.186
21
-170.179
0
LINE
8
BLACK
6
CONTINUOUS
10
100.186
20
-170.179
11
100.091
21
-170.56
0
LINE
8
BLACK
6
CONTINUOUS
10
100.091
20
-170.56
11
99.9957
21
-170.75
0
LINE
8
BLACK
6
CONTINUOUS
10
99.9957
20
-170.75
11
99.9004
21
-170.846
0
LINE
8
BLACK
6
CONTINUOUS
10
99.9004
20
-170.846
11
99.71
21
-170.941
0
LINE
8
BLACK
6
CONTINUOUS
10
99.71
20
-170.941
11
99.5195
21
-170.941
0
LINE
8
BLACK
6
CONTINUOUS
10
99.5195
20
-170.941
11
99.329
21
-170.846
0
LINE
8
BLACK
6
CONTINUOUS
10
99.329
20
-170.846
11
99.2338
21
-170.75
0
LINE
8
BLACK
6
CONTINUOUS
10
99.2338
20
-170.75
11
99.1385
21
-170.56
0
LINE
8
BLACK
6
CONTINUOUS
10
99.1385
20
-170.56
11
99.0433
21
-170.179
0
LINE
8
BLACK
6
CONTINUOUS
10
99.0433
20
-170.179
11
99.0433
21
-169.703
0
LINE
8
BLACK
6
CONTINUOUS
10
99.0433
20
-169.703
11
99.1385
21
-169.322
0
LINE
8
BLACK
6
CONTINUOUS
10
99.1385
20
-169.322
11
99.2338
21
-169.131
0
LINE
8
BLACK
6
CONTINUOUS
10
99.2338
20
-169.131
11
99.329
21
-169.036
0
LINE
8
BLACK
6
CONTINUOUS
10
99.329
20
-169.036
11
99.5195
21
-168.941
0
LINE
8
BLACK
6
CONTINUOUS
10
102.091
20
-170.941
11
100.948
21
-170.941
0
LINE
8
BLACK
6
CONTINUOUS
10
101.519
20
-170.941
11
101.519
21
-168.941
0
LINE
8
BLACK
6
CONTINUOUS
10
101.519
20
-168.941
11
101.329
21
-169.227
0
LINE
8
BLACK
6
CONTINUOUS
10
101.329
20
-169.227
11
101.139
21
-169.417
0
LINE
8
BLACK
6
CONTINUOUS
10
101.139
20
-169.417
11
100.948
21
-169.512
0
LINE
8
BLACK
6
CONTINUOUS
10
103.9
20
-168.941
11
102.948
21
-168.941
0
LINE
8
BLACK
6
CONTINUOUS
10
102.948
20
-168.941
11
102.853
21
-169.893
0
LINE
8
BLACK
6
CONTINUOUS
10
102.853
20
-169.893
11
102.948
21
-169.798
0
LINE
8
BLACK
6
CONTINUOUS
10
102.948
20
-169.798
11
103.139
21
-169.703
0
LINE
8
BLACK
6
CONTINUOUS
10
103.139
20
-169.703
11
103.615
21
-169.703
0
LINE
8
BLACK
6
CONTINUOUS
10
103.615
20
-169.703
11
103.805
21
-169.798
0
LINE
8
BLACK
6
CONTINUOUS
10
103.805
20
-169.798
11
103.9
21
-169.893
0
LINE
8
BLACK
6
CONTINUOUS
10
103.9
20
-169.893
11
103.996
21
-170.084
0
LINE
8
BLACK
6
CONTINUOUS
10
103.996
20
-170.084
11
103.996
21
-170.56
0
LINE
8
BLACK
6
CONTINUOUS
10
103.996
20
-170.56
11
103.9
21
-170.75
0
LINE
8
BLACK
6
CONTINUOUS
10
103.9
20
-170.75
11
103.805
21
-170.846
0
LINE
8
BLACK
6
CONTINUOUS
10
103.805
20
-170.846
11
103.615
21
-170.941
0
LINE
8
BLACK
6
CONTINUOUS
10
103.615
20
-170.941
11
103.139
21
-170.941
0
LINE
8
BLACK
6
CONTINUOUS
10
103.139
20
-170.941
11
102.948
21
-170.846
0
LINE
8
BLACK
6
CONTINUOUS
10
102.948
20
-170.846
11
102.853
21
-170.75
0
LINE
8
BLACK
6
CONTINUOUS
10
105.234
20
-168.941
11
105.424
21
-168.941
0
LINE
8
BLACK
6
CONTINUOUS
10
105.424
20
-168.941
11
105.615
21
-169.036
0
LINE
8
BLACK
6
CONTINUOUS
10
105.615
20
-169.036
11
105.71
21
-169.131
0
LINE
8
BLACK
6
CONTINUOUS
10
105.71
20
-169.131
11
105.805
21
-169.322
0
LINE
8
BLACK
6
CONTINUOUS
10
105.805
20
-169.322
11
105.9
21
-169.703
0
LINE
8
BLACK
6
CONTINUOUS
10
105.9
20
-169.703
11
105.9
21
-170.179
0
LINE
8
BLACK
6
CONTINUOUS
10
105.9
20
-170.179
11
105.805
21
-170.56
0
LINE
8
BLACK
6
CONTINUOUS
10
105.805
20
-170.56
11
105.71
21
-170.75
0
LINE
8
BLACK
6
CONTINUOUS
10
105.71
20
-170.75
11
105.615
21
-170.846
0
LINE
8
BLACK
6
CONTINUOUS
10
105.615
20
-170.846
11
105.424
21
-170.941
0
LINE
8
BLACK
6
CONTINUOUS
10
105.424
20
-170.941
11
105.234
21
-170.941
0
LINE
8
BLACK
6
CONTINUOUS
10
105.234
20
-170.941
11
105.043
21
-170.846
0
LINE
8
BLACK
6
CONTINUOUS
10
105.043
20
-170.846
11
104.948
21
-170.75
0
LINE
8
BLACK
6
CONTINUOUS
10
104.948
20
-170.75
11
104.853
21
-170.56
0
LINE
8
BLACK
6
CONTINUOUS
10
104.853
20
-170.56
11
104.758
21
-170.179
0
LINE
8
BLACK
6
CONTINUOUS
10
104.758
20
-170.179
11
104.758
21
-169.703
0
LINE
8
BLACK
6
CONTINUOUS
10
104.758
20
-169.703
11
104.853
21
-169.322
0
LINE
8
BLACK
6
CONTINUOUS
10
104.853
20
-169.322
11
104.948
21
-169.131
0
LINE
8
BLACK
6
CONTINUOUS
10
104.948
20
-169.131
11
105.043
21
-169.036
0
LINE
8
BLACK
6
CONTINUOUS
10
105.043
20
-169.036
11
105.234
21
-168.941
0
LINE
8
BLACK
6
CONTINUOUS
10
106.662
20
-168.941
11
106.662
21
-169.322
0
LINE
8
BLACK
6
CONTINUOUS
10
107.424
20
-168.941
11
107.424
21
-169.322
0
LINE
8
BLACK
6
CONTINUOUS
10
110.377
20
-171.703
11
110.281
21
-171.608
0
LINE
8
BLACK
6
CONTINUOUS
10
110.281
20
-171.608
11
110.091
21
-171.322
0
LINE
8
BLACK
6
CONTINUOUS
10
110.091
20
-171.322
11
109.996
21
-171.131
0
LINE
8
BLACK
6
CONTINUOUS
10
109.996
20
-171.131
11
109.9
21
-170.846
0
LINE
8
BLACK
6
CONTINUOUS
10
109.9
20
-170.846
11
109.805
21
-170.369
0
LINE
8
BLACK
6
CONTINUOUS
10
109.805
20
-170.369
11
109.805
21
-169.988
0
LINE
8
BLACK
6
CONTINUOUS
10
109.805
20
-169.988
11
109.9
21
-169.512
0
LINE
8
BLACK
6
CONTINUOUS
10
109.9
20
-169.512
11
109.996
21
-169.227
0
LINE
8
BLACK
6
CONTINUOUS
10
109.996
20
-169.227
11
110.091
21
-169.036
0
LINE
8
BLACK
6
CONTINUOUS
10
110.091
20
-169.036
11
110.281
21
-168.75
0
LINE
8
BLACK
6
CONTINUOUS
10
110.281
20
-168.75
11
110.377
21
-168.655
0
LINE
8
BLACK
6
CONTINUOUS
10
110.948
20
-168.941
11
112.186
21
-168.941
0
LINE
8
BLACK
6
CONTINUOUS
10
112.186
20
-168.941
11
111.519
21
-169.703
0
LINE
8
BLACK
6
CONTINUOUS
10
111.519
20
-169.703
11
111.805
21
-169.703
0
LINE
8
BLACK
6
CONTINUOUS
10
111.805
20
-169.703
11
111.996
21
-169.798
0
LINE
8
BLACK
6
CONTINUOUS
10
111.996
20
-169.798
11
112.091
21
-169.893
0
LINE
8
BLACK
6
CONTINUOUS
10
112.091
20
-169.893
11
112.186
21
-170.084
0
LINE
8
BLACK
6
CONTINUOUS
10
112.186
20
-170.084
11
112.186
21
-170.56
0
LINE
8
BLACK
6
CONTINUOUS
10
112.186
20
-170.56
11
112.091
21
-170.75
0
LINE
8
BLACK
6
CONTINUOUS
10
112.091
20
-170.75
11
111.996
21
-170.846
0
LINE
8
BLACK
6
CONTINUOUS
10
111.996
20
-170.846
11
111.805
21
-170.941
0
LINE
8
BLACK
6
CONTINUOUS
10
111.805
20
-170.941
11
111.234
21
-170.941
0
LINE
8
BLACK
6
CONTINUOUS
10
111.234
20
-170.941
11
111.043
21
-170.846
0
LINE
8
BLACK
6
CONTINUOUS
10
111.043
20
-170.846
11
110.948
21
-170.75
0
LINE
8
BLACK
6
CONTINUOUS
10
112.853
20
-168.941
11
114.186
21
-168.941
0
LINE
8
BLACK
6
CONTINUOUS
10
114.186
20
-168.941
11
113.329
21
-170.941
0
LINE
8
BLACK
6
CONTINUOUS
10
116.472
20
-170.941
11
116.472
21
-168.941
0
LINE
8
BLACK
6
CONTINUOUS
10
117.329
20
-170.941
11
117.329
21
-169.893
0
LINE
8
BLACK
6
CONTINUOUS
10
117.329
20
-169.893
11
117.234
21
-169.703
0
LINE
8
BLACK
6
CONTINUOUS
10
117.234
20
-169.703
11
117.043
21
-169.608
0
LINE
8
BLACK
6
CONTINUOUS
10
117.043
20
-169.608
11
116.758
21
-169.608
0
LINE
8
BLACK
6
CONTINUOUS
10
116.758
20
-169.608
11
116.567
21
-169.703
0
LINE
8
BLACK
6
CONTINUOUS
10
116.567
20
-169.703
11
116.472
21
-169.798
0
LINE
8
BLACK
6
CONTINUOUS
10
118.567
20
-170.941
11
118.377
21
-170.846
0
LINE
8
BLACK
6
CONTINUOUS
10
118.377
20
-170.846
11
118.281
21
-170.75
0
LINE
8
BLACK
6
CONTINUOUS
10
118.281
20
-170.75
11
118.186
21
-170.56
0
LINE
8
BLACK
6
CONTINUOUS
10
118.186
20
-170.56
11
118.186
21
-169.988
0
LINE
8
BLACK
6
CONTINUOUS
10
118.186
20
-169.988
11
118.281
21
-169.798
0
LINE
8
BLACK
6
CONTINUOUS
10
118.281
20
-169.798
11
118.377
21
-169.703
0
LINE
8
BLACK
6
CONTINUOUS
10
118.377
20
-169.703
11
118.567
21
-169.608
0
LINE
8
BLACK
6
CONTINUOUS
10
118.567
20
-169.608
11
118.853
21
-169.608
0
LINE
8
BLACK
6
CONTINUOUS
10
118.853
20
-169.608
11
119.043
21
-169.703
0
LINE
8
BLACK
6
CONTINUOUS
10
119.043
20
-169.703
11
119.139
21
-169.798
0
LINE
8
BLACK
6
CONTINUOUS
10
119.139
20
-169.798
11
119.234
21
-169.988
0
LINE
8
BLACK
6
CONTINUOUS
10
119.234
20
-169.988
11
119.234
21
-170.56
0
LINE
8
BLACK
6
CONTINUOUS
10
119.234
20
-170.56
11
119.139
21
-170.75
0
LINE
8
BLACK
6
CONTINUOUS
10
119.139
20
-170.75
11
119.043
21
-170.846
0
LINE
8
BLACK
6
CONTINUOUS
10
119.043
20
-170.846
11
118.853
21
-170.941
0
LINE
8
BLACK
6
CONTINUOUS
10
118.853
20
-170.941
11
118.567
21
-170.941
0
LINE
8
BLACK
6
CONTINUOUS
10
120.377
20
-170.941
11
120.186
21
-170.846
0
LINE
8
BLACK
6
CONTINUOUS
10
120.186
20
-170.846
11
120.091
21
-170.655
0
LINE
8
BLACK
6
CONTINUOUS
10
120.091
20
-170.655
11
120.091
21
-168.941
0
LINE
8
BLACK
6
CONTINUOUS
10
121.9
20
-170.846
11
121.71
21
-170.941
0
LINE
8
BLACK
6
CONTINUOUS
10
121.71
20
-170.941
11
121.329
21
-170.941
0
LINE
8
BLACK
6
CONTINUOUS
10
121.329
20
-170.941
11
121.139
21
-170.846
0
LINE
8
BLACK
6
CONTINUOUS
10
121.139
20
-170.846
11
121.043
21
-170.655
0
LINE
8
BLACK
6
CONTINUOUS
10
121.043
20
-170.655
11
121.043
21
-169.893
0
LINE
8
BLACK
6
CONTINUOUS
10
121.043
20
-169.893
11
121.139
21
-169.703
0
LINE
8
BLACK
6
CONTINUOUS
10
121.139
20
-169.703
11
121.329
21
-169.608
0
LINE
8
BLACK
6
CONTINUOUS
10
121.329
20
-169.608
11
121.71
21
-169.608
0
LINE
8
BLACK
6
CONTINUOUS
10
121.71
20
-169.608
11
121.9
21
-169.703
0
LINE
8
BLACK
6
CONTINUOUS
10
121.9
20
-169.703
11
121.996
21
-169.893
0
LINE
8
BLACK
6
CONTINUOUS
10
121.996
20
-169.893
11
121.996
21
-170.084
0
LINE
8
BLACK
6
CONTINUOUS
10
121.996
20
-170.084
11
121.043
21
-170.274
0
LINE
8
BLACK
6
CONTINUOUS
10
122.758
20
-170.846
11
122.948
21
-170.941
0
LINE
8
BLACK
6
CONTINUOUS
10
122.948
20
-170.941
11
123.329
21
-170.941
0
LINE
8
BLACK
6
CONTINUOUS
10
123.329
20
-170.941
11
123.519
21
-170.846
0
LINE
8
BLACK
6
CONTINUOUS
10
123.519
20
-170.846
11
123.615
21
-170.655
0
LINE
8
BLACK
6
CONTINUOUS
10
123.615
20
-170.655
11
123.615
21
-170.56
0
LINE
8
BLACK
6
CONTINUOUS
10
123.615
20
-170.56
11
123.519
21
-170.369
0
LINE
8
BLACK
6
CONTINUOUS
10
123.519
20
-170.369
11
123.329
21
-170.274
0
LINE
8
BLACK
6
CONTINUOUS
10
123.329
20
-170.274
11
123.043
21
-170.274
0
LINE
8
BLACK
6
CONTINUOUS
10
123.043
20
-170.274
11
122.853
21
-170.179
0
LINE
8
BLACK
6
CONTINUOUS
10
122.853
20
-170.179
11
122.758
21
-169.988
0
LINE
8
BLACK
6
CONTINUOUS
10
122.758
20
-169.988
11
122.758
21
-169.893
0
LINE
8
BLACK
6
CONTINUOUS
10
122.758
20
-169.893
11
122.853
21
-169.703
0
LINE
8
BLACK
6
CONTINUOUS
10
122.853
20
-169.703
11
123.043
21
-169.608
0
LINE
8
BLACK
6
CONTINUOUS
10
123.043
20
-169.608
11
123.329
21
-169.608
0
LINE
8
BLACK
6
CONTINUOUS
10
123.329
20
-169.608
11
123.519
21
-169.703
0
LINE
8
BLACK
6
CONTINUOUS
10
124.281
20
-171.703
11
124.377
21
-171.608
0
LINE
8
BLACK
6
CONTINUOUS
10
124.377
20
-171.608
11
124.567
21
-171.322
0
LINE
8
BLACK
6
CONTINUOUS
10
124.567
20
-171.322
11
124.662
21
-171.131
0
LINE
8
BLACK
6
CONTINUOUS
10
124.662
20
-171.131
11
124.758
21
-170.846
0
LINE
8
BLACK
6
CONTINUOUS
10
124.758
20
-170.846
11
124.853
21
-170.369
0
LINE
8
BLACK
6
CONTINUOUS
10
124.853
20
-170.369
11
124.853
21
-169.988
0
LINE
8
BLACK
6
CONTINUOUS
10
124.853
20
-169.988
11
124.758
21
-169.512
0
LINE
8
BLACK
6
CONTINUOUS
10
124.758
20
-169.512
11
124.662
21
-169.227
0
LINE
8
BLACK
6
CONTINUOUS
10
124.662
20
-169.227
11
124.567
21
-169.036
0
LINE
8
BLACK
6
CONTINUOUS
10
124.567
20
-169.036
11
124.377
21
-168.75
0
LINE
8
BLACK
6
CONTINUOUS
10
124.377
20
-168.75
11
124.281
21
-168.655
0
CIRCLE
8
BLACK
10
74.226
20
-172.666
40
0.4
0
LINE
8
BLACK
6
CONTINUOUS
10
77.6147
20
-171.581
11
77.8052
21
-171.581
0
LINE
8
BLACK
6
CONTINUOUS
10
77.8052
20
-171.581
11
77.9957
21
-171.676
0
LINE
8
BLACK
6
CONTINUOUS
10
77.9957
20
-171.676
11
78.0909
21
-171.771
0
LINE
8
BLACK
6
CONTINUOUS
10
78.0909
20
-171.771
11
78.1861
21
-171.962
0
LINE
8
BLACK
6
CONTINUOUS
10
78.1861
20
-171.962
11
78.2814
21
-172.343
0
LINE
8
BLACK
6
CONTINUOUS
10
78.2814
20
-172.343
11
78.2814
21
-172.819
0
LINE
8
BLACK
6
CONTINUOUS
10
78.2814
20
-172.819
11
78.1861
21
-173.2
0
LINE
8
BLACK
6
CONTINUOUS
10
78.1861
20
-173.2
11
78.0909
21
-173.39
0
LINE
8
BLACK
6
CONTINUOUS
10
78.0909
20
-173.39
11
77.9957
21
-173.486
0
LINE
8
BLACK
6
CONTINUOUS
10
77.9957
20
-173.486
11
77.8052
21
-173.581
0
LINE
8
BLACK
6
CONTINUOUS
10
77.8052
20
-173.581
11
77.6147
21
-173.581
0
LINE
8
BLACK
6
CONTINUOUS
10
77.6147
20
-173.581
11
77.4242
21
-173.486
0
LINE
8
BLACK
6
CONTINUOUS
10
77.4242
20
-173.486
11
77.329
21
-173.39
0
LINE
8
BLACK
6
CONTINUOUS
10
77.329
20
-173.39
11
77.2338
21
-173.2
0
LINE
8
BLACK
6
CONTINUOUS
10
77.2338
20
-173.2
11
77.1385
21
-172.819
0
LINE
8
BLACK
6
CONTINUOUS
10
77.1385
20
-172.819
11
77.1385
21
-172.343
0
LINE
8
BLACK
6
CONTINUOUS
10
77.1385
20
-172.343
11
77.2338
21
-171.962
0
LINE
8
BLACK
6
CONTINUOUS
10
77.2338
20
-171.962
11
77.329
21
-171.771
0
LINE
8
BLACK
6
CONTINUOUS
10
77.329
20
-171.771
11
77.4242
21
-171.676
0
LINE
8
BLACK
6
CONTINUOUS
10
77.4242
20
-171.676
11
77.6147
21
-171.581
0
LINE
8
BLACK
6
CONTINUOUS
10
79.1385
20
-173.39
11
79.2338
21
-173.486
0
LINE
8
BLACK
6
CONTINUOUS
10
79.2338
20
-173.486
11
79.1385
21
-173.581
0
LINE
8
BLACK
6
CONTINUOUS
10
79.1385
20
-173.581
11
79.0433
21
-173.486
0
LINE
8
BLACK
6
CONTINUOUS
10
79.0433
20
-173.486
11
79.1385
21
-173.39
0
LINE
8
BLACK
6
CONTINUOUS
10
79.1385
20
-173.39
11
79.1385
21
-173.581
0
LINE
8
BLACK
6
CONTINUOUS
10
80.3766
20
-172.438
11
80.1861
21
-172.343
0
LINE
8
BLACK
6
CONTINUOUS
10
80.1861
20
-172.343
11
80.0909
21
-172.248
0
LINE
8
BLACK
6
CONTINUOUS
10
80.0909
20
-172.248
11
79.9957
21
-172.057
0
LINE
8
BLACK
6
CONTINUOUS
10
79.9957
20
-172.057
11
79.9957
21
-171.962
0
LINE
8
BLACK
6
CONTINUOUS
10
79.9957
20
-171.962
11
80.0909
21
-171.771
0
LINE
8
BLACK
6
CONTINUOUS
10
80.0909
20
-171.771
11
80.1861
21
-171.676
0
LINE
8
BLACK
6
CONTINUOUS
10
80.1861
20
-171.676
11
80.3766
21
-171.581
0
LINE
8
BLACK
6
CONTINUOUS
10
80.3766
20
-171.581
11
80.7576
21
-171.581
0
LINE
8
BLACK
6
CONTINUOUS
10
80.7576
20
-171.581
11
80.9481
21
-171.676
0
LINE
8
BLACK
6
CONTINUOUS
10
80.9481
20
-171.676
11
81.0433
21
-171.771
0
LINE
8
BLACK
6
CONTINUOUS
10
81.0433
20
-171.771
11
81.1385
21
-171.962
0
LINE
8
BLACK
6
CONTINUOUS
10
81.1385
20
-171.962
11
81.1385
21
-172.057
0
LINE
8
BLACK
6
CONTINUOUS
10
81.1385
20
-172.057
11
81.0433
21
-172.248
0
LINE
8
BLACK
6
CONTINUOUS
10
81.0433
20
-172.248
11
80.9481
21
-172.343
0
LINE
8
BLACK
6
CONTINUOUS
10
80.9481
20
-172.343
11
80.7576
21
-172.438
0
LINE
8
BLACK
6
CONTINUOUS
10
80.7576
20
-172.438
11
80.3766
21
-172.438
0
LINE
8
BLACK
6
CONTINUOUS
10
80.3766
20
-172.438
11
80.1861
21
-172.533
0
LINE
8
BLACK
6
CONTINUOUS
10
80.1861
20
-172.533
11
80.0909
21
-172.628
0
LINE
8
BLACK
6
CONTINUOUS
10
80.0909
20
-172.628
11
79.9957
21
-172.819
0
LINE
8
BLACK
6
CONTINUOUS
10
79.9957
20
-172.819
11
79.9957
21
-173.2
0
LINE
8
BLACK
6
CONTINUOUS
10
79.9957
20
-173.2
11
80.0909
21
-173.39
0
LINE
8
BLACK
6
CONTINUOUS
10
80.0909
20
-173.39
11
80.1861
21
-173.486
0
LINE
8
BLACK
6
CONTINUOUS
10
80.1861
20
-173.486
11
80.3766
21
-173.581
0
LINE
8
BLACK
6
CONTINUOUS
10
80.3766
20
-173.581
11
80.7576
21
-173.581
0
LINE
8
BLACK
6
CONTINUOUS
10
80.7576
20
-173.581
11
80.9481
21
-173.486
0
LINE
8
BLACK
6
CONTINUOUS
10
80.9481
20
-173.486
11
81.0433
21
-173.39
0
LINE
8
BLACK
6
CONTINUOUS
10
81.0433
20
-173.39
11
81.1385
21
-173.2
0
LINE
8
BLACK
6
CONTINUOUS
10
81.1385
20
-173.2
11
81.1385
21
-172.819
0
LINE
8
BLACK
6
CONTINUOUS
10
81.1385
20
-172.819
11
81.0433
21
-172.628
0
LINE
8
BLACK
6
CONTINUOUS
10
81.0433
20
-172.628
11
80.9481
21
-172.533
0
LINE
8
BLACK
6
CONTINUOUS
10
80.9481
20
-172.533
11
80.7576
21
-172.438
0
LINE
8
BLACK
6
CONTINUOUS
10
82.3766
20
-171.581
11
82.5671
21
-171.581
0
LINE
8
BLACK
6
CONTINUOUS
10
82.5671
20
-171.581
11
82.7576
21
-171.676
0
LINE
8
BLACK
6
CONTINUOUS
10
82.7576
20
-171.676
11
82.8528
21
-171.771
0
LINE
8
BLACK
6
CONTINUOUS
10
82.8528
20
-171.771
11
82.9481
21
-171.962
0
LINE
8
BLACK
6
CONTINUOUS
10
82.9481
20
-171.962
11
83.0433
21
-172.343
0
LINE
8
BLACK
6
CONTINUOUS
10
83.0433
20
-172.343
11
83.0433
21
-172.819
0
LINE
8
BLACK
6
CONTINUOUS
10
83.0433
20
-172.819
11
82.9481
21
-173.2
0
LINE
8
BLACK
6
CONTINUOUS
10
82.9481
20
-173.2
11
82.8528
21
-173.39
0
LINE
8
BLACK
6
CONTINUOUS
10
82.8528
20
-173.39
11
82.7576
21
-173.486
0
LINE
8
BLACK
6
CONTINUOUS
10
82.7576
20
-173.486
11
82.5671
21
-173.581
0
LINE
8
BLACK
6
CONTINUOUS
10
82.5671
20
-173.581
11
82.3766
21
-173.581
0
LINE
8
BLACK
6
CONTINUOUS
10
82.3766
20
-173.581
11
82.1861
21
-173.486
0
LINE
8
BLACK
6
CONTINUOUS
10
82.1861
20
-173.486
11
82.0909
21
-173.39
0
LINE
8
BLACK
6
CONTINUOUS
10
82.0909
20
-173.39
11
81.9957
21
-173.2
0
LINE
8
BLACK
6
CONTINUOUS
10
81.9957
20
-173.2
11
81.9004
21
-172.819
0
LINE
8
BLACK
6
CONTINUOUS
10
81.9004
20
-172.819
11
81.9004
21
-172.343
0
LINE
8
BLACK
6
CONTINUOUS
10
81.9004
20
-172.343
11
81.9957
21
-171.962
0
LINE
8
BLACK
6
CONTINUOUS
10
81.9957
20
-171.962
11
82.0909
21
-171.771
0
LINE
8
BLACK
6
CONTINUOUS
10
82.0909
20
-171.771
11
82.1861
21
-171.676
0
LINE
8
BLACK
6
CONTINUOUS
10
82.1861
20
-171.676
11
82.3766
21
-171.581
0
LINE
8
BLACK
6
CONTINUOUS
10
84.2814
20
-171.581
11
84.4719
21
-171.581
0
LINE
8
BLACK
6
CONTINUOUS
10
84.4719
20
-171.581
11
84.6623
21
-171.676
0
LINE
8
BLACK
6
CONTINUOUS
10
84.6623
20
-171.676
11
84.7576
21
-171.771
0
LINE
8
BLACK
6
CONTINUOUS
10
84.7576
20
-171.771
11
84.8528
21
-171.962
0
LINE
8
BLACK
6
CONTINUOUS
10
84.8528
20
-171.962
11
84.9481
21
-172.343
0
LINE
8
BLACK
6
CONTINUOUS
10
84.9481
20
-172.343
11
84.9481
21
-172.819
0
LINE
8
BLACK
6
CONTINUOUS
10
84.9481
20
-172.819
11
84.8528
21
-173.2
0
LINE
8
BLACK
6
CONTINUOUS
10
84.8528
20
-173.2
11
84.7576
21
-173.39
0
LINE
8
BLACK
6
CONTINUOUS
10
84.7576
20
-173.39
11
84.6623
21
-173.486
0
LINE
8
BLACK
6
CONTINUOUS
10
84.6623
20
-173.486
11
84.4719
21
-173.581
0
LINE
8
BLACK
6
CONTINUOUS
10
84.4719
20
-173.581
11
84.2814
21
-173.581
0
LINE
8
BLACK
6
CONTINUOUS
10
84.2814
20
-173.581
11
84.0909
21
-173.486
0
LINE
8
BLACK
6
CONTINUOUS
10
84.0909
20
-173.486
11
83.9957
21
-173.39
0
LINE
8
BLACK
6
CONTINUOUS
10
83.9957
20
-173.39
11
83.9004
21
-173.2
0
LINE
8
BLACK
6
CONTINUOUS
10
83.9004
20
-173.2
11
83.8052
21
-172.819
0
LINE
8
BLACK
6
CONTINUOUS
10
83.8052
20
-172.819
11
83.8052
21
-172.343
0
LINE
8
BLACK
6
CONTINUOUS
10
83.8052
20
-172.343
11
83.9004
21
-171.962
0
LINE
8
BLACK
6
CONTINUOUS
10
83.9004
20
-171.962
11
83.9957
21
-171.771
0
LINE
8
BLACK
6
CONTINUOUS
10
83.9957
20
-171.771
11
84.0909
21
-171.676
0
LINE
8
BLACK
6
CONTINUOUS
10
84.0909
20
-171.676
11
84.2814
21
-171.581
0
LINE
8
BLACK
6
CONTINUOUS
10
85.8052
20
-173.581
11
85.8052
21
-172.248
0
LINE
8
BLACK
6
CONTINUOUS
10
85.8052
20
-172.438
11
85.9004
21
-172.343
0
LINE
8
BLACK
6
CONTINUOUS
10
85.9004
20
-172.343
11
86.0909
21
-172.248
0
LINE
8
BLACK
6
CONTINUOUS
10
86.0909
20
-172.248
11
86.3766
21
-172.248
0
LINE
8
BLACK
6
CONTINUOUS
10
86.3766
20
-172.248
11
86.5671
21
-172.343
0
LINE
8
BLACK
6
CONTINUOUS
10
86.5671
20
-172.343
11
86.6623
21
-172.533
0
LINE
8
BLACK
6
CONTINUOUS
10
86.6623
20
-172.533
11
86.6623
21
-173.581
0
LINE
8
BLACK
6
CONTINUOUS
10
86.6623
20
-172.533
11
86.7576
21
-172.343
0
LINE
8
BLACK
6
CONTINUOUS
10
86.7576
20
-172.343
11
86.9481
21
-172.248
0
LINE
8
BLACK
6
CONTINUOUS
10
86.9481
20
-172.248
11
87.2338
21
-172.248
0
LINE
8
BLACK
6
CONTINUOUS
10
87.2338
20
-172.248
11
87.4242
21
-172.343
0
LINE
8
BLACK
6
CONTINUOUS
10
87.4242
20
-172.343
11
87.5195
21
-172.533
0
LINE
8
BLACK
6
CONTINUOUS
10
87.5195
20
-172.533
11
87.5195
21
-173.581
0
LINE
8
BLACK
6
CONTINUOUS
10
88.4719
20
-173.581
11
88.4719
21
-172.248
0
LINE
8
BLACK
6
CONTINUOUS
10
88.4719
20
-172.438
11
88.5671
21
-172.343
0
LINE
8
BLACK
6
CONTINUOUS
10
88.5671
20
-172.343
11
88.7576
21
-172.248
0
LINE
8
BLACK
6
CONTINUOUS
10
88.7576
20
-172.248
11
89.0433
21
-172.248
0
LINE
8
BLACK
6
CONTINUOUS
10
89.0433
20
-172.248
11
89.2338
21
-172.343
0
LINE
8
BLACK
6
CONTINUOUS
10
89.2338
20
-172.343
11
89.329
21
-172.533
0
LINE
8
BLACK
6
CONTINUOUS
10
89.329
20
-172.533
11
89.329
21
-173.581
0
LINE
8
BLACK
6
CONTINUOUS
10
89.329
20
-172.533
11
89.4242
21
-172.343
0
LINE
8
BLACK
6
CONTINUOUS
10
89.4242
20
-172.343
11
89.6147
21
-172.248
0
LINE
8
BLACK
6
CONTINUOUS
10
89.6147
20
-172.248
11
89.9004
21
-172.248
0
LINE
8
BLACK
6
CONTINUOUS
10
89.9004
20
-172.248
11
90.0909
21
-172.343
0
LINE
8
BLACK
6
CONTINUOUS
10
90.0909
20
-172.343
11
90.1861
21
-172.533
0
LINE
8
BLACK
6
CONTINUOUS
10
90.1861
20
-172.533
11
90.1861
21
-173.581
0
LINE
8
BLACK
6
CONTINUOUS
10
94.0909
20
-171.486
11
92.3766
21
-174.057
0
LINE
8
BLACK
6
CONTINUOUS
10
96.6623
20
-171.581
11
96.8528
21
-171.581
0
LINE
8
BLACK
6
CONTINUOUS
10
96.8528
20
-171.581
11
97.0433
21
-171.676
0
LINE
8
BLACK
6
CONTINUOUS
10
97.0433
20
-171.676
11
97.1385
21
-171.771
0
LINE
8
BLACK
6
CONTINUOUS
10
97.1385
20
-171.771
11
97.2338
21
-171.962
0
LINE
8
BLACK
6
CONTINUOUS
10
97.2338
20
-171.962
11
97.329
21
-172.343
0
LINE
8
BLACK
6
CONTINUOUS
10
97.329
20
-172.343
11
97.329
21
-172.819
0
LINE
8
BLACK
6
CONTINUOUS
10
97.329
20
-172.819
11
97.2338
21
-173.2
0
LINE
8
BLACK
6
CONTINUOUS
10
97.2338
20
-173.2
11
97.1385
21
-173.39
0
LINE
8
BLACK
6
CONTINUOUS
10
97.1385
20
-173.39
11
97.0433
21
-173.486
0
LINE
8
BLACK
6
CONTINUOUS
10
97.0433
20
-173.486
11
96.8528
21
-173.581
0
LINE
8
BLACK
6
CONTINUOUS
10
96.8528
20
-173.581
11
96.6623
21
-173.581
0
LINE
8
BLACK
6
CONTINUOUS
10
96.6623
20
-173.581
11
96.4719
21
-173.486
0
LINE
8
BLACK
6
CONTINUOUS
10
96.4719
20
-173.486
11
96.3766
21
-173.39
0
LINE
8
BLACK
6
CONTINUOUS
10
96.3766
20
-173.39
11
96.2814
21
-173.2
0
LINE
8
BLACK
6
CONTINUOUS
10
96.2814
20
-173.2
11
96.1862
21
-172.819
0
LINE
8
BLACK
6
CONTINUOUS
10
96.1862
20
-172.819
11
96.1862
21
-172.343
0
LINE
8
BLACK
6
CONTINUOUS
10
96.1862
20
-172.343
11
96.2814
21
-171.962
0
LINE
8
BLACK
6
CONTINUOUS
10
96.2814
20
-171.962
11
96.3766
21
-171.771
0
LINE
8
BLACK
6
CONTINUOUS
10
96.3766
20
-171.771
11
96.4719
21
-171.676
0
LINE
8
BLACK
6
CONTINUOUS
10
96.4719
20
-171.676
11
96.6623
21
-171.581
0
LINE
8
BLACK
6
CONTINUOUS
10
98.1862
20
-173.39
11
98.2814
21
-173.486
0
LINE
8
BLACK
6
CONTINUOUS
10
98.2814
20
-173.486
11
98.1862
21
-173.581
0
LINE
8
BLACK
6
CONTINUOUS
10
98.1862
20
-173.581
11
98.0909
21
-173.486
0
LINE
8
BLACK
6
CONTINUOUS
10
98.0909
20
-173.486
11
98.1862
21
-173.39
0
LINE
8
BLACK
6
CONTINUOUS
10
98.1862
20
-173.39
11
98.1862
21
-173.581
0
LINE
8
BLACK
6
CONTINUOUS
10
99.5195
20
-171.581
11
99.71
21
-171.581
0
LINE
8
BLACK
6
CONTINUOUS
10
99.71
20
-171.581
11
99.9004
21
-171.676
0
LINE
8
BLACK
6
CONTINUOUS
10
99.9004
20
-171.676
11
99.9957
21
-171.771
0
LINE
8
BLACK
6
CONTINUOUS
10
99.9957
20
-171.771
11
100.091
21
-171.962
0
LINE
8
BLACK
6
CONTINUOUS
10
100.091
20
-171.962
11
100.186
21
-172.343
0
LINE
8
BLACK
6
CONTINUOUS
10
100.186
20
-172.343
11
100.186
21
-172.819
0
LINE
8
BLACK
6
CONTINUOUS
10
100.186
20
-172.819
11
100.091
21
-173.2
0
LINE
8
BLACK
6
CONTINUOUS
10
100.091
20
-173.2
11
99.9957
21
-173.39
0
LINE
8
BLACK
6
CONTINUOUS
10
99.9957
20
-173.39
11
99.9004
21
-173.486
0
LINE
8
BLACK
6
CONTINUOUS
10
99.9004
20
-173.486
11
99.71
21
-173.581
0
LINE
8
BLACK
6
CONTINUOUS
10
99.71
20
-173.581
11
99.5195
21
-173.581
0
LINE
8
BLACK
6
CONTINUOUS
10
99.5195
20
-173.581
11
99.329
21
-173.486
0
LINE
8
BLACK
6
CONTINUOUS
10
99.329
20
-173.486
11
99.2338
21
-173.39
0
LINE
8
BLACK
6
CONTINUOUS
10
99.2338
20
-173.39
11
99.1385
21
-173.2
0
LINE
8
BLACK
6
CONTINUOUS
10
99.1385
20
-173.2
11
99.0433
21
-172.819
0
LINE
8
BLACK
6
CONTINUOUS
10
99.0433
20
-172.819
11
99.0433
21
-172.343
0
LINE
8
BLACK
6
CONTINUOUS
10
99.0433
20
-172.343
11
99.1385
21
-171.962
0
LINE
8
BLACK
6
CONTINUOUS
10
99.1385
20
-171.962
11
99.2338
21
-171.771
0
LINE
8
BLACK
6
CONTINUOUS
10
99.2338
20
-171.771
11
99.329
21
-171.676
0
LINE
8
BLACK
6
CONTINUOUS
10
99.329
20
-171.676
11
99.5195
21
-171.581
0
LINE
8
BLACK
6
CONTINUOUS
10
100.853
20
-171.581
11
102.091
21
-171.581
0
LINE
8
BLACK
6
CONTINUOUS
10
102.091
20
-171.581
11
101.424
21
-172.343
0
LINE
8
BLACK
6
CONTINUOUS
10
101.424
20
-172.343
11
101.71
21
-172.343
0
LINE
8
BLACK
6
CONTINUOUS
10
101.71
20
-172.343
11
101.9
21
-172.438
0
LINE
8
BLACK
6
CONTINUOUS
10
101.9
20
-172.438
11
101.996
21
-172.533
0
LINE
8
BLACK
6
CONTINUOUS
10
101.996
20
-172.533
11
102.091
21
-172.724
0
LINE
8
BLACK
6
CONTINUOUS
10
102.091
20
-172.724
11
102.091
21
-173.2
0
LINE
8
BLACK
6
CONTINUOUS
10
102.091
20
-173.2
11
101.996
21
-173.39
0
LINE
8
BLACK
6
CONTINUOUS
10
101.996
20
-173.39
11
101.9
21
-173.486
0
LINE
8
BLACK
6
CONTINUOUS
10
101.9
20
-173.486
11
101.71
21
-173.581
0
LINE
8
BLACK
6
CONTINUOUS
10
101.71
20
-173.581
11
101.139
21
-173.581
0
LINE
8
BLACK
6
CONTINUOUS
10
101.139
20
-173.581
11
100.948
21
-173.486
0
LINE
8
BLACK
6
CONTINUOUS
10
100.948
20
-173.486
11
100.853
21
-173.39
0
LINE
8
BLACK
6
CONTINUOUS
10
103.996
20
-173.581
11
102.853
21
-173.581
0
LINE
8
BLACK
6
CONTINUOUS
10
103.424
20
-173.581
11
103.424
21
-171.581
0
LINE
8
BLACK
6
CONTINUOUS
10
103.424
20
-171.581
11
103.234
21
-171.867
0
LINE
8
BLACK
6
CONTINUOUS
10
103.234
20
-171.867
11
103.043
21
-172.057
0
LINE
8
BLACK
6
CONTINUOUS
10
103.043
20
-172.057
11
102.853
21
-172.152
0
LINE
8
BLACK
6
CONTINUOUS
10
105.805
20
-171.581
11
104.853
21
-171.581
0
LINE
8
BLACK
6
CONTINUOUS
10
104.853
20
-171.581
11
104.758
21
-172.533
0
LINE
8
BLACK
6
CONTINUOUS
10
104.758
20
-172.533
11
104.853
21
-172.438
0
LINE
8
BLACK
6
CONTINUOUS
10
104.853
20
-172.438
11
105.043
21
-172.343
0
LINE
8
BLACK
6
CONTINUOUS
10
105.043
20
-172.343
11
105.519
21
-172.343
0
LINE
8
BLACK
6
CONTINUOUS
10
105.519
20
-172.343
11
105.71
21
-172.438
0
LINE
8
BLACK
6
CONTINUOUS
10
105.71
20
-172.438
11
105.805
21
-172.533
0
LINE
8
BLACK
6
CONTINUOUS
10
105.805
20
-172.533
11
105.9
21
-172.724
0
LINE
8
BLACK
6
CONTINUOUS
10
105.9
20
-172.724
11
105.9
21
-173.2
0
LINE
8
BLACK
6
CONTINUOUS
10
105.9
20
-173.2
11
105.805
21
-173.39
0
LINE
8
BLACK
6
CONTINUOUS
10
105.805
20
-173.39
11
105.71
21
-173.486
0
LINE
8
BLACK
6
CONTINUOUS
10
105.71
20
-173.486
11
105.519
21
-173.581
0
LINE
8
BLACK
6
CONTINUOUS
10
105.519
20
-173.581
11
105.043
21
-173.581
0
LINE
8
BLACK
6
CONTINUOUS
10
105.043
20
-173.581
11
104.853
21
-173.486
0
LINE
8
BLACK
6
CONTINUOUS
10
104.853
20
-173.486
11
104.758
21
-173.39
0
LINE
8
BLACK
6
CONTINUOUS
10
106.662
20
-171.581
11
106.662
21
-171.962
0
LINE
8
BLACK
6
CONTINUOUS
10
107.424
20
-171.581
11
107.424
21
-171.962
0
LINE
8
BLACK
6
CONTINUOUS
10
110.377
20
-174.343
11
110.281
21
-174.248
0
LINE
8
BLACK
6
CONTINUOUS
10
110.281
20
-174.248
11
110.091
21
-173.962
0
LINE
8
BLACK
6
CONTINUOUS
10
110.091
20
-173.962
11
109.996
21
-173.771
0
LINE
8
BLACK
6
CONTINUOUS
10
109.996
20
-173.771
11
109.9
21
-173.486
0
LINE
8
BLACK
6
CONTINUOUS
10
109.9
20
-173.486
11
109.805
21
-173.009
0
LINE
8
BLACK
6
CONTINUOUS
10
109.805
20
-173.009
11
109.805
21
-172.628
0
LINE
8
BLACK
6
CONTINUOUS
10
109.805
20
-172.628
11
109.9
21
-172.152
0
LINE
8
BLACK
6
CONTINUOUS
10
109.9
20
-172.152
11
109.996
21
-171.867
0
LINE
8
BLACK
6
CONTINUOUS
10
109.996
20
-171.867
11
110.091
21
-171.676
0
LINE
8
BLACK
6
CONTINUOUS
10
110.091
20
-171.676
11
110.281
21
-171.39
0
LINE
8
BLACK
6
CONTINUOUS
10
110.281
20
-171.39
11
110.377
21
-171.295
0
LINE
8
BLACK
6
CONTINUOUS
10
111.043
20
-171.771
11
111.139
21
-171.676
0
LINE
8
BLACK
6
CONTINUOUS
10
111.139
20
-171.676
11
111.329
21
-171.581
0
LINE
8
BLACK
6
CONTINUOUS
10
111.329
20
-171.581
11
111.805
21
-171.581
0
LINE
8
BLACK
6
CONTINUOUS
10
111.805
20
-171.581
11
111.996
21
-171.676
0
LINE
8
BLACK
6
CONTINUOUS
10
111.996
20
-171.676
11
112.091
21
-171.771
0
LINE
8
BLACK
6
CONTINUOUS
10
112.091
20
-171.771
11
112.186
21
-171.962
0
LINE
8
BLACK
6
CONTINUOUS
10
112.186
20
-171.962
11
112.186
21
-172.152
0
LINE
8
BLACK
6
CONTINUOUS
10
112.186
20
-172.152
11
112.091
21
-172.438
0
LINE
8
BLACK
6
CONTINUOUS
10
112.091
20
-172.438
11
110.948
21
-173.581
0
LINE
8
BLACK
6
CONTINUOUS
10
110.948
20
-173.581
11
112.186
21
-173.581
0
LINE
8
BLACK
6
CONTINUOUS
10
113.424
20
-171.581
11
113.615
21
-171.581
0
LINE
8
BLACK
6
CONTINUOUS
10
113.615
20
-171.581
11
113.805
21
-171.676
0
LINE
8
BLACK
6
CONTINUOUS
10
113.805
20
-171.676
11
113.9
21
-171.771
0
LINE
8
BLACK
6
CONTINUOUS
10
113.9
20
-171.771
11
113.996
21
-171.962
0
LINE
8
BLACK
6
CONTINUOUS
10
113.996
20
-171.962
11
114.091
21
-172.343
0
LINE
8
BLACK
6
CONTINUOUS
10
114.091
20
-172.343
11
114.091
21
-172.819
0
LINE
8
BLACK
6
CONTINUOUS
10
114.091
20
-172.819
11
113.996
21
-173.2
0
LINE
8
BLACK
6
CONTINUOUS
10
113.996
20
-173.2
11
113.9
21
-173.39
0
LINE
8
BLACK
6
CONTINUOUS
10
113.9
20
-173.39
11
113.805
21
-173.486
0
LINE
8
BLACK
6
CONTINUOUS
10
113.805
20
-173.486
11
113.615
21
-173.581
0
LINE
8
BLACK
6
CONTINUOUS
10
113.615
20
-173.581
11
113.424
21
-173.581
0
LINE
8
BLACK
6
CONTINUOUS
10
113.424
20
-173.581
11
113.234
21
-173.486
0
LINE
8
BLACK
6
CONTINUOUS
10
113.234
20
-173.486
11
113.139
21
-173.39
0
LINE
8
BLACK
6
CONTINUOUS
10
113.139
20
-173.39
11
113.043
21
-173.2
0
LINE
8
BLACK
6
CONTINUOUS
10
113.043
20
-173.2
11
112.948
21
-172.819
0
LINE
8
BLACK
6
CONTINUOUS
10
112.948
20
-172.819
11
112.948
21
-172.343
0
LINE
8
BLACK
6
CONTINUOUS
10
112.948
20
-172.343
11
113.043
21
-171.962
0
LINE
8
BLACK
6
CONTINUOUS
10
113.043
20
-171.962
11
113.139
21
-171.771
0
LINE
8
BLACK
6
CONTINUOUS
10
113.139
20
-171.771
11
113.234
21
-171.676
0
LINE
8
BLACK
6
CONTINUOUS
10
113.234
20
-171.676
11
113.424
21
-171.581
0
LINE
8
BLACK
6
CONTINUOUS
10
116.472
20
-173.581
11
116.472
21
-171.581
0
LINE
8
BLACK
6
CONTINUOUS
10
117.329
20
-173.581
11
117.329
21
-172.533
0
LINE
8
BLACK
6
CONTINUOUS
10
117.329
20
-172.533
11
117.234
21
-172.343
0
LINE
8
BLACK
6
CONTINUOUS
10
117.234
20
-172.343
11
117.043
21
-172.248
0
LINE
8
BLACK
6
CONTINUOUS
10
117.043
20
-172.248
11
116.758
21
-172.248
0
LINE
8
BLACK
6
CONTINUOUS
10
116.758
20
-172.248
11
116.567
21
-172.343
0
LINE
8
BLACK
6
CONTINUOUS
10
116.567
20
-172.343
11
116.472
21
-172.438
0
LINE
8
BLACK
6
CONTINUOUS
10
118.567
20
-173.581
11
118.377
21
-173.486
0
LINE
8
BLACK
6
CONTINUOUS
10
118.377
20
-173.486
11
118.281
21
-173.39
0
LINE
8
BLACK
6
CONTINUOUS
10
118.281
20
-173.39
11
118.186
21
-173.2
0
LINE
8
BLACK
6
CONTINUOUS
10
118.186
20
-173.2
11
118.186
21
-172.628
0
LINE
8
BLACK
6
CONTINUOUS
10
118.186
20
-172.628
11
118.281
21
-172.438
0
LINE
8
BLACK
6
CONTINUOUS
10
118.281
20
-172.438
11
118.377
21
-172.343
0
LINE
8
BLACK
6
CONTINUOUS
10
118.377
20
-172.343
11
118.567
21
-172.248
0
LINE
8
BLACK
6
CONTINUOUS
10
118.567
20
-172.248
11
118.853
21
-172.248
0
LINE
8
BLACK
6
CONTINUOUS
10
118.853
20
-172.248
11
119.043
21
-172.343
0
LINE
8
BLACK
6
CONTINUOUS
10
119.043
20
-172.343
11
119.139
21
-172.438
0
LINE
8
BLACK
6
CONTINUOUS
10
119.139
20
-172.438
11
119.234
21
-172.628
0
LINE
8
BLACK
6
CONTINUOUS
10
119.234
20
-172.628
11
119.234
21
-173.2
0
LINE
8
BLACK
6
CONTINUOUS
10
119.234
20
-173.2
11
119.139
21
-173.39
0
LINE
8
BLACK
6
CONTINUOUS
10
119.139
20
-173.39
11
119.043
21
-173.486
0
LINE
8
BLACK
6
CONTINUOUS
10
119.043
20
-173.486
11
118.853
21
-173.581
0
LINE
8
BLACK
6
CONTINUOUS
10
118.853
20
-173.581
11
118.567
21
-173.581
0
LINE
8
BLACK
6
CONTINUOUS
10
120.377
20
-173.581
11
120.186
21
-173.486
0
LINE
8
BLACK
6
CONTINUOUS
10
120.186
20
-173.486
11
120.091
21
-173.295
0
LINE
8
BLACK
6
CONTINUOUS
10
120.091
20
-173.295
11
120.091
21
-171.581
0
LINE
8
BLACK
6
CONTINUOUS
10
121.9
20
-173.486
11
121.71
21
-173.581
0
LINE
8
BLACK
6
CONTINUOUS
10
121.71
20
-173.581
11
121.329
21
-173.581
0
LINE
8
BLACK
6
CONTINUOUS
10
121.329
20
-173.581
11
121.139
21
-173.486
0
LINE
8
BLACK
6
CONTINUOUS
10
121.139
20
-173.486
11
121.043
21
-173.295
0
LINE
8
BLACK
6
CONTINUOUS
10
121.043
20
-173.295
11
121.043
21
-172.533
0
LINE
8
BLACK
6
CONTINUOUS
10
121.043
20
-172.533
11
121.139
21
-172.343
0
LINE
8
BLACK
6
CONTINUOUS
10
121.139
20
-172.343
11
121.329
21
-172.248
0
LINE
8
BLACK
6
CONTINUOUS
10
121.329
20
-172.248
11
121.71
21
-172.248
0
LINE
8
BLACK
6
CONTINUOUS
10
121.71
20
-172.248
11
121.9
21
-172.343
0
LINE
8
BLACK
6
CONTINUOUS
10
121.9
20
-172.343
11
121.996
21
-172.533
0
LINE
8
BLACK
6
CONTINUOUS
10
121.996
20
-172.533
11
121.996
21
-172.724
0
LINE
8
BLACK
6
CONTINUOUS
10
121.996
20
-172.724
11
121.043
21
-172.914
0
LINE
8
BLACK
6
CONTINUOUS
10
122.758
20
-173.486
11
122.948
21
-173.581
0
LINE
8
BLACK
6
CONTINUOUS
10
122.948
20
-173.581
11
123.329
21
-173.581
0
LINE
8
BLACK
6
CONTINUOUS
10
123.329
20
-173.581
11
123.519
21
-173.486
0
LINE
8
BLACK
6
CONTINUOUS
10
123.519
20
-173.486
11
123.615
21
-173.295
0
LINE
8
BLACK
6
CONTINUOUS
10
123.615
20
-173.295
11
123.615
21
-173.2
0
LINE
8
BLACK
6
CONTINUOUS
10
123.615
20
-173.2
11
123.519
21
-173.009
0
LINE
8
BLACK
6
CONTINUOUS
10
123.519
20
-173.009
11
123.329
21
-172.914
0
LINE
8
BLACK
6
CONTINUOUS
10
123.329
20
-172.914
11
123.043
21
-172.914
0
LINE
8
BLACK
6
CONTINUOUS
10
123.043
20
-172.914
11
122.853
21
-172.819
0
LINE
8
BLACK
6
CONTINUOUS
10
122.853
20
-172.819
11
122.758
21
-172.628
0
LINE
8
BLACK
6
CONTINUOUS
10
122.758
20
-172.628
11
122.758
21
-172.533
0
LINE
8
BLACK
6
CONTINUOUS
10
122.758
20
-172.533
11
122.853
21
-172.343
0
LINE
8
BLACK
6
CONTINUOUS
10
122.853
20
-172.343
11
123.043
21
-172.248
0
LINE
8
BLACK
6
CONTINUOUS
10
123.043
20
-172.248
11
123.329
21
-172.248
0
LINE
8
BLACK
6
CONTINUOUS
10
123.329
20
-172.248
11
123.519
21
-172.343
0
LINE
8
BLACK
6
CONTINUOUS
10
125.996
20
-172.819
11
127.519
21
-172.819
0
LINE
8
BLACK
6
CONTINUOUS
10
126.758
20
-173.581
11
126.758
21
-172.057
0
LINE
8
BLACK
6
CONTINUOUS
10
129.805
20
-171.581
11
131.043
21
-171.581
0
LINE
8
BLACK
6
CONTINUOUS
10
131.043
20
-171.581
11
130.377
21
-172.343
0
LINE
8
BLACK
6
CONTINUOUS
10
130.377
20
-172.343
11
130.662
21
-172.343
0
LINE
8
BLACK
6
CONTINUOUS
10
130.662
20
-172.343
11
130.853
21
-172.438
0
LINE
8
BLACK
6
CONTINUOUS
10
130.853
20
-172.438
11
130.948
21
-172.533
0
LINE
8
BLACK
6
CONTINUOUS
10
130.948
20
-172.533
11
131.043
21
-172.724
0
LINE
8
BLACK
6
CONTINUOUS
10
131.043
20
-172.724
11
131.043
21
-173.2
0
LINE
8
BLACK
6
CONTINUOUS
10
131.043
20
-173.2
11
130.948
21
-173.39
0
LINE
8
BLACK
6
CONTINUOUS
10
130.948
20
-173.39
11
130.853
21
-173.486
0
LINE
8
BLACK
6
CONTINUOUS
10
130.853
20
-173.486
11
130.662
21
-173.581
0
LINE
8
BLACK
6
CONTINUOUS
10
130.662
20
-173.581
11
130.091
21
-173.581
0
LINE
8
BLACK
6
CONTINUOUS
10
130.091
20
-173.581
11
129.9
21
-173.486
0
LINE
8
BLACK
6
CONTINUOUS
10
129.9
20
-173.486
11
129.805
21
-173.39
0
LINE
8
BLACK
6
CONTINUOUS
10
132.758
20
-172.248
11
132.758
21
-173.581
0
LINE
8
BLACK
6
CONTINUOUS
10
132.281
20
-171.486
11
131.805
21
-172.914
0
LINE
8
BLACK
6
CONTINUOUS
10
131.805
20
-172.914
11
133.043
21
-172.914
0
LINE
8
BLACK
6
CONTINUOUS
10
135.234
20
-173.486
11
135.424
21
-173.581
0
LINE
8
BLACK
6
CONTINUOUS
10
135.424
20
-173.581
11
135.805
21
-173.581
0
LINE
8
BLACK
6
CONTINUOUS
10
135.805
20
-173.581
11
135.996
21
-173.486
0
LINE
8
BLACK
6
CONTINUOUS
10
135.996
20
-173.486
11
136.091
21
-173.295
0
LINE
8
BLACK
6
CONTINUOUS
10
136.091
20
-173.295
11
136.091
21
-173.2
0
LINE
8
BLACK
6
CONTINUOUS
10
136.091
20
-173.2
11
135.996
21
-173.009
0
LINE
8
BLACK
6
CONTINUOUS
10
135.996
20
-173.009
11
135.805
21
-172.914
0
LINE
8
BLACK
6
CONTINUOUS
10
135.805
20
-172.914
11
135.519
21
-172.914
0
LINE
8
BLACK
6
CONTINUOUS
10
135.519
20
-172.914
11
135.329
21
-172.819
0
LINE
8
BLACK
6
CONTINUOUS
10
135.329
20
-172.819
11
135.234
21
-172.628
0
LINE
8
BLACK
6
CONTINUOUS
10
135.234
20
-172.628
11
135.234
21
-172.533
0
LINE
8
BLACK
6
CONTINUOUS
10
135.234
20
-172.533
11
135.329
21
-172.343
0
LINE
8
BLACK
6
CONTINUOUS
10
135.329
20
-172.343
11
135.519
21
-172.248
0
LINE
8
BLACK
6
CONTINUOUS
10
135.519
20
-172.248
11
135.805
21
-172.248
0
LINE
8
BLACK
6
CONTINUOUS
10
135.805
20
-172.248
11
135.996
21
-172.343
0
LINE
8
BLACK
6
CONTINUOUS
10
137.234
20
-173.581
11
137.043
21
-173.486
0
LINE
8
BLACK
6
CONTINUOUS
10
137.043
20
-173.486
11
136.948
21
-173.295
0
LINE
8
BLACK
6
CONTINUOUS
10
136.948
20
-173.295
11
136.948
21
-171.581
0
LINE
8
BLACK
6
CONTINUOUS
10
138.281
20
-173.581
11
138.091
21
-173.486
0
LINE
8
BLACK
6
CONTINUOUS
10
138.091
20
-173.486
11
137.996
21
-173.39
0
LINE
8
BLACK
6
CONTINUOUS
10
137.996
20
-173.39
11
137.9
21
-173.2
0
LINE
8
BLACK
6
CONTINUOUS
10
137.9
20
-173.2
11
137.9
21
-172.628
0
LINE
8
BLACK
6
CONTINUOUS
10
137.9
20
-172.628
11
137.996
21
-172.438
0
LINE
8
BLACK
6
CONTINUOUS
10
137.996
20
-172.438
11
138.091
21
-172.343
0
LINE
8
BLACK
6
CONTINUOUS
10
138.091
20
-172.343
11
138.281
21
-172.248
0
LINE
8
BLACK
6
CONTINUOUS
10
138.281
20
-172.248
11
138.567
21
-172.248
0
LINE
8
BLACK
6
CONTINUOUS
10
138.567
20
-172.248
11
138.758
21
-172.343
0
LINE
8
BLACK
6
CONTINUOUS
10
138.758
20
-172.343
11
138.853
21
-172.438
0
LINE
8
BLACK
6
CONTINUOUS
10
138.853
20
-172.438
11
138.948
21
-172.628
0
LINE
8
BLACK
6
CONTINUOUS
10
138.948
20
-172.628
11
138.948
21
-173.2
0
LINE
8
BLACK
6
CONTINUOUS
10
138.948
20
-173.2
11
138.853
21
-173.39
0
LINE
8
BLACK
6
CONTINUOUS
10
138.853
20
-173.39
11
138.758
21
-173.486
0
LINE
8
BLACK
6
CONTINUOUS
10
138.758
20
-173.486
11
138.567
21
-173.581
0
LINE
8
BLACK
6
CONTINUOUS
10
138.567
20
-173.581
11
138.281
21
-173.581
0
LINE
8
BLACK
6
CONTINUOUS
10
139.519
20
-172.248
11
140.281
21
-172.248
0
LINE
8
BLACK
6
CONTINUOUS
10
139.805
20
-171.581
11
139.805
21
-173.295
0
LINE
8
BLACK
6
CONTINUOUS
10
139.805
20
-173.295
11
139.9
21
-173.486
0
LINE
8
BLACK
6
CONTINUOUS
10
139.9
20
-173.486
11
140.091
21
-173.581
0
LINE
8
BLACK
6
CONTINUOUS
10
140.091
20
-173.581
11
140.281
21
-173.581
0
LINE
8
BLACK
6
CONTINUOUS
10
140.853
20
-173.486
11
141.043
21
-173.581
0
LINE
8
BLACK
6
CONTINUOUS
10
141.043
20
-173.581
11
141.424
21
-173.581
0
LINE
8
BLACK
6
CONTINUOUS
10
141.424
20
-173.581
11
141.615
21
-173.486
0
LINE
8
BLACK
6
CONTINUOUS
10
141.615
20
-173.486
11
141.71
21
-173.295
0
LINE
8
BLACK
6
CONTINUOUS
10
141.71
20
-173.295
11
141.71
21
-173.2
0
LINE
8
BLACK
6
CONTINUOUS
10
141.71
20
-173.2
11
141.615
21
-173.009
0
LINE
8
BLACK
6
CONTINUOUS
10
141.615
20
-173.009
11
141.424
21
-172.914
0
LINE
8
BLACK
6
CONTINUOUS
10
141.424
20
-172.914
11
141.139
21
-172.914
0
LINE
8
BLACK
6
CONTINUOUS
10
141.139
20
-172.914
11
140.948
21
-172.819
0
LINE
8
BLACK
6
CONTINUOUS
10
140.948
20
-172.819
11
140.853
21
-172.628
0
LINE
8
BLACK
6
CONTINUOUS
10
140.853
20
-172.628
11
140.853
21
-172.533
0
LINE
8
BLACK
6
CONTINUOUS
10
140.853
20
-172.533
11
140.948
21
-172.343
0
LINE
8
BLACK
6
CONTINUOUS
10
140.948
20
-172.343
11
141.139
21
-172.248
0
LINE
8
BLACK
6
CONTINUOUS
10
141.139
20
-172.248
11
141.424
21
-172.248
0
LINE
8
BLACK
6
CONTINUOUS
10
141.424
20
-172.248
11
141.615
21
-172.343
0
LINE
8
BLACK
6
CONTINUOUS
10
142.377
20
-174.343
11
142.472
21
-174.248
0
LINE
8
BLACK
6
CONTINUOUS
10
142.472
20
-174.248
11
142.662
21
-173.962
0
LINE
8
BLACK
6
CONTINUOUS
10
142.662
20
-173.962
11
142.758
21
-173.771
0
LINE
8
BLACK
6
CONTINUOUS
10
142.758
20
-173.771
11
142.853
21
-173.486
0
LINE
8
BLACK
6
CONTINUOUS
10
142.853
20
-173.486
11
142.948
21
-173.009
0
LINE
8
BLACK
6
CONTINUOUS
10
142.948
20
-173.009
11
142.948
21
-172.628
0
LINE
8
BLACK
6
CONTINUOUS
10
142.948
20
-172.628
11
142.853
21
-172.152
0
LINE
8
BLACK
6
CONTINUOUS
10
142.853
20
-172.152
11
142.758
21
-171.867
0
LINE
8
BLACK
6
CONTINUOUS
10
142.758
20
-171.867
11
142.662
21
-171.676
0
LINE
8
BLACK
6
CONTINUOUS
10
142.662
20
-171.676
11
142.472
21
-171.39
0
LINE
8
BLACK
6
CONTINUOUS
10
142.472
20
-171.39
11
142.377
21
-171.295
0
LINE
8
BLACK
6
CONTINUOUS
10
74.126
20
-174.806
11
74.126
21
-175.806
0
LINE
8
BLACK
6
CONTINUOUS
10
73.626
20
-175.306
11
74.626
21
-175.306
0
LINE
8
BLACK
6
CONTINUOUS
10
78.2814
20
-176.221
11
77.1385
21
-176.221
0
LINE
8
BLACK
6
CONTINUOUS
10
77.71
20
-176.221
11
77.71
21
-174.221
0
LINE
8
BLACK
6
CONTINUOUS
10
77.71
20
-174.221
11
77.5195
21
-174.507
0
LINE
8
BLACK
6
CONTINUOUS
10
77.5195
20
-174.507
11
77.329
21
-174.697
0
LINE
8
BLACK
6
CONTINUOUS
10
77.329
20
-174.697
11
77.1385
21
-174.792
0
LINE
8
BLACK
6
CONTINUOUS
10
79.1385
20
-176.03
11
79.2338
21
-176.126
0
LINE
8
BLACK
6
CONTINUOUS
10
79.2338
20
-176.126
11
79.1385
21
-176.221
0
LINE
8
BLACK
6
CONTINUOUS
10
79.1385
20
-176.221
11
79.0433
21
-176.126
0
LINE
8
BLACK
6
CONTINUOUS
10
79.0433
20
-176.126
11
79.1385
21
-176.03
0
LINE
8
BLACK
6
CONTINUOUS
10
79.1385
20
-176.03
11
79.1385
21
-176.221
0
LINE
8
BLACK
6
CONTINUOUS
10
80.4719
20
-174.221
11
80.6623
21
-174.221
0
LINE
8
BLACK
6
CONTINUOUS
10
80.6623
20
-174.221
11
80.8528
21
-174.316
0
LINE
8
BLACK
6
CONTINUOUS
10
80.8528
20
-174.316
11
80.9481
21
-174.411
0
LINE
8
BLACK
6
CONTINUOUS
10
80.9481
20
-174.411
11
81.0433
21
-174.602
0
LINE
8
BLACK
6
CONTINUOUS
10
81.0433
20
-174.602
11
81.1385
21
-174.983
0
LINE
8
BLACK
6
CONTINUOUS
10
81.1385
20
-174.983
11
81.1385
21
-175.459
0
LINE
8
BLACK
6
CONTINUOUS
10
81.1385
20
-175.459
11
81.0433
21
-175.84
0
LINE
8
BLACK
6
CONTINUOUS
10
81.0433
20
-175.84
11
80.9481
21
-176.03
0
LINE
8
BLACK
6
CONTINUOUS
10
80.9481
20
-176.03
11
80.8528
21
-176.126
0
LINE
8
BLACK
6
CONTINUOUS
10
80.8528
20
-176.126
11
80.6623
21
-176.221
0
LINE
8
BLACK
6
CONTINUOUS
10
80.6623
20
-176.221
11
80.4719
21
-176.221
0
LINE
8
BLACK
6
CONTINUOUS
10
80.4719
20
-176.221
11
80.2814
21
-176.126
0
LINE
8
BLACK
6
CONTINUOUS
10
80.2814
20
-176.126
11
80.1861
21
-176.03
0
LINE
8
BLACK
6
CONTINUOUS
10
80.1861
20
-176.03
11
80.0909
21
-175.84
0
LINE
8
BLACK
6
CONTINUOUS
10
80.0909
20
-175.84
11
79.9957
21
-175.459
0
LINE
8
BLACK
6
CONTINUOUS
10
79.9957
20
-175.459
11
79.9957
21
-174.983
0
LINE
8
BLACK
6
CONTINUOUS
10
79.9957
20
-174.983
11
80.0909
21
-174.602
0
LINE
8
BLACK
6
CONTINUOUS
10
80.0909
20
-174.602
11
80.1861
21
-174.411
0
LINE
8
BLACK
6
CONTINUOUS
10
80.1861
20
-174.411
11
80.2814
21
-174.316
0
LINE
8
BLACK
6
CONTINUOUS
10
80.2814
20
-174.316
11
80.4719
21
-174.221
0
LINE
8
BLACK
6
CONTINUOUS
10
82.3766
20
-174.221
11
82.5671
21
-174.221
0
LINE
8
BLACK
6
CONTINUOUS
10
82.5671
20
-174.221
11
82.7576
21
-174.316
0
LINE
8
BLACK
6
CONTINUOUS
10
82.7576
20
-174.316
11
82.8528
21
-174.411
0
LINE
8
BLACK
6
CONTINUOUS
10
82.8528
20
-174.411
11
82.9481
21
-174.602
0
LINE
8
BLACK
6
CONTINUOUS
10
82.9481
20
-174.602
11
83.0433
21
-174.983
0
LINE
8
BLACK
6
CONTINUOUS
10
83.0433
20
-174.983
11
83.0433
21
-175.459
0
LINE
8
BLACK
6
CONTINUOUS
10
83.0433
20
-175.459
11
82.9481
21
-175.84
0
LINE
8
BLACK
6
CONTINUOUS
10
82.9481
20
-175.84
11
82.8528
21
-176.03
0
LINE
8
BLACK
6
CONTINUOUS
10
82.8528
20
-176.03
11
82.7576
21
-176.126
0
LINE
8
BLACK
6
CONTINUOUS
10
82.7576
20
-176.126
11
82.5671
21
-176.221
0
LINE
8
BLACK
6
CONTINUOUS
10
82.5671
20
-176.221
11
82.3766
21
-176.221
0
LINE
8
BLACK
6
CONTINUOUS
10
82.3766
20
-176.221
11
82.1861
21
-176.126
0
LINE
8
BLACK
6
CONTINUOUS
10
82.1861
20
-176.126
11
82.0909
21
-176.03
0
LINE
8
BLACK
6
CONTINUOUS
10
82.0909
20
-176.03
11
81.9957
21
-175.84
0
LINE
8
BLACK
6
CONTINUOUS
10
81.9957
20
-175.84
11
81.9004
21
-175.459
0
LINE
8
BLACK
6
CONTINUOUS
10
81.9004
20
-175.459
11
81.9004
21
-174.983
0
LINE
8
BLACK
6
CONTINUOUS
10
81.9004
20
-174.983
11
81.9957
21
-174.602
0
LINE
8
BLACK
6
CONTINUOUS
10
81.9957
20
-174.602
11
82.0909
21
-174.411
0
LINE
8
BLACK
6
CONTINUOUS
10
82.0909
20
-174.411
11
82.1861
21
-174.316
0
LINE
8
BLACK
6
CONTINUOUS
10
82.1861
20
-174.316
11
82.3766
21
-174.221
0
LINE
8
BLACK
6
CONTINUOUS
10
84.2814
20
-174.221
11
84.4719
21
-174.221
0
LINE
8
BLACK
6
CONTINUOUS
10
84.4719
20
-174.221
11
84.6623
21
-174.316
0
LINE
8
BLACK
6
CONTINUOUS
10
84.6623
20
-174.316
11
84.7576
21
-174.411
0
LINE
8
BLACK
6
CONTINUOUS
10
84.7576
20
-174.411
11
84.8528
21
-174.602
0
LINE
8
BLACK
6
CONTINUOUS
10
84.8528
20
-174.602
11
84.9481
21
-174.983
0
LINE
8
BLACK
6
CONTINUOUS
10
84.9481
20
-174.983
11
84.9481
21
-175.459
0
LINE
8
BLACK
6
CONTINUOUS
10
84.9481
20
-175.459
11
84.8528
21
-175.84
0
LINE
8
BLACK
6
CONTINUOUS
10
84.8528
20
-175.84
11
84.7576
21
-176.03
0
LINE
8
BLACK
6
CONTINUOUS
10
84.7576
20
-176.03
11
84.6623
21
-176.126
0
LINE
8
BLACK
6
CONTINUOUS
10
84.6623
20
-176.126
11
84.4719
21
-176.221
0
LINE
8
BLACK
6
CONTINUOUS
10
84.4719
20
-176.221
11
84.2814
21
-176.221
0
LINE
8
BLACK
6
CONTINUOUS
10
84.2814
20
-176.221
11
84.0909
21
-176.126
0
LINE
8
BLACK
6
CONTINUOUS
10
84.0909
20
-176.126
11
83.9957
21
-176.03
0
LINE
8
BLACK
6
CONTINUOUS
10
83.9957
20
-176.03
11
83.9004
21
-175.84
0
LINE
8
BLACK
6
CONTINUOUS
10
83.9004
20
-175.84
11
83.8052
21
-175.459
0
LINE
8
BLACK
6
CONTINUOUS
10
83.8052
20
-175.459
11
83.8052
21
-174.983
0
LINE
8
BLACK
6
CONTINUOUS
10
83.8052
20
-174.983
11
83.9004
21
-174.602
0
LINE
8
BLACK
6
CONTINUOUS
10
83.9004
20
-174.602
11
83.9957
21
-174.411
0
LINE
8
BLACK
6
CONTINUOUS
10
83.9957
20
-174.411
11
84.0909
21
-174.316
0
LINE
8
BLACK
6
CONTINUOUS
10
84.0909
20
-174.316
11
84.2814
21
-174.221
0
LINE
8
BLACK
6
CONTINUOUS
10
85.8052
20
-176.221
11
85.8052
21
-174.888
0
LINE
8
BLACK
6
CONTINUOUS
10
85.8052
20
-175.078
11
85.9004
21
-174.983
0
LINE
8
BLACK
6
CONTINUOUS
10
85.9004
20
-174.983
11
86.0909
21
-174.888
0
LINE
8
BLACK
6
CONTINUOUS
10
86.0909
20
-174.888
11
86.3766
21
-174.888
0
LINE
8
BLACK
6
CONTINUOUS
10
86.3766
20
-174.888
11
86.5671
21
-174.983
0
LINE
8
BLACK
6
CONTINUOUS
10
86.5671
20
-174.983
11
86.6623
21
-175.173
0
LINE
8
BLACK
6
CONTINUOUS
10
86.6623
20
-175.173
11
86.6623
21
-176.221
0
LINE
8
BLACK
6
CONTINUOUS
10
86.6623
20
-175.173
11
86.7576
21
-174.983
0
LINE
8
BLACK
6
CONTINUOUS
10
86.7576
20
-174.983
11
86.9481
21
-174.888
0
LINE
8
BLACK
6
CONTINUOUS
10
86.9481
20
-174.888
11
87.2338
21
-174.888
0
LINE
8
BLACK
6
CONTINUOUS
10
87.2338
20
-174.888
11
87.4242
21
-174.983
0
LINE
8
BLACK
6
CONTINUOUS
10
87.4242
20
-174.983
11
87.5195
21
-175.173
0
LINE
8
BLACK
6
CONTINUOUS
10
87.5195
20
-175.173
11
87.5195
21
-176.221
0
LINE
8
BLACK
6
CONTINUOUS
10
88.4719
20
-176.221
11
88.4719
21
-174.888
0
LINE
8
BLACK
6
CONTINUOUS
10
88.4719
20
-175.078
11
88.5671
21
-174.983
0
LINE
8
BLACK
6
CONTINUOUS
10
88.5671
20
-174.983
11
88.7576
21
-174.888
0
LINE
8
BLACK
6
CONTINUOUS
10
88.7576
20
-174.888
11
89.0433
21
-174.888
0
LINE
8
BLACK
6
CONTINUOUS
10
89.0433
20
-174.888
11
89.2338
21
-174.983
0
LINE
8
BLACK
6
CONTINUOUS
10
89.2338
20
-174.983
11
89.329
21
-175.173
0
LINE
8
BLACK
6
CONTINUOUS
10
89.329
20
-175.173
11
89.329
21
-176.221
0
LINE
8
BLACK
6
CONTINUOUS
10
89.329
20
-175.173
11
89.4242
21
-174.983
0
LINE
8
BLACK
6
CONTINUOUS
10
89.4242
20
-174.983
11
89.6147
21
-174.888
0
LINE
8
BLACK
6
CONTINUOUS
10
89.6147
20
-174.888
11
89.9004
21
-174.888
0
LINE
8
BLACK
6
CONTINUOUS
10
89.9004
20
-174.888
11
90.0909
21
-174.983
0
LINE
8
BLACK
6
CONTINUOUS
10
90.0909
20
-174.983
11
90.1861
21
-175.173
0
LINE
8
BLACK
6
CONTINUOUS
10
90.1861
20
-175.173
11
90.1861
21
-176.221
0
LINE
8
BLACK
6
CONTINUOUS
10
94.0909
20
-174.126
11
92.3766
21
-176.697
0
LINE
8
BLACK
6
CONTINUOUS
10
96.6623
20
-174.221
11
96.8528
21
-174.221
0
LINE
8
BLACK
6
CONTINUOUS
10
96.8528
20
-174.221
11
97.0433
21
-174.316
0
LINE
8
BLACK
6
CONTINUOUS
10
97.0433
20
-174.316
11
97.1385
21
-174.411
0
LINE
8
BLACK
6
CONTINUOUS
10
97.1385
20
-174.411
11
97.2338
21
-174.602
0
LINE
8
BLACK
6
CONTINUOUS
10
97.2338
20
-174.602
11
97.329
21
-174.983
0
LINE
8
BLACK
6
CONTINUOUS
10
97.329
20
-174.983
11
97.329
21
-175.459
0
LINE
8
BLACK
6
CONTINUOUS
10
97.329
20
-175.459
11
97.2338
21
-175.84
0
LINE
8
BLACK
6
CONTINUOUS
10
97.2338
20
-175.84
11
97.1385
21
-176.03
0
LINE
8
BLACK
6
CONTINUOUS
10
97.1385
20
-176.03
11
97.0433
21
-176.126
0
LINE
8
BLACK
6
CONTINUOUS
10
97.0433
20
-176.126
11
96.8528
21
-176.221
0
LINE
8
BLACK
6
CONTINUOUS
10
96.8528
20
-176.221
11
96.6623
21
-176.221
0
LINE
8
BLACK
6
CONTINUOUS
10
96.6623
20
-176.221
11
96.4719
21
-176.126
0
LINE
8
BLACK
6
CONTINUOUS
10
96.4719
20
-176.126
11
96.3766
21
-176.03
0
LINE
8
BLACK
6
CONTINUOUS
10
96.3766
20
-176.03
11
96.2814
21
-175.84
0
LINE
8
BLACK
6
CONTINUOUS
10
96.2814
20
-175.84
11
96.1862
21
-175.459
0
LINE
8
BLACK
6
CONTINUOUS
10
96.1862
20
-175.459
11
96.1862
21
-174.983
0
LINE
8
BLACK
6
CONTINUOUS
10
96.1862
20
-174.983
11
96.2814
21
-174.602
0
LINE
8
BLACK
6
CONTINUOUS
10
96.2814
20
-174.602
11
96.3766
21
-174.411
0
LINE
8
BLACK
6
CONTINUOUS
10
96.3766
20
-174.411
11
96.4719
21
-174.316
0
LINE
8
BLACK
6
CONTINUOUS
10
96.4719
20
-174.316
11
96.6623
21
-174.221
0
LINE
8
BLACK
6
CONTINUOUS
10
98.1862
20
-176.03
11
98.2814
21
-176.126
0
LINE
8
BLACK
6
CONTINUOUS
10
98.2814
20
-176.126
11
98.1862
21
-176.221
0
LINE
8
BLACK
6
CONTINUOUS
10
98.1862
20
-176.221
11
98.0909
21
-176.126
0
LINE
8
BLACK
6
CONTINUOUS
10
98.0909
20
-176.126
11
98.1862
21
-176.03
0
LINE
8
BLACK
6
CONTINUOUS
10
98.1862
20
-176.03
11
98.1862
21
-176.221
0
LINE
8
BLACK
6
CONTINUOUS
10
99.5195
20
-174.221
11
99.71
21
-174.221
0
LINE
8
BLACK
6
CONTINUOUS
10
99.71
20
-174.221
11
99.9004
21
-174.316
0
LINE
8
BLACK
6
CONTINUOUS
10
99.9004
20
-174.316
11
99.9957
21
-174.411
0
LINE
8
BLACK
6
CONTINUOUS
10
99.9957
20
-174.411
11
100.091
21
-174.602
0
LINE
8
BLACK
6
CONTINUOUS
10
100.091
20
-174.602
11
100.186
21
-174.983
0
LINE
8
BLACK
6
CONTINUOUS
10
100.186
20
-174.983
11
100.186
21
-175.459
0
LINE
8
BLACK
6
CONTINUOUS
10
100.186
20
-175.459
11
100.091
21
-175.84
0
LINE
8
BLACK
6
CONTINUOUS
10
100.091
20
-175.84
11
99.9957
21
-176.03
0
LINE
8
BLACK
6
CONTINUOUS
10
99.9957
20
-176.03
11
99.9004
21
-176.126
0
LINE
8
BLACK
6
CONTINUOUS
10
99.9004
20
-176.126
11
99.71
21
-176.221
0
LINE
8
BLACK
6
CONTINUOUS
10
99.71
20
-176.221
11
99.5195
21
-176.221
0
LINE
8
BLACK
6
CONTINUOUS
10
99.5195
20
-176.221
11
99.329
21
-176.126
0
LINE
8
BLACK
6
CONTINUOUS
10
99.329
20
-176.126
11
99.2338
21
-176.03
0
LINE
8
BLACK
6
CONTINUOUS
10
99.2338
20
-176.03
11
99.1385
21
-175.84
0
LINE
8
BLACK
6
CONTINUOUS
10
99.1385
20
-175.84
11
99.0433
21
-175.459
0
LINE
8
BLACK
6
CONTINUOUS
10
99.0433
20
-175.459
11
99.0433
21
-174.983
0
LINE
8
BLACK
6
CONTINUOUS
10
99.0433
20
-174.983
11
99.1385
21
-174.602
0
LINE
8
BLACK
6
CONTINUOUS
10
99.1385
20
-174.602
11
99.2338
21
-174.411
0
LINE
8
BLACK
6
CONTINUOUS
10
99.2338
20
-174.411
11
99.329
21
-174.316
0
LINE
8
BLACK
6
CONTINUOUS
10
99.329
20
-174.316
11
99.5195
21
-174.221
0
LINE
8
BLACK
6
CONTINUOUS
10
100.853
20
-174.221
11
102.091
21
-174.221
0
LINE
8
BLACK
6
CONTINUOUS
10
102.091
20
-174.221
11
101.424
21
-174.983
0
LINE
8
BLACK
6
CONTINUOUS
10
101.424
20
-174.983
11
101.71
21
-174.983
0
LINE
8
BLACK
6
CONTINUOUS
10
101.71
20
-174.983
11
101.9
21
-175.078
0
LINE
8
BLACK
6
CONTINUOUS
10
101.9
20
-175.078
11
101.996
21
-175.173
0
LINE
8
BLACK
6
CONTINUOUS
10
101.996
20
-175.173
11
102.091
21
-175.364
0
LINE
8
BLACK
6
CONTINUOUS
10
102.091
20
-175.364
11
102.091
21
-175.84
0
LINE
8
BLACK
6
CONTINUOUS
10
102.091
20
-175.84
11
101.996
21
-176.03
0
LINE
8
BLACK
6
CONTINUOUS
10
101.996
20
-176.03
11
101.9
21
-176.126
0
LINE
8
BLACK
6
CONTINUOUS
10
101.9
20
-176.126
11
101.71
21
-176.221
0
LINE
8
BLACK
6
CONTINUOUS
10
101.71
20
-176.221
11
101.139
21
-176.221
0
LINE
8
BLACK
6
CONTINUOUS
10
101.139
20
-176.221
11
100.948
21
-176.126
0
LINE
8
BLACK
6
CONTINUOUS
10
100.948
20
-176.126
11
100.853
21
-176.03
0
LINE
8
BLACK
6
CONTINUOUS
10
103.043
20
-176.221
11
103.424
21
-176.221
0
LINE
8
BLACK
6
CONTINUOUS
10
103.424
20
-176.221
11
103.615
21
-176.126
0
LINE
8
BLACK
6
CONTINUOUS
10
103.615
20
-176.126
11
103.71
21
-176.03
0
LINE
8
BLACK
6
CONTINUOUS
10
103.71
20
-176.03
11
103.9
21
-175.745
0
LINE
8
BLACK
6
CONTINUOUS
10
103.9
20
-175.745
11
103.996
21
-175.364
0
LINE
8
BLACK
6
CONTINUOUS
10
103.996
20
-175.364
11
103.996
21
-174.602
0
LINE
8
BLACK
6
CONTINUOUS
10
103.996
20
-174.602
11
103.9
21
-174.411
0
LINE
8
BLACK
6
CONTINUOUS
10
103.9
20
-174.411
11
103.805
21
-174.316
0
LINE
8
BLACK
6
CONTINUOUS
10
103.805
20
-174.316
11
103.615
21
-174.221
0
LINE
8
BLACK
6
CONTINUOUS
10
103.615
20
-174.221
11
103.234
21
-174.221
0
LINE
8
BLACK
6
CONTINUOUS
10
103.234
20
-174.221
11
103.043
21
-174.316
0
LINE
8
BLACK
6
CONTINUOUS
10
103.043
20
-174.316
11
102.948
21
-174.411
0
LINE
8
BLACK
6
CONTINUOUS
10
102.948
20
-174.411
11
102.853
21
-174.602
0
LINE
8
BLACK
6
CONTINUOUS
10
102.853
20
-174.602
11
102.853
21
-175.078
0
LINE
8
BLACK
6
CONTINUOUS
10
102.853
20
-175.078
11
102.948
21
-175.268
0
LINE
8
BLACK
6
CONTINUOUS
10
102.948
20
-175.268
11
103.043
21
-175.364
0
LINE
8
BLACK
6
CONTINUOUS
10
103.043
20
-175.364
11
103.234
21
-175.459
0
LINE
8
BLACK
6
CONTINUOUS
10
103.234
20
-175.459
11
103.615
21
-175.459
0
LINE
8
BLACK
6
CONTINUOUS
10
103.615
20
-175.459
11
103.805
21
-175.364
0
LINE
8
BLACK
6
CONTINUOUS
10
103.805
20
-175.364
11
103.9
21
-175.268
0
LINE
8
BLACK
6
CONTINUOUS
10
103.9
20
-175.268
11
103.996
21
-175.078
0
LINE
8
BLACK
6
CONTINUOUS
10
105.71
20
-174.888
11
105.71
21
-176.221
0
LINE
8
BLACK
6
CONTINUOUS
10
105.234
20
-174.126
11
104.758
21
-175.554
0
LINE
8
BLACK
6
CONTINUOUS
10
104.758
20
-175.554
11
105.996
21
-175.554
0
LINE
8
BLACK
6
CONTINUOUS
10
106.662
20
-174.221
11
106.662
21
-174.602
0
LINE
8
BLACK
6
CONTINUOUS
10
107.424
20
-174.221
11
107.424
21
-174.602
0
LINE
8
BLACK
6
CONTINUOUS
10
110.377
20
-176.983
11
110.281
21
-176.888
0
LINE
8
BLACK
6
CONTINUOUS
10
110.281
20
-176.888
11
110.091
21
-176.602
0
LINE
8
BLACK
6
CONTINUOUS
10
110.091
20
-176.602
11
109.996
21
-176.411
0
LINE
8
BLACK
6
CONTINUOUS
10
109.996
20
-176.411
11
109.9
21
-176.126
0
LINE
8
BLACK
6
CONTINUOUS
10
109.9
20
-176.126
11
109.805
21
-175.649
0
LINE
8
BLACK
6
CONTINUOUS
10
109.805
20
-175.649
11
109.805
21
-175.268
0
LINE
8
BLACK
6
CONTINUOUS
10
109.805
20
-175.268
11
109.9
21
-174.792
0
LINE
8
BLACK
6
CONTINUOUS
10
109.9
20
-174.792
11
109.996
21
-174.507
0
LINE
8
BLACK
6
CONTINUOUS
10
109.996
20
-174.507
11
110.091
21
-174.316
0
LINE
8
BLACK
6
CONTINUOUS
10
110.091
20
-174.316
11
110.281
21
-174.03
0
LINE
8
BLACK
6
CONTINUOUS
10
110.281
20
-174.03
11
110.377
21
-173.935
0
LINE
8
BLACK
6
CONTINUOUS
10
111.234
20
-176.221
11
111.615
21
-176.221
0
LINE
8
BLACK
6
CONTINUOUS
10
111.615
20
-176.221
11
111.805
21
-176.126
0
LINE
8
BLACK
6
CONTINUOUS
10
111.805
20
-176.126
11
111.9
21
-176.03
0
LINE
8
BLACK
6
CONTINUOUS
10
111.9
20
-176.03
11
112.091
21
-175.745
0
LINE
8
BLACK
6
CONTINUOUS
10
112.091
20
-175.745
11
112.186
21
-175.364
0
LINE
8
BLACK
6
CONTINUOUS
10
112.186
20
-175.364
11
112.186
21
-174.602
0
LINE
8
BLACK
6
CONTINUOUS
10
112.186
20
-174.602
11
112.091
21
-174.411
0
LINE
8
BLACK
6
CONTINUOUS
10
112.091
20
-174.411
11
111.996
21
-174.316
0
LINE
8
BLACK
6
CONTINUOUS
10
111.996
20
-174.316
11
111.805
21
-174.221
0
LINE
8
BLACK
6
CONTINUOUS
10
111.805
20
-174.221
11
111.424
21
-174.221
0
LINE
8
BLACK
6
CONTINUOUS
10
111.424
20
-174.221
11
111.234
21
-174.316
0
LINE
8
BLACK
6
CONTINUOUS
10
111.234
20
-174.316
11
111.139
21
-174.411
0
LINE
8
BLACK
6
CONTINUOUS
10
111.139
20
-174.411
11
111.043
21
-174.602
0
LINE
8
BLACK
6
CONTINUOUS
10
111.043
20
-174.602
11
111.043
21
-175.078
0
LINE
8
BLACK
6
CONTINUOUS
10
111.043
20
-175.078
11
111.139
21
-175.268
0
LINE
8
BLACK
6
CONTINUOUS
10
111.139
20
-175.268
11
111.234
21
-175.364
0
LINE
8
BLACK
6
CONTINUOUS
10
111.234
20
-175.364
11
111.424
21
-175.459
0
LINE
8
BLACK
6
CONTINUOUS
10
111.424
20
-175.459
11
111.805
21
-175.459
0
LINE
8
BLACK
6
CONTINUOUS
10
111.805
20
-175.459
11
111.996
21
-175.364
0
LINE
8
BLACK
6
CONTINUOUS
10
111.996
20
-175.364
11
112.091
21
-175.268
0
LINE
8
BLACK
6
CONTINUOUS
10
112.091
20
-175.268
11
112.186
21
-175.078
0
LINE
8
BLACK
6
CONTINUOUS
10
114.567
20
-176.221
11
114.567
21
-174.221
0
LINE
8
BLACK
6
CONTINUOUS
10
115.424
20
-176.221
11
115.424
21
-175.173
0
LINE
8
BLACK
6
CONTINUOUS
10
115.424
20
-175.173
11
115.329
21
-174.983
0
LINE
8
BLACK
6
CONTINUOUS
10
115.329
20
-174.983
11
115.139
21
-174.888
0
LINE
8
BLACK
6
CONTINUOUS
10
115.139
20
-174.888
11
114.853
21
-174.888
0
LINE
8
BLACK
6
CONTINUOUS
10
114.853
20
-174.888
11
114.662
21
-174.983
0
LINE
8
BLACK
6
CONTINUOUS
10
114.662
20
-174.983
11
114.567
21
-175.078
0
LINE
8
BLACK
6
CONTINUOUS
10
116.662
20
-176.221
11
116.472
21
-176.126
0
LINE
8
BLACK
6
CONTINUOUS
10
116.472
20
-176.126
11
116.377
21
-176.03
0
LINE
8
BLACK
6
CONTINUOUS
10
116.377
20
-176.03
11
116.281
21
-175.84
0
LINE
8
BLACK
6
CONTINUOUS
10
116.281
20
-175.84
11
116.281
21
-175.268
0
LINE
8
BLACK
6
CONTINUOUS
10
116.281
20
-175.268
11
116.377
21
-175.078
0
LINE
8
BLACK
6
CONTINUOUS
10
116.377
20
-175.078
11
116.472
21
-174.983
0
LINE
8
BLACK
6
CONTINUOUS
10
116.472
20
-174.983
11
116.662
21
-174.888
0
LINE
8
BLACK
6
CONTINUOUS
10
116.662
20
-174.888
11
116.948
21
-174.888
0
LINE
8
BLACK
6
CONTINUOUS
10
116.948
20
-174.888
11
117.139
21
-174.983
0
LINE
8
BLACK
6
CONTINUOUS
10
117.139
20
-174.983
11
117.234
21
-175.078
0
LINE
8
BLACK
6
CONTINUOUS
10
117.234
20
-175.078
11
117.329
21
-175.268
0
LINE
8
BLACK
6
CONTINUOUS
10
117.329
20
-175.268
11
117.329
21
-175.84
0
LINE
8
BLACK
6
CONTINUOUS
10
117.329
20
-175.84
11
117.234
21
-176.03
0
LINE
8
BLACK
6
CONTINUOUS
10
117.234
20
-176.03
11
117.139
21
-176.126
0
LINE
8
BLACK
6
CONTINUOUS
10
117.139
20
-176.126
11
116.948
21
-176.221
0
LINE
8
BLACK
6
CONTINUOUS
10
116.948
20
-176.221
11
116.662
21
-176.221
0
LINE
8
BLACK
6
CONTINUOUS
10
118.472
20
-176.221
11
118.281
21
-176.126
0
LINE
8
BLACK
6
CONTINUOUS
10
118.281
20
-176.126
11
118.186
21
-175.935
0
LINE
8
BLACK
6
CONTINUOUS
10
118.186
20
-175.935
11
118.186
21
-174.221
0
LINE
8
BLACK
6
CONTINUOUS
10
119.996
20
-176.126
11
119.805
21
-176.221
0
LINE
8
BLACK
6
CONTINUOUS
10
119.805
20
-176.221
11
119.424
21
-176.221
0
LINE
8
BLACK
6
CONTINUOUS
10
119.424
20
-176.221
11
119.234
21
-176.126
0
LINE
8
BLACK
6
CONTINUOUS
10
119.234
20
-176.126
11
119.139
21
-175.935
0
LINE
8
BLACK
6
CONTINUOUS
10
119.139
20
-175.935
11
119.139
21
-175.173
0
LINE
8
BLACK
6
CONTINUOUS
10
119.139
20
-175.173
11
119.234
21
-174.983
0
LINE
8
BLACK
6
CONTINUOUS
10
119.234
20
-174.983
11
119.424
21
-174.888
0
LINE
8
BLACK
6
CONTINUOUS
10
119.424
20
-174.888
11
119.805
21
-174.888
0
LINE
8
BLACK
6
CONTINUOUS
10
119.805
20
-174.888
11
119.996
21
-174.983
0
LINE
8
BLACK
6
CONTINUOUS
10
119.996
20
-174.983
11
120.091
21
-175.173
0
LINE
8
BLACK
6
CONTINUOUS
10
120.091
20
-175.173
11
120.091
21
-175.364
0
LINE
8
BLACK
6
CONTINUOUS
10
120.091
20
-175.364
11
119.139
21
-175.554
0
LINE
8
BLACK
6
CONTINUOUS
10
120.853
20
-176.126
11
121.043
21
-176.221
0
LINE
8
BLACK
6
CONTINUOUS
10
121.043
20
-176.221
11
121.424
21
-176.221
0
LINE
8
BLACK
6
CONTINUOUS
10
121.424
20
-176.221
11
121.615
21
-176.126
0
LINE
8
BLACK
6
CONTINUOUS
10
121.615
20
-176.126
11
121.71
21
-175.935
0
LINE
8
BLACK
6
CONTINUOUS
10
121.71
20
-175.935
11
121.71
21
-175.84
0
LINE
8
BLACK
6
CONTINUOUS
10
121.71
20
-175.84
11
121.615
21
-175.649
0
LINE
8
BLACK
6
CONTINUOUS
10
121.615
20
-175.649
11
121.424
21
-175.554
0
LINE
8
BLACK
6
CONTINUOUS
10
121.424
20
-175.554
11
121.139
21
-175.554
0
LINE
8
BLACK
6
CONTINUOUS
10
121.139
20
-175.554
11
120.948
21
-175.459
0
LINE
8
BLACK
6
CONTINUOUS
10
120.948
20
-175.459
11
120.853
21
-175.268
0
LINE
8
BLACK
6
CONTINUOUS
10
120.853
20
-175.268
11
120.853
21
-175.173
0
LINE
8
BLACK
6
CONTINUOUS
10
120.853
20
-175.173
11
120.948
21
-174.983
0
LINE
8
BLACK
6
CONTINUOUS
10
120.948
20
-174.983
11
121.139
21
-174.888
0
LINE
8
BLACK
6
CONTINUOUS
10
121.139
20
-174.888
11
121.424
21
-174.888
0
LINE
8
BLACK
6
CONTINUOUS
10
121.424
20
-174.888
11
121.615
21
-174.983
0
LINE
8
BLACK
6
CONTINUOUS
10
122.377
20
-176.983
11
122.472
21
-176.888
0
LINE
8
BLACK
6
CONTINUOUS
10
122.472
20
-176.888
11
122.662
21
-176.602
0
LINE
8
BLACK
6
CONTINUOUS
10
122.662
20
-176.602
11
122.758
21
-176.411
0
LINE
8
BLACK
6
CONTINUOUS
10
122.758
20
-176.411
11
122.853
21
-176.126
0
LINE
8
BLACK
6
CONTINUOUS
10
122.853
20
-176.126
11
122.948
21
-175.649
0
LINE
8
BLACK
6
CONTINUOUS
10
122.948
20
-175.649
11
122.948
21
-175.268
0
LINE
8
BLACK
6
CONTINUOUS
10
122.948
20
-175.268
11
122.853
21
-174.792
0
LINE
8
BLACK
6
CONTINUOUS
10
122.853
20
-174.792
11
122.758
21
-174.507
0
LINE
8
BLACK
6
CONTINUOUS
10
122.758
20
-174.507
11
122.662
21
-174.316
0
LINE
8
BLACK
6
CONTINUOUS
10
122.662
20
-174.316
11
122.472
21
-174.03
0
LINE
8
BLACK
6
CONTINUOUS
10
122.472
20
-174.03
11
122.377
21
-173.935
0
LINE
8
BLACK
6
CONTINUOUS
10
74.4766
20
-178.307
11
74.4766
21
-177.585
0
LINE
8
BLACK
6
CONTINUOUS
10
74.4766
20
-177.585
11
73.7554
21
-177.585
0
LINE
8
BLACK
6
CONTINUOUS
10
73.7554
20
-177.585
11
73.7554
21
-178.307
0
LINE
8
BLACK
6
CONTINUOUS
10
73.7554
20
-178.307
11
74.4766
21
-178.307
0
LINE
8
BLACK
6
CONTINUOUS
10
78.2814
20
-178.861
11
77.1385
21
-178.861
0
LINE
8
BLACK
6
CONTINUOUS
10
77.71
20
-178.861
11
77.71
21
-176.861
0
LINE
8
BLACK
6
CONTINUOUS
10
77.71
20
-176.861
11
77.5195
21
-177.147
0
LINE
8
BLACK
6
CONTINUOUS
10
77.5195
20
-177.147
11
77.329
21
-177.337
0
LINE
8
BLACK
6
CONTINUOUS
10
77.329
20
-177.337
11
77.1385
21
-177.432
0
LINE
8
BLACK
6
CONTINUOUS
10
79.1385
20
-178.67
11
79.2338
21
-178.766
0
LINE
8
BLACK
6
CONTINUOUS
10
79.2338
20
-178.766
11
79.1385
21
-178.861
0
LINE
8
BLACK
6
CONTINUOUS
10
79.1385
20
-178.861
11
79.0433
21
-178.766
0
LINE
8
BLACK
6
CONTINUOUS
10
79.0433
20
-178.766
11
79.1385
21
-178.67
0
LINE
8
BLACK
6
CONTINUOUS
10
79.1385
20
-178.67
11
79.1385
21
-178.861
0
LINE
8
BLACK
6
CONTINUOUS
10
80.4719
20
-176.861
11
80.6623
21
-176.861
0
LINE
8
BLACK
6
CONTINUOUS
10
80.6623
20
-176.861
11
80.8528
21
-176.956
0
LINE
8
BLACK
6
CONTINUOUS
10
80.8528
20
-176.956
11
80.9481
21
-177.051
0
LINE
8
BLACK
6
CONTINUOUS
10
80.9481
20
-177.051
11
81.0433
21
-177.242
0
LINE
8
BLACK
6
CONTINUOUS
10
81.0433
20
-177.242
11
81.1385
21
-177.623
0
LINE
8
BLACK
6
CONTINUOUS
10
81.1385
20
-177.623
11
81.1385
21
-178.099
0
LINE
8
BLACK
6
CONTINUOUS
10
81.1385
20
-178.099
11
81.0433
21
-178.48
0
LINE
8
BLACK
6
CONTINUOUS
10
81.0433
20
-178.48
11
80.9481
21
-178.67
0
LINE
8
BLACK
6
CONTINUOUS
10
80.9481
20
-178.67
11
80.8528
21
-178.766
0
LINE
8
BLACK
6
CONTINUOUS
10
80.8528
20
-178.766
11
80.6623
21
-178.861
0
LINE
8
BLACK
6
CONTINUOUS
10
80.6623
20
-178.861
11
80.4719
21
-178.861
0
LINE
8
BLACK
6
CONTINUOUS
10
80.4719
20
-178.861
11
80.2814
21
-178.766
0
LINE
8
BLACK
6
CONTINUOUS
10
80.2814
20
-178.766
11
80.1861
21
-178.67
0
LINE
8
BLACK
6
CONTINUOUS
10
80.1861
20
-178.67
11
80.0909
21
-178.48
0
LINE
8
BLACK
6
CONTINUOUS
10
80.0909
20
-178.48
11
79.9957
21
-178.099
0
LINE
8
BLACK
6
CONTINUOUS
10
79.9957
20
-178.099
11
79.9957
21
-177.623
0
LINE
8
BLACK
6
CONTINUOUS
10
79.9957
20
-177.623
11
80.0909
21
-177.242
0
LINE
8
BLACK
6
CONTINUOUS
10
80.0909
20
-177.242
11
80.1861
21
-177.051
0
LINE
8
BLACK
6
CONTINUOUS
10
80.1861
20
-177.051
11
80.2814
21
-176.956
0
LINE
8
BLACK
6
CONTINUOUS
10
80.2814
20
-176.956
11
80.4719
21
-176.861
0
LINE
8
BLACK
6
CONTINUOUS
10
81.9004
20
-177.051
11
81.9957
21
-176.956
0
LINE
8
BLACK
6
CONTINUOUS
10
81.9957
20
-176.956
11
82.1861
21
-176.861
0
LINE
8
BLACK
6
CONTINUOUS
10
82.1861
20
-176.861
11
82.6623
21
-176.861
0
LINE
8
BLACK
6
CONTINUOUS
10
82.6623
20
-176.861
11
82.8528
21
-176.956
0
LINE
8
BLACK
6
CONTINUOUS
10
82.8528
20
-176.956
11
82.9481
21
-177.051
0
LINE
8
BLACK
6
CONTINUOUS
10
82.9481
20
-177.051
11
83.0433
21
-177.242
0
LINE
8
BLACK
6
CONTINUOUS
10
83.0433
20
-177.242
11
83.0433
21
-177.432
0
LINE
8
BLACK
6
CONTINUOUS
10
83.0433
20
-177.432
11
82.9481
21
-177.718
0
LINE
8
BLACK
6
CONTINUOUS
10
82.9481
20
-177.718
11
81.8052
21
-178.861
0
LINE
8
BLACK
6
CONTINUOUS
10
81.8052
20
-178.861
11
83.0433
21
-178.861
0
LINE
8
BLACK
6
CONTINUOUS
10
84.2814
20
-176.861
11
84.4719
21
-176.861
0
LINE
8
BLACK
6
CONTINUOUS
10
84.4719
20
-176.861
11
84.6623
21
-176.956
0
LINE
8
BLACK
6
CONTINUOUS
10
84.6623
20
-176.956
11
84.7576
21
-177.051
0
LINE
8
BLACK
6
CONTINUOUS
10
84.7576
20
-177.051
11
84.8528
21
-177.242
0
LINE
8
BLACK
6
CONTINUOUS
10
84.8528
20
-177.242
11
84.9481
21
-177.623
0
LINE
8
BLACK
6
CONTINUOUS
10
84.9481
20
-177.623
11
84.9481
21
-178.099
0
LINE
8
BLACK
6
CONTINUOUS
10
84.9481
20
-178.099
11
84.8528
21
-178.48
0
LINE
8
BLACK
6
CONTINUOUS
10
84.8528
20
-178.48
11
84.7576
21
-178.67
0
LINE
8
BLACK
6
CONTINUOUS
10
84.7576
20
-178.67
11
84.6623
21
-178.766
0
LINE
8
BLACK
6
CONTINUOUS
10
84.6623
20
-178.766
11
84.4719
21
-178.861
0
LINE
8
BLACK
6
CONTINUOUS
10
84.4719
20
-178.861
11
84.2814
21
-178.861
0
LINE
8
BLACK
6
CONTINUOUS
10
84.2814
20
-178.861
11
84.0909
21
-178.766
0
LINE
8
BLACK
6
CONTINUOUS
10
84.0909
20
-178.766
11
83.9957
21
-178.67
0
LINE
8
BLACK
6
CONTINUOUS
10
83.9957
20
-178.67
11
83.9004
21
-178.48
0
LINE
8
BLACK
6
CONTINUOUS
10
83.9004
20
-178.48
11
83.8052
21
-178.099
0
LINE
8
BLACK
6
CONTINUOUS
10
83.8052
20
-178.099
11
83.8052
21
-177.623
0
LINE
8
BLACK
6
CONTINUOUS
10
83.8052
20
-177.623
11
83.9004
21
-177.242
0
LINE
8
BLACK
6
CONTINUOUS
10
83.9004
20
-177.242
11
83.9957
21
-177.051
0
LINE
8
BLACK
6
CONTINUOUS
10
83.9957
20
-177.051
11
84.0909
21
-176.956
0
LINE
8
BLACK
6
CONTINUOUS
10
84.0909
20
-176.956
11
84.2814
21
-176.861
0
LINE
8
BLACK
6
CONTINUOUS
10
85.8052
20
-178.861
11
85.8052
21
-177.528
0
LINE
8
BLACK
6
CONTINUOUS
10
85.8052
20
-177.718
11
85.9004
21
-177.623
0
LINE
8
BLACK
6
CONTINUOUS
10
85.9004
20
-177.623
11
86.0909
21
-177.528
0
LINE
8
BLACK
6
CONTINUOUS
10
86.0909
20
-177.528
11
86.3766
21
-177.528
0
LINE
8
BLACK
6
CONTINUOUS
10
86.3766
20
-177.528
11
86.5671
21
-177.623
0
LINE
8
BLACK
6
CONTINUOUS
10
86.5671
20
-177.623
11
86.6623
21
-177.813
0
LINE
8
BLACK
6
CONTINUOUS
10
86.6623
20
-177.813
11
86.6623
21
-178.861
0
LINE
8
BLACK
6
CONTINUOUS
10
86.6623
20
-177.813
11
86.7576
21
-177.623
0
LINE
8
BLACK
6
CONTINUOUS
10
86.7576
20
-177.623
11
86.9481
21
-177.528
0
LINE
8
BLACK
6
CONTINUOUS
10
86.9481
20
-177.528
11
87.2338
21
-177.528
0
LINE
8
BLACK
6
CONTINUOUS
10
87.2338
20
-177.528
11
87.4242
21
-177.623
0
LINE
8
BLACK
6
CONTINUOUS
10
87.4242
20
-177.623
11
87.5195
21
-177.813
0
LINE
8
BLACK
6
CONTINUOUS
10
87.5195
20
-177.813
11
87.5195
21
-178.861
0
LINE
8
BLACK
6
CONTINUOUS
10
88.4719
20
-178.861
11
88.4719
21
-177.528
0
LINE
8
BLACK
6
CONTINUOUS
10
88.4719
20
-177.718
11
88.5671
21
-177.623
0
LINE
8
BLACK
6
CONTINUOUS
10
88.5671
20
-177.623
11
88.7576
21
-177.528
0
LINE
8
BLACK
6
CONTINUOUS
10
88.7576
20
-177.528
11
89.0433
21
-177.528
0
LINE
8
BLACK
6
CONTINUOUS
10
89.0433
20
-177.528
11
89.2338
21
-177.623
0
LINE
8
BLACK
6
CONTINUOUS
10
89.2338
20
-177.623
11
89.329
21
-177.813
0
LINE
8
BLACK
6
CONTINUOUS
10
89.329
20
-177.813
11
89.329
21
-178.861
0
LINE
8
BLACK
6
CONTINUOUS
10
89.329
20
-177.813
11
89.4242
21
-177.623
0
LINE
8
BLACK
6
CONTINUOUS
10
89.4242
20
-177.623
11
89.6147
21
-177.528
0
LINE
8
BLACK
6
CONTINUOUS
10
89.6147
20
-177.528
11
89.9004
21
-177.528
0
LINE
8
BLACK
6
CONTINUOUS
10
89.9004
20
-177.528
11
90.0909
21
-177.623
0
LINE
8
BLACK
6
CONTINUOUS
10
90.0909
20
-177.623
11
90.1861
21
-177.813
0
LINE
8
BLACK
6
CONTINUOUS
10
90.1861
20
-177.813
11
90.1861
21
-178.861
0
LINE
8
BLACK
6
CONTINUOUS
10
94.0909
20
-176.766
11
92.3766
21
-179.337
0
LINE
8
BLACK
6
CONTINUOUS
10
96.6623
20
-176.861
11
96.8528
21
-176.861
0
LINE
8
BLACK
6
CONTINUOUS
10
96.8528
20
-176.861
11
97.0433
21
-176.956
0
LINE
8
BLACK
6
CONTINUOUS
10
97.0433
20
-176.956
11
97.1385
21
-177.051
0
LINE
8
BLACK
6
CONTINUOUS
10
97.1385
20
-177.051
11
97.2338
21
-177.242
0
LINE
8
BLACK
6
CONTINUOUS
10
97.2338
20
-177.242
11
97.329
21
-177.623
0
LINE
8
BLACK
6
CONTINUOUS
10
97.329
20
-177.623
11
97.329
21
-178.099
0
LINE
8
BLACK
6
CONTINUOUS
10
97.329
20
-178.099
11
97.2338
21
-178.48
0
LINE
8
BLACK
6
CONTINUOUS
10
97.2338
20
-178.48
11
97.1385
21
-178.67
0
LINE
8
BLACK
6
CONTINUOUS
10
97.1385
20
-178.67
11
97.0433
21
-178.766
0
LINE
8
BLACK
6
CONTINUOUS
10
97.0433
20
-178.766
11
96.8528
21
-178.861
0
LINE
8
BLACK
6
CONTINUOUS
10
96.8528
20
-178.861
11
96.6623
21
-178.861
0
LINE
8
BLACK
6
CONTINUOUS
10
96.6623
20
-178.861
11
96.4719
21
-178.766
0
LINE
8
BLACK
6
CONTINUOUS
10
96.4719
20
-178.766
11
96.3766
21
-178.67
0
LINE
8
BLACK
6
CONTINUOUS
10
96.3766
20
-178.67
11
96.2814
21
-178.48
0
LINE
8
BLACK
6
CONTINUOUS
10
96.2814
20
-178.48
11
96.1862
21
-178.099
0
LINE
8
BLACK
6
CONTINUOUS
10
96.1862
20
-178.099
11
96.1862
21
-177.623
0
LINE
8
BLACK
6
CONTINUOUS
10
96.1862
20
-177.623
11
96.2814
21
-177.242
0
LINE
8
BLACK
6
CONTINUOUS
10
96.2814
20
-177.242
11
96.3766
21
-177.051
0
LINE
8
BLACK
6
CONTINUOUS
10
96.3766
20
-177.051
11
96.4719
21
-176.956
0
LINE
8
BLACK
6
CONTINUOUS
10
96.4719
20
-176.956
11
96.6623
21
-176.861
0
LINE
8
BLACK
6
CONTINUOUS
10
98.1862
20
-178.67
11
98.2814
21
-178.766
0
LINE
8
BLACK
6
CONTINUOUS
10
98.2814
20
-178.766
11
98.1862
21
-178.861
0
LINE
8
BLACK
6
CONTINUOUS
10
98.1862
20
-178.861
11
98.0909
21
-178.766
0
LINE
8
BLACK
6
CONTINUOUS
10
98.0909
20
-178.766
11
98.1862
21
-178.67
0
LINE
8
BLACK
6
CONTINUOUS
10
98.1862
20
-178.67
11
98.1862
21
-178.861
0
LINE
8
BLACK
6
CONTINUOUS
10
99.5195
20
-176.861
11
99.71
21
-176.861
0
LINE
8
BLACK
6
CONTINUOUS
10
99.71
20
-176.861
11
99.9004
21
-176.956
0
LINE
8
BLACK
6
CONTINUOUS
10
99.9004
20
-176.956
11
99.9957
21
-177.051
0
LINE
8
BLACK
6
CONTINUOUS
10
99.9957
20
-177.051
11
100.091
21
-177.242
0
LINE
8
BLACK
6
CONTINUOUS
10
100.091
20
-177.242
11
100.186
21
-177.623
0
LINE
8
BLACK
6
CONTINUOUS
10
100.186
20
-177.623
11
100.186
21
-178.099
0
LINE
8
BLACK
6
CONTINUOUS
10
100.186
20
-178.099
11
100.091
21
-178.48
0
LINE
8
BLACK
6
CONTINUOUS
10
100.091
20
-178.48
11
99.9957
21
-178.67
0
LINE
8
BLACK
6
CONTINUOUS
10
99.9957
20
-178.67
11
99.9004
21
-178.766
0
LINE
8
BLACK
6
CONTINUOUS
10
99.9004
20
-178.766
11
99.71
21
-178.861
0
LINE
8
BLACK
6
CONTINUOUS
10
99.71
20
-178.861
11
99.5195
21
-178.861
0
LINE
8
BLACK
6
CONTINUOUS
10
99.5195
20
-178.861
11
99.329
21
-178.766
0
LINE
8
BLACK
6
CONTINUOUS
10
99.329
20
-178.766
11
99.2338
21
-178.67
0
LINE
8
BLACK
6
CONTINUOUS
10
99.2338
20
-178.67
11
99.1385
21
-178.48
0
LINE
8
BLACK
6
CONTINUOUS
10
99.1385
20
-178.48
11
99.0433
21
-178.099
0
LINE
8
BLACK
6
CONTINUOUS
10
99.0433
20
-178.099
11
99.0433
21
-177.623
0
LINE
8
BLACK
6
CONTINUOUS
10
99.0433
20
-177.623
11
99.1385
21
-177.242
0
LINE
8
BLACK
6
CONTINUOUS
10
99.1385
20
-177.242
11
99.2338
21
-177.051
0
LINE
8
BLACK
6
CONTINUOUS
10
99.2338
20
-177.051
11
99.329
21
-176.956
0
LINE
8
BLACK
6
CONTINUOUS
10
99.329
20
-176.956
11
99.5195
21
-176.861
0
LINE
8
BLACK
6
CONTINUOUS
10
101.9
20
-177.528
11
101.9
21
-178.861
0
LINE
8
BLACK
6
CONTINUOUS
10
101.424
20
-176.766
11
100.948
21
-178.194
0
LINE
8
BLACK
6
CONTINUOUS
10
100.948
20
-178.194
11
102.186
21
-178.194
0
LINE
8
BLACK
6
CONTINUOUS
10
103.329
20
-176.861
11
103.519
21
-176.861
0
LINE
8
BLACK
6
CONTINUOUS
10
103.519
20
-176.861
11
103.71
21
-176.956
0
LINE
8
BLACK
6
CONTINUOUS
10
103.71
20
-176.956
11
103.805
21
-177.051
0
LINE
8
BLACK
6
CONTINUOUS
10
103.805
20
-177.051
11
103.9
21
-177.242
0
LINE
8
BLACK
6
CONTINUOUS
10
103.9
20
-177.242
11
103.996
21
-177.623
0
LINE
8
BLACK
6
CONTINUOUS
10
103.996
20
-177.623
11
103.996
21
-178.099
0
LINE
8
BLACK
6
CONTINUOUS
10
103.996
20
-178.099
11
103.9
21
-178.48
0
LINE
8
BLACK
6
CONTINUOUS
10
103.9
20
-178.48
11
103.805
21
-178.67
0
LINE
8
BLACK
6
CONTINUOUS
10
103.805
20
-178.67
11
103.71
21
-178.766
0
LINE
8
BLACK
6
CONTINUOUS
10
103.71
20
-178.766
11
103.519
21
-178.861
0
LINE
8
BLACK
6
CONTINUOUS
10
103.519
20
-178.861
11
103.329
21
-178.861
0
LINE
8
BLACK
6
CONTINUOUS
10
103.329
20
-178.861
11
103.139
21
-178.766
0
LINE
8
BLACK
6
CONTINUOUS
10
103.139
20
-178.766
11
103.043
21
-178.67
0
LINE
8
BLACK
6
CONTINUOUS
10
103.043
20
-178.67
11
102.948
21
-178.48
0
LINE
8
BLACK
6
CONTINUOUS
10
102.948
20
-178.48
11
102.853
21
-178.099
0
LINE
8
BLACK
6
CONTINUOUS
10
102.853
20
-178.099
11
102.853
21
-177.623
0
LINE
8
BLACK
6
CONTINUOUS
10
102.853
20
-177.623
11
102.948
21
-177.242
0
LINE
8
BLACK
6
CONTINUOUS
10
102.948
20
-177.242
11
103.043
21
-177.051
0
LINE
8
BLACK
6
CONTINUOUS
10
103.043
20
-177.051
11
103.139
21
-176.956
0
LINE
8
BLACK
6
CONTINUOUS
10
103.139
20
-176.956
11
103.329
21
-176.861
0
LINE
8
BLACK
6
CONTINUOUS
10
104.758
20
-177.051
11
104.853
21
-176.956
0
LINE
8
BLACK
6
CONTINUOUS
10
104.853
20
-176.956
11
105.043
21
-176.861
0
LINE
8
BLACK
6
CONTINUOUS
10
105.043
20
-176.861
11
105.519
21
-176.861
0
LINE
8
BLACK
6
CONTINUOUS
10
105.519
20
-176.861
11
105.71
21
-176.956
0
LINE
8
BLACK
6
CONTINUOUS
10
105.71
20
-176.956
11
105.805
21
-177.051
0
LINE
8
BLACK
6
CONTINUOUS
10
105.805
20
-177.051
11
105.9
21
-177.242
0
LINE
8
BLACK
6
CONTINUOUS
10
105.9
20
-177.242
11
105.9
21
-177.432
0
LINE
8
BLACK
6
CONTINUOUS
10
105.9
20
-177.432
11
105.805
21
-177.718
0
LINE
8
BLACK
6
CONTINUOUS
10
105.805
20
-177.718
11
104.662
21
-178.861
0
LINE
8
BLACK
6
CONTINUOUS
10
104.662
20
-178.861
11
105.9
21
-178.861
0
LINE
8
BLACK
6
CONTINUOUS
10
106.662
20
-176.861
11
106.662
21
-177.242
0
LINE
8
BLACK
6
CONTINUOUS
10
107.424
20
-176.861
11
107.424
21
-177.242
0
LINE
8
BLACK
6
CONTINUOUS
10
110.377
20
-179.623
11
110.281
21
-179.528
0
LINE
8
BLACK
6
CONTINUOUS
10
110.281
20
-179.528
11
110.091
21
-179.242
0
LINE
8
BLACK
6
CONTINUOUS
10
110.091
20
-179.242
11
109.996
21
-179.051
0
LINE
8
BLACK
6
CONTINUOUS
10
109.996
20
-179.051
11
109.9
21
-178.766
0
LINE
8
BLACK
6
CONTINUOUS
10
109.9
20
-178.766
11
109.805
21
-178.289
0
LINE
8
BLACK
6
CONTINUOUS
10
109.805
20
-178.289
11
109.805
21
-177.908
0
LINE
8
BLACK
6
CONTINUOUS
10
109.805
20
-177.908
11
109.9
21
-177.432
0
LINE
8
BLACK
6
CONTINUOUS
10
109.9
20
-177.432
11
109.996
21
-177.147
0
LINE
8
BLACK
6
CONTINUOUS
10
109.996
20
-177.147
11
110.091
21
-176.956
0
LINE
8
BLACK
6
CONTINUOUS
10
110.091
20
-176.956
11
110.281
21
-176.67
0
LINE
8
BLACK
6
CONTINUOUS
10
110.281
20
-176.67
11
110.377
21
-176.575
0
LINE
8
BLACK
6
CONTINUOUS
10
111.996
20
-177.528
11
111.996
21
-178.861
0
LINE
8
BLACK
6
CONTINUOUS
10
111.519
20
-176.766
11
111.043
21
-178.194
0
LINE
8
BLACK
6
CONTINUOUS
10
111.043
20
-178.194
11
112.281
21
-178.194
0
LINE
8
BLACK
6
CONTINUOUS
10
113.424
20
-176.861
11
113.615
21
-176.861
0
LINE
8
BLACK
6
CONTINUOUS
10
113.615
20
-176.861
11
113.805
21
-176.956
0
LINE
8
BLACK
6
CONTINUOUS
10
113.805
20
-176.956
11
113.9
21
-177.051
0
LINE
8
BLACK
6
CONTINUOUS
10
113.9
20
-177.051
11
113.996
21
-177.242
0
LINE
8
BLACK
6
CONTINUOUS
10
113.996
20
-177.242
11
114.091
21
-177.623
0
LINE
8
BLACK
6
CONTINUOUS
10
114.091
20
-177.623
11
114.091
21
-178.099
0
LINE
8
BLACK
6
CONTINUOUS
10
114.091
20
-178.099
11
113.996
21
-178.48
0
LINE
8
BLACK
6
CONTINUOUS
10
113.996
20
-178.48
11
113.9
21
-178.67
0
LINE
8
BLACK
6
CONTINUOUS
10
113.9
20
-178.67
11
113.805
21
-178.766
0
LINE
8
BLACK
6
CONTINUOUS
10
113.805
20
-178.766
11
113.615
21
-178.861
0
LINE
8
BLACK
6
CONTINUOUS
10
113.615
20
-178.861
11
113.424
21
-178.861
0
LINE
8
BLACK
6
CONTINUOUS
10
113.424
20
-178.861
11
113.234
21
-178.766
0
LINE
8
BLACK
6
CONTINUOUS
10
113.234
20
-178.766
11
113.139
21
-178.67
0
LINE
8
BLACK
6
CONTINUOUS
10
113.139
20
-178.67
11
113.043
21
-178.48
0
LINE
8
BLACK
6
CONTINUOUS
10
113.043
20
-178.48
11
112.948
21
-178.099
0
LINE
8
BLACK
6
CONTINUOUS
10
112.948
20
-178.099
11
112.948
21
-177.623
0
LINE
8
BLACK
6
CONTINUOUS
10
112.948
20
-177.623
11
113.043
21
-177.242
0
LINE
8
BLACK
6
CONTINUOUS
10
113.043
20
-177.242
11
113.139
21
-177.051
0
LINE
8
BLACK
6
CONTINUOUS
10
113.139
20
-177.051
11
113.234
21
-176.956
0
LINE
8
BLACK
6
CONTINUOUS
10
113.234
20
-176.956
11
113.424
21
-176.861
0
LINE
8
BLACK
6
CONTINUOUS
10
116.472
20
-178.861
11
116.472
21
-176.861
0
LINE
8
BLACK
6
CONTINUOUS
10
117.329
20
-178.861
11
117.329
21
-177.813
0
LINE
8
BLACK
6
CONTINUOUS
10
117.329
20
-177.813
11
117.234
21
-177.623
0
LINE
8
BLACK
6
CONTINUOUS
10
117.234
20
-177.623
11
117.043
21
-177.528
0
LINE
8
BLACK
6
CONTINUOUS
10
117.043
20
-177.528
11
116.758
21
-177.528
0
LINE
8
BLACK
6
CONTINUOUS
10
116.758
20
-177.528
11
116.567
21
-177.623
0
LINE
8
BLACK
6
CONTINUOUS
10
116.567
20
-177.623
11
116.472
21
-177.718
0
LINE
8
BLACK
6
CONTINUOUS
10
118.567
20
-178.861
11
118.377
21
-178.766
0
LINE
8
BLACK
6
CONTINUOUS
10
118.377
20
-178.766
11
118.281
21
-178.67
0
LINE
8
BLACK
6
CONTINUOUS
10
118.281
20
-178.67
11
118.186
21
-178.48
0
LINE
8
BLACK
6
CONTINUOUS
10
118.186
20
-178.48
11
118.186
21
-177.908
0
LINE
8
BLACK
6
CONTINUOUS
10
118.186
20
-177.908
11
118.281
21
-177.718
0
LINE
8
BLACK
6
CONTINUOUS
10
118.281
20
-177.718
11
118.377
21
-177.623
0
LINE
8
BLACK
6
CONTINUOUS
10
118.377
20
-177.623
11
118.567
21
-177.528
0
LINE
8
BLACK
6
CONTINUOUS
10
118.567
20
-177.528
11
118.853
21
-177.528
0
LINE
8
BLACK
6
CONTINUOUS
10
118.853
20
-177.528
11
119.043
21
-177.623
0
LINE
8
BLACK
6
CONTINUOUS
10
119.043
20
-177.623
11
119.139
21
-177.718
0
LINE
8
BLACK
6
CONTINUOUS
10
119.139
20
-177.718
11
119.234
21
-177.908
0
LINE
8
BLACK
6
CONTINUOUS
10
119.234
20
-177.908
11
119.234
21
-178.48
0
LINE
8
BLACK
6
CONTINUOUS
10
119.234
20
-178.48
11
119.139
21
-178.67
0
LINE
8
BLACK
6
CONTINUOUS
10
119.139
20
-178.67
11
119.043
21
-178.766
0
LINE
8
BLACK
6
CONTINUOUS
10
119.043
20
-178.766
11
118.853
21
-178.861
0
LINE
8
BLACK
6
CONTINUOUS
10
118.853
20
-178.861
11
118.567
21
-178.861
0
LINE
8
BLACK
6
CONTINUOUS
10
120.377
20
-178.861
11
120.186
21
-178.766
0
LINE
8
BLACK
6
CONTINUOUS
10
120.186
20
-178.766
11
120.091
21
-178.575
0
LINE
8
BLACK
6
CONTINUOUS
10
120.091
20
-178.575
11
120.091
21
-176.861
0
LINE
8
BLACK
6
CONTINUOUS
10
121.9
20
-178.766
11
121.71
21
-178.861
0
LINE
8
BLACK
6
CONTINUOUS
10
121.71
20
-178.861
11
121.329
21
-178.861
0
LINE
8
BLACK
6
CONTINUOUS
10
121.329
20
-178.861
11
121.139
21
-178.766
0
LINE
8
BLACK
6
CONTINUOUS
10
121.139
20
-178.766
11
121.043
21
-178.575
0
LINE
8
BLACK
6
CONTINUOUS
10
121.043
20
-178.575
11
121.043
21
-177.813
0
LINE
8
BLACK
6
CONTINUOUS
10
121.043
20
-177.813
11
121.139
21
-177.623
0
LINE
8
BLACK
6
CONTINUOUS
10
121.139
20
-177.623
11
121.329
21
-177.528
0
LINE
8
BLACK
6
CONTINUOUS
10
121.329
20
-177.528
11
121.71
21
-177.528
0
LINE
8
BLACK
6
CONTINUOUS
10
121.71
20
-177.528
11
121.9
21
-177.623
0
LINE
8
BLACK
6
CONTINUOUS
10
121.9
20
-177.623
11
121.996
21
-177.813
0
LINE
8
BLACK
6
CONTINUOUS
10
121.996
20
-177.813
11
121.996
21
-178.004
0
LINE
8
BLACK
6
CONTINUOUS
10
121.996
20
-178.004
11
121.043
21
-178.194
0
LINE
8
BLACK
6
CONTINUOUS
10
122.758
20
-178.766
11
122.948
21
-178.861
0
LINE
8
BLACK
6
CONTINUOUS
10
122.948
20
-178.861
11
123.329
21
-178.861
0
LINE
8
BLACK
6
CONTINUOUS
10
123.329
20
-178.861
11
123.519
21
-178.766
0
LINE
8
BLACK
6
CONTINUOUS
10
123.519
20
-178.766
11
123.615
21
-178.575
0
LINE
8
BLACK
6
CONTINUOUS
10
123.615
20
-178.575
11
123.615
21
-178.48
0
LINE
8
BLACK
6
CONTINUOUS
10
123.615
20
-178.48
11
123.519
21
-178.289
0
LINE
8
BLACK
6
CONTINUOUS
10
123.519
20
-178.289
11
123.329
21
-178.194
0
LINE
8
BLACK
6
CONTINUOUS
10
123.329
20
-178.194
11
123.043
21
-178.194
0
LINE
8
BLACK
6
CONTINUOUS
10
123.043
20
-178.194
11
122.853
21
-178.099
0
LINE
8
BLACK
6
CONTINUOUS
10
122.853
20
-178.099
11
122.758
21
-177.908
0
LINE
8
BLACK
6
CONTINUOUS
10
122.758
20
-177.908
11
122.758
21
-177.813
0
LINE
8
BLACK
6
CONTINUOUS
10
122.758
20
-177.813
11
122.853
21
-177.623
0
LINE
8
BLACK
6
CONTINUOUS
10
122.853
20
-177.623
11
123.043
21
-177.528
0
LINE
8
BLACK
6
CONTINUOUS
10
123.043
20
-177.528
11
123.329
21
-177.528
0
LINE
8
BLACK
6
CONTINUOUS
10
123.329
20
-177.528
11
123.519
21
-177.623
0
LINE
8
BLACK
6
CONTINUOUS
10
124.281
20
-179.623
11
124.377
21
-179.528
0
LINE
8
BLACK
6
CONTINUOUS
10
124.377
20
-179.528
11
124.567
21
-179.242
0
LINE
8
BLACK
6
CONTINUOUS
10
124.567
20
-179.242
11
124.662
21
-179.051
0
LINE
8
BLACK
6
CONTINUOUS
10
124.662
20
-179.051
11
124.758
21
-178.766
0
LINE
8
BLACK
6
CONTINUOUS
10
124.758
20
-178.766
11
124.853
21
-178.289
0
LINE
8
BLACK
6
CONTINUOUS
10
124.853
20
-178.289
11
124.853
21
-177.908
0
LINE
8
BLACK
6
CONTINUOUS
10
124.853
20
-177.908
11
124.758
21
-177.432
0
LINE
8
BLACK
6
CONTINUOUS
10
124.758
20
-177.432
11
124.662
21
-177.147
0
LINE
8
BLACK
6
CONTINUOUS
10
124.662
20
-177.147
11
124.567
21
-176.956
0
LINE
8
BLACK
6
CONTINUOUS
10
124.567
20
-176.956
11
124.377
21
-176.67
0
LINE
8
BLACK
6
CONTINUOUS
10
124.377
20
-176.67
11
124.281
21
-176.575
0
LINE
8
BLACK
6
CONTINUOUS
10
73.626
20
-181.586
11
74.626
21
-180.586
0
LINE
8
BLACK
6
CONTINUOUS
10
74.626
20
-180.586
11
73.626
21
-179.586
0
LINE
8
BLACK
6
CONTINUOUS
10
73.626
20
-179.586
11
72.626
21
-180.586
0
LINE
8
BLACK
6
CONTINUOUS
10
72.626
20
-180.586
11
73.626
21
-181.586
0
LINE
8
BLACK
6
CONTINUOUS
10
77.1385
20
-179.691
11
77.2338
21
-179.596
0
LINE
8
BLACK
6
CONTINUOUS
10
77.2338
20
-179.596
11
77.4242
21
-179.501
0
LINE
8
BLACK
6
CONTINUOUS
10
77.4242
20
-179.501
11
77.9004
21
-179.501
0
LINE
8
BLACK
6
CONTINUOUS
10
77.9004
20
-179.501
11
78.0909
21
-179.596
0
LINE
8
BLACK
6
CONTINUOUS
10
78.0909
20
-179.596
11
78.1861
21
-179.691
0
LINE
8
BLACK
6
CONTINUOUS
10
78.1861
20
-179.691
11
78.2814
21
-179.882
0
LINE
8
BLACK
6
CONTINUOUS
10
78.2814
20
-179.882
11
78.2814
21
-180.072
0
LINE
8
BLACK
6
CONTINUOUS
10
78.2814
20
-180.072
11
78.1861
21
-180.358
0
LINE
8
BLACK
6
CONTINUOUS
10
78.1861
20
-180.358
11
77.0433
21
-181.501
0
LINE
8
BLACK
6
CONTINUOUS
10
77.0433
20
-181.501
11
78.2814
21
-181.501
0
LINE
8
BLACK
6
CONTINUOUS
10
79.1385
20
-181.31
11
79.2338
21
-181.406
0
LINE
8
BLACK
6
CONTINUOUS
10
79.2338
20
-181.406
11
79.1385
21
-181.501
0
LINE
8
BLACK
6
CONTINUOUS
10
79.1385
20
-181.501
11
79.0433
21
-181.406
0
LINE
8
BLACK
6
CONTINUOUS
10
79.0433
20
-181.406
11
79.1385
21
-181.31
0
LINE
8
BLACK
6
CONTINUOUS
10
79.1385
20
-181.31
11
79.1385
21
-181.501
0
LINE
8
BLACK
6
CONTINUOUS
10
80.9481
20
-179.501
11
80.5671
21
-179.501
0
LINE
8
BLACK
6
CONTINUOUS
10
80.5671
20
-179.501
11
80.3766
21
-179.596
0
LINE
8
BLACK
6
CONTINUOUS
10
80.3766
20
-179.596
11
80.2814
21
-179.691
0
LINE
8
BLACK
6
CONTINUOUS
10
80.2814
20
-179.691
11
80.0909
21
-179.977
0
LINE
8
BLACK
6
CONTINUOUS
10
80.0909
20
-179.977
11
79.9957
21
-180.358
0
LINE
8
BLACK
6
CONTINUOUS
10
79.9957
20
-180.358
11
79.9957
21
-181.12
0
LINE
8
BLACK
6
CONTINUOUS
10
79.9957
20
-181.12
11
80.0909
21
-181.31
0
LINE
8
BLACK
6
CONTINUOUS
10
80.0909
20
-181.31
11
80.1861
21
-181.406
0
LINE
8
BLACK
6
CONTINUOUS
10
80.1861
20
-181.406
11
80.3766
21
-181.501
0
LINE
8
BLACK
6
CONTINUOUS
10
80.3766
20
-181.501
11
80.7576
21
-181.501
0
LINE
8
BLACK
6
CONTINUOUS
10
80.7576
20
-181.501
11
80.9481
21
-181.406
0
LINE
8
BLACK
6
CONTINUOUS
10
80.9481
20
-181.406
11
81.0433
21
-181.31
0
LINE
8
BLACK
6
CONTINUOUS
10
81.0433
20
-181.31
11
81.1385
21
-181.12
0
LINE
8
BLACK
6
CONTINUOUS
10
81.1385
20
-181.12
11
81.1385
21
-180.644
0
LINE
8
BLACK
6
CONTINUOUS
10
81.1385
20
-180.644
11
81.0433
21
-180.453
0
LINE
8
BLACK
6
CONTINUOUS
10
81.0433
20
-180.453
11
80.9481
21
-180.358
0
LINE
8
BLACK
6
CONTINUOUS
10
80.9481
20
-180.358
11
80.7576
21
-180.263
0
LINE
8
BLACK
6
CONTINUOUS
10
80.7576
20
-180.263
11
80.3766
21
-180.263
0
LINE
8
BLACK
6
CONTINUOUS
10
80.3766
20
-180.263
11
80.1861
21
-180.358
0
LINE
8
BLACK
6
CONTINUOUS
10
80.1861
20
-180.358
11
80.0909
21
-180.453
0
LINE
8
BLACK
6
CONTINUOUS
10
80.0909
20
-180.453
11
79.9957
21
-180.644
0
LINE
8
BLACK
6
CONTINUOUS
10
82.3766
20
-179.501
11
82.5671
21
-179.501
0
LINE
8
BLACK
6
CONTINUOUS
10
82.5671
20
-179.501
11
82.7576
21
-179.596
0
LINE
8
BLACK
6
CONTINUOUS
10
82.7576
20
-179.596
11
82.8528
21
-179.691
0
LINE
8
BLACK
6
CONTINUOUS
10
82.8528
20
-179.691
11
82.9481
21
-179.882
0
LINE
8
BLACK
6
CONTINUOUS
10
82.9481
20
-179.882
11
83.0433
21
-180.263
0
LINE
8
BLACK
6
CONTINUOUS
10
83.0433
20
-180.263
11
83.0433
21
-180.739
0
LINE
8
BLACK
6
CONTINUOUS
10
83.0433
20
-180.739
11
82.9481
21
-181.12
0
LINE
8
BLACK
6
CONTINUOUS
10
82.9481
20
-181.12
11
82.8528
21
-181.31
0
LINE
8
BLACK
6
CONTINUOUS
10
82.8528
20
-181.31
11
82.7576
21
-181.406
0
LINE
8
BLACK
6
CONTINUOUS
10
82.7576
20
-181.406
11
82.5671
21
-181.501
0
LINE
8
BLACK
6
CONTINUOUS
10
82.5671
20
-181.501
11
82.3766
21
-181.501
0
LINE
8
BLACK
6
CONTINUOUS
10
82.3766
20
-181.501
11
82.1861
21
-181.406
0
LINE
8
BLACK
6
CONTINUOUS
10
82.1861
20
-181.406
11
82.0909
21
-181.31
0
LINE
8
BLACK
6
CONTINUOUS
10
82.0909
20
-181.31
11
81.9957
21
-181.12
0
LINE
8
BLACK
6
CONTINUOUS
10
81.9957
20
-181.12
11
81.9004
21
-180.739
0
LINE
8
BLACK
6
CONTINUOUS
10
81.9004
20
-180.739
11
81.9004
21
-180.263
0
LINE
8
BLACK
6
CONTINUOUS
10
81.9004
20
-180.263
11
81.9957
21
-179.882
0
LINE
8
BLACK
6
CONTINUOUS
10
81.9957
20
-179.882
11
82.0909
21
-179.691
0
LINE
8
BLACK
6
CONTINUOUS
10
82.0909
20
-179.691
11
82.1861
21
-179.596
0
LINE
8
BLACK
6
CONTINUOUS
10
82.1861
20
-179.596
11
82.3766
21
-179.501
0
LINE
8
BLACK
6
CONTINUOUS
10
84.2814
20
-179.501
11
84.4719
21
-179.501
0
LINE
8
BLACK
6
CONTINUOUS
10
84.4719
20
-179.501
11
84.6623
21
-179.596
0
LINE
8
BLACK
6
CONTINUOUS
10
84.6623
20
-179.596
11
84.7576
21
-179.691
0
LINE
8
BLACK
6
CONTINUOUS
10
84.7576
20
-179.691
11
84.8528
21
-179.882
0
LINE
8
BLACK
6
CONTINUOUS
10
84.8528
20
-179.882
11
84.9481
21
-180.263
0
LINE
8
BLACK
6
CONTINUOUS
10
84.9481
20
-180.263
11
84.9481
21
-180.739
0
LINE
8
BLACK
6
CONTINUOUS
10
84.9481
20
-180.739
11
84.8528
21
-181.12
0
LINE
8
BLACK
6
CONTINUOUS
10
84.8528
20
-181.12
11
84.7576
21
-181.31
0
LINE
8
BLACK
6
CONTINUOUS
10
84.7576
20
-181.31
11
84.6623
21
-181.406
0
LINE
8
BLACK
6
CONTINUOUS
10
84.6623
20
-181.406
11
84.4719
21
-181.501
0
LINE
8
BLACK
6
CONTINUOUS
10
84.4719
20
-181.501
11
84.2814
21
-181.501
0
LINE
8
BLACK
6
CONTINUOUS
10
84.2814
20
-181.501
11
84.0909
21
-181.406
0
LINE
8
BLACK
6
CONTINUOUS
10
84.0909
20
-181.406
11
83.9957
21
-181.31
0
LINE
8
BLACK
6
CONTINUOUS
10
83.9957
20
-181.31
11
83.9004
21
-181.12
0
LINE
8
BLACK
6
CONTINUOUS
10
83.9004
20
-181.12
11
83.8052
21
-180.739
0
LINE
8
BLACK
6
CONTINUOUS
10
83.8052
20
-180.739
11
83.8052
21
-180.263
0
LINE
8
BLACK
6
CONTINUOUS
10
83.8052
20
-180.263
11
83.9004
21
-179.882
0
LINE
8
BLACK
6
CONTINUOUS
10
83.9004
20
-179.882
11
83.9957
21
-179.691
0
LINE
8
BLACK
6
CONTINUOUS
10
83.9957
20
-179.691
11
84.0909
21
-179.596
0
LINE
8
BLACK
6
CONTINUOUS
10
84.0909
20
-179.596
11
84.2814
21
-179.501
0
LINE
8
BLACK
6
CONTINUOUS
10
85.8052
20
-181.501
11
85.8052
21
-180.168
0
LINE
8
BLACK
6
CONTINUOUS
10
85.8052
20
-180.358
11
85.9004
21
-180.263
0
LINE
8
BLACK
6
CONTINUOUS
10
85.9004
20
-180.263
11
86.0909
21
-180.168
0
LINE
8
BLACK
6
CONTINUOUS
10
86.0909
20
-180.168
11
86.3766
21
-180.168
0
LINE
8
BLACK
6
CONTINUOUS
10
86.3766
20
-180.168
11
86.5671
21
-180.263
0
LINE
8
BLACK
6
CONTINUOUS
10
86.5671
20
-180.263
11
86.6623
21
-180.453
0
LINE
8
BLACK
6
CONTINUOUS
10
86.6623
20
-180.453
11
86.6623
21
-181.501
0
LINE
8
BLACK
6
CONTINUOUS
10
86.6623
20
-180.453
11
86.7576
21
-180.263
0
LINE
8
BLACK
6
CONTINUOUS
10
86.7576
20
-180.263
11
86.9481
21
-180.168
0
LINE
8
BLACK
6
CONTINUOUS
10
86.9481
20
-180.168
11
87.2338
21
-180.168
0
LINE
8
BLACK
6
CONTINUOUS
10
87.2338
20
-180.168
11
87.4242
21
-180.263
0
LINE
8
BLACK
6
CONTINUOUS
10
87.4242
20
-180.263
11
87.5195
21
-180.453
0
LINE
8
BLACK
6
CONTINUOUS
10
87.5195
20
-180.453
11
87.5195
21
-181.501
0
LINE
8
BLACK
6
CONTINUOUS
10
88.4719
20
-181.501
11
88.4719
21
-180.168
0
LINE
8
BLACK
6
CONTINUOUS
10
88.4719
20
-180.358
11
88.5671
21
-180.263
0
LINE
8
BLACK
6
CONTINUOUS
10
88.5671
20
-180.263
11
88.7576
21
-180.168
0
LINE
8
BLACK
6
CONTINUOUS
10
88.7576
20
-180.168
11
89.0433
21
-180.168
0
LINE
8
BLACK
6
CONTINUOUS
10
89.0433
20
-180.168
11
89.2338
21
-180.263
0
LINE
8
BLACK
6
CONTINUOUS
10
89.2338
20
-180.263
11
89.329
21
-180.453
0
LINE
8
BLACK
6
CONTINUOUS
10
89.329
20
-180.453
11
89.329
21
-181.501
0
LINE
8
BLACK
6
CONTINUOUS
10
89.329
20
-180.453
11
89.4242
21
-180.263
0
LINE
8
BLACK
6
CONTINUOUS
10
89.4242
20
-180.263
11
89.6147
21
-180.168
0
LINE
8
BLACK
6
CONTINUOUS
10
89.6147
20
-180.168
11
89.9004
21
-180.168
0
LINE
8
BLACK
6
CONTINUOUS
10
89.9004
20
-180.168
11
90.0909
21
-180.263
0
LINE
8
BLACK
6
CONTINUOUS
10
90.0909
20
-180.263
11
90.1861
21
-180.453
0
LINE
8
BLACK
6
CONTINUOUS
10
90.1861
20
-180.453
11
90.1861
21
-181.501
0
LINE
8
BLACK
6
CONTINUOUS
10
94.0909
20
-179.406
11
92.3766
21
-181.977
0
LINE
8
BLACK
6
CONTINUOUS
10
96.6623
20
-179.501
11
96.8528
21
-179.501
0
LINE
8
BLACK
6
CONTINUOUS
10
96.8528
20
-179.501
11
97.0433
21
-179.596
0
LINE
8
BLACK
6
CONTINUOUS
10
97.0433
20
-179.596
11
97.1385
21
-179.691
0
LINE
8
BLACK
6
CONTINUOUS
10
97.1385
20
-179.691
11
97.2338
21
-179.882
0
LINE
8
BLACK
6
CONTINUOUS
10
97.2338
20
-179.882
11
97.329
21
-180.263
0
LINE
8
BLACK
6
CONTINUOUS
10
97.329
20
-180.263
11
97.329
21
-180.739
0
LINE
8
BLACK
6
CONTINUOUS
10
97.329
20
-180.739
11
97.2338
21
-181.12
0
LINE
8
BLACK
6
CONTINUOUS
10
97.2338
20
-181.12
11
97.1385
21
-181.31
0
LINE
8
BLACK
6
CONTINUOUS
10
97.1385
20
-181.31
11
97.0433
21
-181.406
0
LINE
8
BLACK
6
CONTINUOUS
10
97.0433
20
-181.406
11
96.8528
21
-181.501
0
LINE
8
BLACK
6
CONTINUOUS
10
96.8528
20
-181.501
11
96.6623
21
-181.501
0
LINE
8
BLACK
6
CONTINUOUS
10
96.6623
20
-181.501
11
96.4719
21
-181.406
0
LINE
8
BLACK
6
CONTINUOUS
10
96.4719
20
-181.406
11
96.3766
21
-181.31
0
LINE
8
BLACK
6
CONTINUOUS
10
96.3766
20
-181.31
11
96.2814
21
-181.12
0
LINE
8
BLACK
6
CONTINUOUS
10
96.2814
20
-181.12
11
96.1862
21
-180.739
0
LINE
8
BLACK
6
CONTINUOUS
10
96.1862
20
-180.739
11
96.1862
21
-180.263
0
LINE
8
BLACK
6
CONTINUOUS
10
96.1862
20
-180.263
11
96.2814
21
-179.882
0
LINE
8
BLACK
6
CONTINUOUS
10
96.2814
20
-179.882
11
96.3766
21
-179.691
0
LINE
8
BLACK
6
CONTINUOUS
10
96.3766
20
-179.691
11
96.4719
21
-179.596
0
LINE
8
BLACK
6
CONTINUOUS
10
96.4719
20
-179.596
11
96.6623
21
-179.501
0
LINE
8
BLACK
6
CONTINUOUS
10
98.1862
20
-181.31
11
98.2814
21
-181.406
0
LINE
8
BLACK
6
CONTINUOUS
10
98.2814
20
-181.406
11
98.1862
21
-181.501
0
LINE
8
BLACK
6
CONTINUOUS
10
98.1862
20
-181.501
11
98.0909
21
-181.406
0
LINE
8
BLACK
6
CONTINUOUS
10
98.0909
20
-181.406
11
98.1862
21
-181.31
0
LINE
8
BLACK
6
CONTINUOUS
10
98.1862
20
-181.31
11
98.1862
21
-181.501
0
LINE
8
BLACK
6
CONTINUOUS
10
100.186
20
-181.501
11
99.0433
21
-181.501
0
LINE
8
BLACK
6
CONTINUOUS
10
99.6147
20
-181.501
11
99.6147
21
-179.501
0
LINE
8
BLACK
6
CONTINUOUS
10
99.6147
20
-179.501
11
99.4242
21
-179.787
0
LINE
8
BLACK
6
CONTINUOUS
10
99.4242
20
-179.787
11
99.2338
21
-179.977
0
LINE
8
BLACK
6
CONTINUOUS
10
99.2338
20
-179.977
11
99.0433
21
-180.072
0
LINE
8
BLACK
6
CONTINUOUS
10
101.424
20
-179.501
11
101.615
21
-179.501
0
LINE
8
BLACK
6
CONTINUOUS
10
101.615
20
-179.501
11
101.805
21
-179.596
0
LINE
8
BLACK
6
CONTINUOUS
10
101.805
20
-179.596
11
101.9
21
-179.691
0
LINE
8
BLACK
6
CONTINUOUS
10
101.9
20
-179.691
11
101.996
21
-179.882
0
LINE
8
BLACK
6
CONTINUOUS
10
101.996
20
-179.882
11
102.091
21
-180.263
0
LINE
8
BLACK
6
CONTINUOUS
10
102.091
20
-180.263
11
102.091
21
-180.739
0
LINE
8
BLACK
6
CONTINUOUS
10
102.091
20
-180.739
11
101.996
21
-181.12
0
LINE
8
BLACK
6
CONTINUOUS
10
101.996
20
-181.12
11
101.9
21
-181.31
0
LINE
8
BLACK
6
CONTINUOUS
10
101.9
20
-181.31
11
101.805
21
-181.406
0
LINE
8
BLACK
6
CONTINUOUS
10
101.805
20
-181.406
11
101.615
21
-181.501
0
LINE
8
BLACK
6
CONTINUOUS
10
101.615
20
-181.501
11
101.424
21
-181.501
0
LINE
8
BLACK
6
CONTINUOUS
10
101.424
20
-181.501
11
101.234
21
-181.406
0
LINE
8
BLACK
6
CONTINUOUS
10
101.234
20
-181.406
11
101.139
21
-181.31
0
LINE
8
BLACK
6
CONTINUOUS
10
101.139
20
-181.31
11
101.043
21
-181.12
0
LINE
8
BLACK
6
CONTINUOUS
10
101.043
20
-181.12
11
100.948
21
-180.739
0
LINE
8
BLACK
6
CONTINUOUS
10
100.948
20
-180.739
11
100.948
21
-180.263
0
LINE
8
BLACK
6
CONTINUOUS
10
100.948
20
-180.263
11
101.043
21
-179.882
0
LINE
8
BLACK
6
CONTINUOUS
10
101.043
20
-179.882
11
101.139
21
-179.691
0
LINE
8
BLACK
6
CONTINUOUS
10
101.139
20
-179.691
11
101.234
21
-179.596
0
LINE
8
BLACK
6
CONTINUOUS
10
101.234
20
-179.596
11
101.424
21
-179.501
0
LINE
8
BLACK
6
CONTINUOUS
10
102.853
20
-179.691
11
102.948
21
-179.596
0
LINE
8
BLACK
6
CONTINUOUS
10
102.948
20
-179.596
11
103.139
21
-179.501
0
LINE
8
BLACK
6
CONTINUOUS
10
103.139
20
-179.501
11
103.615
21
-179.501
0
LINE
8
BLACK
6
CONTINUOUS
10
103.615
20
-179.501
11
103.805
21
-179.596
0
LINE
8
BLACK
6
CONTINUOUS
10
103.805
20
-179.596
11
103.9
21
-179.691
0
LINE
8
BLACK
6
CONTINUOUS
10
103.9
20
-179.691
11
103.996
21
-179.882
0
LINE
8
BLACK
6
CONTINUOUS
10
103.996
20
-179.882
11
103.996
21
-180.072
0
LINE
8
BLACK
6
CONTINUOUS
10
103.996
20
-180.072
11
103.9
21
-180.358
0
LINE
8
BLACK
6
CONTINUOUS
10
103.9
20
-180.358
11
102.758
21
-181.501
0
LINE
8
BLACK
6
CONTINUOUS
10
102.758
20
-181.501
11
103.996
21
-181.501
0
LINE
8
BLACK
6
CONTINUOUS
10
105.71
20
-180.168
11
105.71
21
-181.501
0
LINE
8
BLACK
6
CONTINUOUS
10
105.234
20
-179.406
11
104.758
21
-180.834
0
LINE
8
BLACK
6
CONTINUOUS
10
104.758
20
-180.834
11
105.996
21
-180.834
0
LINE
8
BLACK
6
CONTINUOUS
10
106.662
20
-179.501
11
106.662
21
-179.882
0
LINE
8
BLACK
6
CONTINUOUS
10
107.424
20
-179.501
11
107.424
21
-179.882
0
LINE
8
BLACK
6
CONTINUOUS
10
110.377
20
-182.263
11
110.281
21
-182.168
0
LINE
8
BLACK
6
CONTINUOUS
10
110.281
20
-182.168
11
110.091
21
-181.882
0
LINE
8
BLACK
6
CONTINUOUS
10
110.091
20
-181.882
11
109.996
21
-181.691
0
LINE
8
BLACK
6
CONTINUOUS
10
109.996
20
-181.691
11
109.9
21
-181.406
0
LINE
8
BLACK
6
CONTINUOUS
10
109.9
20
-181.406
11
109.805
21
-180.929
0
LINE
8
BLACK
6
CONTINUOUS
10
109.805
20
-180.929
11
109.805
21
-180.548
0
LINE
8
BLACK
6
CONTINUOUS
10
109.805
20
-180.548
11
109.9
21
-180.072
0
LINE
8
BLACK
6
CONTINUOUS
10
109.9
20
-180.072
11
109.996
21
-179.787
0
LINE
8
BLACK
6
CONTINUOUS
10
109.996
20
-179.787
11
110.091
21
-179.596
0
LINE
8
BLACK
6
CONTINUOUS
10
110.091
20
-179.596
11
110.281
21
-179.31
0
LINE
8
BLACK
6
CONTINUOUS
10
110.281
20
-179.31
11
110.377
21
-179.215
0
LINE
8
BLACK
6
CONTINUOUS
10
111.519
20
-179.501
11
111.71
21
-179.501
0
LINE
8
BLACK
6
CONTINUOUS
10
111.71
20
-179.501
11
111.9
21
-179.596
0
LINE
8
BLACK
6
CONTINUOUS
10
111.9
20
-179.596
11
111.996
21
-179.691
0
LINE
8
BLACK
6
CONTINUOUS
10
111.996
20
-179.691
11
112.091
21
-179.882
0
LINE
8
BLACK
6
CONTINUOUS
10
112.091
20
-179.882
11
112.186
21
-180.263
0
LINE
8
BLACK
6
CONTINUOUS
10
112.186
20
-180.263
11
112.186
21
-180.739
0
LINE
8
BLACK
6
CONTINUOUS
10
112.186
20
-180.739
11
112.091
21
-181.12
0
LINE
8
BLACK
6
CONTINUOUS
10
112.091
20
-181.12
11
111.996
21
-181.31
0
LINE
8
BLACK
6
CONTINUOUS
10
111.996
20
-181.31
11
111.9
21
-181.406
0
LINE
8
BLACK
6
CONTINUOUS
10
111.9
20
-181.406
11
111.71
21
-181.501
0
LINE
8
BLACK
6
CONTINUOUS
10
111.71
20
-181.501
11
111.519
21
-181.501
0
LINE
8
BLACK
6
CONTINUOUS
10
111.519
20
-181.501
11
111.329
21
-181.406
0
LINE
8
BLACK
6
CONTINUOUS
10
111.329
20
-181.406
11
111.234
21
-181.31
0
LINE
8
BLACK
6
CONTINUOUS
10
111.234
20
-181.31
11
111.139
21
-181.12
0
LINE
8
BLACK
6
CONTINUOUS
10
111.139
20
-181.12
11
111.043
21
-180.739
0
LINE
8
BLACK
6
CONTINUOUS
10
111.043
20
-180.739
11
111.043
21
-180.263
0
LINE
8
BLACK
6
CONTINUOUS
10
111.043
20
-180.263
11
111.139
21
-179.882
0
LINE
8
BLACK
6
CONTINUOUS
10
111.139
20
-179.882
11
111.234
21
-179.691
0
LINE
8
BLACK
6
CONTINUOUS
10
111.234
20
-179.691
11
111.329
21
-179.596
0
LINE
8
BLACK
6
CONTINUOUS
10
111.329
20
-179.596
11
111.519
21
-179.501
0
LINE
8
BLACK
6
CONTINUOUS
10
114.567
20
-181.501
11
114.567
21
-179.501
0
LINE
8
BLACK
6
CONTINUOUS
10
115.424
20
-181.501
11
115.424
21
-180.453
0
LINE
8
BLACK
6
CONTINUOUS
10
115.424
20
-180.453
11
115.329
21
-180.263
0
LINE
8
BLACK
6
CONTINUOUS
10
115.329
20
-180.263
11
115.139
21
-180.168
0
LINE
8
BLACK
6
CONTINUOUS
10
115.139
20
-180.168
11
114.853
21
-180.168
0
LINE
8
BLACK
6
CONTINUOUS
10
114.853
20
-180.168
11
114.662
21
-180.263
0
LINE
8
BLACK
6
CONTINUOUS
10
114.662
20
-180.263
11
114.567
21
-180.358
0
LINE
8
BLACK
6
CONTINUOUS
10
116.662
20
-181.501
11
116.472
21
-181.406
0
LINE
8
BLACK
6
CONTINUOUS
10
116.472
20
-181.406
11
116.377
21
-181.31
0
LINE
8
BLACK
6
CONTINUOUS
10
116.377
20
-181.31
11
116.281
21
-181.12
0
LINE
8
BLACK
6
CONTINUOUS
10
116.281
20
-181.12
11
116.281
21
-180.548
0
LINE
8
BLACK
6
CONTINUOUS
10
116.281
20
-180.548
11
116.377
21
-180.358
0
LINE
8
BLACK
6
CONTINUOUS
10
116.377
20
-180.358
11
116.472
21
-180.263
0
LINE
8
BLACK
6
CONTINUOUS
10
116.472
20
-180.263
11
116.662
21
-180.168
0
LINE
8
BLACK
6
CONTINUOUS
10
116.662
20
-180.168
11
116.948
21
-180.168
0
LINE
8
BLACK
6
CONTINUOUS
10
116.948
20
-180.168
11
117.139
21
-180.263
0
LINE
8
BLACK
6
CONTINUOUS
10
117.139
20
-180.263
11
117.234
21
-180.358
0
LINE
8
BLACK
6
CONTINUOUS
10
117.234
20
-180.358
11
117.329
21
-180.548
0
LINE
8
BLACK
6
CONTINUOUS
10
117.329
20
-180.548
11
117.329
21
-181.12
0
LINE
8
BLACK
6
CONTINUOUS
10
117.329
20
-181.12
11
117.234
21
-181.31
0
LINE
8
BLACK
6
CONTINUOUS
10
117.234
20
-181.31
11
117.139
21
-181.406
0
LINE
8
BLACK
6
CONTINUOUS
10
117.139
20
-181.406
11
116.948
21
-181.501
0
LINE
8
BLACK
6
CONTINUOUS
10
116.948
20
-181.501
11
116.662
21
-181.501
0
LINE
8
BLACK
6
CONTINUOUS
10
118.472
20
-181.501
11
118.281
21
-181.406
0
LINE
8
BLACK
6
CONTINUOUS
10
118.281
20
-181.406
11
118.186
21
-181.215
0
LINE
8
BLACK
6
CONTINUOUS
10
118.186
20
-181.215
11
118.186
21
-179.501
0
LINE
8
BLACK
6
CONTINUOUS
10
119.996
20
-181.406
11
119.805
21
-181.501
0
LINE
8
BLACK
6
CONTINUOUS
10
119.805
20
-181.501
11
119.424
21
-181.501
0
LINE
8
BLACK
6
CONTINUOUS
10
119.424
20
-181.501
11
119.234
21
-181.406
0
LINE
8
BLACK
6
CONTINUOUS
10
119.234
20
-181.406
11
119.139
21
-181.215
0
LINE
8
BLACK
6
CONTINUOUS
10
119.139
20
-181.215
11
119.139
21
-180.453
0
LINE
8
BLACK
6
CONTINUOUS
10
119.139
20
-180.453
11
119.234
21
-180.263
0
LINE
8
BLACK
6
CONTINUOUS
10
119.234
20
-180.263
11
119.424
21
-180.168
0
LINE
8
BLACK
6
CONTINUOUS
10
119.424
20
-180.168
11
119.805
21
-180.168
0
LINE
8
BLACK
6
CONTINUOUS
10
119.805
20
-180.168
11
119.996
21
-180.263
0
LINE
8
BLACK
6
CONTINUOUS
10
119.996
20
-180.263
11
120.091
21
-180.453
0
LINE
8
BLACK
6
CONTINUOUS
10
120.091
20
-180.453
11
120.091
21
-180.644
0
LINE
8
BLACK
6
CONTINUOUS
10
120.091
20
-180.644
11
119.139
21
-180.834
0
LINE
8
BLACK
6
CONTINUOUS
10
120.853
20
-181.406
11
121.043
21
-181.501
0
LINE
8
BLACK
6
CONTINUOUS
10
121.043
20
-181.501
11
121.424
21
-181.501
0
LINE
8
BLACK
6
CONTINUOUS
10
121.424
20
-181.501
11
121.615
21
-181.406
0
LINE
8
BLACK
6
CONTINUOUS
10
121.615
20
-181.406
11
121.71
21
-181.215
0
LINE
8
BLACK
6
CONTINUOUS
10
121.71
20
-181.215
11
121.71
21
-181.12
0
LINE
8
BLACK
6
CONTINUOUS
10
121.71
20
-181.12
11
121.615
21
-180.929
0
LINE
8
BLACK
6
CONTINUOUS
10
121.615
20
-180.929
11
121.424
21
-180.834
0
LINE
8
BLACK
6
CONTINUOUS
10
121.424
20
-180.834
11
121.139
21
-180.834
0
LINE
8
BLACK
6
CONTINUOUS
10
121.139
20
-180.834
11
120.948
21
-180.739
0
LINE
8
BLACK
6
CONTINUOUS
10
120.948
20
-180.739
11
120.853
21
-180.548
0
LINE
8
BLACK
6
CONTINUOUS
10
120.853
20
-180.548
11
120.853
21
-180.453
0
LINE
8
BLACK
6
CONTINUOUS
10
120.853
20
-180.453
11
120.948
21
-180.263
0
LINE
8
BLACK
6
CONTINUOUS
10
120.948
20
-180.263
11
121.139
21
-180.168
0
LINE
8
BLACK
6
CONTINUOUS
10
121.139
20
-180.168
11
121.424
21
-180.168
0
LINE
8
BLACK
6
CONTINUOUS
10
121.424
20
-180.168
11
121.615
21
-180.263
0
LINE
8
BLACK
6
CONTINUOUS
10
124.091
20
-180.739
11
125.615
21
-180.739
0
LINE
8
BLACK
6
CONTINUOUS
10
124.853
20
-181.501
11
124.853
21
-179.977
0
LINE
8
BLACK
6
CONTINUOUS
10
127.996
20
-179.691
11
128.091
21
-179.596
0
LINE
8
BLACK
6
CONTINUOUS
10
128.091
20
-179.596
11
128.281
21
-179.501
0
LINE
8
BLACK
6
CONTINUOUS
10
128.281
20
-179.501
11
128.758
21
-179.501
0
LINE
8
BLACK
6
CONTINUOUS
10
128.758
20
-179.501
11
128.948
21
-179.596
0
LINE
8
BLACK
6
CONTINUOUS
10
128.948
20
-179.596
11
129.043
21
-179.691
0
LINE
8
BLACK
6
CONTINUOUS
10
129.043
20
-179.691
11
129.139
21
-179.882
0
LINE
8
BLACK
6
CONTINUOUS
10
129.139
20
-179.882
11
129.139
21
-180.072
0
LINE
8
BLACK
6
CONTINUOUS
10
129.139
20
-180.072
11
129.043
21
-180.358
0
LINE
8
BLACK
6
CONTINUOUS
10
129.043
20
-180.358
11
127.9
21
-181.501
0
LINE
8
BLACK
6
CONTINUOUS
10
127.9
20
-181.501
11
129.139
21
-181.501
0
LINE
8
BLACK
6
CONTINUOUS
10
131.424
20
-181.406
11
131.615
21
-181.501
0
LINE
8
BLACK
6
CONTINUOUS
10
131.615
20
-181.501
11
131.996
21
-181.501
0
LINE
8
BLACK
6
CONTINUOUS
10
131.996
20
-181.501
11
132.186
21
-181.406
0
LINE
8
BLACK
6
CONTINUOUS
10
132.186
20
-181.406
11
132.281
21
-181.215
0
LINE
8
BLACK
6
CONTINUOUS
10
132.281
20
-181.215
11
132.281
21
-181.12
0
LINE
8
BLACK
6
CONTINUOUS
10
132.281
20
-181.12
11
132.186
21
-180.929
0
LINE
8
BLACK
6
CONTINUOUS
10
132.186
20
-180.929
11
131.996
21
-180.834
0
LINE
8
BLACK
6
CONTINUOUS
10
131.996
20
-180.834
11
131.71
21
-180.834
0
LINE
8
BLACK
6
CONTINUOUS
10
131.71
20
-180.834
11
131.519
21
-180.739
0
LINE
8
BLACK
6
CONTINUOUS
10
131.519
20
-180.739
11
131.424
21
-180.548
0
LINE
8
BLACK
6
CONTINUOUS
10
131.424
20
-180.548
11
131.424
21
-180.453
0
LINE
8
BLACK
6
CONTINUOUS
10
131.424
20
-180.453
11
131.519
21
-180.263
0
LINE
8
BLACK
6
CONTINUOUS
10
131.519
20
-180.263
11
131.71
21
-180.168
0
LINE
8
BLACK
6
CONTINUOUS
10
131.71
20
-180.168
11
131.996
21
-180.168
0
LINE
8
BLACK
6
CONTINUOUS
10
131.996
20
-180.168
11
132.186
21
-180.263
0
LINE
8
BLACK
6
CONTINUOUS
10
133.424
20
-181.501
11
133.234
21
-181.406
0
LINE
8
BLACK
6
CONTINUOUS
10
133.234
20
-181.406
11
133.139
21
-181.215
0
LINE
8
BLACK
6
CONTINUOUS
10
133.139
20
-181.215
11
133.139
21
-179.501
0
LINE
8
BLACK
6
CONTINUOUS
10
134.472
20
-181.501
11
134.281
21
-181.406
0
LINE
8
BLACK
6
CONTINUOUS
10
134.281
20
-181.406
11
134.186
21
-181.31
0
LINE
8
BLACK
6
CONTINUOUS
10
134.186
20
-181.31
11
134.091
21
-181.12
0
LINE
8
BLACK
6
CONTINUOUS
10
134.091
20
-181.12
11
134.091
21
-180.548
0
LINE
8
BLACK
6
CONTINUOUS
10
134.091
20
-180.548
11
134.186
21
-180.358
0
LINE
8
BLACK
6
CONTINUOUS
10
134.186
20
-180.358
11
134.281
21
-180.263
0
LINE
8
BLACK
6
CONTINUOUS
10
134.281
20
-180.263
11
134.472
21
-180.168
0
LINE
8
BLACK
6
CONTINUOUS
10
134.472
20
-180.168
11
134.758
21
-180.168
0
LINE
8
BLACK
6
CONTINUOUS
10
134.758
20
-180.168
11
134.948
21
-180.263
0
LINE
8
BLACK
6
CONTINUOUS
10
134.948
20
-180.263
11
135.043
21
-180.358
0
LINE
8
BLACK
6
CONTINUOUS
10
135.043
20
-180.358
11
135.139
21
-180.548
0
LINE
8
BLACK
6
CONTINUOUS
10
135.139
20
-180.548
11
135.139
21
-181.12
0
LINE
8
BLACK
6
CONTINUOUS
10
135.139
20
-181.12
11
135.043
21
-181.31
0
LINE
8
BLACK
6
CONTINUOUS
10
135.043
20
-181.31
11
134.948
21
-181.406
0
LINE
8
BLACK
6
CONTINUOUS
10
134.948
20
-181.406
11
134.758
21
-181.501
0
LINE
8
BLACK
6
CONTINUOUS
10
134.758
20
-181.501
11
134.472
21
-181.501
0
LINE
8
BLACK
6
CONTINUOUS
10
135.71
20
-180.168
11
136.472
21
-180.168
0
LINE
8
BLACK
6
CONTINUOUS
10
135.996
20
-179.501
11
135.996
21
-181.215
0
LINE
8
BLACK
6
CONTINUOUS
10
135.996
20
-181.215
11
136.091
21
-181.406
0
LINE
8
BLACK
6
CONTINUOUS
10
136.091
20
-181.406
11
136.281
21
-181.501
0
LINE
8
BLACK
6
CONTINUOUS
10
136.281
20
-181.501
11
136.472
21
-181.501
0
LINE
8
BLACK
6
CONTINUOUS
10
137.043
20
-181.406
11
137.234
21
-181.501
0
LINE
8
BLACK
6
CONTINUOUS
10
137.234
20
-181.501
11
137.615
21
-181.501
0
LINE
8
BLACK
6
CONTINUOUS
10
137.615
20
-181.501
11
137.805
21
-181.406
0
LINE
8
BLACK
6
CONTINUOUS
10
137.805
20
-181.406
11
137.9
21
-181.215
0
LINE
8
BLACK
6
CONTINUOUS
10
137.9
20
-181.215
11
137.9
21
-181.12
0
LINE
8
BLACK
6
CONTINUOUS
10
137.9
20
-181.12
11
137.805
21
-180.929
0
LINE
8
BLACK
6
CONTINUOUS
10
137.805
20
-180.929
11
137.615
21
-180.834
0
LINE
8
BLACK
6
CONTINUOUS
10
137.615
20
-180.834
11
137.329
21
-180.834
0
LINE
8
BLACK
6
CONTINUOUS
10
137.329
20
-180.834
11
137.139
21
-180.739
0
LINE
8
BLACK
6
CONTINUOUS
10
137.139
20
-180.739
11
137.043
21
-180.548
0
LINE
8
BLACK
6
CONTINUOUS
10
137.043
20
-180.548
11
137.043
21
-180.453
0
LINE
8
BLACK
6
CONTINUOUS
10
137.043
20
-180.453
11
137.139
21
-180.263
0
LINE
8
BLACK
6
CONTINUOUS
10
137.139
20
-180.263
11
137.329
21
-180.168
0
LINE
8
BLACK
6
CONTINUOUS
10
137.329
20
-180.168
11
137.615
21
-180.168
0
LINE
8
BLACK
6
CONTINUOUS
10
137.615
20
-180.168
11
137.805
21
-180.263
0
LINE
8
BLACK
6
CONTINUOUS
10
138.567
20
-182.263
11
138.662
21
-182.168
0
LINE
8
BLACK
6
CONTINUOUS
10
138.662
20
-182.168
11
138.853
21
-181.882
0
LINE
8
BLACK
6
CONTINUOUS
10
138.853
20
-181.882
11
138.948
21
-181.691
0
LINE
8
BLACK
6
CONTINUOUS
10
138.948
20
-181.691
11
139.043
21
-181.406
0
LINE
8
BLACK
6
CONTINUOUS
10
139.043
20
-181.406
11
139.139
21
-180.929
0
LINE
8
BLACK
6
CONTINUOUS
10
139.139
20
-180.929
11
139.139
21
-180.548
0
LINE
8
BLACK
6
CONTINUOUS
10
139.139
20
-180.548
11
139.043
21
-180.072
0
LINE
8
BLACK
6
CONTINUOUS
10
139.043
20
-180.072
11
138.948
21
-179.787
0
LINE
8
BLACK
6
CONTINUOUS
10
138.948
20
-179.787
11
138.853
21
-179.596
0
LINE
8
BLACK
6
CONTINUOUS
10
138.853
20
-179.596
11
138.662
21
-179.31
0
LINE
8
BLACK
6
CONTINUOUS
10
138.662
20
-179.31
11
138.567
21
-179.215
  0
ENDSEC
  0
EOF
